G04 #@! TF.FileFunction,Legend,Bot*
%FSLAX46Y46*%
G04 Gerber Fmt 4.6, Leading zero omitted, Abs format (unit mm)*
G04 Created by KiCad (PCBNEW 4.0.0-2.201512091501+6195~38~ubuntu14.04.1-stable) date Wed 16 Dec 2015 16:04:53 GMT*
%MOMM*%
G01*
G04 APERTURE LIST*
%ADD10C,0.100000*%
%ADD11C,0.120000*%
%ADD12C,0.200000*%
%ADD13C,0.150000*%
G04 APERTURE END LIST*
D10*
D11*
X118592382Y-103968571D02*
X118287620Y-103968571D01*
X118478096Y-103701905D02*
X118478096Y-104387619D01*
X118440001Y-104463810D01*
X118363810Y-104501905D01*
X118287620Y-104501905D01*
X117906667Y-104501905D02*
X117982858Y-104463810D01*
X118020953Y-104425714D01*
X118059048Y-104349524D01*
X118059048Y-104120952D01*
X118020953Y-104044762D01*
X117982858Y-104006667D01*
X117906667Y-103968571D01*
X117792381Y-103968571D01*
X117716191Y-104006667D01*
X117678096Y-104044762D01*
X117640000Y-104120952D01*
X117640000Y-104349524D01*
X117678096Y-104425714D01*
X117716191Y-104463810D01*
X117792381Y-104501905D01*
X117906667Y-104501905D01*
X117297143Y-103968571D02*
X117297143Y-104768571D01*
X117297143Y-104006667D02*
X117220952Y-103968571D01*
X117068571Y-103968571D01*
X116992381Y-104006667D01*
X116954286Y-104044762D01*
X116916190Y-104120952D01*
X116916190Y-104349524D01*
X116954286Y-104425714D01*
X116992381Y-104463810D01*
X117068571Y-104501905D01*
X117220952Y-104501905D01*
X117297143Y-104463810D01*
X116573333Y-104425714D02*
X116535238Y-104463810D01*
X116573333Y-104501905D01*
X116611428Y-104463810D01*
X116573333Y-104425714D01*
X116573333Y-104501905D01*
X116573333Y-104006667D02*
X116535238Y-104044762D01*
X116573333Y-104082857D01*
X116611428Y-104044762D01*
X116573333Y-104006667D01*
X116573333Y-104082857D01*
X115240000Y-103968571D02*
X115240000Y-104501905D01*
X115430476Y-103663810D02*
X115620952Y-104235238D01*
X115125714Y-104235238D01*
X119601906Y-101453905D02*
X119601906Y-100653905D01*
X119601906Y-100958667D02*
X119525715Y-100920571D01*
X119373334Y-100920571D01*
X119297144Y-100958667D01*
X119259049Y-100996762D01*
X119220953Y-101072952D01*
X119220953Y-101301524D01*
X119259049Y-101377714D01*
X119297144Y-101415810D01*
X119373334Y-101453905D01*
X119525715Y-101453905D01*
X119601906Y-101415810D01*
X118763810Y-101453905D02*
X118840001Y-101415810D01*
X118878096Y-101377714D01*
X118916191Y-101301524D01*
X118916191Y-101072952D01*
X118878096Y-100996762D01*
X118840001Y-100958667D01*
X118763810Y-100920571D01*
X118649524Y-100920571D01*
X118573334Y-100958667D01*
X118535239Y-100996762D01*
X118497143Y-101072952D01*
X118497143Y-101301524D01*
X118535239Y-101377714D01*
X118573334Y-101415810D01*
X118649524Y-101453905D01*
X118763810Y-101453905D01*
X118268572Y-100920571D02*
X117963810Y-100920571D01*
X118154286Y-100653905D02*
X118154286Y-101339619D01*
X118116191Y-101415810D01*
X118040000Y-101453905D01*
X117963810Y-101453905D01*
X117811429Y-100920571D02*
X117506667Y-100920571D01*
X117697143Y-100653905D02*
X117697143Y-101339619D01*
X117659048Y-101415810D01*
X117582857Y-101453905D01*
X117506667Y-101453905D01*
X117125714Y-101453905D02*
X117201905Y-101415810D01*
X117240000Y-101377714D01*
X117278095Y-101301524D01*
X117278095Y-101072952D01*
X117240000Y-100996762D01*
X117201905Y-100958667D01*
X117125714Y-100920571D01*
X117011428Y-100920571D01*
X116935238Y-100958667D01*
X116897143Y-100996762D01*
X116859047Y-101072952D01*
X116859047Y-101301524D01*
X116897143Y-101377714D01*
X116935238Y-101415810D01*
X117011428Y-101453905D01*
X117125714Y-101453905D01*
X116516190Y-101453905D02*
X116516190Y-100920571D01*
X116516190Y-100996762D02*
X116478095Y-100958667D01*
X116401904Y-100920571D01*
X116287618Y-100920571D01*
X116211428Y-100958667D01*
X116173333Y-101034857D01*
X116173333Y-101453905D01*
X116173333Y-101034857D02*
X116135237Y-100958667D01*
X116059047Y-100920571D01*
X115944761Y-100920571D01*
X115868571Y-100958667D01*
X115830476Y-101034857D01*
X115830476Y-101453905D01*
X115449523Y-101377714D02*
X115411428Y-101415810D01*
X115449523Y-101453905D01*
X115487618Y-101415810D01*
X115449523Y-101377714D01*
X115449523Y-101453905D01*
X115449523Y-100958667D02*
X115411428Y-100996762D01*
X115449523Y-101034857D01*
X115487618Y-100996762D01*
X115449523Y-100958667D01*
X115449523Y-101034857D01*
X114497142Y-100730095D02*
X114459047Y-100692000D01*
X114382856Y-100653905D01*
X114192380Y-100653905D01*
X114116190Y-100692000D01*
X114078094Y-100730095D01*
X114039999Y-100806286D01*
X114039999Y-100882476D01*
X114078094Y-100996762D01*
X114535237Y-101453905D01*
X114039999Y-101453905D01*
X107416382Y-103968571D02*
X107111620Y-103968571D01*
X107302096Y-103701905D02*
X107302096Y-104387619D01*
X107264001Y-104463810D01*
X107187810Y-104501905D01*
X107111620Y-104501905D01*
X106730667Y-104501905D02*
X106806858Y-104463810D01*
X106844953Y-104425714D01*
X106883048Y-104349524D01*
X106883048Y-104120952D01*
X106844953Y-104044762D01*
X106806858Y-104006667D01*
X106730667Y-103968571D01*
X106616381Y-103968571D01*
X106540191Y-104006667D01*
X106502096Y-104044762D01*
X106464000Y-104120952D01*
X106464000Y-104349524D01*
X106502096Y-104425714D01*
X106540191Y-104463810D01*
X106616381Y-104501905D01*
X106730667Y-104501905D01*
X106121143Y-103968571D02*
X106121143Y-104768571D01*
X106121143Y-104006667D02*
X106044952Y-103968571D01*
X105892571Y-103968571D01*
X105816381Y-104006667D01*
X105778286Y-104044762D01*
X105740190Y-104120952D01*
X105740190Y-104349524D01*
X105778286Y-104425714D01*
X105816381Y-104463810D01*
X105892571Y-104501905D01*
X106044952Y-104501905D01*
X106121143Y-104463810D01*
X105397333Y-104425714D02*
X105359238Y-104463810D01*
X105397333Y-104501905D01*
X105435428Y-104463810D01*
X105397333Y-104425714D01*
X105397333Y-104501905D01*
X105397333Y-104006667D02*
X105359238Y-104044762D01*
X105397333Y-104082857D01*
X105435428Y-104044762D01*
X105397333Y-104006667D01*
X105397333Y-104082857D01*
X104483047Y-103701905D02*
X103987809Y-103701905D01*
X104254476Y-104006667D01*
X104140190Y-104006667D01*
X104064000Y-104044762D01*
X104025904Y-104082857D01*
X103987809Y-104159048D01*
X103987809Y-104349524D01*
X104025904Y-104425714D01*
X104064000Y-104463810D01*
X104140190Y-104501905D01*
X104368762Y-104501905D01*
X104444952Y-104463810D01*
X104483047Y-104425714D01*
X108425906Y-101453905D02*
X108425906Y-100653905D01*
X108425906Y-100958667D02*
X108349715Y-100920571D01*
X108197334Y-100920571D01*
X108121144Y-100958667D01*
X108083049Y-100996762D01*
X108044953Y-101072952D01*
X108044953Y-101301524D01*
X108083049Y-101377714D01*
X108121144Y-101415810D01*
X108197334Y-101453905D01*
X108349715Y-101453905D01*
X108425906Y-101415810D01*
X107587810Y-101453905D02*
X107664001Y-101415810D01*
X107702096Y-101377714D01*
X107740191Y-101301524D01*
X107740191Y-101072952D01*
X107702096Y-100996762D01*
X107664001Y-100958667D01*
X107587810Y-100920571D01*
X107473524Y-100920571D01*
X107397334Y-100958667D01*
X107359239Y-100996762D01*
X107321143Y-101072952D01*
X107321143Y-101301524D01*
X107359239Y-101377714D01*
X107397334Y-101415810D01*
X107473524Y-101453905D01*
X107587810Y-101453905D01*
X107092572Y-100920571D02*
X106787810Y-100920571D01*
X106978286Y-100653905D02*
X106978286Y-101339619D01*
X106940191Y-101415810D01*
X106864000Y-101453905D01*
X106787810Y-101453905D01*
X106635429Y-100920571D02*
X106330667Y-100920571D01*
X106521143Y-100653905D02*
X106521143Y-101339619D01*
X106483048Y-101415810D01*
X106406857Y-101453905D01*
X106330667Y-101453905D01*
X105949714Y-101453905D02*
X106025905Y-101415810D01*
X106064000Y-101377714D01*
X106102095Y-101301524D01*
X106102095Y-101072952D01*
X106064000Y-100996762D01*
X106025905Y-100958667D01*
X105949714Y-100920571D01*
X105835428Y-100920571D01*
X105759238Y-100958667D01*
X105721143Y-100996762D01*
X105683047Y-101072952D01*
X105683047Y-101301524D01*
X105721143Y-101377714D01*
X105759238Y-101415810D01*
X105835428Y-101453905D01*
X105949714Y-101453905D01*
X105340190Y-101453905D02*
X105340190Y-100920571D01*
X105340190Y-100996762D02*
X105302095Y-100958667D01*
X105225904Y-100920571D01*
X105111618Y-100920571D01*
X105035428Y-100958667D01*
X104997333Y-101034857D01*
X104997333Y-101453905D01*
X104997333Y-101034857D02*
X104959237Y-100958667D01*
X104883047Y-100920571D01*
X104768761Y-100920571D01*
X104692571Y-100958667D01*
X104654476Y-101034857D01*
X104654476Y-101453905D01*
X104273523Y-101377714D02*
X104235428Y-101415810D01*
X104273523Y-101453905D01*
X104311618Y-101415810D01*
X104273523Y-101377714D01*
X104273523Y-101453905D01*
X104273523Y-100958667D02*
X104235428Y-100996762D01*
X104273523Y-101034857D01*
X104311618Y-100996762D01*
X104273523Y-100958667D01*
X104273523Y-101034857D01*
X102863999Y-101453905D02*
X103321142Y-101453905D01*
X103092571Y-101453905D02*
X103092571Y-100653905D01*
X103168761Y-100768190D01*
X103244952Y-100844381D01*
X103321142Y-100882476D01*
X144500382Y-101062571D02*
X144195620Y-101062571D01*
X144386096Y-100795905D02*
X144386096Y-101481619D01*
X144348001Y-101557810D01*
X144271810Y-101595905D01*
X144195620Y-101595905D01*
X143814667Y-101595905D02*
X143890858Y-101557810D01*
X143928953Y-101519714D01*
X143967048Y-101443524D01*
X143967048Y-101214952D01*
X143928953Y-101138762D01*
X143890858Y-101100667D01*
X143814667Y-101062571D01*
X143700381Y-101062571D01*
X143624191Y-101100667D01*
X143586096Y-101138762D01*
X143548000Y-101214952D01*
X143548000Y-101443524D01*
X143586096Y-101519714D01*
X143624191Y-101557810D01*
X143700381Y-101595905D01*
X143814667Y-101595905D01*
X143205143Y-101062571D02*
X143205143Y-101862571D01*
X143205143Y-101100667D02*
X143128952Y-101062571D01*
X142976571Y-101062571D01*
X142900381Y-101100667D01*
X142862286Y-101138762D01*
X142824190Y-101214952D01*
X142824190Y-101443524D01*
X142862286Y-101519714D01*
X142900381Y-101557810D01*
X142976571Y-101595905D01*
X143128952Y-101595905D01*
X143205143Y-101557810D01*
X142481333Y-101519714D02*
X142443238Y-101557810D01*
X142481333Y-101595905D01*
X142519428Y-101557810D01*
X142481333Y-101519714D01*
X142481333Y-101595905D01*
X142481333Y-101100667D02*
X142443238Y-101138762D01*
X142481333Y-101176857D01*
X142519428Y-101138762D01*
X142481333Y-101100667D01*
X142481333Y-101176857D01*
X141567047Y-100795905D02*
X141071809Y-100795905D01*
X141338476Y-101100667D01*
X141224190Y-101100667D01*
X141148000Y-101138762D01*
X141109904Y-101176857D01*
X141071809Y-101253048D01*
X141071809Y-101443524D01*
X141109904Y-101519714D01*
X141148000Y-101557810D01*
X141224190Y-101595905D01*
X141452762Y-101595905D01*
X141528952Y-101557810D01*
X141567047Y-101519714D01*
X145509906Y-102835905D02*
X145509906Y-102035905D01*
X145509906Y-102340667D02*
X145433715Y-102302571D01*
X145281334Y-102302571D01*
X145205144Y-102340667D01*
X145167049Y-102378762D01*
X145128953Y-102454952D01*
X145128953Y-102683524D01*
X145167049Y-102759714D01*
X145205144Y-102797810D01*
X145281334Y-102835905D01*
X145433715Y-102835905D01*
X145509906Y-102797810D01*
X144671810Y-102835905D02*
X144748001Y-102797810D01*
X144786096Y-102759714D01*
X144824191Y-102683524D01*
X144824191Y-102454952D01*
X144786096Y-102378762D01*
X144748001Y-102340667D01*
X144671810Y-102302571D01*
X144557524Y-102302571D01*
X144481334Y-102340667D01*
X144443239Y-102378762D01*
X144405143Y-102454952D01*
X144405143Y-102683524D01*
X144443239Y-102759714D01*
X144481334Y-102797810D01*
X144557524Y-102835905D01*
X144671810Y-102835905D01*
X144176572Y-102302571D02*
X143871810Y-102302571D01*
X144062286Y-102035905D02*
X144062286Y-102721619D01*
X144024191Y-102797810D01*
X143948000Y-102835905D01*
X143871810Y-102835905D01*
X143719429Y-102302571D02*
X143414667Y-102302571D01*
X143605143Y-102035905D02*
X143605143Y-102721619D01*
X143567048Y-102797810D01*
X143490857Y-102835905D01*
X143414667Y-102835905D01*
X143033714Y-102835905D02*
X143109905Y-102797810D01*
X143148000Y-102759714D01*
X143186095Y-102683524D01*
X143186095Y-102454952D01*
X143148000Y-102378762D01*
X143109905Y-102340667D01*
X143033714Y-102302571D01*
X142919428Y-102302571D01*
X142843238Y-102340667D01*
X142805143Y-102378762D01*
X142767047Y-102454952D01*
X142767047Y-102683524D01*
X142805143Y-102759714D01*
X142843238Y-102797810D01*
X142919428Y-102835905D01*
X143033714Y-102835905D01*
X142424190Y-102835905D02*
X142424190Y-102302571D01*
X142424190Y-102378762D02*
X142386095Y-102340667D01*
X142309904Y-102302571D01*
X142195618Y-102302571D01*
X142119428Y-102340667D01*
X142081333Y-102416857D01*
X142081333Y-102835905D01*
X142081333Y-102416857D02*
X142043237Y-102340667D01*
X141967047Y-102302571D01*
X141852761Y-102302571D01*
X141776571Y-102340667D01*
X141738476Y-102416857D01*
X141738476Y-102835905D01*
X141357523Y-102759714D02*
X141319428Y-102797810D01*
X141357523Y-102835905D01*
X141395618Y-102797810D01*
X141357523Y-102759714D01*
X141357523Y-102835905D01*
X141357523Y-102340667D02*
X141319428Y-102378762D01*
X141357523Y-102416857D01*
X141395618Y-102378762D01*
X141357523Y-102340667D01*
X141357523Y-102416857D01*
X139947999Y-102835905D02*
X140405142Y-102835905D01*
X140176571Y-102835905D02*
X140176571Y-102035905D01*
X140252761Y-102150190D01*
X140328952Y-102226381D01*
X140405142Y-102264476D01*
X130784382Y-101062571D02*
X130479620Y-101062571D01*
X130670096Y-100795905D02*
X130670096Y-101481619D01*
X130632001Y-101557810D01*
X130555810Y-101595905D01*
X130479620Y-101595905D01*
X130098667Y-101595905D02*
X130174858Y-101557810D01*
X130212953Y-101519714D01*
X130251048Y-101443524D01*
X130251048Y-101214952D01*
X130212953Y-101138762D01*
X130174858Y-101100667D01*
X130098667Y-101062571D01*
X129984381Y-101062571D01*
X129908191Y-101100667D01*
X129870096Y-101138762D01*
X129832000Y-101214952D01*
X129832000Y-101443524D01*
X129870096Y-101519714D01*
X129908191Y-101557810D01*
X129984381Y-101595905D01*
X130098667Y-101595905D01*
X129489143Y-101062571D02*
X129489143Y-101862571D01*
X129489143Y-101100667D02*
X129412952Y-101062571D01*
X129260571Y-101062571D01*
X129184381Y-101100667D01*
X129146286Y-101138762D01*
X129108190Y-101214952D01*
X129108190Y-101443524D01*
X129146286Y-101519714D01*
X129184381Y-101557810D01*
X129260571Y-101595905D01*
X129412952Y-101595905D01*
X129489143Y-101557810D01*
X128765333Y-101519714D02*
X128727238Y-101557810D01*
X128765333Y-101595905D01*
X128803428Y-101557810D01*
X128765333Y-101519714D01*
X128765333Y-101595905D01*
X128765333Y-101100667D02*
X128727238Y-101138762D01*
X128765333Y-101176857D01*
X128803428Y-101138762D01*
X128765333Y-101100667D01*
X128765333Y-101176857D01*
X127432000Y-101062571D02*
X127432000Y-101595905D01*
X127622476Y-100757810D02*
X127812952Y-101329238D01*
X127317714Y-101329238D01*
X131793906Y-102835905D02*
X131793906Y-102035905D01*
X131793906Y-102340667D02*
X131717715Y-102302571D01*
X131565334Y-102302571D01*
X131489144Y-102340667D01*
X131451049Y-102378762D01*
X131412953Y-102454952D01*
X131412953Y-102683524D01*
X131451049Y-102759714D01*
X131489144Y-102797810D01*
X131565334Y-102835905D01*
X131717715Y-102835905D01*
X131793906Y-102797810D01*
X130955810Y-102835905D02*
X131032001Y-102797810D01*
X131070096Y-102759714D01*
X131108191Y-102683524D01*
X131108191Y-102454952D01*
X131070096Y-102378762D01*
X131032001Y-102340667D01*
X130955810Y-102302571D01*
X130841524Y-102302571D01*
X130765334Y-102340667D01*
X130727239Y-102378762D01*
X130689143Y-102454952D01*
X130689143Y-102683524D01*
X130727239Y-102759714D01*
X130765334Y-102797810D01*
X130841524Y-102835905D01*
X130955810Y-102835905D01*
X130460572Y-102302571D02*
X130155810Y-102302571D01*
X130346286Y-102035905D02*
X130346286Y-102721619D01*
X130308191Y-102797810D01*
X130232000Y-102835905D01*
X130155810Y-102835905D01*
X130003429Y-102302571D02*
X129698667Y-102302571D01*
X129889143Y-102035905D02*
X129889143Y-102721619D01*
X129851048Y-102797810D01*
X129774857Y-102835905D01*
X129698667Y-102835905D01*
X129317714Y-102835905D02*
X129393905Y-102797810D01*
X129432000Y-102759714D01*
X129470095Y-102683524D01*
X129470095Y-102454952D01*
X129432000Y-102378762D01*
X129393905Y-102340667D01*
X129317714Y-102302571D01*
X129203428Y-102302571D01*
X129127238Y-102340667D01*
X129089143Y-102378762D01*
X129051047Y-102454952D01*
X129051047Y-102683524D01*
X129089143Y-102759714D01*
X129127238Y-102797810D01*
X129203428Y-102835905D01*
X129317714Y-102835905D01*
X128708190Y-102835905D02*
X128708190Y-102302571D01*
X128708190Y-102378762D02*
X128670095Y-102340667D01*
X128593904Y-102302571D01*
X128479618Y-102302571D01*
X128403428Y-102340667D01*
X128365333Y-102416857D01*
X128365333Y-102835905D01*
X128365333Y-102416857D02*
X128327237Y-102340667D01*
X128251047Y-102302571D01*
X128136761Y-102302571D01*
X128060571Y-102340667D01*
X128022476Y-102416857D01*
X128022476Y-102835905D01*
X127641523Y-102759714D02*
X127603428Y-102797810D01*
X127641523Y-102835905D01*
X127679618Y-102797810D01*
X127641523Y-102759714D01*
X127641523Y-102835905D01*
X127641523Y-102340667D02*
X127603428Y-102378762D01*
X127641523Y-102416857D01*
X127679618Y-102378762D01*
X127641523Y-102340667D01*
X127641523Y-102416857D01*
X126689142Y-102112095D02*
X126651047Y-102074000D01*
X126574856Y-102035905D01*
X126384380Y-102035905D01*
X126308190Y-102074000D01*
X126270094Y-102112095D01*
X126231999Y-102188286D01*
X126231999Y-102264476D01*
X126270094Y-102378762D01*
X126727237Y-102835905D01*
X126231999Y-102835905D01*
X142068571Y-130772475D02*
X142068571Y-131077237D01*
X141801905Y-130886761D02*
X142487619Y-130886761D01*
X142563810Y-130924856D01*
X142601905Y-131001047D01*
X142601905Y-131077237D01*
X142601905Y-131458190D02*
X142563810Y-131381999D01*
X142525714Y-131343904D01*
X142449524Y-131305809D01*
X142220952Y-131305809D01*
X142144762Y-131343904D01*
X142106667Y-131381999D01*
X142068571Y-131458190D01*
X142068571Y-131572476D01*
X142106667Y-131648666D01*
X142144762Y-131686761D01*
X142220952Y-131724857D01*
X142449524Y-131724857D01*
X142525714Y-131686761D01*
X142563810Y-131648666D01*
X142601905Y-131572476D01*
X142601905Y-131458190D01*
X142068571Y-132067714D02*
X142868571Y-132067714D01*
X142106667Y-132067714D02*
X142068571Y-132143905D01*
X142068571Y-132296286D01*
X142106667Y-132372476D01*
X142144762Y-132410571D01*
X142220952Y-132448667D01*
X142449524Y-132448667D01*
X142525714Y-132410571D01*
X142563810Y-132372476D01*
X142601905Y-132296286D01*
X142601905Y-132143905D01*
X142563810Y-132067714D01*
X142525714Y-132791524D02*
X142563810Y-132829619D01*
X142601905Y-132791524D01*
X142563810Y-132753429D01*
X142525714Y-132791524D01*
X142601905Y-132791524D01*
X142106667Y-132791524D02*
X142144762Y-132829619D01*
X142182857Y-132791524D01*
X142144762Y-132753429D01*
X142106667Y-132791524D01*
X142182857Y-132791524D01*
X142068571Y-133782000D02*
X142868571Y-133782000D01*
X142106667Y-133782000D02*
X142068571Y-133858191D01*
X142068571Y-134010572D01*
X142106667Y-134086762D01*
X142144762Y-134124857D01*
X142220952Y-134162953D01*
X142449524Y-134162953D01*
X142525714Y-134124857D01*
X142563810Y-134086762D01*
X142601905Y-134010572D01*
X142601905Y-133858191D01*
X142563810Y-133782000D01*
X142601905Y-134505810D02*
X142068571Y-134505810D01*
X141801905Y-134505810D02*
X141840000Y-134467715D01*
X141878095Y-134505810D01*
X141840000Y-134543905D01*
X141801905Y-134505810D01*
X141878095Y-134505810D01*
X142068571Y-134886762D02*
X142601905Y-134886762D01*
X142144762Y-134886762D02*
X142106667Y-134924857D01*
X142068571Y-135001048D01*
X142068571Y-135115334D01*
X142106667Y-135191524D01*
X142182857Y-135229619D01*
X142601905Y-135229619D01*
X142601905Y-136220096D02*
X141801905Y-136220096D01*
X142601905Y-136562953D02*
X142182857Y-136562953D01*
X142106667Y-136524858D01*
X142068571Y-136448668D01*
X142068571Y-136334382D01*
X142106667Y-136258191D01*
X142144762Y-136220096D01*
X142563810Y-137248668D02*
X142601905Y-137172478D01*
X142601905Y-137020097D01*
X142563810Y-136943906D01*
X142487619Y-136905811D01*
X142182857Y-136905811D01*
X142106667Y-136943906D01*
X142068571Y-137020097D01*
X142068571Y-137172478D01*
X142106667Y-137248668D01*
X142182857Y-137286763D01*
X142259048Y-137286763D01*
X142335238Y-136905811D01*
X142601905Y-137972477D02*
X142182857Y-137972477D01*
X142106667Y-137934382D01*
X142068571Y-137858192D01*
X142068571Y-137705811D01*
X142106667Y-137629620D01*
X142563810Y-137972477D02*
X142601905Y-137896287D01*
X142601905Y-137705811D01*
X142563810Y-137629620D01*
X142487619Y-137591525D01*
X142411429Y-137591525D01*
X142335238Y-137629620D01*
X142297143Y-137705811D01*
X142297143Y-137896287D01*
X142259048Y-137972477D01*
X142601905Y-138696287D02*
X141801905Y-138696287D01*
X142563810Y-138696287D02*
X142601905Y-138620097D01*
X142601905Y-138467716D01*
X142563810Y-138391525D01*
X142525714Y-138353430D01*
X142449524Y-138315335D01*
X142220952Y-138315335D01*
X142144762Y-138353430D01*
X142106667Y-138391525D01*
X142068571Y-138467716D01*
X142068571Y-138620097D01*
X142106667Y-138696287D01*
X142563810Y-139382002D02*
X142601905Y-139305812D01*
X142601905Y-139153431D01*
X142563810Y-139077240D01*
X142487619Y-139039145D01*
X142182857Y-139039145D01*
X142106667Y-139077240D01*
X142068571Y-139153431D01*
X142068571Y-139305812D01*
X142106667Y-139382002D01*
X142182857Y-139420097D01*
X142259048Y-139420097D01*
X142335238Y-139039145D01*
X142601905Y-139762954D02*
X142068571Y-139762954D01*
X142220952Y-139762954D02*
X142144762Y-139801049D01*
X142106667Y-139839145D01*
X142068571Y-139915335D01*
X142068571Y-139991526D01*
X149205905Y-128258189D02*
X148405905Y-128258189D01*
X148710667Y-128258189D02*
X148672571Y-128334380D01*
X148672571Y-128486761D01*
X148710667Y-128562951D01*
X148748762Y-128601046D01*
X148824952Y-128639142D01*
X149053524Y-128639142D01*
X149129714Y-128601046D01*
X149167810Y-128562951D01*
X149205905Y-128486761D01*
X149205905Y-128334380D01*
X149167810Y-128258189D01*
X149205905Y-129096285D02*
X149167810Y-129020094D01*
X149129714Y-128981999D01*
X149053524Y-128943904D01*
X148824952Y-128943904D01*
X148748762Y-128981999D01*
X148710667Y-129020094D01*
X148672571Y-129096285D01*
X148672571Y-129210571D01*
X148710667Y-129286761D01*
X148748762Y-129324856D01*
X148824952Y-129362952D01*
X149053524Y-129362952D01*
X149129714Y-129324856D01*
X149167810Y-129286761D01*
X149205905Y-129210571D01*
X149205905Y-129096285D01*
X148672571Y-129591523D02*
X148672571Y-129896285D01*
X148405905Y-129705809D02*
X149091619Y-129705809D01*
X149167810Y-129743904D01*
X149205905Y-129820095D01*
X149205905Y-129896285D01*
X148672571Y-130048666D02*
X148672571Y-130353428D01*
X148405905Y-130162952D02*
X149091619Y-130162952D01*
X149167810Y-130201047D01*
X149205905Y-130277238D01*
X149205905Y-130353428D01*
X149205905Y-130734381D02*
X149167810Y-130658190D01*
X149129714Y-130620095D01*
X149053524Y-130582000D01*
X148824952Y-130582000D01*
X148748762Y-130620095D01*
X148710667Y-130658190D01*
X148672571Y-130734381D01*
X148672571Y-130848667D01*
X148710667Y-130924857D01*
X148748762Y-130962952D01*
X148824952Y-131001048D01*
X149053524Y-131001048D01*
X149129714Y-130962952D01*
X149167810Y-130924857D01*
X149205905Y-130848667D01*
X149205905Y-130734381D01*
X149205905Y-131343905D02*
X148672571Y-131343905D01*
X148748762Y-131343905D02*
X148710667Y-131382000D01*
X148672571Y-131458191D01*
X148672571Y-131572477D01*
X148710667Y-131648667D01*
X148786857Y-131686762D01*
X149205905Y-131686762D01*
X148786857Y-131686762D02*
X148710667Y-131724858D01*
X148672571Y-131801048D01*
X148672571Y-131915334D01*
X148710667Y-131991524D01*
X148786857Y-132029619D01*
X149205905Y-132029619D01*
X149205905Y-133020096D02*
X148405905Y-133020096D01*
X148405905Y-133324858D01*
X148444000Y-133401049D01*
X148482095Y-133439144D01*
X148558286Y-133477239D01*
X148672571Y-133477239D01*
X148748762Y-133439144D01*
X148786857Y-133401049D01*
X148824952Y-133324858D01*
X148824952Y-133020096D01*
X149129714Y-134277239D02*
X149167810Y-134239144D01*
X149205905Y-134124858D01*
X149205905Y-134048668D01*
X149167810Y-133934382D01*
X149091619Y-133858191D01*
X149015429Y-133820096D01*
X148863048Y-133782001D01*
X148748762Y-133782001D01*
X148596381Y-133820096D01*
X148520190Y-133858191D01*
X148444000Y-133934382D01*
X148405905Y-134048668D01*
X148405905Y-134124858D01*
X148444000Y-134239144D01*
X148482095Y-134277239D01*
X148786857Y-134886763D02*
X148824952Y-135001049D01*
X148863048Y-135039144D01*
X148939238Y-135077239D01*
X149053524Y-135077239D01*
X149129714Y-135039144D01*
X149167810Y-135001049D01*
X149205905Y-134924858D01*
X149205905Y-134620096D01*
X148405905Y-134620096D01*
X148405905Y-134886763D01*
X148444000Y-134962953D01*
X148482095Y-135001049D01*
X148558286Y-135039144D01*
X148634476Y-135039144D01*
X148710667Y-135001049D01*
X148748762Y-134962953D01*
X148786857Y-134886763D01*
X148786857Y-134620096D01*
X149129714Y-135420096D02*
X149167810Y-135458191D01*
X149205905Y-135420096D01*
X149167810Y-135382001D01*
X149129714Y-135420096D01*
X149205905Y-135420096D01*
X148710667Y-135420096D02*
X148748762Y-135458191D01*
X148786857Y-135420096D01*
X148748762Y-135382001D01*
X148710667Y-135420096D01*
X148786857Y-135420096D01*
X148672571Y-136410572D02*
X149472571Y-136410572D01*
X148710667Y-136410572D02*
X148672571Y-136486763D01*
X148672571Y-136639144D01*
X148710667Y-136715334D01*
X148748762Y-136753429D01*
X148824952Y-136791525D01*
X149053524Y-136791525D01*
X149129714Y-136753429D01*
X149167810Y-136715334D01*
X149205905Y-136639144D01*
X149205905Y-136486763D01*
X149167810Y-136410572D01*
X149205905Y-137134382D02*
X148672571Y-137134382D01*
X148405905Y-137134382D02*
X148444000Y-137096287D01*
X148482095Y-137134382D01*
X148444000Y-137172477D01*
X148405905Y-137134382D01*
X148482095Y-137134382D01*
X148672571Y-137515334D02*
X149205905Y-137515334D01*
X148748762Y-137515334D02*
X148710667Y-137553429D01*
X148672571Y-137629620D01*
X148672571Y-137743906D01*
X148710667Y-137820096D01*
X148786857Y-137858191D01*
X149205905Y-137858191D01*
X149205905Y-138848668D02*
X148405905Y-138848668D01*
X149205905Y-139191525D02*
X148786857Y-139191525D01*
X148710667Y-139153430D01*
X148672571Y-139077240D01*
X148672571Y-138962954D01*
X148710667Y-138886763D01*
X148748762Y-138848668D01*
X149167810Y-139877240D02*
X149205905Y-139801050D01*
X149205905Y-139648669D01*
X149167810Y-139572478D01*
X149091619Y-139534383D01*
X148786857Y-139534383D01*
X148710667Y-139572478D01*
X148672571Y-139648669D01*
X148672571Y-139801050D01*
X148710667Y-139877240D01*
X148786857Y-139915335D01*
X148863048Y-139915335D01*
X148939238Y-139534383D01*
X149205905Y-140601049D02*
X148786857Y-140601049D01*
X148710667Y-140562954D01*
X148672571Y-140486764D01*
X148672571Y-140334383D01*
X148710667Y-140258192D01*
X149167810Y-140601049D02*
X149205905Y-140524859D01*
X149205905Y-140334383D01*
X149167810Y-140258192D01*
X149091619Y-140220097D01*
X149015429Y-140220097D01*
X148939238Y-140258192D01*
X148901143Y-140334383D01*
X148901143Y-140524859D01*
X148863048Y-140601049D01*
X149205905Y-141324859D02*
X148405905Y-141324859D01*
X149167810Y-141324859D02*
X149205905Y-141248669D01*
X149205905Y-141096288D01*
X149167810Y-141020097D01*
X149129714Y-140982002D01*
X149053524Y-140943907D01*
X148824952Y-140943907D01*
X148748762Y-140982002D01*
X148710667Y-141020097D01*
X148672571Y-141096288D01*
X148672571Y-141248669D01*
X148710667Y-141324859D01*
X149167810Y-142010574D02*
X149205905Y-141934384D01*
X149205905Y-141782003D01*
X149167810Y-141705812D01*
X149091619Y-141667717D01*
X148786857Y-141667717D01*
X148710667Y-141705812D01*
X148672571Y-141782003D01*
X148672571Y-141934384D01*
X148710667Y-142010574D01*
X148786857Y-142048669D01*
X148863048Y-142048669D01*
X148939238Y-141667717D01*
X149205905Y-142391526D02*
X148672571Y-142391526D01*
X148824952Y-142391526D02*
X148748762Y-142429621D01*
X148710667Y-142467717D01*
X148672571Y-142543907D01*
X148672571Y-142620098D01*
X113874571Y-120537235D02*
X113874571Y-120841997D01*
X113607905Y-120651521D02*
X114293619Y-120651521D01*
X114369810Y-120689616D01*
X114407905Y-120765807D01*
X114407905Y-120841997D01*
X114407905Y-121222950D02*
X114369810Y-121146759D01*
X114331714Y-121108664D01*
X114255524Y-121070569D01*
X114026952Y-121070569D01*
X113950762Y-121108664D01*
X113912667Y-121146759D01*
X113874571Y-121222950D01*
X113874571Y-121337236D01*
X113912667Y-121413426D01*
X113950762Y-121451521D01*
X114026952Y-121489617D01*
X114255524Y-121489617D01*
X114331714Y-121451521D01*
X114369810Y-121413426D01*
X114407905Y-121337236D01*
X114407905Y-121222950D01*
X113874571Y-121832474D02*
X114674571Y-121832474D01*
X113912667Y-121832474D02*
X113874571Y-121908665D01*
X113874571Y-122061046D01*
X113912667Y-122137236D01*
X113950762Y-122175331D01*
X114026952Y-122213427D01*
X114255524Y-122213427D01*
X114331714Y-122175331D01*
X114369810Y-122137236D01*
X114407905Y-122061046D01*
X114407905Y-121908665D01*
X114369810Y-121832474D01*
X114407905Y-123165808D02*
X113607905Y-123165808D01*
X113607905Y-123470570D01*
X113646000Y-123546761D01*
X113684095Y-123584856D01*
X113760286Y-123622951D01*
X113874571Y-123622951D01*
X113950762Y-123584856D01*
X113988857Y-123546761D01*
X114026952Y-123470570D01*
X114026952Y-123165808D01*
X114331714Y-124422951D02*
X114369810Y-124384856D01*
X114407905Y-124270570D01*
X114407905Y-124194380D01*
X114369810Y-124080094D01*
X114293619Y-124003903D01*
X114217429Y-123965808D01*
X114065048Y-123927713D01*
X113950762Y-123927713D01*
X113798381Y-123965808D01*
X113722190Y-124003903D01*
X113646000Y-124080094D01*
X113607905Y-124194380D01*
X113607905Y-124270570D01*
X113646000Y-124384856D01*
X113684095Y-124422951D01*
X113988857Y-125032475D02*
X114026952Y-125146761D01*
X114065048Y-125184856D01*
X114141238Y-125222951D01*
X114255524Y-125222951D01*
X114331714Y-125184856D01*
X114369810Y-125146761D01*
X114407905Y-125070570D01*
X114407905Y-124765808D01*
X113607905Y-124765808D01*
X113607905Y-125032475D01*
X113646000Y-125108665D01*
X113684095Y-125146761D01*
X113760286Y-125184856D01*
X113836476Y-125184856D01*
X113912667Y-125146761D01*
X113950762Y-125108665D01*
X113988857Y-125032475D01*
X113988857Y-124765808D01*
X114331714Y-125565808D02*
X114369810Y-125603903D01*
X114407905Y-125565808D01*
X114369810Y-125527713D01*
X114331714Y-125565808D01*
X114407905Y-125565808D01*
X113912667Y-125565808D02*
X113950762Y-125603903D01*
X113988857Y-125565808D01*
X113950762Y-125527713D01*
X113912667Y-125565808D01*
X113988857Y-125565808D01*
X113874571Y-126556284D02*
X114674571Y-126556284D01*
X113912667Y-126556284D02*
X113874571Y-126632475D01*
X113874571Y-126784856D01*
X113912667Y-126861046D01*
X113950762Y-126899141D01*
X114026952Y-126937237D01*
X114255524Y-126937237D01*
X114331714Y-126899141D01*
X114369810Y-126861046D01*
X114407905Y-126784856D01*
X114407905Y-126632475D01*
X114369810Y-126556284D01*
X114407905Y-127280094D02*
X113874571Y-127280094D01*
X113607905Y-127280094D02*
X113646000Y-127241999D01*
X113684095Y-127280094D01*
X113646000Y-127318189D01*
X113607905Y-127280094D01*
X113684095Y-127280094D01*
X113874571Y-127661046D02*
X114407905Y-127661046D01*
X113950762Y-127661046D02*
X113912667Y-127699141D01*
X113874571Y-127775332D01*
X113874571Y-127889618D01*
X113912667Y-127965808D01*
X113988857Y-128003903D01*
X114407905Y-128003903D01*
X114407905Y-128994380D02*
X113607905Y-128994380D01*
X114407905Y-129337237D02*
X113988857Y-129337237D01*
X113912667Y-129299142D01*
X113874571Y-129222952D01*
X113874571Y-129108666D01*
X113912667Y-129032475D01*
X113950762Y-128994380D01*
X114369810Y-130022952D02*
X114407905Y-129946762D01*
X114407905Y-129794381D01*
X114369810Y-129718190D01*
X114293619Y-129680095D01*
X113988857Y-129680095D01*
X113912667Y-129718190D01*
X113874571Y-129794381D01*
X113874571Y-129946762D01*
X113912667Y-130022952D01*
X113988857Y-130061047D01*
X114065048Y-130061047D01*
X114141238Y-129680095D01*
X114407905Y-130746761D02*
X113988857Y-130746761D01*
X113912667Y-130708666D01*
X113874571Y-130632476D01*
X113874571Y-130480095D01*
X113912667Y-130403904D01*
X114369810Y-130746761D02*
X114407905Y-130670571D01*
X114407905Y-130480095D01*
X114369810Y-130403904D01*
X114293619Y-130365809D01*
X114217429Y-130365809D01*
X114141238Y-130403904D01*
X114103143Y-130480095D01*
X114103143Y-130670571D01*
X114065048Y-130746761D01*
X114407905Y-131470571D02*
X113607905Y-131470571D01*
X114369810Y-131470571D02*
X114407905Y-131394381D01*
X114407905Y-131242000D01*
X114369810Y-131165809D01*
X114331714Y-131127714D01*
X114255524Y-131089619D01*
X114026952Y-131089619D01*
X113950762Y-131127714D01*
X113912667Y-131165809D01*
X113874571Y-131242000D01*
X113874571Y-131394381D01*
X113912667Y-131470571D01*
X114369810Y-132156286D02*
X114407905Y-132080096D01*
X114407905Y-131927715D01*
X114369810Y-131851524D01*
X114293619Y-131813429D01*
X113988857Y-131813429D01*
X113912667Y-131851524D01*
X113874571Y-131927715D01*
X113874571Y-132080096D01*
X113912667Y-132156286D01*
X113988857Y-132194381D01*
X114065048Y-132194381D01*
X114141238Y-131813429D01*
X114407905Y-132537238D02*
X113874571Y-132537238D01*
X114026952Y-132537238D02*
X113950762Y-132575333D01*
X113912667Y-132613429D01*
X113874571Y-132689619D01*
X113874571Y-132765810D01*
X102215905Y-134659901D02*
X101415905Y-134659901D01*
X101720667Y-134659901D02*
X101682571Y-134736092D01*
X101682571Y-134888473D01*
X101720667Y-134964663D01*
X101758762Y-135002758D01*
X101834952Y-135040854D01*
X102063524Y-135040854D01*
X102139714Y-135002758D01*
X102177810Y-134964663D01*
X102215905Y-134888473D01*
X102215905Y-134736092D01*
X102177810Y-134659901D01*
X102215905Y-135497997D02*
X102177810Y-135421806D01*
X102139714Y-135383711D01*
X102063524Y-135345616D01*
X101834952Y-135345616D01*
X101758762Y-135383711D01*
X101720667Y-135421806D01*
X101682571Y-135497997D01*
X101682571Y-135612283D01*
X101720667Y-135688473D01*
X101758762Y-135726568D01*
X101834952Y-135764664D01*
X102063524Y-135764664D01*
X102139714Y-135726568D01*
X102177810Y-135688473D01*
X102215905Y-135612283D01*
X102215905Y-135497997D01*
X101682571Y-135993235D02*
X101682571Y-136297997D01*
X101415905Y-136107521D02*
X102101619Y-136107521D01*
X102177810Y-136145616D01*
X102215905Y-136221807D01*
X102215905Y-136297997D01*
X101682571Y-136450378D02*
X101682571Y-136755140D01*
X101415905Y-136564664D02*
X102101619Y-136564664D01*
X102177810Y-136602759D01*
X102215905Y-136678950D01*
X102215905Y-136755140D01*
X102215905Y-137136093D02*
X102177810Y-137059902D01*
X102139714Y-137021807D01*
X102063524Y-136983712D01*
X101834952Y-136983712D01*
X101758762Y-137021807D01*
X101720667Y-137059902D01*
X101682571Y-137136093D01*
X101682571Y-137250379D01*
X101720667Y-137326569D01*
X101758762Y-137364664D01*
X101834952Y-137402760D01*
X102063524Y-137402760D01*
X102139714Y-137364664D01*
X102177810Y-137326569D01*
X102215905Y-137250379D01*
X102215905Y-137136093D01*
X102215905Y-137745617D02*
X101682571Y-137745617D01*
X101758762Y-137745617D02*
X101720667Y-137783712D01*
X101682571Y-137859903D01*
X101682571Y-137974189D01*
X101720667Y-138050379D01*
X101796857Y-138088474D01*
X102215905Y-138088474D01*
X101796857Y-138088474D02*
X101720667Y-138126570D01*
X101682571Y-138202760D01*
X101682571Y-138317046D01*
X101720667Y-138393236D01*
X101796857Y-138431331D01*
X102215905Y-138431331D01*
X102215905Y-139421808D02*
X101415905Y-139421808D01*
X101415905Y-139726570D01*
X101454000Y-139802761D01*
X101492095Y-139840856D01*
X101568286Y-139878951D01*
X101682571Y-139878951D01*
X101758762Y-139840856D01*
X101796857Y-139802761D01*
X101834952Y-139726570D01*
X101834952Y-139421808D01*
X102139714Y-140678951D02*
X102177810Y-140640856D01*
X102215905Y-140526570D01*
X102215905Y-140450380D01*
X102177810Y-140336094D01*
X102101619Y-140259903D01*
X102025429Y-140221808D01*
X101873048Y-140183713D01*
X101758762Y-140183713D01*
X101606381Y-140221808D01*
X101530190Y-140259903D01*
X101454000Y-140336094D01*
X101415905Y-140450380D01*
X101415905Y-140526570D01*
X101454000Y-140640856D01*
X101492095Y-140678951D01*
X101796857Y-141288475D02*
X101834952Y-141402761D01*
X101873048Y-141440856D01*
X101949238Y-141478951D01*
X102063524Y-141478951D01*
X102139714Y-141440856D01*
X102177810Y-141402761D01*
X102215905Y-141326570D01*
X102215905Y-141021808D01*
X101415905Y-141021808D01*
X101415905Y-141288475D01*
X101454000Y-141364665D01*
X101492095Y-141402761D01*
X101568286Y-141440856D01*
X101644476Y-141440856D01*
X101720667Y-141402761D01*
X101758762Y-141364665D01*
X101796857Y-141288475D01*
X101796857Y-141021808D01*
X102139714Y-141821808D02*
X102177810Y-141859903D01*
X102215905Y-141821808D01*
X102177810Y-141783713D01*
X102139714Y-141821808D01*
X102215905Y-141821808D01*
X101720667Y-141821808D02*
X101758762Y-141859903D01*
X101796857Y-141821808D01*
X101758762Y-141783713D01*
X101720667Y-141821808D01*
X101796857Y-141821808D01*
X101682571Y-142812284D02*
X102482571Y-142812284D01*
X101720667Y-142812284D02*
X101682571Y-142888475D01*
X101682571Y-143040856D01*
X101720667Y-143117046D01*
X101758762Y-143155141D01*
X101834952Y-143193237D01*
X102063524Y-143193237D01*
X102139714Y-143155141D01*
X102177810Y-143117046D01*
X102215905Y-143040856D01*
X102215905Y-142888475D01*
X102177810Y-142812284D01*
X102215905Y-143536094D02*
X101682571Y-143536094D01*
X101415905Y-143536094D02*
X101454000Y-143497999D01*
X101492095Y-143536094D01*
X101454000Y-143574189D01*
X101415905Y-143536094D01*
X101492095Y-143536094D01*
X101682571Y-143917046D02*
X102215905Y-143917046D01*
X101758762Y-143917046D02*
X101720667Y-143955141D01*
X101682571Y-144031332D01*
X101682571Y-144145618D01*
X101720667Y-144221808D01*
X101796857Y-144259903D01*
X102215905Y-144259903D01*
X102215905Y-145250380D02*
X101415905Y-145250380D01*
X102215905Y-145593237D02*
X101796857Y-145593237D01*
X101720667Y-145555142D01*
X101682571Y-145478952D01*
X101682571Y-145364666D01*
X101720667Y-145288475D01*
X101758762Y-145250380D01*
X102177810Y-146278952D02*
X102215905Y-146202762D01*
X102215905Y-146050381D01*
X102177810Y-145974190D01*
X102101619Y-145936095D01*
X101796857Y-145936095D01*
X101720667Y-145974190D01*
X101682571Y-146050381D01*
X101682571Y-146202762D01*
X101720667Y-146278952D01*
X101796857Y-146317047D01*
X101873048Y-146317047D01*
X101949238Y-145936095D01*
X102215905Y-147002761D02*
X101796857Y-147002761D01*
X101720667Y-146964666D01*
X101682571Y-146888476D01*
X101682571Y-146736095D01*
X101720667Y-146659904D01*
X102177810Y-147002761D02*
X102215905Y-146926571D01*
X102215905Y-146736095D01*
X102177810Y-146659904D01*
X102101619Y-146621809D01*
X102025429Y-146621809D01*
X101949238Y-146659904D01*
X101911143Y-146736095D01*
X101911143Y-146926571D01*
X101873048Y-147002761D01*
X102215905Y-147726571D02*
X101415905Y-147726571D01*
X102177810Y-147726571D02*
X102215905Y-147650381D01*
X102215905Y-147498000D01*
X102177810Y-147421809D01*
X102139714Y-147383714D01*
X102063524Y-147345619D01*
X101834952Y-147345619D01*
X101758762Y-147383714D01*
X101720667Y-147421809D01*
X101682571Y-147498000D01*
X101682571Y-147650381D01*
X101720667Y-147726571D01*
X102177810Y-148412286D02*
X102215905Y-148336096D01*
X102215905Y-148183715D01*
X102177810Y-148107524D01*
X102101619Y-148069429D01*
X101796857Y-148069429D01*
X101720667Y-148107524D01*
X101682571Y-148183715D01*
X101682571Y-148336096D01*
X101720667Y-148412286D01*
X101796857Y-148450381D01*
X101873048Y-148450381D01*
X101949238Y-148069429D01*
X102215905Y-148793238D02*
X101682571Y-148793238D01*
X101834952Y-148793238D02*
X101758762Y-148831333D01*
X101720667Y-148869429D01*
X101682571Y-148945619D01*
X101682571Y-149021810D01*
X108540571Y-136793235D02*
X108540571Y-137097997D01*
X108273905Y-136907521D02*
X108959619Y-136907521D01*
X109035810Y-136945616D01*
X109073905Y-137021807D01*
X109073905Y-137097997D01*
X109073905Y-137478950D02*
X109035810Y-137402759D01*
X108997714Y-137364664D01*
X108921524Y-137326569D01*
X108692952Y-137326569D01*
X108616762Y-137364664D01*
X108578667Y-137402759D01*
X108540571Y-137478950D01*
X108540571Y-137593236D01*
X108578667Y-137669426D01*
X108616762Y-137707521D01*
X108692952Y-137745617D01*
X108921524Y-137745617D01*
X108997714Y-137707521D01*
X109035810Y-137669426D01*
X109073905Y-137593236D01*
X109073905Y-137478950D01*
X108540571Y-138088474D02*
X109340571Y-138088474D01*
X108578667Y-138088474D02*
X108540571Y-138164665D01*
X108540571Y-138317046D01*
X108578667Y-138393236D01*
X108616762Y-138431331D01*
X108692952Y-138469427D01*
X108921524Y-138469427D01*
X108997714Y-138431331D01*
X109035810Y-138393236D01*
X109073905Y-138317046D01*
X109073905Y-138164665D01*
X109035810Y-138088474D01*
X109073905Y-139421808D02*
X108273905Y-139421808D01*
X108273905Y-139726570D01*
X108312000Y-139802761D01*
X108350095Y-139840856D01*
X108426286Y-139878951D01*
X108540571Y-139878951D01*
X108616762Y-139840856D01*
X108654857Y-139802761D01*
X108692952Y-139726570D01*
X108692952Y-139421808D01*
X108997714Y-140678951D02*
X109035810Y-140640856D01*
X109073905Y-140526570D01*
X109073905Y-140450380D01*
X109035810Y-140336094D01*
X108959619Y-140259903D01*
X108883429Y-140221808D01*
X108731048Y-140183713D01*
X108616762Y-140183713D01*
X108464381Y-140221808D01*
X108388190Y-140259903D01*
X108312000Y-140336094D01*
X108273905Y-140450380D01*
X108273905Y-140526570D01*
X108312000Y-140640856D01*
X108350095Y-140678951D01*
X108654857Y-141288475D02*
X108692952Y-141402761D01*
X108731048Y-141440856D01*
X108807238Y-141478951D01*
X108921524Y-141478951D01*
X108997714Y-141440856D01*
X109035810Y-141402761D01*
X109073905Y-141326570D01*
X109073905Y-141021808D01*
X108273905Y-141021808D01*
X108273905Y-141288475D01*
X108312000Y-141364665D01*
X108350095Y-141402761D01*
X108426286Y-141440856D01*
X108502476Y-141440856D01*
X108578667Y-141402761D01*
X108616762Y-141364665D01*
X108654857Y-141288475D01*
X108654857Y-141021808D01*
X108997714Y-141821808D02*
X109035810Y-141859903D01*
X109073905Y-141821808D01*
X109035810Y-141783713D01*
X108997714Y-141821808D01*
X109073905Y-141821808D01*
X108578667Y-141821808D02*
X108616762Y-141859903D01*
X108654857Y-141821808D01*
X108616762Y-141783713D01*
X108578667Y-141821808D01*
X108654857Y-141821808D01*
X108540571Y-142812284D02*
X109340571Y-142812284D01*
X108578667Y-142812284D02*
X108540571Y-142888475D01*
X108540571Y-143040856D01*
X108578667Y-143117046D01*
X108616762Y-143155141D01*
X108692952Y-143193237D01*
X108921524Y-143193237D01*
X108997714Y-143155141D01*
X109035810Y-143117046D01*
X109073905Y-143040856D01*
X109073905Y-142888475D01*
X109035810Y-142812284D01*
X109073905Y-143536094D02*
X108540571Y-143536094D01*
X108273905Y-143536094D02*
X108312000Y-143497999D01*
X108350095Y-143536094D01*
X108312000Y-143574189D01*
X108273905Y-143536094D01*
X108350095Y-143536094D01*
X108540571Y-143917046D02*
X109073905Y-143917046D01*
X108616762Y-143917046D02*
X108578667Y-143955141D01*
X108540571Y-144031332D01*
X108540571Y-144145618D01*
X108578667Y-144221808D01*
X108654857Y-144259903D01*
X109073905Y-144259903D01*
X109073905Y-145250380D02*
X108273905Y-145250380D01*
X109073905Y-145593237D02*
X108654857Y-145593237D01*
X108578667Y-145555142D01*
X108540571Y-145478952D01*
X108540571Y-145364666D01*
X108578667Y-145288475D01*
X108616762Y-145250380D01*
X109035810Y-146278952D02*
X109073905Y-146202762D01*
X109073905Y-146050381D01*
X109035810Y-145974190D01*
X108959619Y-145936095D01*
X108654857Y-145936095D01*
X108578667Y-145974190D01*
X108540571Y-146050381D01*
X108540571Y-146202762D01*
X108578667Y-146278952D01*
X108654857Y-146317047D01*
X108731048Y-146317047D01*
X108807238Y-145936095D01*
X109073905Y-147002761D02*
X108654857Y-147002761D01*
X108578667Y-146964666D01*
X108540571Y-146888476D01*
X108540571Y-146736095D01*
X108578667Y-146659904D01*
X109035810Y-147002761D02*
X109073905Y-146926571D01*
X109073905Y-146736095D01*
X109035810Y-146659904D01*
X108959619Y-146621809D01*
X108883429Y-146621809D01*
X108807238Y-146659904D01*
X108769143Y-146736095D01*
X108769143Y-146926571D01*
X108731048Y-147002761D01*
X109073905Y-147726571D02*
X108273905Y-147726571D01*
X109035810Y-147726571D02*
X109073905Y-147650381D01*
X109073905Y-147498000D01*
X109035810Y-147421809D01*
X108997714Y-147383714D01*
X108921524Y-147345619D01*
X108692952Y-147345619D01*
X108616762Y-147383714D01*
X108578667Y-147421809D01*
X108540571Y-147498000D01*
X108540571Y-147650381D01*
X108578667Y-147726571D01*
X109035810Y-148412286D02*
X109073905Y-148336096D01*
X109073905Y-148183715D01*
X109035810Y-148107524D01*
X108959619Y-148069429D01*
X108654857Y-148069429D01*
X108578667Y-148107524D01*
X108540571Y-148183715D01*
X108540571Y-148336096D01*
X108578667Y-148412286D01*
X108654857Y-148450381D01*
X108731048Y-148450381D01*
X108807238Y-148069429D01*
X109073905Y-148793238D02*
X108540571Y-148793238D01*
X108692952Y-148793238D02*
X108616762Y-148831333D01*
X108578667Y-148869429D01*
X108540571Y-148945619D01*
X108540571Y-149021810D01*
D12*
X110744000Y-112014000D02*
X109474000Y-110744000D01*
X110744000Y-112014000D02*
X110744000Y-111506000D01*
X110744000Y-112014000D02*
X110236000Y-112014000D01*
X118364000Y-112014000D02*
X118872000Y-112014000D01*
X118364000Y-112014000D02*
X118364000Y-111506000D01*
X119634000Y-110744000D02*
X118364000Y-112014000D01*
D11*
X110096191Y-108428571D02*
X109791429Y-108428571D01*
X109981905Y-108161905D02*
X109981905Y-108847619D01*
X109943810Y-108923810D01*
X109867619Y-108961905D01*
X109791429Y-108961905D01*
X109410476Y-108961905D02*
X109486667Y-108923810D01*
X109524762Y-108885714D01*
X109562857Y-108809524D01*
X109562857Y-108580952D01*
X109524762Y-108504762D01*
X109486667Y-108466667D01*
X109410476Y-108428571D01*
X109296190Y-108428571D01*
X109220000Y-108466667D01*
X109181905Y-108504762D01*
X109143809Y-108580952D01*
X109143809Y-108809524D01*
X109181905Y-108885714D01*
X109220000Y-108923810D01*
X109296190Y-108961905D01*
X109410476Y-108961905D01*
X108800952Y-108428571D02*
X108800952Y-109228571D01*
X108800952Y-108466667D02*
X108724761Y-108428571D01*
X108572380Y-108428571D01*
X108496190Y-108466667D01*
X108458095Y-108504762D01*
X108419999Y-108580952D01*
X108419999Y-108809524D01*
X108458095Y-108885714D01*
X108496190Y-108923810D01*
X108572380Y-108961905D01*
X108724761Y-108961905D01*
X108800952Y-108923810D01*
X110153334Y-110201905D02*
X110229525Y-110163810D01*
X110267620Y-110125714D01*
X110305715Y-110049524D01*
X110305715Y-109820952D01*
X110267620Y-109744762D01*
X110229525Y-109706667D01*
X110153334Y-109668571D01*
X110039048Y-109668571D01*
X109962858Y-109706667D01*
X109924763Y-109744762D01*
X109886667Y-109820952D01*
X109886667Y-110049524D01*
X109924763Y-110125714D01*
X109962858Y-110163810D01*
X110039048Y-110201905D01*
X110153334Y-110201905D01*
X109543810Y-109668571D02*
X109543810Y-110201905D01*
X109543810Y-109744762D02*
X109505715Y-109706667D01*
X109429524Y-109668571D01*
X109315238Y-109668571D01*
X109239048Y-109706667D01*
X109200953Y-109782857D01*
X109200953Y-110201905D01*
X108705714Y-110201905D02*
X108781905Y-110163810D01*
X108820000Y-110087619D01*
X108820000Y-109401905D01*
X108477142Y-109668571D02*
X108286666Y-110201905D01*
X108096190Y-109668571D02*
X108286666Y-110201905D01*
X108362857Y-110392381D01*
X108400952Y-110430476D01*
X108477142Y-110468571D01*
X121773715Y-108961905D02*
X121773715Y-108161905D01*
X121773715Y-108466667D02*
X121697524Y-108428571D01*
X121545143Y-108428571D01*
X121468953Y-108466667D01*
X121430858Y-108504762D01*
X121392762Y-108580952D01*
X121392762Y-108809524D01*
X121430858Y-108885714D01*
X121468953Y-108923810D01*
X121545143Y-108961905D01*
X121697524Y-108961905D01*
X121773715Y-108923810D01*
X120935619Y-108961905D02*
X121011810Y-108923810D01*
X121049905Y-108885714D01*
X121088000Y-108809524D01*
X121088000Y-108580952D01*
X121049905Y-108504762D01*
X121011810Y-108466667D01*
X120935619Y-108428571D01*
X120821333Y-108428571D01*
X120745143Y-108466667D01*
X120707048Y-108504762D01*
X120668952Y-108580952D01*
X120668952Y-108809524D01*
X120707048Y-108885714D01*
X120745143Y-108923810D01*
X120821333Y-108961905D01*
X120935619Y-108961905D01*
X120440381Y-108428571D02*
X120135619Y-108428571D01*
X120326095Y-108161905D02*
X120326095Y-108847619D01*
X120288000Y-108923810D01*
X120211809Y-108961905D01*
X120135619Y-108961905D01*
X119983238Y-108428571D02*
X119678476Y-108428571D01*
X119868952Y-108161905D02*
X119868952Y-108847619D01*
X119830857Y-108923810D01*
X119754666Y-108961905D01*
X119678476Y-108961905D01*
X119297523Y-108961905D02*
X119373714Y-108923810D01*
X119411809Y-108885714D01*
X119449904Y-108809524D01*
X119449904Y-108580952D01*
X119411809Y-108504762D01*
X119373714Y-108466667D01*
X119297523Y-108428571D01*
X119183237Y-108428571D01*
X119107047Y-108466667D01*
X119068952Y-108504762D01*
X119030856Y-108580952D01*
X119030856Y-108809524D01*
X119068952Y-108885714D01*
X119107047Y-108923810D01*
X119183237Y-108961905D01*
X119297523Y-108961905D01*
X118687999Y-108961905D02*
X118687999Y-108428571D01*
X118687999Y-108504762D02*
X118649904Y-108466667D01*
X118573713Y-108428571D01*
X118459427Y-108428571D01*
X118383237Y-108466667D01*
X118345142Y-108542857D01*
X118345142Y-108961905D01*
X118345142Y-108542857D02*
X118307046Y-108466667D01*
X118230856Y-108428571D01*
X118116570Y-108428571D01*
X118040380Y-108466667D01*
X118002285Y-108542857D01*
X118002285Y-108961905D01*
X120821334Y-110201905D02*
X120897525Y-110163810D01*
X120935620Y-110125714D01*
X120973715Y-110049524D01*
X120973715Y-109820952D01*
X120935620Y-109744762D01*
X120897525Y-109706667D01*
X120821334Y-109668571D01*
X120707048Y-109668571D01*
X120630858Y-109706667D01*
X120592763Y-109744762D01*
X120554667Y-109820952D01*
X120554667Y-110049524D01*
X120592763Y-110125714D01*
X120630858Y-110163810D01*
X120707048Y-110201905D01*
X120821334Y-110201905D01*
X120211810Y-109668571D02*
X120211810Y-110201905D01*
X120211810Y-109744762D02*
X120173715Y-109706667D01*
X120097524Y-109668571D01*
X119983238Y-109668571D01*
X119907048Y-109706667D01*
X119868953Y-109782857D01*
X119868953Y-110201905D01*
X119373714Y-110201905D02*
X119449905Y-110163810D01*
X119488000Y-110087619D01*
X119488000Y-109401905D01*
X119145142Y-109668571D02*
X118954666Y-110201905D01*
X118764190Y-109668571D02*
X118954666Y-110201905D01*
X119030857Y-110392381D01*
X119068952Y-110430476D01*
X119145142Y-110468571D01*
D12*
X113792000Y-112014000D02*
X111760000Y-112014000D01*
X115316000Y-112014000D02*
X117348000Y-112014000D01*
D11*
X113918857Y-111067905D02*
X113423619Y-111067905D01*
X113690286Y-111372667D01*
X113576000Y-111372667D01*
X113499810Y-111410762D01*
X113461714Y-111448857D01*
X113423619Y-111525048D01*
X113423619Y-111715524D01*
X113461714Y-111791714D01*
X113499810Y-111829810D01*
X113576000Y-111867905D01*
X113804572Y-111867905D01*
X113880762Y-111829810D01*
X113918857Y-111791714D01*
X112433143Y-111867905D02*
X112471238Y-111867905D01*
X112547428Y-111829810D01*
X112661714Y-111715524D01*
X112852190Y-111486952D01*
X112928381Y-111372667D01*
X112966476Y-111258381D01*
X112966476Y-111182190D01*
X112928381Y-111106000D01*
X112852190Y-111067905D01*
X112814095Y-111067905D01*
X112737905Y-111106000D01*
X112699809Y-111182190D01*
X112699809Y-111220286D01*
X112737905Y-111296476D01*
X112776000Y-111334571D01*
X113004571Y-111486952D01*
X113042667Y-111525048D01*
X113080762Y-111601238D01*
X113080762Y-111715524D01*
X113042667Y-111791714D01*
X113004571Y-111829810D01*
X112928381Y-111867905D01*
X112814095Y-111867905D01*
X112737905Y-111829810D01*
X112699809Y-111791714D01*
X112585524Y-111639333D01*
X112547428Y-111525048D01*
X112547428Y-111448857D01*
X111747429Y-111334571D02*
X111747429Y-111867905D01*
X111937905Y-111029810D02*
X112128381Y-111601238D01*
X111633143Y-111601238D01*
X116979619Y-111867905D02*
X117436762Y-111867905D01*
X117208191Y-111867905D02*
X117208191Y-111067905D01*
X117284381Y-111182190D01*
X117360572Y-111258381D01*
X117436762Y-111296476D01*
X115989143Y-111867905D02*
X116027238Y-111867905D01*
X116103428Y-111829810D01*
X116217714Y-111715524D01*
X116408190Y-111486952D01*
X116484381Y-111372667D01*
X116522476Y-111258381D01*
X116522476Y-111182190D01*
X116484381Y-111106000D01*
X116408190Y-111067905D01*
X116370095Y-111067905D01*
X116293905Y-111106000D01*
X116255809Y-111182190D01*
X116255809Y-111220286D01*
X116293905Y-111296476D01*
X116332000Y-111334571D01*
X116560571Y-111486952D01*
X116598667Y-111525048D01*
X116636762Y-111601238D01*
X116636762Y-111715524D01*
X116598667Y-111791714D01*
X116560571Y-111829810D01*
X116484381Y-111867905D01*
X116370095Y-111867905D01*
X116293905Y-111829810D01*
X116255809Y-111791714D01*
X116141524Y-111639333D01*
X116103428Y-111525048D01*
X116103428Y-111448857D01*
X115684381Y-111144095D02*
X115646286Y-111106000D01*
X115570095Y-111067905D01*
X115379619Y-111067905D01*
X115303429Y-111106000D01*
X115265333Y-111144095D01*
X115227238Y-111220286D01*
X115227238Y-111296476D01*
X115265333Y-111410762D01*
X115722476Y-111867905D01*
X115227238Y-111867905D01*
X116687333Y-110813810D02*
X116573047Y-110851905D01*
X116382571Y-110851905D01*
X116306381Y-110813810D01*
X116268285Y-110775714D01*
X116230190Y-110699524D01*
X116230190Y-110623333D01*
X116268285Y-110547143D01*
X116306381Y-110509048D01*
X116382571Y-110470952D01*
X116534952Y-110432857D01*
X116611143Y-110394762D01*
X116649238Y-110356667D01*
X116687333Y-110280476D01*
X116687333Y-110204286D01*
X116649238Y-110128095D01*
X116611143Y-110090000D01*
X116534952Y-110051905D01*
X116344476Y-110051905D01*
X116230190Y-110090000D01*
X115887333Y-110432857D02*
X115620666Y-110432857D01*
X115506380Y-110851905D02*
X115887333Y-110851905D01*
X115887333Y-110051905D01*
X115506380Y-110051905D01*
X114706380Y-110851905D02*
X114973047Y-110470952D01*
X115163523Y-110851905D02*
X115163523Y-110051905D01*
X114858761Y-110051905D01*
X114782570Y-110090000D01*
X114744475Y-110128095D01*
X114706380Y-110204286D01*
X114706380Y-110318571D01*
X114744475Y-110394762D01*
X114782570Y-110432857D01*
X114858761Y-110470952D01*
X115163523Y-110470952D01*
X114477809Y-110051905D02*
X114211142Y-110851905D01*
X113944475Y-110051905D01*
X113525428Y-110051905D02*
X113373047Y-110051905D01*
X113296856Y-110090000D01*
X113220666Y-110166190D01*
X113182571Y-110318571D01*
X113182571Y-110585238D01*
X113220666Y-110737619D01*
X113296856Y-110813810D01*
X113373047Y-110851905D01*
X113525428Y-110851905D01*
X113601618Y-110813810D01*
X113677809Y-110737619D01*
X113715904Y-110585238D01*
X113715904Y-110318571D01*
X113677809Y-110166190D01*
X113601618Y-110090000D01*
X113525428Y-110051905D01*
X112877809Y-110813810D02*
X112763523Y-110851905D01*
X112573047Y-110851905D01*
X112496857Y-110813810D01*
X112458761Y-110775714D01*
X112420666Y-110699524D01*
X112420666Y-110623333D01*
X112458761Y-110547143D01*
X112496857Y-110509048D01*
X112573047Y-110470952D01*
X112725428Y-110432857D01*
X112801619Y-110394762D01*
X112839714Y-110356667D01*
X112877809Y-110280476D01*
X112877809Y-110204286D01*
X112839714Y-110128095D01*
X112801619Y-110090000D01*
X112725428Y-110051905D01*
X112534952Y-110051905D01*
X112420666Y-110090000D01*
D13*
X148082000Y-132842000D02*
X148082000Y-140462000D01*
X145542000Y-132842000D02*
X145542000Y-140462000D01*
X145262000Y-130022000D02*
X145262000Y-131572000D01*
X148082000Y-140462000D02*
X145542000Y-140462000D01*
X145542000Y-132842000D02*
X148082000Y-132842000D01*
X148362000Y-131572000D02*
X148362000Y-130022000D01*
X148362000Y-130022000D02*
X145262000Y-130022000D01*
X115732000Y-114159000D02*
X116932000Y-114159000D01*
X116932000Y-112409000D02*
X115732000Y-112409000D01*
X113376000Y-112409000D02*
X112176000Y-112409000D01*
X112176000Y-114159000D02*
X113376000Y-114159000D01*
X115732000Y-116699000D02*
X116932000Y-116699000D01*
X116932000Y-114949000D02*
X115732000Y-114949000D01*
X113376000Y-114949000D02*
X112176000Y-114949000D01*
X112176000Y-116699000D02*
X113376000Y-116699000D01*
X105410000Y-116586000D02*
X105410000Y-149606000D01*
X105410000Y-149606000D02*
X102870000Y-149606000D01*
X102870000Y-149606000D02*
X102870000Y-116586000D01*
X102590000Y-113766000D02*
X102590000Y-115316000D01*
X102870000Y-116586000D02*
X105410000Y-116586000D01*
X105690000Y-115316000D02*
X105690000Y-113766000D01*
X105690000Y-113766000D02*
X102590000Y-113766000D01*
D11*
X147402476Y-129647905D02*
X147402476Y-128847905D01*
X147097714Y-128847905D01*
X147021523Y-128886000D01*
X146983428Y-128924095D01*
X146945333Y-129000286D01*
X146945333Y-129114571D01*
X146983428Y-129190762D01*
X147021523Y-129228857D01*
X147097714Y-129266952D01*
X147402476Y-129266952D01*
X146564381Y-129647905D02*
X146412000Y-129647905D01*
X146335809Y-129609810D01*
X146297714Y-129571714D01*
X146221523Y-129457429D01*
X146183428Y-129305048D01*
X146183428Y-129000286D01*
X146221523Y-128924095D01*
X146259619Y-128886000D01*
X146335809Y-128847905D01*
X146488190Y-128847905D01*
X146564381Y-128886000D01*
X146602476Y-128924095D01*
X146640571Y-129000286D01*
X146640571Y-129190762D01*
X146602476Y-129266952D01*
X146564381Y-129305048D01*
X146488190Y-129343143D01*
X146335809Y-129343143D01*
X146259619Y-129305048D01*
X146221523Y-129266952D01*
X146183428Y-129190762D01*
X118979905Y-113150667D02*
X118598952Y-112884000D01*
X118979905Y-112693524D02*
X118179905Y-112693524D01*
X118179905Y-112998286D01*
X118218000Y-113074477D01*
X118256095Y-113112572D01*
X118332286Y-113150667D01*
X118446571Y-113150667D01*
X118522762Y-113112572D01*
X118560857Y-113074477D01*
X118598952Y-112998286D01*
X118598952Y-112693524D01*
X118979905Y-113912572D02*
X118979905Y-113455429D01*
X118979905Y-113684000D02*
X118179905Y-113684000D01*
X118294190Y-113607810D01*
X118370381Y-113531619D01*
X118408476Y-113455429D01*
X111105905Y-113150667D02*
X110724952Y-112884000D01*
X111105905Y-112693524D02*
X110305905Y-112693524D01*
X110305905Y-112998286D01*
X110344000Y-113074477D01*
X110382095Y-113112572D01*
X110458286Y-113150667D01*
X110572571Y-113150667D01*
X110648762Y-113112572D01*
X110686857Y-113074477D01*
X110724952Y-112998286D01*
X110724952Y-112693524D01*
X110382095Y-113455429D02*
X110344000Y-113493524D01*
X110305905Y-113569715D01*
X110305905Y-113760191D01*
X110344000Y-113836381D01*
X110382095Y-113874477D01*
X110458286Y-113912572D01*
X110534476Y-113912572D01*
X110648762Y-113874477D01*
X111105905Y-113417334D01*
X111105905Y-113912572D01*
X118979905Y-115690667D02*
X118598952Y-115424000D01*
X118979905Y-115233524D02*
X118179905Y-115233524D01*
X118179905Y-115538286D01*
X118218000Y-115614477D01*
X118256095Y-115652572D01*
X118332286Y-115690667D01*
X118446571Y-115690667D01*
X118522762Y-115652572D01*
X118560857Y-115614477D01*
X118598952Y-115538286D01*
X118598952Y-115233524D01*
X118179905Y-115957334D02*
X118179905Y-116452572D01*
X118484667Y-116185905D01*
X118484667Y-116300191D01*
X118522762Y-116376381D01*
X118560857Y-116414477D01*
X118637048Y-116452572D01*
X118827524Y-116452572D01*
X118903714Y-116414477D01*
X118941810Y-116376381D01*
X118979905Y-116300191D01*
X118979905Y-116071619D01*
X118941810Y-115995429D01*
X118903714Y-115957334D01*
X111105905Y-115690667D02*
X110724952Y-115424000D01*
X111105905Y-115233524D02*
X110305905Y-115233524D01*
X110305905Y-115538286D01*
X110344000Y-115614477D01*
X110382095Y-115652572D01*
X110458286Y-115690667D01*
X110572571Y-115690667D01*
X110648762Y-115652572D01*
X110686857Y-115614477D01*
X110724952Y-115538286D01*
X110724952Y-115233524D01*
X110572571Y-116376381D02*
X111105905Y-116376381D01*
X110267810Y-116185905D02*
X110839238Y-115995429D01*
X110839238Y-116490667D01*
X102215905Y-114725524D02*
X101415905Y-114725524D01*
X101415905Y-115030286D01*
X101454000Y-115106477D01*
X101492095Y-115144572D01*
X101568286Y-115182667D01*
X101682571Y-115182667D01*
X101758762Y-115144572D01*
X101796857Y-115106477D01*
X101834952Y-115030286D01*
X101834952Y-114725524D01*
X102215905Y-115944572D02*
X102215905Y-115487429D01*
X102215905Y-115716000D02*
X101415905Y-115716000D01*
X101530190Y-115639810D01*
X101606381Y-115563619D01*
X101644476Y-115487429D01*
M02*
