G04 #@! TF.FileFunction,Copper,L1,Top,Signal*
%FSLAX46Y46*%
G04 Gerber Fmt 4.6, Leading zero omitted, Abs format (unit mm)*
G04 Created by KiCad (PCBNEW 4.0.2-4+6225~38~ubuntu14.04.1-stable) date Mon 29 Feb 2016 18:52:31 GMT*
%MOMM*%
G01*
G04 APERTURE LIST*
%ADD10C,0.100000*%
%ADD11R,0.700000X1.300000*%
%ADD12R,1.000000X1.000000*%
%ADD13R,1.597660X1.800860*%
%ADD14R,1.727200X1.727200*%
%ADD15O,1.727200X1.727200*%
%ADD16O,3.000000X4.000000*%
%ADD17O,5.000000X3.500000*%
%ADD18R,2.850000X2.000000*%
%ADD19R,1.550000X0.600000*%
%ADD20R,1.250000X1.000000*%
%ADD21R,1.000000X1.250000*%
%ADD22R,1.300000X0.700000*%
%ADD23R,2.032000X1.727200*%
%ADD24O,2.032000X1.727200*%
%ADD25C,2.000000*%
%ADD26C,1.000000*%
%ADD27C,1.500000*%
%ADD28C,2.000000*%
%ADD29C,1.500000*%
%ADD30C,0.508000*%
%ADD31C,0.381000*%
%ADD32C,1.016000*%
%ADD33C,0.254000*%
G04 APERTURE END LIST*
D10*
D11*
X118298000Y-115316000D03*
X116398000Y-115316000D03*
D12*
X133643000Y-113284000D03*
X131533000Y-113284000D03*
X145835000Y-113284000D03*
X143725000Y-113284000D03*
D13*
X136756140Y-115316000D03*
X139595860Y-115316000D03*
X119992140Y-115316000D03*
X122831860Y-115316000D03*
X117960140Y-120904000D03*
X120799860Y-120904000D03*
X134724140Y-120904000D03*
X137563860Y-120904000D03*
D14*
X137668000Y-141732000D03*
D15*
X137668000Y-144272000D03*
X135128000Y-141732000D03*
X135128000Y-144272000D03*
X132588000Y-141732000D03*
X132588000Y-144272000D03*
D14*
X146812000Y-141732000D03*
D15*
X146812000Y-144272000D03*
X144272000Y-141732000D03*
X144272000Y-144272000D03*
X141732000Y-141732000D03*
X141732000Y-144272000D03*
D16*
X147748000Y-109276000D03*
X137748000Y-109276000D03*
D17*
X142748000Y-105376000D03*
D16*
X134032000Y-109276000D03*
X124032000Y-109276000D03*
D17*
X129032000Y-105376000D03*
D18*
X120165000Y-101956000D03*
X120165000Y-105156000D03*
X120165000Y-108656000D03*
X113515000Y-101956000D03*
X113515000Y-105156000D03*
X113515000Y-108656000D03*
X108989000Y-101956000D03*
X108989000Y-105156000D03*
X108989000Y-108656000D03*
X102339000Y-101956000D03*
X102339000Y-105156000D03*
X102339000Y-108656000D03*
D19*
X145448000Y-121285000D03*
X145448000Y-120015000D03*
X145448000Y-118745000D03*
X145448000Y-117475000D03*
X140048000Y-117475000D03*
X140048000Y-118745000D03*
X140048000Y-120015000D03*
X140048000Y-121285000D03*
X128684000Y-121285000D03*
X128684000Y-120015000D03*
X128684000Y-118745000D03*
X128684000Y-117475000D03*
X123284000Y-117475000D03*
X123284000Y-118745000D03*
X123284000Y-120015000D03*
X123284000Y-121285000D03*
D20*
X147828000Y-122412000D03*
X147828000Y-120412000D03*
X131064000Y-122412000D03*
X131064000Y-120412000D03*
D21*
X143748000Y-115316000D03*
X141748000Y-115316000D03*
X126984000Y-115316000D03*
X124984000Y-115316000D03*
D20*
X147828000Y-115300000D03*
X147828000Y-113300000D03*
X135636000Y-103140000D03*
X135636000Y-105140000D03*
D22*
X147828000Y-116906000D03*
X147828000Y-118806000D03*
X131064000Y-116906000D03*
X131064000Y-118806000D03*
D11*
X134686000Y-118364000D03*
X136586000Y-118364000D03*
X117922000Y-118364000D03*
X119822000Y-118364000D03*
X135062000Y-115316000D03*
X133162000Y-115316000D03*
D23*
X104140000Y-115316000D03*
D24*
X104140000Y-117856000D03*
X104140000Y-120396000D03*
X104140000Y-122936000D03*
X104140000Y-125476000D03*
X104140000Y-128016000D03*
X104140000Y-130556000D03*
X104140000Y-133096000D03*
X104140000Y-135636000D03*
X104140000Y-138176000D03*
X104140000Y-140716000D03*
X104140000Y-143256000D03*
X104140000Y-145796000D03*
X104140000Y-148336000D03*
D23*
X106680000Y-115316000D03*
D24*
X106680000Y-117856000D03*
X106680000Y-120396000D03*
X106680000Y-122936000D03*
X106680000Y-125476000D03*
X106680000Y-128016000D03*
X106680000Y-130556000D03*
X106680000Y-133096000D03*
X106680000Y-135636000D03*
X106680000Y-138176000D03*
X106680000Y-140716000D03*
X106680000Y-143256000D03*
X106680000Y-145796000D03*
X106680000Y-148336000D03*
D23*
X111760000Y-131572000D03*
D24*
X111760000Y-129032000D03*
X111760000Y-126492000D03*
X111760000Y-123952000D03*
X111760000Y-121412000D03*
X111760000Y-118872000D03*
D23*
X144272000Y-131572000D03*
D24*
X144272000Y-134112000D03*
X144272000Y-136652000D03*
X144272000Y-139192000D03*
D23*
X146812000Y-131572000D03*
D24*
X146812000Y-134112000D03*
X146812000Y-136652000D03*
X146812000Y-139192000D03*
D25*
X105664000Y-106172000D03*
X102339000Y-105156000D03*
D26*
X131064000Y-122412000D03*
D25*
X135636000Y-103140000D03*
X143764000Y-117348000D03*
X109220000Y-112776000D03*
X111252000Y-102108000D03*
X129032000Y-113792000D03*
X119888000Y-117856000D03*
X133350000Y-116078000D03*
X125476000Y-118872000D03*
D26*
X114554000Y-112268000D03*
X115570000Y-113792000D03*
D27*
X146796000Y-113300000D03*
D26*
X130048000Y-126492000D03*
X139700000Y-125476000D03*
D28*
X107973000Y-106172000D02*
X105664000Y-106172000D01*
X105664000Y-106172000D02*
X103355000Y-106172000D01*
X103355000Y-106172000D02*
X102339000Y-105156000D01*
X114531000Y-106172000D02*
X107973000Y-106172000D01*
X108989000Y-105156000D02*
X107973000Y-106172000D01*
X113515000Y-105156000D02*
X108989000Y-105156000D01*
X120165000Y-105156000D02*
X119149000Y-106172000D01*
X114531000Y-106172000D02*
X113515000Y-105156000D01*
X119149000Y-106172000D02*
X114531000Y-106172000D01*
X135128000Y-146304000D02*
X143764000Y-146304000D01*
D29*
X144272000Y-145796000D02*
X144272000Y-144272000D01*
D28*
X143764000Y-146304000D02*
X144272000Y-145796000D01*
X106680000Y-138176000D02*
X108712000Y-138176000D01*
X108712000Y-138176000D02*
X109220000Y-138684000D01*
X109220000Y-138684000D02*
X109220000Y-146812000D01*
X109220000Y-146812000D02*
X110744000Y-148336000D01*
X110744000Y-148336000D02*
X133096000Y-148336000D01*
X133096000Y-148336000D02*
X135128000Y-146304000D01*
D29*
X135128000Y-146304000D02*
X135128000Y-144272000D01*
D30*
X131588000Y-122412000D02*
X131064000Y-122412000D01*
D31*
X147828000Y-122412000D02*
X148844000Y-121396000D01*
X148844000Y-121396000D02*
X148844000Y-117922000D01*
X148844000Y-117922000D02*
X147828000Y-116906000D01*
D29*
X135620000Y-103124000D02*
X135636000Y-103140000D01*
D32*
X143748000Y-115316000D02*
X143748000Y-117332000D01*
X143748000Y-117332000D02*
X143764000Y-117348000D01*
X143748000Y-117332000D02*
X143764000Y-117348000D01*
X143764000Y-117348000D02*
X143764000Y-115332000D01*
X143764000Y-115332000D02*
X143748000Y-115316000D01*
X143764000Y-115332000D02*
X143748000Y-115316000D01*
X143891000Y-117475000D02*
X145448000Y-117475000D01*
X143764000Y-117348000D02*
X143891000Y-117475000D01*
D29*
X120165000Y-101956000D02*
X123292000Y-101956000D01*
X131572000Y-103124000D02*
X135620000Y-103124000D01*
X130556000Y-102108000D02*
X131572000Y-103124000D01*
X127508000Y-102108000D02*
X130556000Y-102108000D01*
X126492000Y-103124000D02*
X127508000Y-102108000D01*
X124460000Y-103124000D02*
X126492000Y-103124000D01*
X123292000Y-101956000D02*
X124460000Y-103124000D01*
D30*
X131588000Y-122412000D02*
X133096000Y-120904000D01*
X133096000Y-120904000D02*
X133096000Y-118938000D01*
X133096000Y-118938000D02*
X131064000Y-116906000D01*
D28*
X104140000Y-143256000D02*
X103632000Y-143256000D01*
X103632000Y-143256000D02*
X101600000Y-141224000D01*
X101600000Y-139192000D02*
X101600000Y-141224000D01*
X101600000Y-141224000D02*
X101600000Y-144780000D01*
X101600000Y-121412000D02*
X102616000Y-121412000D01*
X102616000Y-121412000D02*
X104140000Y-122936000D01*
X101600000Y-118872000D02*
X101600000Y-121412000D01*
X101600000Y-121412000D02*
X101600000Y-124460000D01*
X104140000Y-120396000D02*
X103124000Y-120396000D01*
X102616000Y-112776000D02*
X109220000Y-112776000D01*
X101600000Y-113792000D02*
X102616000Y-112776000D01*
X101600000Y-118872000D02*
X101600000Y-113792000D01*
X103124000Y-120396000D02*
X101600000Y-118872000D01*
X104140000Y-140716000D02*
X106680000Y-143256000D01*
X104140000Y-140716000D02*
X104140000Y-143256000D01*
X104140000Y-130556000D02*
X106680000Y-133096000D01*
X104140000Y-130556000D02*
X104140000Y-133096000D01*
X104140000Y-120396000D02*
X106680000Y-122936000D01*
X104140000Y-120396000D02*
X104140000Y-122936000D01*
X106680000Y-120396000D02*
X104140000Y-120396000D01*
X106680000Y-122936000D02*
X106680000Y-120396000D01*
X104140000Y-122936000D02*
X106680000Y-122936000D01*
X104140000Y-130556000D02*
X103124000Y-130556000D01*
X103124000Y-130556000D02*
X101600000Y-129032000D01*
X101600000Y-124460000D02*
X103124000Y-122936000D01*
X103124000Y-122936000D02*
X104140000Y-122936000D01*
X106680000Y-130556000D02*
X104140000Y-130556000D01*
X106680000Y-133096000D02*
X106680000Y-130556000D01*
X104140000Y-133096000D02*
X106680000Y-133096000D01*
X104140000Y-140716000D02*
X103124000Y-140716000D01*
X101600000Y-139192000D02*
X101600000Y-134620000D01*
X103124000Y-140716000D02*
X101600000Y-139192000D01*
X101600000Y-134620000D02*
X103124000Y-133096000D01*
X103124000Y-133096000D02*
X104140000Y-133096000D01*
X106680000Y-140716000D02*
X104140000Y-140716000D01*
X106680000Y-143256000D02*
X106680000Y-140716000D01*
X104140000Y-143256000D02*
X106680000Y-143256000D01*
X104140000Y-148336000D02*
X103124000Y-148336000D01*
X101600000Y-146812000D02*
X101600000Y-144780000D01*
X103124000Y-148336000D02*
X101600000Y-146812000D01*
X101600000Y-144780000D02*
X103124000Y-143256000D01*
X103124000Y-143256000D02*
X104140000Y-143256000D01*
X106680000Y-148336000D02*
X104140000Y-148336000D01*
D32*
X120165000Y-101956000D02*
X118720000Y-101956000D01*
X118720000Y-101956000D02*
X117856000Y-101092000D01*
X113515000Y-101956000D02*
X114960000Y-101956000D01*
X114960000Y-101956000D02*
X115824000Y-101092000D01*
D28*
X111252000Y-102108000D02*
X111252000Y-101956000D01*
X111252000Y-101956000D02*
X111252000Y-102108000D01*
X111252000Y-102108000D02*
X111252000Y-101956000D01*
D32*
X102339000Y-101956000D02*
X103784000Y-101956000D01*
X103784000Y-101956000D02*
X104648000Y-101092000D01*
X108989000Y-101956000D02*
X107544000Y-101956000D01*
X107544000Y-101956000D02*
X106680000Y-101092000D01*
X113515000Y-101956000D02*
X114379000Y-101092000D01*
X114379000Y-101092000D02*
X115824000Y-101092000D01*
X115824000Y-101092000D02*
X117856000Y-101092000D01*
X117856000Y-101092000D02*
X119301000Y-101092000D01*
X119301000Y-101092000D02*
X120165000Y-101956000D01*
D28*
X108989000Y-101956000D02*
X111252000Y-101956000D01*
X111252000Y-101956000D02*
X113515000Y-101956000D01*
D32*
X102339000Y-101956000D02*
X103203000Y-101092000D01*
X103203000Y-101092000D02*
X104648000Y-101092000D01*
X104648000Y-101092000D02*
X106680000Y-101092000D01*
X106680000Y-101092000D02*
X108125000Y-101092000D01*
X108125000Y-101092000D02*
X108989000Y-101956000D01*
D28*
X131064000Y-116906000D02*
X129606000Y-116906000D01*
X131064000Y-116906000D02*
X131064000Y-115824000D01*
X127762000Y-115316000D02*
X126984000Y-115316000D01*
D32*
X126984000Y-115775000D02*
X128684000Y-117475000D01*
X126984000Y-115316000D02*
X126984000Y-115775000D01*
X143748000Y-115775000D02*
X143748000Y-115316000D01*
X145448000Y-117475000D02*
X143748000Y-115775000D01*
X147259000Y-117475000D02*
X145448000Y-117475000D01*
X147828000Y-116906000D02*
X147259000Y-117475000D01*
X130495000Y-117475000D02*
X128684000Y-117475000D01*
X131064000Y-116906000D02*
X130495000Y-117475000D01*
D29*
X147828000Y-116906000D02*
X147828000Y-115300000D01*
D28*
X127762000Y-115062000D02*
X127762000Y-115316000D01*
X129606000Y-116906000D02*
X127762000Y-115062000D01*
X131064000Y-115824000D02*
X129032000Y-113792000D01*
X127508000Y-115316000D02*
X127762000Y-115316000D01*
X129032000Y-113792000D02*
X127508000Y-115316000D01*
X101600000Y-130048000D02*
X101600000Y-130556000D01*
X101600000Y-130556000D02*
X104140000Y-133096000D01*
X101600000Y-129032000D02*
X101600000Y-130048000D01*
X101600000Y-130048000D02*
X101600000Y-134620000D01*
X101600000Y-129032000D02*
X101600000Y-124460000D01*
D32*
X117094000Y-116012000D02*
X117094000Y-116840000D01*
X119888000Y-117856000D02*
X119822000Y-117922000D01*
X119822000Y-117922000D02*
X119822000Y-118364000D01*
X116398000Y-115316000D02*
X117094000Y-116012000D01*
X117094000Y-116840000D02*
X114874000Y-116840000D01*
D28*
X106680000Y-117856000D02*
X109220000Y-115316000D01*
X106680000Y-117856000D02*
X109220000Y-117856000D01*
X109220000Y-117856000D02*
X110236000Y-116840000D01*
X104140000Y-115316000D02*
X106680000Y-117856000D01*
X106680000Y-117856000D02*
X106680000Y-117856000D01*
X106680000Y-117856000D02*
X106680000Y-115316000D01*
X104140000Y-117856000D02*
X106680000Y-117856000D01*
X104140000Y-117856000D02*
X104140000Y-115316000D01*
X116398000Y-115316000D02*
X114874000Y-116840000D01*
X108712000Y-115316000D02*
X104140000Y-115316000D01*
D32*
X124587000Y-118745000D02*
X125349000Y-118745000D01*
X119822000Y-118364000D02*
X118298000Y-116840000D01*
X118298000Y-116840000D02*
X117094000Y-116840000D01*
X136586000Y-118364000D02*
X135062000Y-116840000D01*
X135062000Y-116840000D02*
X134112000Y-116840000D01*
X134112000Y-116840000D02*
X133350000Y-116078000D01*
X133350000Y-116078000D02*
X133162000Y-115890000D01*
X133162000Y-115890000D02*
X133162000Y-115316000D01*
D30*
X141732000Y-144272000D02*
X139954000Y-144272000D01*
X140716000Y-144018000D02*
X140716000Y-143764000D01*
X140716000Y-143764000D02*
X141224000Y-144272000D01*
X139700000Y-143002000D02*
X140716000Y-144018000D01*
X139192000Y-143002000D02*
X140208000Y-144018000D01*
X140208000Y-144018000D02*
X140970000Y-144018000D01*
X140970000Y-144018000D02*
X141732000Y-144272000D01*
X139954000Y-144272000D02*
X138684000Y-143002000D01*
X138684000Y-143002000D02*
X139192000Y-143002000D01*
X139192000Y-143002000D02*
X138938000Y-143002000D01*
X140462000Y-143002000D02*
X140462000Y-143764000D01*
X140462000Y-143764000D02*
X139954000Y-144272000D01*
X141732000Y-144272000D02*
X140462000Y-143002000D01*
X133858000Y-143002000D02*
X132588000Y-144272000D01*
X138938000Y-143002000D02*
X133858000Y-143002000D01*
X140462000Y-143002000D02*
X139954000Y-143002000D01*
X139954000Y-143002000D02*
X138938000Y-143002000D01*
D32*
X124587000Y-118745000D02*
X124984000Y-118348000D01*
X123284000Y-118745000D02*
X124587000Y-118745000D01*
X136967000Y-118745000D02*
X136586000Y-118364000D01*
X140048000Y-118745000D02*
X136967000Y-118745000D01*
X141748000Y-118348000D02*
X141351000Y-118745000D01*
X141351000Y-118745000D02*
X140048000Y-118745000D01*
X141748000Y-115316000D02*
X141748000Y-118348000D01*
D28*
X108712000Y-115824000D02*
X108712000Y-115316000D01*
X109220000Y-115316000D02*
X108712000Y-115824000D01*
X110236000Y-116840000D02*
X113284000Y-116840000D01*
X114874000Y-116840000D02*
X113284000Y-116840000D01*
X111760000Y-115316000D02*
X108712000Y-115316000D01*
X113284000Y-116840000D02*
X111760000Y-115316000D01*
D32*
X125349000Y-118745000D02*
X125476000Y-118872000D01*
X124984000Y-118348000D02*
X124984000Y-118380000D01*
X125476000Y-118872000D02*
X124984000Y-118380000D01*
X124984000Y-118348000D02*
X124984000Y-115316000D01*
X120203000Y-118745000D02*
X119822000Y-118364000D01*
X123284000Y-118745000D02*
X120203000Y-118745000D01*
D30*
X108989000Y-108656000D02*
X109414000Y-108656000D01*
X109414000Y-108656000D02*
X110998000Y-110240000D01*
D32*
X102339000Y-108656000D02*
X103919000Y-110236000D01*
X107409000Y-110236000D02*
X108989000Y-108656000D01*
X103919000Y-110236000D02*
X107409000Y-110236000D01*
D30*
X110823000Y-110490000D02*
X108989000Y-108656000D01*
X114554000Y-112268000D02*
X112776000Y-110490000D01*
X112776000Y-110490000D02*
X110823000Y-110490000D01*
D32*
X115095000Y-110236000D02*
X115570000Y-110711000D01*
D30*
X115570000Y-113792000D02*
X115570000Y-110711000D01*
D32*
X120165000Y-108656000D02*
X118585000Y-110236000D01*
X118585000Y-110236000D02*
X115095000Y-110236000D01*
X113515000Y-108656000D02*
X115095000Y-110236000D01*
D30*
X145448000Y-127602000D02*
X141478000Y-131572000D01*
X141478000Y-131572000D02*
X111760000Y-131572000D01*
X145448000Y-121285000D02*
X145448000Y-127602000D01*
X128684000Y-127348000D02*
X127000000Y-129032000D01*
X127000000Y-129032000D02*
X111760000Y-129032000D01*
X128684000Y-121285000D02*
X128684000Y-127348000D01*
X147431000Y-120015000D02*
X147828000Y-120412000D01*
X145448000Y-120015000D02*
X147431000Y-120015000D01*
X130667000Y-120015000D02*
X131064000Y-120412000D01*
X128684000Y-120015000D02*
X130667000Y-120015000D01*
D29*
X148336000Y-109864000D02*
X147748000Y-109276000D01*
X147828000Y-112268000D02*
X148336000Y-111760000D01*
X148336000Y-111760000D02*
X148336000Y-109864000D01*
X147828000Y-113300000D02*
X147828000Y-112268000D01*
X146812000Y-113300000D02*
X147828000Y-113300000D01*
X146796000Y-113300000D02*
X146812000Y-113284000D01*
X146812000Y-113284000D02*
X146812000Y-113300000D01*
X147828000Y-112268000D02*
X146796000Y-113300000D01*
X145851000Y-113300000D02*
X146812000Y-113300000D01*
X145835000Y-113284000D02*
X145851000Y-113300000D01*
X134620000Y-112307000D02*
X134620000Y-109864000D01*
X134032000Y-106994000D02*
X135636000Y-105390000D01*
X134032000Y-109276000D02*
X134032000Y-106994000D01*
X133643000Y-113284000D02*
X134620000Y-112307000D01*
D30*
X134686000Y-120865860D02*
X134724140Y-120904000D01*
X134686000Y-118364000D02*
X134686000Y-120865860D01*
X140048000Y-120015000D02*
X138452860Y-120015000D01*
X138452860Y-120015000D02*
X137563860Y-120904000D01*
X117922000Y-120865860D02*
X117960140Y-120904000D01*
X117960140Y-118402140D02*
X117922000Y-118364000D01*
X117922000Y-118364000D02*
X117922000Y-120865860D01*
X121688860Y-120015000D02*
X123284000Y-120015000D01*
X121434860Y-120269000D02*
X120799860Y-120904000D01*
X120799860Y-120904000D02*
X121688860Y-120015000D01*
X135062000Y-115316000D02*
X136756140Y-115316000D01*
D29*
X143725000Y-113284000D02*
X142748000Y-112307000D01*
X142748000Y-112307000D02*
X142748000Y-110744000D01*
X142748000Y-110744000D02*
X139595860Y-113896140D01*
D30*
X140048000Y-117475000D02*
X139700000Y-117127000D01*
D29*
X142748000Y-105376000D02*
X142748000Y-110744000D01*
D32*
X139595860Y-116735860D02*
X139595860Y-115316000D01*
D30*
X139700000Y-117127000D02*
X139700000Y-116840000D01*
D32*
X139700000Y-116840000D02*
X139595860Y-116735860D01*
D29*
X139595860Y-113896140D02*
X139595860Y-115316000D01*
D30*
X119992140Y-115316000D02*
X118298000Y-115316000D01*
D29*
X128035500Y-111779500D02*
X130028500Y-111779500D01*
X129540000Y-111760000D02*
X129540000Y-111291000D01*
X130009000Y-111760000D02*
X129540000Y-111760000D01*
X130028500Y-111779500D02*
X130009000Y-111760000D01*
X131533000Y-113284000D02*
X129540000Y-111291000D01*
X129540000Y-111291000D02*
X129032000Y-110783000D01*
X126531000Y-113284000D02*
X128035500Y-111779500D01*
X128035500Y-111779500D02*
X129032000Y-110783000D01*
X123444000Y-113284000D02*
X126531000Y-113284000D01*
X122831860Y-113896140D02*
X123444000Y-113284000D01*
X129032000Y-110783000D02*
X129032000Y-105376000D01*
D30*
X123284000Y-117475000D02*
X122936000Y-117127000D01*
D32*
X122936000Y-117127000D02*
X122831860Y-117022860D01*
D29*
X122831860Y-115316000D02*
X122831860Y-113896140D01*
D32*
X122831860Y-117022860D02*
X122831860Y-115316000D01*
D30*
X135649000Y-126492000D02*
X130048000Y-126492000D01*
X140048000Y-121285000D02*
X140048000Y-122093000D01*
X140048000Y-122093000D02*
X135649000Y-126492000D01*
X139700000Y-125410000D02*
X141224000Y-123886000D01*
X141224000Y-123886000D02*
X141224000Y-122461000D01*
X140048000Y-121285000D02*
X141224000Y-122461000D01*
X139700000Y-125476000D02*
X139700000Y-125410000D01*
X111760000Y-123952000D02*
X121425000Y-123952000D01*
X121425000Y-123952000D02*
X123284000Y-122093000D01*
X123284000Y-122093000D02*
X123284000Y-121285000D01*
X144272000Y-131572000D02*
X146812000Y-131572000D01*
D31*
X144018000Y-131826000D02*
X144272000Y-131572000D01*
D30*
X146812000Y-134112000D02*
X144272000Y-134112000D01*
X146812000Y-136652000D02*
X144272000Y-136652000D01*
X146812000Y-139192000D02*
X144272000Y-139192000D01*
X147767000Y-118745000D02*
X147828000Y-118806000D01*
X145448000Y-118745000D02*
X147767000Y-118745000D01*
X128745000Y-118806000D02*
X131064000Y-118806000D01*
X128684000Y-118745000D02*
X128745000Y-118806000D01*
D33*
G36*
X100914000Y-110303440D02*
X102369994Y-110303440D01*
X103110777Y-111044223D01*
X103481593Y-111291994D01*
X103919000Y-111379000D01*
X107409000Y-111379000D01*
X107846407Y-111291994D01*
X108217223Y-111044223D01*
X108958006Y-110303440D01*
X109379204Y-110303440D01*
X110194382Y-111118618D01*
X110482795Y-111311330D01*
X110823000Y-111379000D01*
X112407764Y-111379000D01*
X113418893Y-112390129D01*
X113418803Y-112492775D01*
X113591233Y-112910086D01*
X113910235Y-113229645D01*
X114327244Y-113402803D01*
X114502585Y-113402956D01*
X114435197Y-113565244D01*
X114434803Y-114016775D01*
X114607233Y-114434086D01*
X114787297Y-114614464D01*
X114196760Y-115205000D01*
X113961239Y-115205000D01*
X112916120Y-114159880D01*
X112385688Y-113805457D01*
X111760000Y-113680999D01*
X111759995Y-113681000D01*
X104140005Y-113681000D01*
X104140000Y-113680999D01*
X103516811Y-113804960D01*
X103124000Y-113804960D01*
X102888683Y-113849238D01*
X102672559Y-113988310D01*
X102527569Y-114200510D01*
X102476560Y-114452400D01*
X102476560Y-116179600D01*
X102505000Y-116330745D01*
X102505000Y-117612953D01*
X102456655Y-117856000D01*
X102570729Y-118429489D01*
X102895585Y-118915670D01*
X102938670Y-118944459D01*
X102983880Y-119012120D01*
X103181086Y-119143889D01*
X102789268Y-119493964D01*
X102535291Y-120021209D01*
X102532642Y-120036974D01*
X102653783Y-120269000D01*
X104013000Y-120269000D01*
X104013000Y-120249000D01*
X104267000Y-120249000D01*
X104267000Y-120269000D01*
X106553000Y-120269000D01*
X106553000Y-120249000D01*
X106807000Y-120249000D01*
X106807000Y-120269000D01*
X108166217Y-120269000D01*
X108287358Y-120036974D01*
X108284709Y-120021209D01*
X108030732Y-119493964D01*
X108027415Y-119491000D01*
X109219995Y-119491000D01*
X109220000Y-119491001D01*
X109845688Y-119366543D01*
X110136389Y-119172303D01*
X110190729Y-119445489D01*
X110515585Y-119931670D01*
X110830366Y-120142000D01*
X110515585Y-120352330D01*
X110190729Y-120838511D01*
X110076655Y-121412000D01*
X110190729Y-121985489D01*
X110515585Y-122471670D01*
X110830366Y-122682000D01*
X110515585Y-122892330D01*
X110190729Y-123378511D01*
X110076655Y-123952000D01*
X110190729Y-124525489D01*
X110515585Y-125011670D01*
X110830366Y-125222000D01*
X110515585Y-125432330D01*
X110190729Y-125918511D01*
X110076655Y-126492000D01*
X110190729Y-127065489D01*
X110515585Y-127551670D01*
X110830366Y-127762000D01*
X110515585Y-127972330D01*
X110190729Y-128458511D01*
X110076655Y-129032000D01*
X110190729Y-129605489D01*
X110515585Y-130091670D01*
X110529913Y-130101243D01*
X110508683Y-130105238D01*
X110292559Y-130244310D01*
X110147569Y-130456510D01*
X110096560Y-130708400D01*
X110096560Y-132435600D01*
X110140838Y-132670917D01*
X110279910Y-132887041D01*
X110492110Y-133032031D01*
X110744000Y-133083040D01*
X112776000Y-133083040D01*
X113011317Y-133038762D01*
X113227441Y-132899690D01*
X113372431Y-132687490D01*
X113418296Y-132461000D01*
X141478000Y-132461000D01*
X141818206Y-132393329D01*
X142106618Y-132200618D01*
X142608560Y-131698676D01*
X142608560Y-132435600D01*
X142652838Y-132670917D01*
X142791910Y-132887041D01*
X143004110Y-133032031D01*
X143045439Y-133040400D01*
X143027585Y-133052330D01*
X142702729Y-133538511D01*
X142588655Y-134112000D01*
X142702729Y-134685489D01*
X143027585Y-135171670D01*
X143342366Y-135382000D01*
X143027585Y-135592330D01*
X142702729Y-136078511D01*
X142588655Y-136652000D01*
X142702729Y-137225489D01*
X143027585Y-137711670D01*
X143342366Y-137922000D01*
X143027585Y-138132330D01*
X142702729Y-138618511D01*
X142588655Y-139192000D01*
X142702729Y-139765489D01*
X143027585Y-140251670D01*
X143412769Y-140509042D01*
X143212330Y-140642971D01*
X143002000Y-140957752D01*
X142791670Y-140642971D01*
X142305489Y-140318115D01*
X141732000Y-140204041D01*
X141158511Y-140318115D01*
X140672330Y-140642971D01*
X140347474Y-141129152D01*
X140233400Y-141702641D01*
X140233400Y-141761359D01*
X140303346Y-142113000D01*
X139179040Y-142113000D01*
X139179040Y-140868400D01*
X139134762Y-140633083D01*
X138995690Y-140416959D01*
X138783490Y-140271969D01*
X138531600Y-140220960D01*
X136804400Y-140220960D01*
X136569083Y-140265238D01*
X136352959Y-140404310D01*
X136207969Y-140616510D01*
X136199136Y-140660131D01*
X136187670Y-140642971D01*
X135701489Y-140318115D01*
X135128000Y-140204041D01*
X134554511Y-140318115D01*
X134068330Y-140642971D01*
X133858000Y-140957752D01*
X133647670Y-140642971D01*
X133161489Y-140318115D01*
X132588000Y-140204041D01*
X132014511Y-140318115D01*
X131528330Y-140642971D01*
X131203474Y-141129152D01*
X131089400Y-141702641D01*
X131089400Y-141761359D01*
X131203474Y-142334848D01*
X131528330Y-142821029D01*
X131799172Y-143002000D01*
X131528330Y-143182971D01*
X131203474Y-143669152D01*
X131089400Y-144242641D01*
X131089400Y-144301359D01*
X131203474Y-144874848D01*
X131528330Y-145361029D01*
X132014511Y-145685885D01*
X132588000Y-145799959D01*
X133161489Y-145685885D01*
X133647670Y-145361029D01*
X133743000Y-145218358D01*
X133743000Y-145376760D01*
X132418760Y-146701000D01*
X111421239Y-146701000D01*
X110855000Y-146134760D01*
X110855000Y-138684000D01*
X110730543Y-138058313D01*
X110376120Y-137527880D01*
X110376117Y-137527878D01*
X109868120Y-137019880D01*
X109337688Y-136665457D01*
X108712000Y-136540999D01*
X108711995Y-136541000D01*
X108027762Y-136541000D01*
X108249271Y-136209489D01*
X108363345Y-135636000D01*
X108249271Y-135062511D01*
X107924415Y-134576330D01*
X107614931Y-134369539D01*
X108030732Y-133998036D01*
X108284709Y-133470791D01*
X108287358Y-133455026D01*
X108166217Y-133223000D01*
X106807000Y-133223000D01*
X106807000Y-133243000D01*
X106553000Y-133243000D01*
X106553000Y-133223000D01*
X104267000Y-133223000D01*
X104267000Y-133243000D01*
X104013000Y-133243000D01*
X104013000Y-133223000D01*
X102653783Y-133223000D01*
X102532642Y-133455026D01*
X102535291Y-133470791D01*
X102789268Y-133998036D01*
X103205069Y-134369539D01*
X102895585Y-134576330D01*
X102570729Y-135062511D01*
X102456655Y-135636000D01*
X102570729Y-136209489D01*
X102895585Y-136695670D01*
X103210366Y-136906000D01*
X102895585Y-137116330D01*
X102570729Y-137602511D01*
X102456655Y-138176000D01*
X102570729Y-138749489D01*
X102895585Y-139235670D01*
X103205069Y-139442461D01*
X102789268Y-139813964D01*
X102535291Y-140341209D01*
X102532642Y-140356974D01*
X102653783Y-140589000D01*
X104013000Y-140589000D01*
X104013000Y-140569000D01*
X104267000Y-140569000D01*
X104267000Y-140589000D01*
X106553000Y-140589000D01*
X106553000Y-140569000D01*
X106807000Y-140569000D01*
X106807000Y-140589000D01*
X106827000Y-140589000D01*
X106827000Y-140843000D01*
X106807000Y-140843000D01*
X106807000Y-143129000D01*
X106827000Y-143129000D01*
X106827000Y-143383000D01*
X106807000Y-143383000D01*
X106807000Y-143403000D01*
X106553000Y-143403000D01*
X106553000Y-143383000D01*
X104267000Y-143383000D01*
X104267000Y-143403000D01*
X104013000Y-143403000D01*
X104013000Y-143383000D01*
X102653783Y-143383000D01*
X102532642Y-143615026D01*
X102535291Y-143630791D01*
X102789268Y-144158036D01*
X103205069Y-144529539D01*
X102895585Y-144736330D01*
X102570729Y-145222511D01*
X102456655Y-145796000D01*
X102570729Y-146369489D01*
X102895585Y-146855670D01*
X103205069Y-147062461D01*
X102789268Y-147433964D01*
X102535291Y-147961209D01*
X102532642Y-147976974D01*
X102653783Y-148209000D01*
X104013000Y-148209000D01*
X104013000Y-148189000D01*
X104267000Y-148189000D01*
X104267000Y-148209000D01*
X106553000Y-148209000D01*
X106553000Y-148189000D01*
X106807000Y-148189000D01*
X106807000Y-148209000D01*
X108166217Y-148209000D01*
X108213739Y-148117979D01*
X109270761Y-149175000D01*
X108061097Y-149175000D01*
X108284709Y-148710791D01*
X108287358Y-148695026D01*
X108166217Y-148463000D01*
X106807000Y-148463000D01*
X106807000Y-148483000D01*
X106553000Y-148483000D01*
X106553000Y-148463000D01*
X104267000Y-148463000D01*
X104267000Y-148483000D01*
X104013000Y-148483000D01*
X104013000Y-148463000D01*
X102653783Y-148463000D01*
X102532642Y-148695026D01*
X102535291Y-148710791D01*
X102758903Y-149175000D01*
X100761000Y-149175000D01*
X100761000Y-141075026D01*
X102532642Y-141075026D01*
X102535291Y-141090791D01*
X102789268Y-141618036D01*
X103201108Y-141986000D01*
X102789268Y-142353964D01*
X102535291Y-142881209D01*
X102532642Y-142896974D01*
X102653783Y-143129000D01*
X104013000Y-143129000D01*
X104013000Y-140843000D01*
X104267000Y-140843000D01*
X104267000Y-143129000D01*
X106553000Y-143129000D01*
X106553000Y-140843000D01*
X104267000Y-140843000D01*
X104013000Y-140843000D01*
X102653783Y-140843000D01*
X102532642Y-141075026D01*
X100761000Y-141075026D01*
X100761000Y-130915026D01*
X102532642Y-130915026D01*
X102535291Y-130930791D01*
X102789268Y-131458036D01*
X103201108Y-131826000D01*
X102789268Y-132193964D01*
X102535291Y-132721209D01*
X102532642Y-132736974D01*
X102653783Y-132969000D01*
X104013000Y-132969000D01*
X104013000Y-130683000D01*
X104267000Y-130683000D01*
X104267000Y-132969000D01*
X106553000Y-132969000D01*
X106553000Y-130683000D01*
X106807000Y-130683000D01*
X106807000Y-132969000D01*
X108166217Y-132969000D01*
X108287358Y-132736974D01*
X108284709Y-132721209D01*
X108030732Y-132193964D01*
X107618892Y-131826000D01*
X108030732Y-131458036D01*
X108284709Y-130930791D01*
X108287358Y-130915026D01*
X108166217Y-130683000D01*
X106807000Y-130683000D01*
X106553000Y-130683000D01*
X104267000Y-130683000D01*
X104013000Y-130683000D01*
X102653783Y-130683000D01*
X102532642Y-130915026D01*
X100761000Y-130915026D01*
X100761000Y-125476000D01*
X102456655Y-125476000D01*
X102570729Y-126049489D01*
X102895585Y-126535670D01*
X103210366Y-126746000D01*
X102895585Y-126956330D01*
X102570729Y-127442511D01*
X102456655Y-128016000D01*
X102570729Y-128589489D01*
X102895585Y-129075670D01*
X103205069Y-129282461D01*
X102789268Y-129653964D01*
X102535291Y-130181209D01*
X102532642Y-130196974D01*
X102653783Y-130429000D01*
X104013000Y-130429000D01*
X104013000Y-130409000D01*
X104267000Y-130409000D01*
X104267000Y-130429000D01*
X106553000Y-130429000D01*
X106553000Y-130409000D01*
X106807000Y-130409000D01*
X106807000Y-130429000D01*
X108166217Y-130429000D01*
X108287358Y-130196974D01*
X108284709Y-130181209D01*
X108030732Y-129653964D01*
X107614931Y-129282461D01*
X107924415Y-129075670D01*
X108249271Y-128589489D01*
X108363345Y-128016000D01*
X108249271Y-127442511D01*
X107924415Y-126956330D01*
X107609634Y-126746000D01*
X107924415Y-126535670D01*
X108249271Y-126049489D01*
X108363345Y-125476000D01*
X108249271Y-124902511D01*
X107924415Y-124416330D01*
X107614931Y-124209539D01*
X108030732Y-123838036D01*
X108284709Y-123310791D01*
X108287358Y-123295026D01*
X108166217Y-123063000D01*
X106807000Y-123063000D01*
X106807000Y-123083000D01*
X106553000Y-123083000D01*
X106553000Y-123063000D01*
X104267000Y-123063000D01*
X104267000Y-123083000D01*
X104013000Y-123083000D01*
X104013000Y-123063000D01*
X102653783Y-123063000D01*
X102532642Y-123295026D01*
X102535291Y-123310791D01*
X102789268Y-123838036D01*
X103205069Y-124209539D01*
X102895585Y-124416330D01*
X102570729Y-124902511D01*
X102456655Y-125476000D01*
X100761000Y-125476000D01*
X100761000Y-120755026D01*
X102532642Y-120755026D01*
X102535291Y-120770791D01*
X102789268Y-121298036D01*
X103201108Y-121666000D01*
X102789268Y-122033964D01*
X102535291Y-122561209D01*
X102532642Y-122576974D01*
X102653783Y-122809000D01*
X104013000Y-122809000D01*
X104013000Y-120523000D01*
X104267000Y-120523000D01*
X104267000Y-122809000D01*
X106553000Y-122809000D01*
X106553000Y-120523000D01*
X106807000Y-120523000D01*
X106807000Y-122809000D01*
X108166217Y-122809000D01*
X108287358Y-122576974D01*
X108284709Y-122561209D01*
X108030732Y-122033964D01*
X107618892Y-121666000D01*
X108030732Y-121298036D01*
X108284709Y-120770791D01*
X108287358Y-120755026D01*
X108166217Y-120523000D01*
X106807000Y-120523000D01*
X106553000Y-120523000D01*
X104267000Y-120523000D01*
X104013000Y-120523000D01*
X102653783Y-120523000D01*
X102532642Y-120755026D01*
X100761000Y-120755026D01*
X100761000Y-110272457D01*
X100914000Y-110303440D01*
X100914000Y-110303440D01*
G37*
X100914000Y-110303440D02*
X102369994Y-110303440D01*
X103110777Y-111044223D01*
X103481593Y-111291994D01*
X103919000Y-111379000D01*
X107409000Y-111379000D01*
X107846407Y-111291994D01*
X108217223Y-111044223D01*
X108958006Y-110303440D01*
X109379204Y-110303440D01*
X110194382Y-111118618D01*
X110482795Y-111311330D01*
X110823000Y-111379000D01*
X112407764Y-111379000D01*
X113418893Y-112390129D01*
X113418803Y-112492775D01*
X113591233Y-112910086D01*
X113910235Y-113229645D01*
X114327244Y-113402803D01*
X114502585Y-113402956D01*
X114435197Y-113565244D01*
X114434803Y-114016775D01*
X114607233Y-114434086D01*
X114787297Y-114614464D01*
X114196760Y-115205000D01*
X113961239Y-115205000D01*
X112916120Y-114159880D01*
X112385688Y-113805457D01*
X111760000Y-113680999D01*
X111759995Y-113681000D01*
X104140005Y-113681000D01*
X104140000Y-113680999D01*
X103516811Y-113804960D01*
X103124000Y-113804960D01*
X102888683Y-113849238D01*
X102672559Y-113988310D01*
X102527569Y-114200510D01*
X102476560Y-114452400D01*
X102476560Y-116179600D01*
X102505000Y-116330745D01*
X102505000Y-117612953D01*
X102456655Y-117856000D01*
X102570729Y-118429489D01*
X102895585Y-118915670D01*
X102938670Y-118944459D01*
X102983880Y-119012120D01*
X103181086Y-119143889D01*
X102789268Y-119493964D01*
X102535291Y-120021209D01*
X102532642Y-120036974D01*
X102653783Y-120269000D01*
X104013000Y-120269000D01*
X104013000Y-120249000D01*
X104267000Y-120249000D01*
X104267000Y-120269000D01*
X106553000Y-120269000D01*
X106553000Y-120249000D01*
X106807000Y-120249000D01*
X106807000Y-120269000D01*
X108166217Y-120269000D01*
X108287358Y-120036974D01*
X108284709Y-120021209D01*
X108030732Y-119493964D01*
X108027415Y-119491000D01*
X109219995Y-119491000D01*
X109220000Y-119491001D01*
X109845688Y-119366543D01*
X110136389Y-119172303D01*
X110190729Y-119445489D01*
X110515585Y-119931670D01*
X110830366Y-120142000D01*
X110515585Y-120352330D01*
X110190729Y-120838511D01*
X110076655Y-121412000D01*
X110190729Y-121985489D01*
X110515585Y-122471670D01*
X110830366Y-122682000D01*
X110515585Y-122892330D01*
X110190729Y-123378511D01*
X110076655Y-123952000D01*
X110190729Y-124525489D01*
X110515585Y-125011670D01*
X110830366Y-125222000D01*
X110515585Y-125432330D01*
X110190729Y-125918511D01*
X110076655Y-126492000D01*
X110190729Y-127065489D01*
X110515585Y-127551670D01*
X110830366Y-127762000D01*
X110515585Y-127972330D01*
X110190729Y-128458511D01*
X110076655Y-129032000D01*
X110190729Y-129605489D01*
X110515585Y-130091670D01*
X110529913Y-130101243D01*
X110508683Y-130105238D01*
X110292559Y-130244310D01*
X110147569Y-130456510D01*
X110096560Y-130708400D01*
X110096560Y-132435600D01*
X110140838Y-132670917D01*
X110279910Y-132887041D01*
X110492110Y-133032031D01*
X110744000Y-133083040D01*
X112776000Y-133083040D01*
X113011317Y-133038762D01*
X113227441Y-132899690D01*
X113372431Y-132687490D01*
X113418296Y-132461000D01*
X141478000Y-132461000D01*
X141818206Y-132393329D01*
X142106618Y-132200618D01*
X142608560Y-131698676D01*
X142608560Y-132435600D01*
X142652838Y-132670917D01*
X142791910Y-132887041D01*
X143004110Y-133032031D01*
X143045439Y-133040400D01*
X143027585Y-133052330D01*
X142702729Y-133538511D01*
X142588655Y-134112000D01*
X142702729Y-134685489D01*
X143027585Y-135171670D01*
X143342366Y-135382000D01*
X143027585Y-135592330D01*
X142702729Y-136078511D01*
X142588655Y-136652000D01*
X142702729Y-137225489D01*
X143027585Y-137711670D01*
X143342366Y-137922000D01*
X143027585Y-138132330D01*
X142702729Y-138618511D01*
X142588655Y-139192000D01*
X142702729Y-139765489D01*
X143027585Y-140251670D01*
X143412769Y-140509042D01*
X143212330Y-140642971D01*
X143002000Y-140957752D01*
X142791670Y-140642971D01*
X142305489Y-140318115D01*
X141732000Y-140204041D01*
X141158511Y-140318115D01*
X140672330Y-140642971D01*
X140347474Y-141129152D01*
X140233400Y-141702641D01*
X140233400Y-141761359D01*
X140303346Y-142113000D01*
X139179040Y-142113000D01*
X139179040Y-140868400D01*
X139134762Y-140633083D01*
X138995690Y-140416959D01*
X138783490Y-140271969D01*
X138531600Y-140220960D01*
X136804400Y-140220960D01*
X136569083Y-140265238D01*
X136352959Y-140404310D01*
X136207969Y-140616510D01*
X136199136Y-140660131D01*
X136187670Y-140642971D01*
X135701489Y-140318115D01*
X135128000Y-140204041D01*
X134554511Y-140318115D01*
X134068330Y-140642971D01*
X133858000Y-140957752D01*
X133647670Y-140642971D01*
X133161489Y-140318115D01*
X132588000Y-140204041D01*
X132014511Y-140318115D01*
X131528330Y-140642971D01*
X131203474Y-141129152D01*
X131089400Y-141702641D01*
X131089400Y-141761359D01*
X131203474Y-142334848D01*
X131528330Y-142821029D01*
X131799172Y-143002000D01*
X131528330Y-143182971D01*
X131203474Y-143669152D01*
X131089400Y-144242641D01*
X131089400Y-144301359D01*
X131203474Y-144874848D01*
X131528330Y-145361029D01*
X132014511Y-145685885D01*
X132588000Y-145799959D01*
X133161489Y-145685885D01*
X133647670Y-145361029D01*
X133743000Y-145218358D01*
X133743000Y-145376760D01*
X132418760Y-146701000D01*
X111421239Y-146701000D01*
X110855000Y-146134760D01*
X110855000Y-138684000D01*
X110730543Y-138058313D01*
X110376120Y-137527880D01*
X110376117Y-137527878D01*
X109868120Y-137019880D01*
X109337688Y-136665457D01*
X108712000Y-136540999D01*
X108711995Y-136541000D01*
X108027762Y-136541000D01*
X108249271Y-136209489D01*
X108363345Y-135636000D01*
X108249271Y-135062511D01*
X107924415Y-134576330D01*
X107614931Y-134369539D01*
X108030732Y-133998036D01*
X108284709Y-133470791D01*
X108287358Y-133455026D01*
X108166217Y-133223000D01*
X106807000Y-133223000D01*
X106807000Y-133243000D01*
X106553000Y-133243000D01*
X106553000Y-133223000D01*
X104267000Y-133223000D01*
X104267000Y-133243000D01*
X104013000Y-133243000D01*
X104013000Y-133223000D01*
X102653783Y-133223000D01*
X102532642Y-133455026D01*
X102535291Y-133470791D01*
X102789268Y-133998036D01*
X103205069Y-134369539D01*
X102895585Y-134576330D01*
X102570729Y-135062511D01*
X102456655Y-135636000D01*
X102570729Y-136209489D01*
X102895585Y-136695670D01*
X103210366Y-136906000D01*
X102895585Y-137116330D01*
X102570729Y-137602511D01*
X102456655Y-138176000D01*
X102570729Y-138749489D01*
X102895585Y-139235670D01*
X103205069Y-139442461D01*
X102789268Y-139813964D01*
X102535291Y-140341209D01*
X102532642Y-140356974D01*
X102653783Y-140589000D01*
X104013000Y-140589000D01*
X104013000Y-140569000D01*
X104267000Y-140569000D01*
X104267000Y-140589000D01*
X106553000Y-140589000D01*
X106553000Y-140569000D01*
X106807000Y-140569000D01*
X106807000Y-140589000D01*
X106827000Y-140589000D01*
X106827000Y-140843000D01*
X106807000Y-140843000D01*
X106807000Y-143129000D01*
X106827000Y-143129000D01*
X106827000Y-143383000D01*
X106807000Y-143383000D01*
X106807000Y-143403000D01*
X106553000Y-143403000D01*
X106553000Y-143383000D01*
X104267000Y-143383000D01*
X104267000Y-143403000D01*
X104013000Y-143403000D01*
X104013000Y-143383000D01*
X102653783Y-143383000D01*
X102532642Y-143615026D01*
X102535291Y-143630791D01*
X102789268Y-144158036D01*
X103205069Y-144529539D01*
X102895585Y-144736330D01*
X102570729Y-145222511D01*
X102456655Y-145796000D01*
X102570729Y-146369489D01*
X102895585Y-146855670D01*
X103205069Y-147062461D01*
X102789268Y-147433964D01*
X102535291Y-147961209D01*
X102532642Y-147976974D01*
X102653783Y-148209000D01*
X104013000Y-148209000D01*
X104013000Y-148189000D01*
X104267000Y-148189000D01*
X104267000Y-148209000D01*
X106553000Y-148209000D01*
X106553000Y-148189000D01*
X106807000Y-148189000D01*
X106807000Y-148209000D01*
X108166217Y-148209000D01*
X108213739Y-148117979D01*
X109270761Y-149175000D01*
X108061097Y-149175000D01*
X108284709Y-148710791D01*
X108287358Y-148695026D01*
X108166217Y-148463000D01*
X106807000Y-148463000D01*
X106807000Y-148483000D01*
X106553000Y-148483000D01*
X106553000Y-148463000D01*
X104267000Y-148463000D01*
X104267000Y-148483000D01*
X104013000Y-148483000D01*
X104013000Y-148463000D01*
X102653783Y-148463000D01*
X102532642Y-148695026D01*
X102535291Y-148710791D01*
X102758903Y-149175000D01*
X100761000Y-149175000D01*
X100761000Y-141075026D01*
X102532642Y-141075026D01*
X102535291Y-141090791D01*
X102789268Y-141618036D01*
X103201108Y-141986000D01*
X102789268Y-142353964D01*
X102535291Y-142881209D01*
X102532642Y-142896974D01*
X102653783Y-143129000D01*
X104013000Y-143129000D01*
X104013000Y-140843000D01*
X104267000Y-140843000D01*
X104267000Y-143129000D01*
X106553000Y-143129000D01*
X106553000Y-140843000D01*
X104267000Y-140843000D01*
X104013000Y-140843000D01*
X102653783Y-140843000D01*
X102532642Y-141075026D01*
X100761000Y-141075026D01*
X100761000Y-130915026D01*
X102532642Y-130915026D01*
X102535291Y-130930791D01*
X102789268Y-131458036D01*
X103201108Y-131826000D01*
X102789268Y-132193964D01*
X102535291Y-132721209D01*
X102532642Y-132736974D01*
X102653783Y-132969000D01*
X104013000Y-132969000D01*
X104013000Y-130683000D01*
X104267000Y-130683000D01*
X104267000Y-132969000D01*
X106553000Y-132969000D01*
X106553000Y-130683000D01*
X106807000Y-130683000D01*
X106807000Y-132969000D01*
X108166217Y-132969000D01*
X108287358Y-132736974D01*
X108284709Y-132721209D01*
X108030732Y-132193964D01*
X107618892Y-131826000D01*
X108030732Y-131458036D01*
X108284709Y-130930791D01*
X108287358Y-130915026D01*
X108166217Y-130683000D01*
X106807000Y-130683000D01*
X106553000Y-130683000D01*
X104267000Y-130683000D01*
X104013000Y-130683000D01*
X102653783Y-130683000D01*
X102532642Y-130915026D01*
X100761000Y-130915026D01*
X100761000Y-125476000D01*
X102456655Y-125476000D01*
X102570729Y-126049489D01*
X102895585Y-126535670D01*
X103210366Y-126746000D01*
X102895585Y-126956330D01*
X102570729Y-127442511D01*
X102456655Y-128016000D01*
X102570729Y-128589489D01*
X102895585Y-129075670D01*
X103205069Y-129282461D01*
X102789268Y-129653964D01*
X102535291Y-130181209D01*
X102532642Y-130196974D01*
X102653783Y-130429000D01*
X104013000Y-130429000D01*
X104013000Y-130409000D01*
X104267000Y-130409000D01*
X104267000Y-130429000D01*
X106553000Y-130429000D01*
X106553000Y-130409000D01*
X106807000Y-130409000D01*
X106807000Y-130429000D01*
X108166217Y-130429000D01*
X108287358Y-130196974D01*
X108284709Y-130181209D01*
X108030732Y-129653964D01*
X107614931Y-129282461D01*
X107924415Y-129075670D01*
X108249271Y-128589489D01*
X108363345Y-128016000D01*
X108249271Y-127442511D01*
X107924415Y-126956330D01*
X107609634Y-126746000D01*
X107924415Y-126535670D01*
X108249271Y-126049489D01*
X108363345Y-125476000D01*
X108249271Y-124902511D01*
X107924415Y-124416330D01*
X107614931Y-124209539D01*
X108030732Y-123838036D01*
X108284709Y-123310791D01*
X108287358Y-123295026D01*
X108166217Y-123063000D01*
X106807000Y-123063000D01*
X106807000Y-123083000D01*
X106553000Y-123083000D01*
X106553000Y-123063000D01*
X104267000Y-123063000D01*
X104267000Y-123083000D01*
X104013000Y-123083000D01*
X104013000Y-123063000D01*
X102653783Y-123063000D01*
X102532642Y-123295026D01*
X102535291Y-123310791D01*
X102789268Y-123838036D01*
X103205069Y-124209539D01*
X102895585Y-124416330D01*
X102570729Y-124902511D01*
X102456655Y-125476000D01*
X100761000Y-125476000D01*
X100761000Y-120755026D01*
X102532642Y-120755026D01*
X102535291Y-120770791D01*
X102789268Y-121298036D01*
X103201108Y-121666000D01*
X102789268Y-122033964D01*
X102535291Y-122561209D01*
X102532642Y-122576974D01*
X102653783Y-122809000D01*
X104013000Y-122809000D01*
X104013000Y-120523000D01*
X104267000Y-120523000D01*
X104267000Y-122809000D01*
X106553000Y-122809000D01*
X106553000Y-120523000D01*
X106807000Y-120523000D01*
X106807000Y-122809000D01*
X108166217Y-122809000D01*
X108287358Y-122576974D01*
X108284709Y-122561209D01*
X108030732Y-122033964D01*
X107618892Y-121666000D01*
X108030732Y-121298036D01*
X108284709Y-120770791D01*
X108287358Y-120755026D01*
X108166217Y-120523000D01*
X106807000Y-120523000D01*
X106553000Y-120523000D01*
X104267000Y-120523000D01*
X104013000Y-120523000D01*
X102653783Y-120523000D01*
X102532642Y-120755026D01*
X100761000Y-120755026D01*
X100761000Y-110272457D01*
X100914000Y-110303440D01*
G36*
X149175000Y-149175000D02*
X134569240Y-149175000D01*
X135805240Y-147939000D01*
X143763995Y-147939000D01*
X143764000Y-147939001D01*
X144389688Y-147814543D01*
X144920120Y-147460120D01*
X145428119Y-146952120D01*
X145782542Y-146421688D01*
X145907000Y-145796000D01*
X145830924Y-145413544D01*
X146238511Y-145685885D01*
X146812000Y-145799959D01*
X147385489Y-145685885D01*
X147871670Y-145361029D01*
X148196526Y-144874848D01*
X148310600Y-144301359D01*
X148310600Y-144242641D01*
X148196526Y-143669152D01*
X147885426Y-143203558D01*
X147910917Y-143198762D01*
X148127041Y-143059690D01*
X148272031Y-142847490D01*
X148323040Y-142595600D01*
X148323040Y-140868400D01*
X148278762Y-140633083D01*
X148139690Y-140416959D01*
X147976212Y-140305260D01*
X148056415Y-140251670D01*
X148381271Y-139765489D01*
X148495345Y-139192000D01*
X148381271Y-138618511D01*
X148056415Y-138132330D01*
X147741634Y-137922000D01*
X148056415Y-137711670D01*
X148381271Y-137225489D01*
X148495345Y-136652000D01*
X148381271Y-136078511D01*
X148056415Y-135592330D01*
X147741634Y-135382000D01*
X148056415Y-135171670D01*
X148381271Y-134685489D01*
X148495345Y-134112000D01*
X148381271Y-133538511D01*
X148056415Y-133052330D01*
X148042087Y-133042757D01*
X148063317Y-133038762D01*
X148279441Y-132899690D01*
X148424431Y-132687490D01*
X148475440Y-132435600D01*
X148475440Y-130708400D01*
X148431162Y-130473083D01*
X148292090Y-130256959D01*
X148079890Y-130111969D01*
X147828000Y-130060960D01*
X145796000Y-130060960D01*
X145560683Y-130105238D01*
X145544901Y-130115393D01*
X145539890Y-130111969D01*
X145288000Y-130060960D01*
X144246276Y-130060960D01*
X146076618Y-128230618D01*
X146117570Y-128169329D01*
X146269329Y-127942206D01*
X146337000Y-127602000D01*
X146337000Y-122697750D01*
X146568000Y-122697750D01*
X146568000Y-123038309D01*
X146664673Y-123271698D01*
X146843301Y-123450327D01*
X147076690Y-123547000D01*
X147542250Y-123547000D01*
X147701000Y-123388250D01*
X147701000Y-122539000D01*
X147955000Y-122539000D01*
X147955000Y-123388250D01*
X148113750Y-123547000D01*
X148579310Y-123547000D01*
X148812699Y-123450327D01*
X148991327Y-123271698D01*
X149088000Y-123038309D01*
X149088000Y-122697750D01*
X148929250Y-122539000D01*
X147955000Y-122539000D01*
X147701000Y-122539000D01*
X146726750Y-122539000D01*
X146568000Y-122697750D01*
X146337000Y-122697750D01*
X146337000Y-122210989D01*
X146458317Y-122188162D01*
X146568000Y-122117583D01*
X146568000Y-122126250D01*
X146726750Y-122285000D01*
X147701000Y-122285000D01*
X147701000Y-122265000D01*
X147955000Y-122265000D01*
X147955000Y-122285000D01*
X148929250Y-122285000D01*
X149088000Y-122126250D01*
X149088000Y-121785691D01*
X148991327Y-121552302D01*
X148850090Y-121411064D01*
X148904441Y-121376090D01*
X149049431Y-121163890D01*
X149100440Y-120912000D01*
X149100440Y-119912000D01*
X149056162Y-119676683D01*
X148975947Y-119552026D01*
X149074431Y-119407890D01*
X149125440Y-119156000D01*
X149125440Y-118456000D01*
X149081162Y-118220683D01*
X148942090Y-118004559D01*
X148729890Y-117859569D01*
X148696510Y-117852809D01*
X148837699Y-117794327D01*
X149016327Y-117615698D01*
X149113000Y-117382309D01*
X149113000Y-117191750D01*
X148954250Y-117033000D01*
X147955000Y-117033000D01*
X147955000Y-117053000D01*
X147701000Y-117053000D01*
X147701000Y-117033000D01*
X147681000Y-117033000D01*
X147681000Y-116779000D01*
X147701000Y-116779000D01*
X147701000Y-115427000D01*
X147955000Y-115427000D01*
X147955000Y-116779000D01*
X148954250Y-116779000D01*
X149113000Y-116620250D01*
X149113000Y-116429691D01*
X149016327Y-116196302D01*
X148985525Y-116165500D01*
X148991327Y-116159698D01*
X149088000Y-115926309D01*
X149088000Y-115585750D01*
X148929250Y-115427000D01*
X147955000Y-115427000D01*
X147701000Y-115427000D01*
X146726750Y-115427000D01*
X146568000Y-115585750D01*
X146568000Y-115926309D01*
X146664673Y-116159698D01*
X146670475Y-116165500D01*
X146639673Y-116196302D01*
X146543000Y-116429691D01*
X146543000Y-116620230D01*
X146349309Y-116540000D01*
X145733750Y-116540000D01*
X145575000Y-116698750D01*
X145575000Y-117348000D01*
X145595000Y-117348000D01*
X145595000Y-117602000D01*
X145575000Y-117602000D01*
X145575000Y-117622000D01*
X145321000Y-117622000D01*
X145321000Y-117602000D01*
X144196750Y-117602000D01*
X144038000Y-117760750D01*
X144038000Y-117901310D01*
X144127806Y-118118122D01*
X144076569Y-118193110D01*
X144025560Y-118445000D01*
X144025560Y-119045000D01*
X144069838Y-119280317D01*
X144133678Y-119379528D01*
X144076569Y-119463110D01*
X144025560Y-119715000D01*
X144025560Y-120315000D01*
X144069838Y-120550317D01*
X144133678Y-120649528D01*
X144076569Y-120733110D01*
X144025560Y-120985000D01*
X144025560Y-121585000D01*
X144069838Y-121820317D01*
X144208910Y-122036441D01*
X144421110Y-122181431D01*
X144559000Y-122209354D01*
X144559000Y-127233764D01*
X141109764Y-130683000D01*
X113418661Y-130683000D01*
X113379162Y-130473083D01*
X113240090Y-130256959D01*
X113027890Y-130111969D01*
X112986561Y-130103600D01*
X113004415Y-130091670D01*
X113118453Y-129921000D01*
X127000000Y-129921000D01*
X127340206Y-129853329D01*
X127628618Y-129660618D01*
X129312618Y-127976618D01*
X129505330Y-127688205D01*
X129540714Y-127510316D01*
X129821244Y-127626803D01*
X130272775Y-127627197D01*
X130690086Y-127454767D01*
X130763982Y-127381000D01*
X135649000Y-127381000D01*
X135989206Y-127313329D01*
X136277618Y-127120618D01*
X140335000Y-123063236D01*
X140335000Y-123517764D01*
X139511929Y-124340835D01*
X139475225Y-124340803D01*
X139057914Y-124513233D01*
X138738355Y-124832235D01*
X138565197Y-125249244D01*
X138564803Y-125700775D01*
X138737233Y-126118086D01*
X139056235Y-126437645D01*
X139473244Y-126610803D01*
X139924775Y-126611197D01*
X140342086Y-126438767D01*
X140661645Y-126119765D01*
X140834803Y-125702756D01*
X140834952Y-125532284D01*
X141852618Y-124514618D01*
X142045329Y-124226206D01*
X142113000Y-123886000D01*
X142113000Y-122461000D01*
X142045329Y-122120794D01*
X141852618Y-121832382D01*
X141470440Y-121450204D01*
X141470440Y-120985000D01*
X141426162Y-120749683D01*
X141362322Y-120650472D01*
X141419431Y-120566890D01*
X141470440Y-120315000D01*
X141470440Y-119864242D01*
X141788407Y-119800994D01*
X142159223Y-119553223D01*
X142556223Y-119156223D01*
X142803994Y-118785407D01*
X142891000Y-118348000D01*
X142891000Y-117048690D01*
X144038000Y-117048690D01*
X144038000Y-117189250D01*
X144196750Y-117348000D01*
X145321000Y-117348000D01*
X145321000Y-116698750D01*
X145162250Y-116540000D01*
X144546691Y-116540000D01*
X144313302Y-116636673D01*
X144134673Y-116815301D01*
X144038000Y-117048690D01*
X142891000Y-117048690D01*
X142891000Y-116480445D01*
X143121691Y-116576000D01*
X143462250Y-116576000D01*
X143621000Y-116417250D01*
X143621000Y-115443000D01*
X143875000Y-115443000D01*
X143875000Y-116417250D01*
X144033750Y-116576000D01*
X144374309Y-116576000D01*
X144607698Y-116479327D01*
X144786327Y-116300699D01*
X144883000Y-116067310D01*
X144883000Y-115601750D01*
X144724250Y-115443000D01*
X143875000Y-115443000D01*
X143621000Y-115443000D01*
X143601000Y-115443000D01*
X143601000Y-115189000D01*
X143621000Y-115189000D01*
X143621000Y-115169000D01*
X143875000Y-115169000D01*
X143875000Y-115189000D01*
X144724250Y-115189000D01*
X144883000Y-115030250D01*
X144883000Y-114564690D01*
X144786327Y-114331301D01*
X144709961Y-114254935D01*
X144780000Y-114150114D01*
X144855657Y-114263343D01*
X144871657Y-114279343D01*
X145320983Y-114579573D01*
X145851000Y-114685000D01*
X146568000Y-114685000D01*
X146568000Y-115014250D01*
X146726750Y-115173000D01*
X147701000Y-115173000D01*
X147701000Y-115153000D01*
X147955000Y-115153000D01*
X147955000Y-115173000D01*
X148929250Y-115173000D01*
X149088000Y-115014250D01*
X149088000Y-114673691D01*
X148991327Y-114440302D01*
X148850090Y-114299064D01*
X148904441Y-114264090D01*
X149049431Y-114051890D01*
X149088616Y-113858388D01*
X149107573Y-113830017D01*
X149175000Y-113491039D01*
X149175000Y-149175000D01*
X149175000Y-149175000D01*
G37*
X149175000Y-149175000D02*
X134569240Y-149175000D01*
X135805240Y-147939000D01*
X143763995Y-147939000D01*
X143764000Y-147939001D01*
X144389688Y-147814543D01*
X144920120Y-147460120D01*
X145428119Y-146952120D01*
X145782542Y-146421688D01*
X145907000Y-145796000D01*
X145830924Y-145413544D01*
X146238511Y-145685885D01*
X146812000Y-145799959D01*
X147385489Y-145685885D01*
X147871670Y-145361029D01*
X148196526Y-144874848D01*
X148310600Y-144301359D01*
X148310600Y-144242641D01*
X148196526Y-143669152D01*
X147885426Y-143203558D01*
X147910917Y-143198762D01*
X148127041Y-143059690D01*
X148272031Y-142847490D01*
X148323040Y-142595600D01*
X148323040Y-140868400D01*
X148278762Y-140633083D01*
X148139690Y-140416959D01*
X147976212Y-140305260D01*
X148056415Y-140251670D01*
X148381271Y-139765489D01*
X148495345Y-139192000D01*
X148381271Y-138618511D01*
X148056415Y-138132330D01*
X147741634Y-137922000D01*
X148056415Y-137711670D01*
X148381271Y-137225489D01*
X148495345Y-136652000D01*
X148381271Y-136078511D01*
X148056415Y-135592330D01*
X147741634Y-135382000D01*
X148056415Y-135171670D01*
X148381271Y-134685489D01*
X148495345Y-134112000D01*
X148381271Y-133538511D01*
X148056415Y-133052330D01*
X148042087Y-133042757D01*
X148063317Y-133038762D01*
X148279441Y-132899690D01*
X148424431Y-132687490D01*
X148475440Y-132435600D01*
X148475440Y-130708400D01*
X148431162Y-130473083D01*
X148292090Y-130256959D01*
X148079890Y-130111969D01*
X147828000Y-130060960D01*
X145796000Y-130060960D01*
X145560683Y-130105238D01*
X145544901Y-130115393D01*
X145539890Y-130111969D01*
X145288000Y-130060960D01*
X144246276Y-130060960D01*
X146076618Y-128230618D01*
X146117570Y-128169329D01*
X146269329Y-127942206D01*
X146337000Y-127602000D01*
X146337000Y-122697750D01*
X146568000Y-122697750D01*
X146568000Y-123038309D01*
X146664673Y-123271698D01*
X146843301Y-123450327D01*
X147076690Y-123547000D01*
X147542250Y-123547000D01*
X147701000Y-123388250D01*
X147701000Y-122539000D01*
X147955000Y-122539000D01*
X147955000Y-123388250D01*
X148113750Y-123547000D01*
X148579310Y-123547000D01*
X148812699Y-123450327D01*
X148991327Y-123271698D01*
X149088000Y-123038309D01*
X149088000Y-122697750D01*
X148929250Y-122539000D01*
X147955000Y-122539000D01*
X147701000Y-122539000D01*
X146726750Y-122539000D01*
X146568000Y-122697750D01*
X146337000Y-122697750D01*
X146337000Y-122210989D01*
X146458317Y-122188162D01*
X146568000Y-122117583D01*
X146568000Y-122126250D01*
X146726750Y-122285000D01*
X147701000Y-122285000D01*
X147701000Y-122265000D01*
X147955000Y-122265000D01*
X147955000Y-122285000D01*
X148929250Y-122285000D01*
X149088000Y-122126250D01*
X149088000Y-121785691D01*
X148991327Y-121552302D01*
X148850090Y-121411064D01*
X148904441Y-121376090D01*
X149049431Y-121163890D01*
X149100440Y-120912000D01*
X149100440Y-119912000D01*
X149056162Y-119676683D01*
X148975947Y-119552026D01*
X149074431Y-119407890D01*
X149125440Y-119156000D01*
X149125440Y-118456000D01*
X149081162Y-118220683D01*
X148942090Y-118004559D01*
X148729890Y-117859569D01*
X148696510Y-117852809D01*
X148837699Y-117794327D01*
X149016327Y-117615698D01*
X149113000Y-117382309D01*
X149113000Y-117191750D01*
X148954250Y-117033000D01*
X147955000Y-117033000D01*
X147955000Y-117053000D01*
X147701000Y-117053000D01*
X147701000Y-117033000D01*
X147681000Y-117033000D01*
X147681000Y-116779000D01*
X147701000Y-116779000D01*
X147701000Y-115427000D01*
X147955000Y-115427000D01*
X147955000Y-116779000D01*
X148954250Y-116779000D01*
X149113000Y-116620250D01*
X149113000Y-116429691D01*
X149016327Y-116196302D01*
X148985525Y-116165500D01*
X148991327Y-116159698D01*
X149088000Y-115926309D01*
X149088000Y-115585750D01*
X148929250Y-115427000D01*
X147955000Y-115427000D01*
X147701000Y-115427000D01*
X146726750Y-115427000D01*
X146568000Y-115585750D01*
X146568000Y-115926309D01*
X146664673Y-116159698D01*
X146670475Y-116165500D01*
X146639673Y-116196302D01*
X146543000Y-116429691D01*
X146543000Y-116620230D01*
X146349309Y-116540000D01*
X145733750Y-116540000D01*
X145575000Y-116698750D01*
X145575000Y-117348000D01*
X145595000Y-117348000D01*
X145595000Y-117602000D01*
X145575000Y-117602000D01*
X145575000Y-117622000D01*
X145321000Y-117622000D01*
X145321000Y-117602000D01*
X144196750Y-117602000D01*
X144038000Y-117760750D01*
X144038000Y-117901310D01*
X144127806Y-118118122D01*
X144076569Y-118193110D01*
X144025560Y-118445000D01*
X144025560Y-119045000D01*
X144069838Y-119280317D01*
X144133678Y-119379528D01*
X144076569Y-119463110D01*
X144025560Y-119715000D01*
X144025560Y-120315000D01*
X144069838Y-120550317D01*
X144133678Y-120649528D01*
X144076569Y-120733110D01*
X144025560Y-120985000D01*
X144025560Y-121585000D01*
X144069838Y-121820317D01*
X144208910Y-122036441D01*
X144421110Y-122181431D01*
X144559000Y-122209354D01*
X144559000Y-127233764D01*
X141109764Y-130683000D01*
X113418661Y-130683000D01*
X113379162Y-130473083D01*
X113240090Y-130256959D01*
X113027890Y-130111969D01*
X112986561Y-130103600D01*
X113004415Y-130091670D01*
X113118453Y-129921000D01*
X127000000Y-129921000D01*
X127340206Y-129853329D01*
X127628618Y-129660618D01*
X129312618Y-127976618D01*
X129505330Y-127688205D01*
X129540714Y-127510316D01*
X129821244Y-127626803D01*
X130272775Y-127627197D01*
X130690086Y-127454767D01*
X130763982Y-127381000D01*
X135649000Y-127381000D01*
X135989206Y-127313329D01*
X136277618Y-127120618D01*
X140335000Y-123063236D01*
X140335000Y-123517764D01*
X139511929Y-124340835D01*
X139475225Y-124340803D01*
X139057914Y-124513233D01*
X138738355Y-124832235D01*
X138565197Y-125249244D01*
X138564803Y-125700775D01*
X138737233Y-126118086D01*
X139056235Y-126437645D01*
X139473244Y-126610803D01*
X139924775Y-126611197D01*
X140342086Y-126438767D01*
X140661645Y-126119765D01*
X140834803Y-125702756D01*
X140834952Y-125532284D01*
X141852618Y-124514618D01*
X142045329Y-124226206D01*
X142113000Y-123886000D01*
X142113000Y-122461000D01*
X142045329Y-122120794D01*
X141852618Y-121832382D01*
X141470440Y-121450204D01*
X141470440Y-120985000D01*
X141426162Y-120749683D01*
X141362322Y-120650472D01*
X141419431Y-120566890D01*
X141470440Y-120315000D01*
X141470440Y-119864242D01*
X141788407Y-119800994D01*
X142159223Y-119553223D01*
X142556223Y-119156223D01*
X142803994Y-118785407D01*
X142891000Y-118348000D01*
X142891000Y-117048690D01*
X144038000Y-117048690D01*
X144038000Y-117189250D01*
X144196750Y-117348000D01*
X145321000Y-117348000D01*
X145321000Y-116698750D01*
X145162250Y-116540000D01*
X144546691Y-116540000D01*
X144313302Y-116636673D01*
X144134673Y-116815301D01*
X144038000Y-117048690D01*
X142891000Y-117048690D01*
X142891000Y-116480445D01*
X143121691Y-116576000D01*
X143462250Y-116576000D01*
X143621000Y-116417250D01*
X143621000Y-115443000D01*
X143875000Y-115443000D01*
X143875000Y-116417250D01*
X144033750Y-116576000D01*
X144374309Y-116576000D01*
X144607698Y-116479327D01*
X144786327Y-116300699D01*
X144883000Y-116067310D01*
X144883000Y-115601750D01*
X144724250Y-115443000D01*
X143875000Y-115443000D01*
X143621000Y-115443000D01*
X143601000Y-115443000D01*
X143601000Y-115189000D01*
X143621000Y-115189000D01*
X143621000Y-115169000D01*
X143875000Y-115169000D01*
X143875000Y-115189000D01*
X144724250Y-115189000D01*
X144883000Y-115030250D01*
X144883000Y-114564690D01*
X144786327Y-114331301D01*
X144709961Y-114254935D01*
X144780000Y-114150114D01*
X144855657Y-114263343D01*
X144871657Y-114279343D01*
X145320983Y-114579573D01*
X145851000Y-114685000D01*
X146568000Y-114685000D01*
X146568000Y-115014250D01*
X146726750Y-115173000D01*
X147701000Y-115173000D01*
X147701000Y-115153000D01*
X147955000Y-115153000D01*
X147955000Y-115173000D01*
X148929250Y-115173000D01*
X149088000Y-115014250D01*
X149088000Y-114673691D01*
X148991327Y-114440302D01*
X148850090Y-114299064D01*
X148904441Y-114264090D01*
X149049431Y-114051890D01*
X149088616Y-113858388D01*
X149107573Y-113830017D01*
X149175000Y-113491039D01*
X149175000Y-149175000D01*
G36*
X130553657Y-114263343D02*
X131002984Y-114563574D01*
X131533000Y-114669000D01*
X132063016Y-114563574D01*
X132204437Y-114469079D01*
X132164560Y-114666000D01*
X132164560Y-114790961D01*
X132106006Y-114878593D01*
X132073491Y-115042058D01*
X131964722Y-115150637D01*
X131715284Y-115751352D01*
X131715136Y-115921000D01*
X131349750Y-115921000D01*
X131191000Y-116079750D01*
X131191000Y-116779000D01*
X131211000Y-116779000D01*
X131211000Y-117033000D01*
X131191000Y-117033000D01*
X131191000Y-117053000D01*
X130937000Y-117053000D01*
X130937000Y-117033000D01*
X130917000Y-117033000D01*
X130917000Y-116779000D01*
X130937000Y-116779000D01*
X130937000Y-116079750D01*
X130778250Y-115921000D01*
X130287690Y-115921000D01*
X130054301Y-116017673D01*
X129875673Y-116196302D01*
X129779000Y-116429691D01*
X129779000Y-116620230D01*
X129585309Y-116540000D01*
X128969750Y-116540000D01*
X128811000Y-116698750D01*
X128811000Y-117348000D01*
X128831000Y-117348000D01*
X128831000Y-117602000D01*
X128811000Y-117602000D01*
X128811000Y-117622000D01*
X128557000Y-117622000D01*
X128557000Y-117602000D01*
X127432750Y-117602000D01*
X127274000Y-117760750D01*
X127274000Y-117901310D01*
X127363806Y-118118122D01*
X127312569Y-118193110D01*
X127261560Y-118445000D01*
X127261560Y-119045000D01*
X127305838Y-119280317D01*
X127369678Y-119379528D01*
X127312569Y-119463110D01*
X127261560Y-119715000D01*
X127261560Y-120315000D01*
X127305838Y-120550317D01*
X127369678Y-120649528D01*
X127312569Y-120733110D01*
X127261560Y-120985000D01*
X127261560Y-121585000D01*
X127305838Y-121820317D01*
X127444910Y-122036441D01*
X127657110Y-122181431D01*
X127795000Y-122209354D01*
X127795000Y-126979764D01*
X126631764Y-128143000D01*
X113118453Y-128143000D01*
X113004415Y-127972330D01*
X112689634Y-127762000D01*
X113004415Y-127551670D01*
X113329271Y-127065489D01*
X113443345Y-126492000D01*
X113329271Y-125918511D01*
X113004415Y-125432330D01*
X112689634Y-125222000D01*
X113004415Y-125011670D01*
X113118453Y-124841000D01*
X121425000Y-124841000D01*
X121765206Y-124773329D01*
X122053618Y-124580618D01*
X123912618Y-122721618D01*
X124019800Y-122561209D01*
X124105329Y-122433206D01*
X124148618Y-122215577D01*
X124294317Y-122188162D01*
X124510441Y-122049090D01*
X124655431Y-121836890D01*
X124706440Y-121585000D01*
X124706440Y-120985000D01*
X124662162Y-120749683D01*
X124598322Y-120650472D01*
X124655431Y-120566890D01*
X124704982Y-120322198D01*
X125149352Y-120506716D01*
X125799795Y-120507284D01*
X126400943Y-120258894D01*
X126861278Y-119799363D01*
X127110716Y-119198648D01*
X127111284Y-118548205D01*
X126862894Y-117947057D01*
X126403363Y-117486722D01*
X126127000Y-117371966D01*
X126127000Y-117048690D01*
X127274000Y-117048690D01*
X127274000Y-117189250D01*
X127432750Y-117348000D01*
X128557000Y-117348000D01*
X128557000Y-116698750D01*
X128398250Y-116540000D01*
X127782691Y-116540000D01*
X127549302Y-116636673D01*
X127370673Y-116815301D01*
X127274000Y-117048690D01*
X126127000Y-117048690D01*
X126127000Y-116480445D01*
X126357691Y-116576000D01*
X126698250Y-116576000D01*
X126857000Y-116417250D01*
X126857000Y-115443000D01*
X127111000Y-115443000D01*
X127111000Y-116417250D01*
X127269750Y-116576000D01*
X127610309Y-116576000D01*
X127843698Y-116479327D01*
X128022327Y-116300699D01*
X128119000Y-116067310D01*
X128119000Y-115601750D01*
X127960250Y-115443000D01*
X127111000Y-115443000D01*
X126857000Y-115443000D01*
X126837000Y-115443000D01*
X126837000Y-115189000D01*
X126857000Y-115189000D01*
X126857000Y-115169000D01*
X127111000Y-115169000D01*
X127111000Y-115189000D01*
X127960250Y-115189000D01*
X128119000Y-115030250D01*
X128119000Y-114564690D01*
X128022327Y-114331301D01*
X127843698Y-114152673D01*
X127686236Y-114087450D01*
X128609186Y-113164500D01*
X129454814Y-113164500D01*
X130553657Y-114263343D01*
X130553657Y-114263343D01*
G37*
X130553657Y-114263343D02*
X131002984Y-114563574D01*
X131533000Y-114669000D01*
X132063016Y-114563574D01*
X132204437Y-114469079D01*
X132164560Y-114666000D01*
X132164560Y-114790961D01*
X132106006Y-114878593D01*
X132073491Y-115042058D01*
X131964722Y-115150637D01*
X131715284Y-115751352D01*
X131715136Y-115921000D01*
X131349750Y-115921000D01*
X131191000Y-116079750D01*
X131191000Y-116779000D01*
X131211000Y-116779000D01*
X131211000Y-117033000D01*
X131191000Y-117033000D01*
X131191000Y-117053000D01*
X130937000Y-117053000D01*
X130937000Y-117033000D01*
X130917000Y-117033000D01*
X130917000Y-116779000D01*
X130937000Y-116779000D01*
X130937000Y-116079750D01*
X130778250Y-115921000D01*
X130287690Y-115921000D01*
X130054301Y-116017673D01*
X129875673Y-116196302D01*
X129779000Y-116429691D01*
X129779000Y-116620230D01*
X129585309Y-116540000D01*
X128969750Y-116540000D01*
X128811000Y-116698750D01*
X128811000Y-117348000D01*
X128831000Y-117348000D01*
X128831000Y-117602000D01*
X128811000Y-117602000D01*
X128811000Y-117622000D01*
X128557000Y-117622000D01*
X128557000Y-117602000D01*
X127432750Y-117602000D01*
X127274000Y-117760750D01*
X127274000Y-117901310D01*
X127363806Y-118118122D01*
X127312569Y-118193110D01*
X127261560Y-118445000D01*
X127261560Y-119045000D01*
X127305838Y-119280317D01*
X127369678Y-119379528D01*
X127312569Y-119463110D01*
X127261560Y-119715000D01*
X127261560Y-120315000D01*
X127305838Y-120550317D01*
X127369678Y-120649528D01*
X127312569Y-120733110D01*
X127261560Y-120985000D01*
X127261560Y-121585000D01*
X127305838Y-121820317D01*
X127444910Y-122036441D01*
X127657110Y-122181431D01*
X127795000Y-122209354D01*
X127795000Y-126979764D01*
X126631764Y-128143000D01*
X113118453Y-128143000D01*
X113004415Y-127972330D01*
X112689634Y-127762000D01*
X113004415Y-127551670D01*
X113329271Y-127065489D01*
X113443345Y-126492000D01*
X113329271Y-125918511D01*
X113004415Y-125432330D01*
X112689634Y-125222000D01*
X113004415Y-125011670D01*
X113118453Y-124841000D01*
X121425000Y-124841000D01*
X121765206Y-124773329D01*
X122053618Y-124580618D01*
X123912618Y-122721618D01*
X124019800Y-122561209D01*
X124105329Y-122433206D01*
X124148618Y-122215577D01*
X124294317Y-122188162D01*
X124510441Y-122049090D01*
X124655431Y-121836890D01*
X124706440Y-121585000D01*
X124706440Y-120985000D01*
X124662162Y-120749683D01*
X124598322Y-120650472D01*
X124655431Y-120566890D01*
X124704982Y-120322198D01*
X125149352Y-120506716D01*
X125799795Y-120507284D01*
X126400943Y-120258894D01*
X126861278Y-119799363D01*
X127110716Y-119198648D01*
X127111284Y-118548205D01*
X126862894Y-117947057D01*
X126403363Y-117486722D01*
X126127000Y-117371966D01*
X126127000Y-117048690D01*
X127274000Y-117048690D01*
X127274000Y-117189250D01*
X127432750Y-117348000D01*
X128557000Y-117348000D01*
X128557000Y-116698750D01*
X128398250Y-116540000D01*
X127782691Y-116540000D01*
X127549302Y-116636673D01*
X127370673Y-116815301D01*
X127274000Y-117048690D01*
X126127000Y-117048690D01*
X126127000Y-116480445D01*
X126357691Y-116576000D01*
X126698250Y-116576000D01*
X126857000Y-116417250D01*
X126857000Y-115443000D01*
X127111000Y-115443000D01*
X127111000Y-116417250D01*
X127269750Y-116576000D01*
X127610309Y-116576000D01*
X127843698Y-116479327D01*
X128022327Y-116300699D01*
X128119000Y-116067310D01*
X128119000Y-115601750D01*
X127960250Y-115443000D01*
X127111000Y-115443000D01*
X126857000Y-115443000D01*
X126837000Y-115443000D01*
X126837000Y-115189000D01*
X126857000Y-115189000D01*
X126857000Y-115169000D01*
X127111000Y-115169000D01*
X127111000Y-115189000D01*
X127960250Y-115189000D01*
X128119000Y-115030250D01*
X128119000Y-114564690D01*
X128022327Y-114331301D01*
X127843698Y-114152673D01*
X127686236Y-114087450D01*
X128609186Y-113164500D01*
X129454814Y-113164500D01*
X130553657Y-114263343D01*
G36*
X132422637Y-117463278D02*
X133023352Y-117712716D01*
X133400791Y-117713046D01*
X133674593Y-117895994D01*
X133688560Y-117898772D01*
X133688560Y-119014000D01*
X133732838Y-119249317D01*
X133797000Y-119349028D01*
X133797000Y-119380273D01*
X133689993Y-119400408D01*
X133473869Y-119539480D01*
X133328879Y-119751680D01*
X133277870Y-120003570D01*
X133277870Y-121804430D01*
X133322148Y-122039747D01*
X133461220Y-122255871D01*
X133673420Y-122400861D01*
X133925310Y-122451870D01*
X135522970Y-122451870D01*
X135758287Y-122407592D01*
X135974411Y-122268520D01*
X136119401Y-122056320D01*
X136143030Y-121939634D01*
X136161868Y-122039747D01*
X136300940Y-122255871D01*
X136513140Y-122400861D01*
X136765030Y-122451870D01*
X138362690Y-122451870D01*
X138447934Y-122435830D01*
X135280764Y-125603000D01*
X130764283Y-125603000D01*
X130691765Y-125530355D01*
X130274756Y-125357197D01*
X129823225Y-125356803D01*
X129573000Y-125460194D01*
X129573000Y-122697750D01*
X129804000Y-122697750D01*
X129804000Y-123038309D01*
X129900673Y-123271698D01*
X130079301Y-123450327D01*
X130312690Y-123547000D01*
X130778250Y-123547000D01*
X130937000Y-123388250D01*
X130937000Y-122539000D01*
X131191000Y-122539000D01*
X131191000Y-123388250D01*
X131349750Y-123547000D01*
X131815310Y-123547000D01*
X132048699Y-123450327D01*
X132227327Y-123271698D01*
X132324000Y-123038309D01*
X132324000Y-122697750D01*
X132165250Y-122539000D01*
X131191000Y-122539000D01*
X130937000Y-122539000D01*
X129962750Y-122539000D01*
X129804000Y-122697750D01*
X129573000Y-122697750D01*
X129573000Y-122210989D01*
X129694317Y-122188162D01*
X129804000Y-122117583D01*
X129804000Y-122126250D01*
X129962750Y-122285000D01*
X130937000Y-122285000D01*
X130937000Y-122265000D01*
X131191000Y-122265000D01*
X131191000Y-122285000D01*
X132165250Y-122285000D01*
X132324000Y-122126250D01*
X132324000Y-121785691D01*
X132227327Y-121552302D01*
X132086090Y-121411064D01*
X132140441Y-121376090D01*
X132285431Y-121163890D01*
X132336440Y-120912000D01*
X132336440Y-119912000D01*
X132292162Y-119676683D01*
X132211947Y-119552026D01*
X132310431Y-119407890D01*
X132361440Y-119156000D01*
X132361440Y-118456000D01*
X132317162Y-118220683D01*
X132178090Y-118004559D01*
X131965890Y-117859569D01*
X131932510Y-117852809D01*
X132073699Y-117794327D01*
X132252327Y-117615698D01*
X132346891Y-117387400D01*
X132422637Y-117463278D01*
X132422637Y-117463278D01*
G37*
X132422637Y-117463278D02*
X133023352Y-117712716D01*
X133400791Y-117713046D01*
X133674593Y-117895994D01*
X133688560Y-117898772D01*
X133688560Y-119014000D01*
X133732838Y-119249317D01*
X133797000Y-119349028D01*
X133797000Y-119380273D01*
X133689993Y-119400408D01*
X133473869Y-119539480D01*
X133328879Y-119751680D01*
X133277870Y-120003570D01*
X133277870Y-121804430D01*
X133322148Y-122039747D01*
X133461220Y-122255871D01*
X133673420Y-122400861D01*
X133925310Y-122451870D01*
X135522970Y-122451870D01*
X135758287Y-122407592D01*
X135974411Y-122268520D01*
X136119401Y-122056320D01*
X136143030Y-121939634D01*
X136161868Y-122039747D01*
X136300940Y-122255871D01*
X136513140Y-122400861D01*
X136765030Y-122451870D01*
X138362690Y-122451870D01*
X138447934Y-122435830D01*
X135280764Y-125603000D01*
X130764283Y-125603000D01*
X130691765Y-125530355D01*
X130274756Y-125357197D01*
X129823225Y-125356803D01*
X129573000Y-125460194D01*
X129573000Y-122697750D01*
X129804000Y-122697750D01*
X129804000Y-123038309D01*
X129900673Y-123271698D01*
X130079301Y-123450327D01*
X130312690Y-123547000D01*
X130778250Y-123547000D01*
X130937000Y-123388250D01*
X130937000Y-122539000D01*
X131191000Y-122539000D01*
X131191000Y-123388250D01*
X131349750Y-123547000D01*
X131815310Y-123547000D01*
X132048699Y-123450327D01*
X132227327Y-123271698D01*
X132324000Y-123038309D01*
X132324000Y-122697750D01*
X132165250Y-122539000D01*
X131191000Y-122539000D01*
X130937000Y-122539000D01*
X129962750Y-122539000D01*
X129804000Y-122697750D01*
X129573000Y-122697750D01*
X129573000Y-122210989D01*
X129694317Y-122188162D01*
X129804000Y-122117583D01*
X129804000Y-122126250D01*
X129962750Y-122285000D01*
X130937000Y-122285000D01*
X130937000Y-122265000D01*
X131191000Y-122265000D01*
X131191000Y-122285000D01*
X132165250Y-122285000D01*
X132324000Y-122126250D01*
X132324000Y-121785691D01*
X132227327Y-121552302D01*
X132086090Y-121411064D01*
X132140441Y-121376090D01*
X132285431Y-121163890D01*
X132336440Y-120912000D01*
X132336440Y-119912000D01*
X132292162Y-119676683D01*
X132211947Y-119552026D01*
X132310431Y-119407890D01*
X132361440Y-119156000D01*
X132361440Y-118456000D01*
X132317162Y-118220683D01*
X132178090Y-118004559D01*
X131965890Y-117859569D01*
X131932510Y-117852809D01*
X132073699Y-117794327D01*
X132252327Y-117615698D01*
X132346891Y-117387400D01*
X132422637Y-117463278D01*
G36*
X124397241Y-100899298D02*
X124396760Y-101450285D01*
X124607169Y-101959515D01*
X124996436Y-102349461D01*
X125505298Y-102560759D01*
X126056285Y-102561240D01*
X126565515Y-102350831D01*
X126955461Y-101961564D01*
X127166759Y-101452702D01*
X127167240Y-100901715D01*
X127109098Y-100761000D01*
X130954667Y-100761000D01*
X130897241Y-100899298D01*
X130896760Y-101450285D01*
X131107169Y-101959515D01*
X131496436Y-102349461D01*
X132005298Y-102560759D01*
X132556285Y-102561240D01*
X132671362Y-102513691D01*
X134376000Y-102513691D01*
X134376000Y-102854250D01*
X134534750Y-103013000D01*
X135509000Y-103013000D01*
X135509000Y-102163750D01*
X135763000Y-102163750D01*
X135763000Y-103013000D01*
X136737250Y-103013000D01*
X136896000Y-102854250D01*
X136896000Y-102513691D01*
X136799327Y-102280302D01*
X136620699Y-102101673D01*
X136387310Y-102005000D01*
X135921750Y-102005000D01*
X135763000Y-102163750D01*
X135509000Y-102163750D01*
X135350250Y-102005000D01*
X134884690Y-102005000D01*
X134651301Y-102101673D01*
X134472673Y-102280302D01*
X134376000Y-102513691D01*
X132671362Y-102513691D01*
X133065515Y-102350831D01*
X133455461Y-101961564D01*
X133666759Y-101452702D01*
X133667240Y-100901715D01*
X133609098Y-100761000D01*
X138170667Y-100761000D01*
X138113241Y-100899298D01*
X138112760Y-101450285D01*
X138323169Y-101959515D01*
X138712436Y-102349461D01*
X139221298Y-102560759D01*
X139772285Y-102561240D01*
X140281515Y-102350831D01*
X140671461Y-101961564D01*
X140882759Y-101452702D01*
X140883240Y-100901715D01*
X140825098Y-100761000D01*
X144670667Y-100761000D01*
X144613241Y-100899298D01*
X144612760Y-101450285D01*
X144823169Y-101959515D01*
X145212436Y-102349461D01*
X145721298Y-102560759D01*
X146272285Y-102561240D01*
X146781515Y-102350831D01*
X147171461Y-101961564D01*
X147382759Y-101452702D01*
X147383240Y-100901715D01*
X147325098Y-100761000D01*
X149175000Y-100761000D01*
X149175000Y-107159464D01*
X148565029Y-106751894D01*
X147748000Y-106589377D01*
X146930971Y-106751894D01*
X146238327Y-107214704D01*
X145775517Y-107907348D01*
X145613000Y-108724377D01*
X145613000Y-109827623D01*
X145614633Y-109835832D01*
X145214485Y-110001169D01*
X144824539Y-110390436D01*
X144613241Y-110899298D01*
X144612760Y-111450285D01*
X144823169Y-111959515D01*
X145042850Y-112179579D01*
X144855657Y-112304657D01*
X144780000Y-112417886D01*
X144704343Y-112304657D01*
X144133000Y-111733314D01*
X144133000Y-107646908D01*
X144472118Y-107579453D01*
X145245868Y-107062450D01*
X145611540Y-106515183D01*
X145721298Y-106560759D01*
X146272285Y-106561240D01*
X146781515Y-106350831D01*
X147171461Y-105961564D01*
X147382759Y-105452702D01*
X147383240Y-104901715D01*
X147172831Y-104392485D01*
X146783564Y-104002539D01*
X146274702Y-103791241D01*
X145723715Y-103790760D01*
X145402247Y-103923588D01*
X145245868Y-103689550D01*
X144472118Y-103172547D01*
X143559418Y-102991000D01*
X141936582Y-102991000D01*
X141023882Y-103172547D01*
X140250132Y-103689550D01*
X140041377Y-104001974D01*
X139774702Y-103891241D01*
X139223715Y-103890760D01*
X138714485Y-104101169D01*
X138324539Y-104490436D01*
X138113241Y-104999298D01*
X138112760Y-105550285D01*
X138323169Y-106059515D01*
X138712436Y-106449461D01*
X139221298Y-106660759D01*
X139772285Y-106661240D01*
X139936668Y-106593318D01*
X140250132Y-107062450D01*
X141023882Y-107579453D01*
X141363000Y-107646908D01*
X141363000Y-110170314D01*
X140809665Y-110723649D01*
X140672831Y-110392485D01*
X140283564Y-110002539D01*
X139881422Y-109835555D01*
X139883000Y-109827623D01*
X139883000Y-108724377D01*
X139720483Y-107907348D01*
X139257673Y-107214704D01*
X138565029Y-106751894D01*
X137748000Y-106589377D01*
X136930971Y-106751894D01*
X136238327Y-107214704D01*
X135890000Y-107736012D01*
X135633121Y-107351565D01*
X136615343Y-106369343D01*
X136915574Y-105920016D01*
X137021000Y-105390000D01*
X136915574Y-104859984D01*
X136908440Y-104849307D01*
X136908440Y-104640000D01*
X136864162Y-104404683D01*
X136725090Y-104188559D01*
X136656994Y-104142031D01*
X136799327Y-103999698D01*
X136896000Y-103766309D01*
X136896000Y-103425750D01*
X136737250Y-103267000D01*
X135763000Y-103267000D01*
X135763000Y-103287000D01*
X135509000Y-103287000D01*
X135509000Y-103267000D01*
X134534750Y-103267000D01*
X134376000Y-103425750D01*
X134376000Y-103766309D01*
X134472673Y-103999698D01*
X134613910Y-104140936D01*
X134559559Y-104175910D01*
X134414569Y-104388110D01*
X134363560Y-104640000D01*
X134363560Y-104703754D01*
X133666805Y-105400509D01*
X133667240Y-104901715D01*
X133456831Y-104392485D01*
X133067564Y-104002539D01*
X132558702Y-103791241D01*
X132007715Y-103790760D01*
X131686247Y-103923588D01*
X131529868Y-103689550D01*
X130756118Y-103172547D01*
X129843418Y-102991000D01*
X128220582Y-102991000D01*
X127307882Y-103172547D01*
X126534132Y-103689550D01*
X126325377Y-104001974D01*
X126058702Y-103891241D01*
X125507715Y-103890760D01*
X124998485Y-104101169D01*
X124608539Y-104490436D01*
X124397241Y-104999298D01*
X124396760Y-105550285D01*
X124607169Y-106059515D01*
X124996436Y-106449461D01*
X125505298Y-106660759D01*
X126056285Y-106661240D01*
X126220668Y-106593318D01*
X126534132Y-107062450D01*
X127307882Y-107579453D01*
X127647000Y-107646908D01*
X127647000Y-110209314D01*
X127105068Y-110751246D01*
X126956831Y-110392485D01*
X126567564Y-110002539D01*
X126165422Y-109835555D01*
X126167000Y-109827623D01*
X126167000Y-108724377D01*
X126004483Y-107907348D01*
X125541673Y-107214704D01*
X124849029Y-106751894D01*
X124032000Y-106589377D01*
X123214971Y-106751894D01*
X122522327Y-107214704D01*
X122235248Y-107644349D01*
X122193162Y-107420683D01*
X122054090Y-107204559D01*
X121841890Y-107059569D01*
X121590000Y-107008560D01*
X120624680Y-107008560D01*
X120829800Y-106803440D01*
X121590000Y-106803440D01*
X121825317Y-106759162D01*
X122041441Y-106620090D01*
X122186431Y-106407890D01*
X122237440Y-106156000D01*
X122237440Y-104156000D01*
X122193162Y-103920683D01*
X122054090Y-103704559D01*
X121841890Y-103559569D01*
X121808510Y-103552809D01*
X121949699Y-103494327D01*
X122128327Y-103315698D01*
X122225000Y-103082309D01*
X122225000Y-102241750D01*
X122066250Y-102083000D01*
X120292000Y-102083000D01*
X120292000Y-102103000D01*
X120038000Y-102103000D01*
X120038000Y-102083000D01*
X120018000Y-102083000D01*
X120018000Y-101829000D01*
X120038000Y-101829000D01*
X120038000Y-101809000D01*
X120292000Y-101809000D01*
X120292000Y-101829000D01*
X122066250Y-101829000D01*
X122225000Y-101670250D01*
X122225000Y-100829691D01*
X122196547Y-100761000D01*
X124454667Y-100761000D01*
X124397241Y-100899298D01*
X124397241Y-100899298D01*
G37*
X124397241Y-100899298D02*
X124396760Y-101450285D01*
X124607169Y-101959515D01*
X124996436Y-102349461D01*
X125505298Y-102560759D01*
X126056285Y-102561240D01*
X126565515Y-102350831D01*
X126955461Y-101961564D01*
X127166759Y-101452702D01*
X127167240Y-100901715D01*
X127109098Y-100761000D01*
X130954667Y-100761000D01*
X130897241Y-100899298D01*
X130896760Y-101450285D01*
X131107169Y-101959515D01*
X131496436Y-102349461D01*
X132005298Y-102560759D01*
X132556285Y-102561240D01*
X132671362Y-102513691D01*
X134376000Y-102513691D01*
X134376000Y-102854250D01*
X134534750Y-103013000D01*
X135509000Y-103013000D01*
X135509000Y-102163750D01*
X135763000Y-102163750D01*
X135763000Y-103013000D01*
X136737250Y-103013000D01*
X136896000Y-102854250D01*
X136896000Y-102513691D01*
X136799327Y-102280302D01*
X136620699Y-102101673D01*
X136387310Y-102005000D01*
X135921750Y-102005000D01*
X135763000Y-102163750D01*
X135509000Y-102163750D01*
X135350250Y-102005000D01*
X134884690Y-102005000D01*
X134651301Y-102101673D01*
X134472673Y-102280302D01*
X134376000Y-102513691D01*
X132671362Y-102513691D01*
X133065515Y-102350831D01*
X133455461Y-101961564D01*
X133666759Y-101452702D01*
X133667240Y-100901715D01*
X133609098Y-100761000D01*
X138170667Y-100761000D01*
X138113241Y-100899298D01*
X138112760Y-101450285D01*
X138323169Y-101959515D01*
X138712436Y-102349461D01*
X139221298Y-102560759D01*
X139772285Y-102561240D01*
X140281515Y-102350831D01*
X140671461Y-101961564D01*
X140882759Y-101452702D01*
X140883240Y-100901715D01*
X140825098Y-100761000D01*
X144670667Y-100761000D01*
X144613241Y-100899298D01*
X144612760Y-101450285D01*
X144823169Y-101959515D01*
X145212436Y-102349461D01*
X145721298Y-102560759D01*
X146272285Y-102561240D01*
X146781515Y-102350831D01*
X147171461Y-101961564D01*
X147382759Y-101452702D01*
X147383240Y-100901715D01*
X147325098Y-100761000D01*
X149175000Y-100761000D01*
X149175000Y-107159464D01*
X148565029Y-106751894D01*
X147748000Y-106589377D01*
X146930971Y-106751894D01*
X146238327Y-107214704D01*
X145775517Y-107907348D01*
X145613000Y-108724377D01*
X145613000Y-109827623D01*
X145614633Y-109835832D01*
X145214485Y-110001169D01*
X144824539Y-110390436D01*
X144613241Y-110899298D01*
X144612760Y-111450285D01*
X144823169Y-111959515D01*
X145042850Y-112179579D01*
X144855657Y-112304657D01*
X144780000Y-112417886D01*
X144704343Y-112304657D01*
X144133000Y-111733314D01*
X144133000Y-107646908D01*
X144472118Y-107579453D01*
X145245868Y-107062450D01*
X145611540Y-106515183D01*
X145721298Y-106560759D01*
X146272285Y-106561240D01*
X146781515Y-106350831D01*
X147171461Y-105961564D01*
X147382759Y-105452702D01*
X147383240Y-104901715D01*
X147172831Y-104392485D01*
X146783564Y-104002539D01*
X146274702Y-103791241D01*
X145723715Y-103790760D01*
X145402247Y-103923588D01*
X145245868Y-103689550D01*
X144472118Y-103172547D01*
X143559418Y-102991000D01*
X141936582Y-102991000D01*
X141023882Y-103172547D01*
X140250132Y-103689550D01*
X140041377Y-104001974D01*
X139774702Y-103891241D01*
X139223715Y-103890760D01*
X138714485Y-104101169D01*
X138324539Y-104490436D01*
X138113241Y-104999298D01*
X138112760Y-105550285D01*
X138323169Y-106059515D01*
X138712436Y-106449461D01*
X139221298Y-106660759D01*
X139772285Y-106661240D01*
X139936668Y-106593318D01*
X140250132Y-107062450D01*
X141023882Y-107579453D01*
X141363000Y-107646908D01*
X141363000Y-110170314D01*
X140809665Y-110723649D01*
X140672831Y-110392485D01*
X140283564Y-110002539D01*
X139881422Y-109835555D01*
X139883000Y-109827623D01*
X139883000Y-108724377D01*
X139720483Y-107907348D01*
X139257673Y-107214704D01*
X138565029Y-106751894D01*
X137748000Y-106589377D01*
X136930971Y-106751894D01*
X136238327Y-107214704D01*
X135890000Y-107736012D01*
X135633121Y-107351565D01*
X136615343Y-106369343D01*
X136915574Y-105920016D01*
X137021000Y-105390000D01*
X136915574Y-104859984D01*
X136908440Y-104849307D01*
X136908440Y-104640000D01*
X136864162Y-104404683D01*
X136725090Y-104188559D01*
X136656994Y-104142031D01*
X136799327Y-103999698D01*
X136896000Y-103766309D01*
X136896000Y-103425750D01*
X136737250Y-103267000D01*
X135763000Y-103267000D01*
X135763000Y-103287000D01*
X135509000Y-103287000D01*
X135509000Y-103267000D01*
X134534750Y-103267000D01*
X134376000Y-103425750D01*
X134376000Y-103766309D01*
X134472673Y-103999698D01*
X134613910Y-104140936D01*
X134559559Y-104175910D01*
X134414569Y-104388110D01*
X134363560Y-104640000D01*
X134363560Y-104703754D01*
X133666805Y-105400509D01*
X133667240Y-104901715D01*
X133456831Y-104392485D01*
X133067564Y-104002539D01*
X132558702Y-103791241D01*
X132007715Y-103790760D01*
X131686247Y-103923588D01*
X131529868Y-103689550D01*
X130756118Y-103172547D01*
X129843418Y-102991000D01*
X128220582Y-102991000D01*
X127307882Y-103172547D01*
X126534132Y-103689550D01*
X126325377Y-104001974D01*
X126058702Y-103891241D01*
X125507715Y-103890760D01*
X124998485Y-104101169D01*
X124608539Y-104490436D01*
X124397241Y-104999298D01*
X124396760Y-105550285D01*
X124607169Y-106059515D01*
X124996436Y-106449461D01*
X125505298Y-106660759D01*
X126056285Y-106661240D01*
X126220668Y-106593318D01*
X126534132Y-107062450D01*
X127307882Y-107579453D01*
X127647000Y-107646908D01*
X127647000Y-110209314D01*
X127105068Y-110751246D01*
X126956831Y-110392485D01*
X126567564Y-110002539D01*
X126165422Y-109835555D01*
X126167000Y-109827623D01*
X126167000Y-108724377D01*
X126004483Y-107907348D01*
X125541673Y-107214704D01*
X124849029Y-106751894D01*
X124032000Y-106589377D01*
X123214971Y-106751894D01*
X122522327Y-107214704D01*
X122235248Y-107644349D01*
X122193162Y-107420683D01*
X122054090Y-107204559D01*
X121841890Y-107059569D01*
X121590000Y-107008560D01*
X120624680Y-107008560D01*
X120829800Y-106803440D01*
X121590000Y-106803440D01*
X121825317Y-106759162D01*
X122041441Y-106620090D01*
X122186431Y-106407890D01*
X122237440Y-106156000D01*
X122237440Y-104156000D01*
X122193162Y-103920683D01*
X122054090Y-103704559D01*
X121841890Y-103559569D01*
X121808510Y-103552809D01*
X121949699Y-103494327D01*
X122128327Y-103315698D01*
X122225000Y-103082309D01*
X122225000Y-102241750D01*
X122066250Y-102083000D01*
X120292000Y-102083000D01*
X120292000Y-102103000D01*
X120038000Y-102103000D01*
X120038000Y-102083000D01*
X120018000Y-102083000D01*
X120018000Y-101829000D01*
X120038000Y-101829000D01*
X120038000Y-101809000D01*
X120292000Y-101809000D01*
X120292000Y-101829000D01*
X122066250Y-101829000D01*
X122225000Y-101670250D01*
X122225000Y-100829691D01*
X122196547Y-100761000D01*
X124454667Y-100761000D01*
X124397241Y-100899298D01*
G36*
X111455000Y-100829691D02*
X111455000Y-101670250D01*
X111613750Y-101829000D01*
X113388000Y-101829000D01*
X113388000Y-101809000D01*
X113642000Y-101809000D01*
X113642000Y-101829000D01*
X113662000Y-101829000D01*
X113662000Y-102083000D01*
X113642000Y-102083000D01*
X113642000Y-102103000D01*
X113388000Y-102103000D01*
X113388000Y-102083000D01*
X111613750Y-102083000D01*
X111455000Y-102241750D01*
X111455000Y-103082309D01*
X111551673Y-103315698D01*
X111730301Y-103494327D01*
X111794695Y-103521000D01*
X110709305Y-103521000D01*
X110773699Y-103494327D01*
X110952327Y-103315698D01*
X111049000Y-103082309D01*
X111049000Y-102241750D01*
X110890250Y-102083000D01*
X109116000Y-102083000D01*
X109116000Y-102103000D01*
X108862000Y-102103000D01*
X108862000Y-102083000D01*
X108842000Y-102083000D01*
X108842000Y-101829000D01*
X108862000Y-101829000D01*
X108862000Y-101809000D01*
X109116000Y-101809000D01*
X109116000Y-101829000D01*
X110890250Y-101829000D01*
X111049000Y-101670250D01*
X111049000Y-100829691D01*
X111020547Y-100761000D01*
X111483453Y-100761000D01*
X111455000Y-100829691D01*
X111455000Y-100829691D01*
G37*
X111455000Y-100829691D02*
X111455000Y-101670250D01*
X111613750Y-101829000D01*
X113388000Y-101829000D01*
X113388000Y-101809000D01*
X113642000Y-101809000D01*
X113642000Y-101829000D01*
X113662000Y-101829000D01*
X113662000Y-102083000D01*
X113642000Y-102083000D01*
X113642000Y-102103000D01*
X113388000Y-102103000D01*
X113388000Y-102083000D01*
X111613750Y-102083000D01*
X111455000Y-102241750D01*
X111455000Y-103082309D01*
X111551673Y-103315698D01*
X111730301Y-103494327D01*
X111794695Y-103521000D01*
X110709305Y-103521000D01*
X110773699Y-103494327D01*
X110952327Y-103315698D01*
X111049000Y-103082309D01*
X111049000Y-102241750D01*
X110890250Y-102083000D01*
X109116000Y-102083000D01*
X109116000Y-102103000D01*
X108862000Y-102103000D01*
X108862000Y-102083000D01*
X108842000Y-102083000D01*
X108842000Y-101829000D01*
X108862000Y-101829000D01*
X108862000Y-101809000D01*
X109116000Y-101809000D01*
X109116000Y-101829000D01*
X110890250Y-101829000D01*
X111049000Y-101670250D01*
X111049000Y-100829691D01*
X111020547Y-100761000D01*
X111483453Y-100761000D01*
X111455000Y-100829691D01*
G36*
X102466000Y-101829000D02*
X102486000Y-101829000D01*
X102486000Y-102083000D01*
X102466000Y-102083000D01*
X102466000Y-102103000D01*
X102212000Y-102103000D01*
X102212000Y-102083000D01*
X102192000Y-102083000D01*
X102192000Y-101829000D01*
X102212000Y-101829000D01*
X102212000Y-101809000D01*
X102466000Y-101809000D01*
X102466000Y-101829000D01*
X102466000Y-101829000D01*
G37*
X102466000Y-101829000D02*
X102486000Y-101829000D01*
X102486000Y-102083000D01*
X102466000Y-102083000D01*
X102466000Y-102103000D01*
X102212000Y-102103000D01*
X102212000Y-102083000D01*
X102192000Y-102083000D01*
X102192000Y-101829000D01*
X102212000Y-101829000D01*
X102212000Y-101809000D01*
X102466000Y-101809000D01*
X102466000Y-101829000D01*
G36*
X106929000Y-100829691D02*
X106929000Y-101670250D01*
X107087748Y-101828998D01*
X106929062Y-101828998D01*
X106923656Y-101815914D01*
X106506283Y-101397812D01*
X105960681Y-101171258D01*
X105369911Y-101170743D01*
X104823914Y-101396344D01*
X104405812Y-101813717D01*
X104399000Y-101830122D01*
X104399000Y-101828998D01*
X104240252Y-101828998D01*
X104399000Y-101670250D01*
X104399000Y-100829691D01*
X104370547Y-100761000D01*
X106957453Y-100761000D01*
X106929000Y-100829691D01*
X106929000Y-100829691D01*
G37*
X106929000Y-100829691D02*
X106929000Y-101670250D01*
X107087748Y-101828998D01*
X106929062Y-101828998D01*
X106923656Y-101815914D01*
X106506283Y-101397812D01*
X105960681Y-101171258D01*
X105369911Y-101170743D01*
X104823914Y-101396344D01*
X104405812Y-101813717D01*
X104399000Y-101830122D01*
X104399000Y-101828998D01*
X104240252Y-101828998D01*
X104399000Y-101670250D01*
X104399000Y-100829691D01*
X104370547Y-100761000D01*
X106957453Y-100761000D01*
X106929000Y-100829691D01*
G36*
X118105000Y-100829691D02*
X118105000Y-101670250D01*
X118263748Y-101828998D01*
X118105062Y-101828998D01*
X118099656Y-101815914D01*
X117682283Y-101397812D01*
X117136681Y-101171258D01*
X116545911Y-101170743D01*
X115999914Y-101396344D01*
X115581812Y-101813717D01*
X115575000Y-101830122D01*
X115575000Y-101828998D01*
X115416252Y-101828998D01*
X115575000Y-101670250D01*
X115575000Y-100829691D01*
X115546547Y-100761000D01*
X118133453Y-100761000D01*
X118105000Y-100829691D01*
X118105000Y-100829691D01*
G37*
X118105000Y-100829691D02*
X118105000Y-101670250D01*
X118263748Y-101828998D01*
X118105062Y-101828998D01*
X118099656Y-101815914D01*
X117682283Y-101397812D01*
X117136681Y-101171258D01*
X116545911Y-101170743D01*
X115999914Y-101396344D01*
X115581812Y-101813717D01*
X115575000Y-101830122D01*
X115575000Y-101828998D01*
X115416252Y-101828998D01*
X115575000Y-101670250D01*
X115575000Y-100829691D01*
X115546547Y-100761000D01*
X118133453Y-100761000D01*
X118105000Y-100829691D01*
M02*
