G04 #@! TF.FileFunction,Legend,Bot*
%FSLAX46Y46*%
G04 Gerber Fmt 4.6, Leading zero omitted, Abs format (unit mm)*
G04 Created by KiCad (PCBNEW 4.0.2-4+6225~38~ubuntu14.04.1-stable) date Fri 18 Mar 2016 19:53:20 GMT*
%MOMM*%
G01*
G04 APERTURE LIST*
%ADD10C,0.100000*%
%ADD11C,0.120000*%
%ADD12C,0.150000*%
G04 APERTURE END LIST*
D10*
D11*
X132872478Y-137155905D02*
X132872478Y-136355905D01*
X132605811Y-136927333D01*
X132339144Y-136355905D01*
X132339144Y-137155905D01*
X131958192Y-137155905D02*
X131958192Y-136622571D01*
X131958192Y-136355905D02*
X131996287Y-136394000D01*
X131958192Y-136432095D01*
X131920097Y-136394000D01*
X131958192Y-136355905D01*
X131958192Y-136432095D01*
X131234383Y-137117810D02*
X131310573Y-137155905D01*
X131462954Y-137155905D01*
X131539145Y-137117810D01*
X131577240Y-137079714D01*
X131615335Y-137003524D01*
X131615335Y-136774952D01*
X131577240Y-136698762D01*
X131539145Y-136660667D01*
X131462954Y-136622571D01*
X131310573Y-136622571D01*
X131234383Y-136660667D01*
X130891526Y-137155905D02*
X130891526Y-136622571D01*
X130891526Y-136774952D02*
X130853431Y-136698762D01*
X130815335Y-136660667D01*
X130739145Y-136622571D01*
X130662954Y-136622571D01*
X130282002Y-137155905D02*
X130358193Y-137117810D01*
X130396288Y-137079714D01*
X130434383Y-137003524D01*
X130434383Y-136774952D01*
X130396288Y-136698762D01*
X130358193Y-136660667D01*
X130282002Y-136622571D01*
X130167716Y-136622571D01*
X130091526Y-136660667D01*
X130053431Y-136698762D01*
X130015335Y-136774952D01*
X130015335Y-137003524D01*
X130053431Y-137079714D01*
X130091526Y-137117810D01*
X130167716Y-137155905D01*
X130282002Y-137155905D01*
X129405811Y-136736857D02*
X129672478Y-136736857D01*
X129672478Y-137155905D02*
X129672478Y-136355905D01*
X129291525Y-136355905D01*
X128605811Y-137155905D02*
X128986764Y-137155905D01*
X128986764Y-136355905D01*
X128339145Y-137155905D02*
X128339145Y-136622571D01*
X128339145Y-136355905D02*
X128377240Y-136394000D01*
X128339145Y-136432095D01*
X128301050Y-136394000D01*
X128339145Y-136355905D01*
X128339145Y-136432095D01*
X127501050Y-137079714D02*
X127539145Y-137117810D01*
X127653431Y-137155905D01*
X127729621Y-137155905D01*
X127843907Y-137117810D01*
X127920098Y-137041619D01*
X127958193Y-136965429D01*
X127996288Y-136813048D01*
X127996288Y-136698762D01*
X127958193Y-136546381D01*
X127920098Y-136470190D01*
X127843907Y-136394000D01*
X127729621Y-136355905D01*
X127653431Y-136355905D01*
X127539145Y-136394000D01*
X127501050Y-136432095D01*
X126586764Y-137117810D02*
X126510574Y-137155905D01*
X126358193Y-137155905D01*
X126282002Y-137117810D01*
X126243907Y-137041619D01*
X126243907Y-137003524D01*
X126282002Y-136927333D01*
X126358193Y-136889238D01*
X126472478Y-136889238D01*
X126548669Y-136851143D01*
X126586764Y-136774952D01*
X126586764Y-136736857D01*
X126548669Y-136660667D01*
X126472478Y-136622571D01*
X126358193Y-136622571D01*
X126282002Y-136660667D01*
X125596288Y-137117810D02*
X125672478Y-137155905D01*
X125824859Y-137155905D01*
X125901050Y-137117810D01*
X125939145Y-137041619D01*
X125939145Y-136736857D01*
X125901050Y-136660667D01*
X125824859Y-136622571D01*
X125672478Y-136622571D01*
X125596288Y-136660667D01*
X125558193Y-136736857D01*
X125558193Y-136813048D01*
X125939145Y-136889238D01*
X125215336Y-137155905D02*
X125215336Y-136622571D01*
X125215336Y-136774952D02*
X125177241Y-136698762D01*
X125139145Y-136660667D01*
X125062955Y-136622571D01*
X124986764Y-136622571D01*
X124796288Y-136622571D02*
X124605812Y-137155905D01*
X124415336Y-136622571D01*
X123996288Y-137155905D02*
X124072479Y-137117810D01*
X124110574Y-137079714D01*
X124148669Y-137003524D01*
X124148669Y-136774952D01*
X124110574Y-136698762D01*
X124072479Y-136660667D01*
X123996288Y-136622571D01*
X123882002Y-136622571D01*
X123805812Y-136660667D01*
X123767717Y-136698762D01*
X123729621Y-136774952D01*
X123729621Y-137003524D01*
X123767717Y-137079714D01*
X123805812Y-137117810D01*
X123882002Y-137155905D01*
X123996288Y-137155905D01*
X122815335Y-137117810D02*
X122739145Y-137155905D01*
X122586764Y-137155905D01*
X122510573Y-137117810D01*
X122472478Y-137041619D01*
X122472478Y-137003524D01*
X122510573Y-136927333D01*
X122586764Y-136889238D01*
X122701049Y-136889238D01*
X122777240Y-136851143D01*
X122815335Y-136774952D01*
X122815335Y-136736857D01*
X122777240Y-136660667D01*
X122701049Y-136622571D01*
X122586764Y-136622571D01*
X122510573Y-136660667D01*
X122015335Y-137155905D02*
X122091526Y-137117810D01*
X122129621Y-137079714D01*
X122167716Y-137003524D01*
X122167716Y-136774952D01*
X122129621Y-136698762D01*
X122091526Y-136660667D01*
X122015335Y-136622571D01*
X121901049Y-136622571D01*
X121824859Y-136660667D01*
X121786764Y-136698762D01*
X121748668Y-136774952D01*
X121748668Y-137003524D01*
X121786764Y-137079714D01*
X121824859Y-137117810D01*
X121901049Y-137155905D01*
X122015335Y-137155905D01*
X121291525Y-137155905D02*
X121367716Y-137117810D01*
X121405811Y-137041619D01*
X121405811Y-136355905D01*
X120682001Y-137117810D02*
X120758191Y-137155905D01*
X120910572Y-137155905D01*
X120986763Y-137117810D01*
X121024858Y-137041619D01*
X121024858Y-136736857D01*
X120986763Y-136660667D01*
X120910572Y-136622571D01*
X120758191Y-136622571D01*
X120682001Y-136660667D01*
X120643906Y-136736857D01*
X120643906Y-136813048D01*
X121024858Y-136889238D01*
X120301049Y-136622571D02*
X120301049Y-137155905D01*
X120301049Y-136698762D02*
X120262954Y-136660667D01*
X120186763Y-136622571D01*
X120072477Y-136622571D01*
X119996287Y-136660667D01*
X119958192Y-136736857D01*
X119958192Y-137155905D01*
X119462953Y-137155905D02*
X119539144Y-137117810D01*
X119577239Y-137079714D01*
X119615334Y-137003524D01*
X119615334Y-136774952D01*
X119577239Y-136698762D01*
X119539144Y-136660667D01*
X119462953Y-136622571D01*
X119348667Y-136622571D01*
X119272477Y-136660667D01*
X119234382Y-136698762D01*
X119196286Y-136774952D01*
X119196286Y-137003524D01*
X119234382Y-137079714D01*
X119272477Y-137117810D01*
X119348667Y-137155905D01*
X119462953Y-137155905D01*
X118853429Y-137155905D02*
X118853429Y-136622571D01*
X118853429Y-136355905D02*
X118891524Y-136394000D01*
X118853429Y-136432095D01*
X118815334Y-136394000D01*
X118853429Y-136355905D01*
X118853429Y-136432095D01*
X118129620Y-137155905D02*
X118129620Y-136355905D01*
X118129620Y-137117810D02*
X118205810Y-137155905D01*
X118358191Y-137155905D01*
X118434382Y-137117810D01*
X118472477Y-137079714D01*
X118510572Y-137003524D01*
X118510572Y-136774952D01*
X118472477Y-136698762D01*
X118434382Y-136660667D01*
X118358191Y-136622571D01*
X118205810Y-136622571D01*
X118129620Y-136660667D01*
X117253429Y-136622571D02*
X116948667Y-136622571D01*
X117139143Y-136355905D02*
X117139143Y-137041619D01*
X117101048Y-137117810D01*
X117024857Y-137155905D01*
X116948667Y-137155905D01*
X116567714Y-137155905D02*
X116643905Y-137117810D01*
X116682000Y-137079714D01*
X116720095Y-137003524D01*
X116720095Y-136774952D01*
X116682000Y-136698762D01*
X116643905Y-136660667D01*
X116567714Y-136622571D01*
X116453428Y-136622571D01*
X116377238Y-136660667D01*
X116339143Y-136698762D01*
X116301047Y-136774952D01*
X116301047Y-137003524D01*
X116339143Y-137079714D01*
X116377238Y-137117810D01*
X116453428Y-137155905D01*
X116567714Y-137155905D01*
X115958190Y-136622571D02*
X115958190Y-137422571D01*
X115958190Y-136660667D02*
X115881999Y-136622571D01*
X115729618Y-136622571D01*
X115653428Y-136660667D01*
X115615333Y-136698762D01*
X115577237Y-136774952D01*
X115577237Y-137003524D01*
X115615333Y-137079714D01*
X115653428Y-137117810D01*
X115729618Y-137155905D01*
X115881999Y-137155905D01*
X115958190Y-137117810D01*
X114701046Y-136622571D02*
X114510570Y-137155905D01*
X114320094Y-136622571D01*
X113596284Y-137155905D02*
X114053427Y-137155905D01*
X113824856Y-137155905D02*
X113824856Y-136355905D01*
X113901046Y-136470190D01*
X113977237Y-136546381D01*
X114053427Y-136584476D01*
X113253427Y-137079714D02*
X113215332Y-137117810D01*
X113253427Y-137155905D01*
X113291522Y-137117810D01*
X113253427Y-137079714D01*
X113253427Y-137155905D01*
X112453427Y-137155905D02*
X112910570Y-137155905D01*
X112681999Y-137155905D02*
X112681999Y-136355905D01*
X112758189Y-136470190D01*
X112834380Y-136546381D01*
X112910570Y-136584476D01*
X128167716Y-137595905D02*
X128167716Y-138167333D01*
X128205812Y-138281619D01*
X128282002Y-138357810D01*
X128396288Y-138395905D01*
X128472478Y-138395905D01*
X127443907Y-138395905D02*
X127443907Y-137976857D01*
X127482002Y-137900667D01*
X127558192Y-137862571D01*
X127710573Y-137862571D01*
X127786764Y-137900667D01*
X127443907Y-138357810D02*
X127520097Y-138395905D01*
X127710573Y-138395905D01*
X127786764Y-138357810D01*
X127824859Y-138281619D01*
X127824859Y-138205429D01*
X127786764Y-138129238D01*
X127710573Y-138091143D01*
X127520097Y-138091143D01*
X127443907Y-138053048D01*
X127062954Y-138395905D02*
X127062954Y-137595905D01*
X126986763Y-138091143D02*
X126758192Y-138395905D01*
X126758192Y-137862571D02*
X127062954Y-138167333D01*
X126072478Y-137862571D02*
X126072478Y-138395905D01*
X126415335Y-137862571D02*
X126415335Y-138281619D01*
X126377240Y-138357810D01*
X126301049Y-138395905D01*
X126186763Y-138395905D01*
X126110573Y-138357810D01*
X126072478Y-138319714D01*
X125691525Y-138395905D02*
X125691525Y-137595905D01*
X125691525Y-137900667D02*
X125615334Y-137862571D01*
X125462953Y-137862571D01*
X125386763Y-137900667D01*
X125348668Y-137938762D01*
X125310572Y-138014952D01*
X125310572Y-138243524D01*
X125348668Y-138319714D01*
X125386763Y-138357810D01*
X125462953Y-138395905D01*
X125615334Y-138395905D01*
X125691525Y-138357810D01*
X124358191Y-138395905D02*
X124358191Y-137595905D01*
X123901048Y-138395905D01*
X123901048Y-137595905D01*
X123215334Y-138357810D02*
X123291524Y-138395905D01*
X123443905Y-138395905D01*
X123520096Y-138357810D01*
X123558191Y-138281619D01*
X123558191Y-137976857D01*
X123520096Y-137900667D01*
X123443905Y-137862571D01*
X123291524Y-137862571D01*
X123215334Y-137900667D01*
X123177239Y-137976857D01*
X123177239Y-138053048D01*
X123558191Y-138129238D01*
X122491525Y-138395905D02*
X122491525Y-137595905D01*
X122491525Y-138357810D02*
X122567715Y-138395905D01*
X122720096Y-138395905D01*
X122796287Y-138357810D01*
X122834382Y-138319714D01*
X122872477Y-138243524D01*
X122872477Y-138014952D01*
X122834382Y-137938762D01*
X122796287Y-137900667D01*
X122720096Y-137862571D01*
X122567715Y-137862571D01*
X122491525Y-137900667D01*
X122110572Y-138395905D02*
X122110572Y-137595905D01*
X122110572Y-137900667D02*
X122034381Y-137862571D01*
X121882000Y-137862571D01*
X121805810Y-137900667D01*
X121767715Y-137938762D01*
X121729619Y-138014952D01*
X121729619Y-138243524D01*
X121767715Y-138319714D01*
X121805810Y-138357810D01*
X121882000Y-138395905D01*
X122034381Y-138395905D01*
X122110572Y-138357810D01*
X121043905Y-138395905D02*
X121043905Y-137976857D01*
X121082000Y-137900667D01*
X121158190Y-137862571D01*
X121310571Y-137862571D01*
X121386762Y-137900667D01*
X121043905Y-138357810D02*
X121120095Y-138395905D01*
X121310571Y-138395905D01*
X121386762Y-138357810D01*
X121424857Y-138281619D01*
X121424857Y-138205429D01*
X121386762Y-138129238D01*
X121310571Y-138091143D01*
X121120095Y-138091143D01*
X121043905Y-138053048D01*
X120548666Y-138395905D02*
X120624857Y-138357810D01*
X120662952Y-138281619D01*
X120662952Y-137595905D01*
X119672475Y-137672095D02*
X119634380Y-137634000D01*
X119558189Y-137595905D01*
X119367713Y-137595905D01*
X119291523Y-137634000D01*
X119253427Y-137672095D01*
X119215332Y-137748286D01*
X119215332Y-137824476D01*
X119253427Y-137938762D01*
X119710570Y-138395905D01*
X119215332Y-138395905D01*
X118720094Y-137595905D02*
X118643903Y-137595905D01*
X118567713Y-137634000D01*
X118529618Y-137672095D01*
X118491522Y-137748286D01*
X118453427Y-137900667D01*
X118453427Y-138091143D01*
X118491522Y-138243524D01*
X118529618Y-138319714D01*
X118567713Y-138357810D01*
X118643903Y-138395905D01*
X118720094Y-138395905D01*
X118796284Y-138357810D01*
X118834380Y-138319714D01*
X118872475Y-138243524D01*
X118910570Y-138091143D01*
X118910570Y-137900667D01*
X118872475Y-137748286D01*
X118834380Y-137672095D01*
X118796284Y-137634000D01*
X118720094Y-137595905D01*
X117691522Y-138395905D02*
X118148665Y-138395905D01*
X117920094Y-138395905D02*
X117920094Y-137595905D01*
X117996284Y-137710190D01*
X118072475Y-137786381D01*
X118148665Y-137824476D01*
X117005808Y-137595905D02*
X117158189Y-137595905D01*
X117234379Y-137634000D01*
X117272474Y-137672095D01*
X117348665Y-137786381D01*
X117386760Y-137938762D01*
X117386760Y-138243524D01*
X117348665Y-138319714D01*
X117310570Y-138357810D01*
X117234379Y-138395905D01*
X117081998Y-138395905D01*
X117005808Y-138357810D01*
X116967712Y-138319714D01*
X116929617Y-138243524D01*
X116929617Y-138053048D01*
X116967712Y-137976857D01*
X117005808Y-137938762D01*
X117081998Y-137900667D01*
X117234379Y-137900667D01*
X117310570Y-137938762D01*
X117348665Y-137976857D01*
X117386760Y-138053048D01*
X114407905Y-125680094D02*
X113607905Y-125680094D01*
X114407905Y-126022951D02*
X113988857Y-126022951D01*
X113912667Y-125984856D01*
X113874571Y-125908666D01*
X113874571Y-125794380D01*
X113912667Y-125718189D01*
X113950762Y-125680094D01*
X114369810Y-126708666D02*
X114407905Y-126632476D01*
X114407905Y-126480095D01*
X114369810Y-126403904D01*
X114293619Y-126365809D01*
X113988857Y-126365809D01*
X113912667Y-126403904D01*
X113874571Y-126480095D01*
X113874571Y-126632476D01*
X113912667Y-126708666D01*
X113988857Y-126746761D01*
X114065048Y-126746761D01*
X114141238Y-126365809D01*
X114407905Y-127432475D02*
X113988857Y-127432475D01*
X113912667Y-127394380D01*
X113874571Y-127318190D01*
X113874571Y-127165809D01*
X113912667Y-127089618D01*
X114369810Y-127432475D02*
X114407905Y-127356285D01*
X114407905Y-127165809D01*
X114369810Y-127089618D01*
X114293619Y-127051523D01*
X114217429Y-127051523D01*
X114141238Y-127089618D01*
X114103143Y-127165809D01*
X114103143Y-127356285D01*
X114065048Y-127432475D01*
X114407905Y-128156285D02*
X113607905Y-128156285D01*
X114369810Y-128156285D02*
X114407905Y-128080095D01*
X114407905Y-127927714D01*
X114369810Y-127851523D01*
X114331714Y-127813428D01*
X114255524Y-127775333D01*
X114026952Y-127775333D01*
X113950762Y-127813428D01*
X113912667Y-127851523D01*
X113874571Y-127927714D01*
X113874571Y-128080095D01*
X113912667Y-128156285D01*
X114369810Y-128842000D02*
X114407905Y-128765810D01*
X114407905Y-128613429D01*
X114369810Y-128537238D01*
X114293619Y-128499143D01*
X113988857Y-128499143D01*
X113912667Y-128537238D01*
X113874571Y-128613429D01*
X113874571Y-128765810D01*
X113912667Y-128842000D01*
X113988857Y-128880095D01*
X114065048Y-128880095D01*
X114141238Y-128499143D01*
X114407905Y-129222952D02*
X113874571Y-129222952D01*
X114026952Y-129222952D02*
X113950762Y-129261047D01*
X113912667Y-129299143D01*
X113874571Y-129375333D01*
X113874571Y-129451524D01*
X114369810Y-130289619D02*
X114407905Y-130365809D01*
X114407905Y-130518190D01*
X114369810Y-130594381D01*
X114293619Y-130632476D01*
X114255524Y-130632476D01*
X114179333Y-130594381D01*
X114141238Y-130518190D01*
X114141238Y-130403905D01*
X114103143Y-130327714D01*
X114026952Y-130289619D01*
X113988857Y-130289619D01*
X113912667Y-130327714D01*
X113874571Y-130403905D01*
X113874571Y-130518190D01*
X113912667Y-130594381D01*
X113874571Y-130861047D02*
X113874571Y-131165809D01*
X113607905Y-130975333D02*
X114293619Y-130975333D01*
X114369810Y-131013428D01*
X114407905Y-131089619D01*
X114407905Y-131165809D01*
X114407905Y-131432476D02*
X113874571Y-131432476D01*
X114026952Y-131432476D02*
X113950762Y-131470571D01*
X113912667Y-131508667D01*
X113874571Y-131584857D01*
X113874571Y-131661048D01*
X114407905Y-131927714D02*
X113874571Y-131927714D01*
X113607905Y-131927714D02*
X113646000Y-131889619D01*
X113684095Y-131927714D01*
X113646000Y-131965809D01*
X113607905Y-131927714D01*
X113684095Y-131927714D01*
X113874571Y-132308666D02*
X114674571Y-132308666D01*
X113912667Y-132308666D02*
X113874571Y-132384857D01*
X113874571Y-132537238D01*
X113912667Y-132613428D01*
X113950762Y-132651523D01*
X114026952Y-132689619D01*
X114255524Y-132689619D01*
X114331714Y-132651523D01*
X114369810Y-132613428D01*
X114407905Y-132537238D01*
X114407905Y-132384857D01*
X114369810Y-132308666D01*
X142347905Y-132538094D02*
X141547905Y-132538094D01*
X142347905Y-132880951D02*
X141928857Y-132880951D01*
X141852667Y-132842856D01*
X141814571Y-132766666D01*
X141814571Y-132652380D01*
X141852667Y-132576189D01*
X141890762Y-132538094D01*
X142309810Y-133566666D02*
X142347905Y-133490476D01*
X142347905Y-133338095D01*
X142309810Y-133261904D01*
X142233619Y-133223809D01*
X141928857Y-133223809D01*
X141852667Y-133261904D01*
X141814571Y-133338095D01*
X141814571Y-133490476D01*
X141852667Y-133566666D01*
X141928857Y-133604761D01*
X142005048Y-133604761D01*
X142081238Y-133223809D01*
X142347905Y-134290475D02*
X141928857Y-134290475D01*
X141852667Y-134252380D01*
X141814571Y-134176190D01*
X141814571Y-134023809D01*
X141852667Y-133947618D01*
X142309810Y-134290475D02*
X142347905Y-134214285D01*
X142347905Y-134023809D01*
X142309810Y-133947618D01*
X142233619Y-133909523D01*
X142157429Y-133909523D01*
X142081238Y-133947618D01*
X142043143Y-134023809D01*
X142043143Y-134214285D01*
X142005048Y-134290475D01*
X142347905Y-135014285D02*
X141547905Y-135014285D01*
X142309810Y-135014285D02*
X142347905Y-134938095D01*
X142347905Y-134785714D01*
X142309810Y-134709523D01*
X142271714Y-134671428D01*
X142195524Y-134633333D01*
X141966952Y-134633333D01*
X141890762Y-134671428D01*
X141852667Y-134709523D01*
X141814571Y-134785714D01*
X141814571Y-134938095D01*
X141852667Y-135014285D01*
X142309810Y-135700000D02*
X142347905Y-135623810D01*
X142347905Y-135471429D01*
X142309810Y-135395238D01*
X142233619Y-135357143D01*
X141928857Y-135357143D01*
X141852667Y-135395238D01*
X141814571Y-135471429D01*
X141814571Y-135623810D01*
X141852667Y-135700000D01*
X141928857Y-135738095D01*
X142005048Y-135738095D01*
X142081238Y-135357143D01*
X142347905Y-136080952D02*
X141814571Y-136080952D01*
X141966952Y-136080952D02*
X141890762Y-136119047D01*
X141852667Y-136157143D01*
X141814571Y-136233333D01*
X141814571Y-136309524D01*
X142309810Y-137147619D02*
X142347905Y-137223809D01*
X142347905Y-137376190D01*
X142309810Y-137452381D01*
X142233619Y-137490476D01*
X142195524Y-137490476D01*
X142119333Y-137452381D01*
X142081238Y-137376190D01*
X142081238Y-137261905D01*
X142043143Y-137185714D01*
X141966952Y-137147619D01*
X141928857Y-137147619D01*
X141852667Y-137185714D01*
X141814571Y-137261905D01*
X141814571Y-137376190D01*
X141852667Y-137452381D01*
X141814571Y-137719047D02*
X141814571Y-138023809D01*
X141547905Y-137833333D02*
X142233619Y-137833333D01*
X142309810Y-137871428D01*
X142347905Y-137947619D01*
X142347905Y-138023809D01*
X142347905Y-138290476D02*
X141814571Y-138290476D01*
X141966952Y-138290476D02*
X141890762Y-138328571D01*
X141852667Y-138366667D01*
X141814571Y-138442857D01*
X141814571Y-138519048D01*
X142347905Y-138785714D02*
X141814571Y-138785714D01*
X141547905Y-138785714D02*
X141586000Y-138747619D01*
X141624095Y-138785714D01*
X141586000Y-138823809D01*
X141547905Y-138785714D01*
X141624095Y-138785714D01*
X141814571Y-139166666D02*
X142614571Y-139166666D01*
X141852667Y-139166666D02*
X141814571Y-139242857D01*
X141814571Y-139395238D01*
X141852667Y-139471428D01*
X141890762Y-139509523D01*
X141966952Y-139547619D01*
X142195524Y-139547619D01*
X142271714Y-139509523D01*
X142309810Y-139471428D01*
X142347905Y-139395238D01*
X142347905Y-139242857D01*
X142309810Y-139166666D01*
X119278095Y-101415810D02*
X119163809Y-101453905D01*
X118973333Y-101453905D01*
X118897143Y-101415810D01*
X118859047Y-101377714D01*
X118820952Y-101301524D01*
X118820952Y-101225333D01*
X118859047Y-101149143D01*
X118897143Y-101111048D01*
X118973333Y-101072952D01*
X119125714Y-101034857D01*
X119201905Y-100996762D01*
X119240000Y-100958667D01*
X119278095Y-100882476D01*
X119278095Y-100806286D01*
X119240000Y-100730095D01*
X119201905Y-100692000D01*
X119125714Y-100653905D01*
X118935238Y-100653905D01*
X118820952Y-100692000D01*
X118478095Y-101034857D02*
X118211428Y-101034857D01*
X118097142Y-101453905D02*
X118478095Y-101453905D01*
X118478095Y-100653905D01*
X118097142Y-100653905D01*
X117297142Y-101453905D02*
X117563809Y-101072952D01*
X117754285Y-101453905D02*
X117754285Y-100653905D01*
X117449523Y-100653905D01*
X117373332Y-100692000D01*
X117335237Y-100730095D01*
X117297142Y-100806286D01*
X117297142Y-100920571D01*
X117335237Y-100996762D01*
X117373332Y-101034857D01*
X117449523Y-101072952D01*
X117754285Y-101072952D01*
X117068571Y-100653905D02*
X116801904Y-101453905D01*
X116535237Y-100653905D01*
X116116190Y-100653905D02*
X115963809Y-100653905D01*
X115887618Y-100692000D01*
X115811428Y-100768190D01*
X115773333Y-100920571D01*
X115773333Y-101187238D01*
X115811428Y-101339619D01*
X115887618Y-101415810D01*
X115963809Y-101453905D01*
X116116190Y-101453905D01*
X116192380Y-101415810D01*
X116268571Y-101339619D01*
X116306666Y-101187238D01*
X116306666Y-100920571D01*
X116268571Y-100768190D01*
X116192380Y-100692000D01*
X116116190Y-100653905D01*
X114859047Y-100730095D02*
X114820952Y-100692000D01*
X114744761Y-100653905D01*
X114554285Y-100653905D01*
X114478095Y-100692000D01*
X114439999Y-100730095D01*
X114401904Y-100806286D01*
X114401904Y-100882476D01*
X114439999Y-100996762D01*
X114897142Y-101453905D01*
X114401904Y-101453905D01*
X108102095Y-101415810D02*
X107987809Y-101453905D01*
X107797333Y-101453905D01*
X107721143Y-101415810D01*
X107683047Y-101377714D01*
X107644952Y-101301524D01*
X107644952Y-101225333D01*
X107683047Y-101149143D01*
X107721143Y-101111048D01*
X107797333Y-101072952D01*
X107949714Y-101034857D01*
X108025905Y-100996762D01*
X108064000Y-100958667D01*
X108102095Y-100882476D01*
X108102095Y-100806286D01*
X108064000Y-100730095D01*
X108025905Y-100692000D01*
X107949714Y-100653905D01*
X107759238Y-100653905D01*
X107644952Y-100692000D01*
X107302095Y-101034857D02*
X107035428Y-101034857D01*
X106921142Y-101453905D02*
X107302095Y-101453905D01*
X107302095Y-100653905D01*
X106921142Y-100653905D01*
X106121142Y-101453905D02*
X106387809Y-101072952D01*
X106578285Y-101453905D02*
X106578285Y-100653905D01*
X106273523Y-100653905D01*
X106197332Y-100692000D01*
X106159237Y-100730095D01*
X106121142Y-100806286D01*
X106121142Y-100920571D01*
X106159237Y-100996762D01*
X106197332Y-101034857D01*
X106273523Y-101072952D01*
X106578285Y-101072952D01*
X105892571Y-100653905D02*
X105625904Y-101453905D01*
X105359237Y-100653905D01*
X104940190Y-100653905D02*
X104787809Y-100653905D01*
X104711618Y-100692000D01*
X104635428Y-100768190D01*
X104597333Y-100920571D01*
X104597333Y-101187238D01*
X104635428Y-101339619D01*
X104711618Y-101415810D01*
X104787809Y-101453905D01*
X104940190Y-101453905D01*
X105016380Y-101415810D01*
X105092571Y-101339619D01*
X105130666Y-101187238D01*
X105130666Y-100920571D01*
X105092571Y-100768190D01*
X105016380Y-100692000D01*
X104940190Y-100653905D01*
X103225904Y-101453905D02*
X103683047Y-101453905D01*
X103454476Y-101453905D02*
X103454476Y-100653905D01*
X103530666Y-100768190D01*
X103606857Y-100844381D01*
X103683047Y-100882476D01*
X144119428Y-101377714D02*
X144157523Y-101415810D01*
X144271809Y-101453905D01*
X144347999Y-101453905D01*
X144462285Y-101415810D01*
X144538476Y-101339619D01*
X144576571Y-101263429D01*
X144614666Y-101111048D01*
X144614666Y-100996762D01*
X144576571Y-100844381D01*
X144538476Y-100768190D01*
X144462285Y-100692000D01*
X144347999Y-100653905D01*
X144271809Y-100653905D01*
X144157523Y-100692000D01*
X144119428Y-100730095D01*
X143624190Y-100653905D02*
X143471809Y-100653905D01*
X143395618Y-100692000D01*
X143319428Y-100768190D01*
X143281333Y-100920571D01*
X143281333Y-101187238D01*
X143319428Y-101339619D01*
X143395618Y-101415810D01*
X143471809Y-101453905D01*
X143624190Y-101453905D01*
X143700380Y-101415810D01*
X143776571Y-101339619D01*
X143814666Y-101187238D01*
X143814666Y-100920571D01*
X143776571Y-100768190D01*
X143700380Y-100692000D01*
X143624190Y-100653905D01*
X142938476Y-101453905D02*
X142938476Y-100653905D01*
X142176571Y-101453905D02*
X142557524Y-101453905D01*
X142557524Y-100653905D01*
X140881333Y-101453905D02*
X141338476Y-101453905D01*
X141109905Y-101453905D02*
X141109905Y-100653905D01*
X141186095Y-100768190D01*
X141262286Y-100844381D01*
X141338476Y-100882476D01*
X130403428Y-101377714D02*
X130441523Y-101415810D01*
X130555809Y-101453905D01*
X130631999Y-101453905D01*
X130746285Y-101415810D01*
X130822476Y-101339619D01*
X130860571Y-101263429D01*
X130898666Y-101111048D01*
X130898666Y-100996762D01*
X130860571Y-100844381D01*
X130822476Y-100768190D01*
X130746285Y-100692000D01*
X130631999Y-100653905D01*
X130555809Y-100653905D01*
X130441523Y-100692000D01*
X130403428Y-100730095D01*
X129908190Y-100653905D02*
X129755809Y-100653905D01*
X129679618Y-100692000D01*
X129603428Y-100768190D01*
X129565333Y-100920571D01*
X129565333Y-101187238D01*
X129603428Y-101339619D01*
X129679618Y-101415810D01*
X129755809Y-101453905D01*
X129908190Y-101453905D01*
X129984380Y-101415810D01*
X130060571Y-101339619D01*
X130098666Y-101187238D01*
X130098666Y-100920571D01*
X130060571Y-100768190D01*
X129984380Y-100692000D01*
X129908190Y-100653905D01*
X129222476Y-101453905D02*
X129222476Y-100653905D01*
X128460571Y-101453905D02*
X128841524Y-101453905D01*
X128841524Y-100653905D01*
X127622476Y-100730095D02*
X127584381Y-100692000D01*
X127508190Y-100653905D01*
X127317714Y-100653905D01*
X127241524Y-100692000D01*
X127203428Y-100730095D01*
X127165333Y-100806286D01*
X127165333Y-100882476D01*
X127203428Y-100996762D01*
X127660571Y-101453905D01*
X127165333Y-101453905D01*
X109073905Y-141936094D02*
X108273905Y-141936094D01*
X109073905Y-142278951D02*
X108654857Y-142278951D01*
X108578667Y-142240856D01*
X108540571Y-142164666D01*
X108540571Y-142050380D01*
X108578667Y-141974189D01*
X108616762Y-141936094D01*
X109035810Y-142964666D02*
X109073905Y-142888476D01*
X109073905Y-142736095D01*
X109035810Y-142659904D01*
X108959619Y-142621809D01*
X108654857Y-142621809D01*
X108578667Y-142659904D01*
X108540571Y-142736095D01*
X108540571Y-142888476D01*
X108578667Y-142964666D01*
X108654857Y-143002761D01*
X108731048Y-143002761D01*
X108807238Y-142621809D01*
X109073905Y-143688475D02*
X108654857Y-143688475D01*
X108578667Y-143650380D01*
X108540571Y-143574190D01*
X108540571Y-143421809D01*
X108578667Y-143345618D01*
X109035810Y-143688475D02*
X109073905Y-143612285D01*
X109073905Y-143421809D01*
X109035810Y-143345618D01*
X108959619Y-143307523D01*
X108883429Y-143307523D01*
X108807238Y-143345618D01*
X108769143Y-143421809D01*
X108769143Y-143612285D01*
X108731048Y-143688475D01*
X109073905Y-144412285D02*
X108273905Y-144412285D01*
X109035810Y-144412285D02*
X109073905Y-144336095D01*
X109073905Y-144183714D01*
X109035810Y-144107523D01*
X108997714Y-144069428D01*
X108921524Y-144031333D01*
X108692952Y-144031333D01*
X108616762Y-144069428D01*
X108578667Y-144107523D01*
X108540571Y-144183714D01*
X108540571Y-144336095D01*
X108578667Y-144412285D01*
X109035810Y-145098000D02*
X109073905Y-145021810D01*
X109073905Y-144869429D01*
X109035810Y-144793238D01*
X108959619Y-144755143D01*
X108654857Y-144755143D01*
X108578667Y-144793238D01*
X108540571Y-144869429D01*
X108540571Y-145021810D01*
X108578667Y-145098000D01*
X108654857Y-145136095D01*
X108731048Y-145136095D01*
X108807238Y-144755143D01*
X109073905Y-145478952D02*
X108540571Y-145478952D01*
X108692952Y-145478952D02*
X108616762Y-145517047D01*
X108578667Y-145555143D01*
X108540571Y-145631333D01*
X108540571Y-145707524D01*
X109035810Y-146545619D02*
X109073905Y-146621809D01*
X109073905Y-146774190D01*
X109035810Y-146850381D01*
X108959619Y-146888476D01*
X108921524Y-146888476D01*
X108845333Y-146850381D01*
X108807238Y-146774190D01*
X108807238Y-146659905D01*
X108769143Y-146583714D01*
X108692952Y-146545619D01*
X108654857Y-146545619D01*
X108578667Y-146583714D01*
X108540571Y-146659905D01*
X108540571Y-146774190D01*
X108578667Y-146850381D01*
X108540571Y-147117047D02*
X108540571Y-147421809D01*
X108273905Y-147231333D02*
X108959619Y-147231333D01*
X109035810Y-147269428D01*
X109073905Y-147345619D01*
X109073905Y-147421809D01*
X109073905Y-147688476D02*
X108540571Y-147688476D01*
X108692952Y-147688476D02*
X108616762Y-147726571D01*
X108578667Y-147764667D01*
X108540571Y-147840857D01*
X108540571Y-147917048D01*
X109073905Y-148183714D02*
X108540571Y-148183714D01*
X108273905Y-148183714D02*
X108312000Y-148145619D01*
X108350095Y-148183714D01*
X108312000Y-148221809D01*
X108273905Y-148183714D01*
X108350095Y-148183714D01*
X108540571Y-148564666D02*
X109340571Y-148564666D01*
X108578667Y-148564666D02*
X108540571Y-148640857D01*
X108540571Y-148793238D01*
X108578667Y-148869428D01*
X108616762Y-148907523D01*
X108692952Y-148945619D01*
X108921524Y-148945619D01*
X108997714Y-148907523D01*
X109035810Y-148869428D01*
X109073905Y-148793238D01*
X109073905Y-148640857D01*
X109035810Y-148564666D01*
D12*
X119267000Y-107096000D02*
X119267000Y-108296000D01*
X121017000Y-108296000D02*
X121017000Y-107096000D01*
X135749000Y-128870000D02*
X135749000Y-127670000D01*
X133999000Y-127670000D02*
X133999000Y-128870000D01*
X107950000Y-116586000D02*
X107950000Y-149606000D01*
X107950000Y-149606000D02*
X105410000Y-149606000D01*
X105410000Y-149606000D02*
X105410000Y-116586000D01*
X105130000Y-113766000D02*
X105130000Y-115316000D01*
X105410000Y-116586000D02*
X107950000Y-116586000D01*
X108230000Y-115316000D02*
X108230000Y-113766000D01*
X108230000Y-113766000D02*
X105130000Y-113766000D01*
X113030000Y-130302000D02*
X113030000Y-117602000D01*
X113030000Y-117602000D02*
X110490000Y-117602000D01*
X110490000Y-117602000D02*
X110490000Y-130302000D01*
X113310000Y-133122000D02*
X113310000Y-131572000D01*
X113030000Y-130302000D02*
X110490000Y-130302000D01*
X110210000Y-131572000D02*
X110210000Y-133122000D01*
X110210000Y-133122000D02*
X113310000Y-133122000D01*
X145542000Y-132842000D02*
X145542000Y-140462000D01*
X143002000Y-132842000D02*
X143002000Y-140462000D01*
X142722000Y-130022000D02*
X142722000Y-131572000D01*
X145542000Y-140462000D02*
X143002000Y-140462000D01*
X143002000Y-132842000D02*
X145542000Y-132842000D01*
X145822000Y-131572000D02*
X145822000Y-130022000D01*
X145822000Y-130022000D02*
X142722000Y-130022000D01*
D11*
X118979905Y-107562667D02*
X118598952Y-107296000D01*
X118979905Y-107105524D02*
X118179905Y-107105524D01*
X118179905Y-107410286D01*
X118218000Y-107486477D01*
X118256095Y-107524572D01*
X118332286Y-107562667D01*
X118446571Y-107562667D01*
X118522762Y-107524572D01*
X118560857Y-107486477D01*
X118598952Y-107410286D01*
X118598952Y-107105524D01*
X118179905Y-108248381D02*
X118179905Y-108096000D01*
X118218000Y-108019810D01*
X118256095Y-107981715D01*
X118370381Y-107905524D01*
X118522762Y-107867429D01*
X118827524Y-107867429D01*
X118903714Y-107905524D01*
X118941810Y-107943619D01*
X118979905Y-108019810D01*
X118979905Y-108172191D01*
X118941810Y-108248381D01*
X118903714Y-108286477D01*
X118827524Y-108324572D01*
X118637048Y-108324572D01*
X118560857Y-108286477D01*
X118522762Y-108248381D01*
X118484667Y-108172191D01*
X118484667Y-108019810D01*
X118522762Y-107943619D01*
X118560857Y-107905524D01*
X118637048Y-107867429D01*
X135235905Y-131184667D02*
X134854952Y-130918000D01*
X135235905Y-130727524D02*
X134435905Y-130727524D01*
X134435905Y-131032286D01*
X134474000Y-131108477D01*
X134512095Y-131146572D01*
X134588286Y-131184667D01*
X134702571Y-131184667D01*
X134778762Y-131146572D01*
X134816857Y-131108477D01*
X134854952Y-131032286D01*
X134854952Y-130727524D01*
X134435905Y-131908477D02*
X134435905Y-131527524D01*
X134816857Y-131489429D01*
X134778762Y-131527524D01*
X134740667Y-131603715D01*
X134740667Y-131794191D01*
X134778762Y-131870381D01*
X134816857Y-131908477D01*
X134893048Y-131946572D01*
X135083524Y-131946572D01*
X135159714Y-131908477D01*
X135197810Y-131870381D01*
X135235905Y-131794191D01*
X135235905Y-131603715D01*
X135197810Y-131527524D01*
X135159714Y-131489429D01*
X107270476Y-113391905D02*
X107270476Y-112591905D01*
X106965714Y-112591905D01*
X106889523Y-112630000D01*
X106851428Y-112668095D01*
X106813333Y-112744286D01*
X106813333Y-112858571D01*
X106851428Y-112934762D01*
X106889523Y-112972857D01*
X106965714Y-113010952D01*
X107270476Y-113010952D01*
X106508571Y-112668095D02*
X106470476Y-112630000D01*
X106394285Y-112591905D01*
X106203809Y-112591905D01*
X106127619Y-112630000D01*
X106089523Y-112668095D01*
X106051428Y-112744286D01*
X106051428Y-112820476D01*
X106089523Y-112934762D01*
X106546666Y-113391905D01*
X106051428Y-113391905D01*
X112350476Y-134219905D02*
X112350476Y-133419905D01*
X112045714Y-133419905D01*
X111969523Y-133458000D01*
X111931428Y-133496095D01*
X111893333Y-133572286D01*
X111893333Y-133686571D01*
X111931428Y-133762762D01*
X111969523Y-133800857D01*
X112045714Y-133838952D01*
X112350476Y-133838952D01*
X111626666Y-133419905D02*
X111093333Y-133419905D01*
X111436190Y-134219905D01*
X144862476Y-129393905D02*
X144862476Y-128593905D01*
X144557714Y-128593905D01*
X144481523Y-128632000D01*
X144443428Y-128670095D01*
X144405333Y-128746286D01*
X144405333Y-128860571D01*
X144443428Y-128936762D01*
X144481523Y-128974857D01*
X144557714Y-129012952D01*
X144862476Y-129012952D01*
X143948190Y-128936762D02*
X144024381Y-128898667D01*
X144062476Y-128860571D01*
X144100571Y-128784381D01*
X144100571Y-128746286D01*
X144062476Y-128670095D01*
X144024381Y-128632000D01*
X143948190Y-128593905D01*
X143795809Y-128593905D01*
X143719619Y-128632000D01*
X143681523Y-128670095D01*
X143643428Y-128746286D01*
X143643428Y-128784381D01*
X143681523Y-128860571D01*
X143719619Y-128898667D01*
X143795809Y-128936762D01*
X143948190Y-128936762D01*
X144024381Y-128974857D01*
X144062476Y-129012952D01*
X144100571Y-129089143D01*
X144100571Y-129241524D01*
X144062476Y-129317714D01*
X144024381Y-129355810D01*
X143948190Y-129393905D01*
X143795809Y-129393905D01*
X143719619Y-129355810D01*
X143681523Y-129317714D01*
X143643428Y-129241524D01*
X143643428Y-129089143D01*
X143681523Y-129012952D01*
X143719619Y-128974857D01*
X143795809Y-128936762D01*
M02*
