G04 #@! TF.FileFunction,Copper,L2,Bot,Signal*
%FSLAX46Y46*%
G04 Gerber Fmt 4.6, Leading zero omitted, Abs format (unit mm)*
G04 Created by KiCad (PCBNEW 4.0.2-4+6225~38~ubuntu14.04.1-stable) date Mon 29 Feb 2016 18:52:31 GMT*
%MOMM*%
G01*
G04 APERTURE LIST*
%ADD10C,0.100000*%
%ADD11R,1.727200X1.727200*%
%ADD12O,1.727200X1.727200*%
%ADD13O,3.000000X4.000000*%
%ADD14O,5.000000X3.500000*%
%ADD15R,2.032000X1.727200*%
%ADD16O,2.032000X1.727200*%
%ADD17C,2.000000*%
%ADD18C,1.000000*%
%ADD19C,1.500000*%
%ADD20C,0.508000*%
%ADD21C,2.000000*%
%ADD22C,1.016000*%
%ADD23C,0.254000*%
%ADD24C,1.500000*%
G04 APERTURE END LIST*
D10*
D11*
X137668000Y-141732000D03*
D12*
X137668000Y-144272000D03*
X135128000Y-141732000D03*
X135128000Y-144272000D03*
X132588000Y-141732000D03*
X132588000Y-144272000D03*
D11*
X146812000Y-141732000D03*
D12*
X146812000Y-144272000D03*
X144272000Y-141732000D03*
X144272000Y-144272000D03*
X141732000Y-141732000D03*
X141732000Y-144272000D03*
D13*
X147748000Y-109276000D03*
X137748000Y-109276000D03*
D14*
X142748000Y-105376000D03*
D13*
X134032000Y-109276000D03*
X124032000Y-109276000D03*
D14*
X129032000Y-105376000D03*
D15*
X104140000Y-115316000D03*
D16*
X104140000Y-117856000D03*
X104140000Y-120396000D03*
X104140000Y-122936000D03*
X104140000Y-125476000D03*
X104140000Y-128016000D03*
X104140000Y-130556000D03*
X104140000Y-133096000D03*
X104140000Y-135636000D03*
X104140000Y-138176000D03*
X104140000Y-140716000D03*
X104140000Y-143256000D03*
X104140000Y-145796000D03*
X104140000Y-148336000D03*
D15*
X106680000Y-115316000D03*
D16*
X106680000Y-117856000D03*
X106680000Y-120396000D03*
X106680000Y-122936000D03*
X106680000Y-125476000D03*
X106680000Y-128016000D03*
X106680000Y-130556000D03*
X106680000Y-133096000D03*
X106680000Y-135636000D03*
X106680000Y-138176000D03*
X106680000Y-140716000D03*
X106680000Y-143256000D03*
X106680000Y-145796000D03*
X106680000Y-148336000D03*
D15*
X111760000Y-131572000D03*
D16*
X111760000Y-129032000D03*
X111760000Y-126492000D03*
X111760000Y-123952000D03*
X111760000Y-121412000D03*
X111760000Y-118872000D03*
D15*
X144272000Y-131572000D03*
D16*
X144272000Y-134112000D03*
X144272000Y-136652000D03*
X144272000Y-139192000D03*
D15*
X146812000Y-131572000D03*
D16*
X146812000Y-134112000D03*
X146812000Y-136652000D03*
X146812000Y-139192000D03*
D17*
X105664000Y-106172000D03*
X102339000Y-105156000D03*
D18*
X131064000Y-122412000D03*
D17*
X135636000Y-103140000D03*
X143764000Y-117348000D03*
X109220000Y-112776000D03*
X111252000Y-102108000D03*
X129032000Y-113792000D03*
X119888000Y-117856000D03*
X133350000Y-116078000D03*
X125476000Y-118872000D03*
D18*
X114554000Y-112268000D03*
X115570000Y-113792000D03*
D19*
X146796000Y-113300000D03*
D18*
X130048000Y-126492000D03*
X139700000Y-125476000D03*
D20*
X138176000Y-137668000D02*
X139700000Y-139192000D01*
X139700000Y-140208000D02*
X139700000Y-139192000D01*
D21*
X101600000Y-108204000D02*
X103632000Y-106172000D01*
X103632000Y-106172000D02*
X105664000Y-106172000D01*
X102616000Y-135636000D02*
X104140000Y-135636000D01*
X101600000Y-134620000D02*
X102616000Y-135636000D01*
X101600000Y-105895000D02*
X101600000Y-108204000D01*
X101600000Y-108204000D02*
X101600000Y-134620000D01*
X102339000Y-105156000D02*
X101600000Y-105895000D01*
X104140000Y-135636000D02*
X106680000Y-138176000D01*
X104140000Y-135636000D02*
X104140000Y-138176000D01*
X104140000Y-138176000D02*
X106680000Y-138176000D01*
D22*
X106680000Y-135636000D02*
X107188000Y-135128000D01*
D21*
X106680000Y-135636000D02*
X106680000Y-138176000D01*
X104140000Y-135636000D02*
X106680000Y-135636000D01*
D23*
X106680000Y-120396000D02*
X106934000Y-120142000D01*
X106934000Y-120142000D02*
X114808000Y-120142000D01*
D22*
X106934000Y-133096000D02*
X106680000Y-133096000D01*
X131064000Y-122412000D02*
X131064000Y-122428000D01*
X138176000Y-122936000D02*
X143764000Y-117348000D01*
X138176000Y-136144000D02*
X138176000Y-122936000D01*
D21*
X135890000Y-103124000D02*
X135890000Y-106172000D01*
X135652000Y-103124000D02*
X135890000Y-103124000D01*
X135636000Y-103140000D02*
X135652000Y-103124000D01*
D22*
X135890000Y-106172000D02*
X138176000Y-106172000D01*
X143764000Y-111252000D02*
X143764000Y-117348000D01*
X139192000Y-106680000D02*
X143764000Y-111252000D01*
X138684000Y-106680000D02*
X139192000Y-106680000D01*
X138176000Y-106172000D02*
X138684000Y-106680000D01*
X131064000Y-108204000D02*
X132588000Y-106680000D01*
X132588000Y-106680000D02*
X133096000Y-106680000D01*
X133096000Y-106680000D02*
X133604000Y-106172000D01*
X133604000Y-106172000D02*
X135890000Y-106172000D01*
D21*
X129032000Y-113792000D02*
X129032000Y-110236000D01*
X129032000Y-110236000D02*
X131064000Y-108204000D01*
X111252000Y-102108000D02*
X111252000Y-109728000D01*
X111252000Y-109728000D02*
X111760000Y-110236000D01*
X122428000Y-113792000D02*
X129032000Y-113792000D01*
X119888000Y-111252000D02*
X122428000Y-113792000D01*
X116332000Y-111252000D02*
X119888000Y-111252000D01*
X115316000Y-110236000D02*
X116332000Y-111252000D01*
X111760000Y-110236000D02*
X115316000Y-110236000D01*
X107696000Y-120396000D02*
X109220000Y-118872000D01*
X109220000Y-118872000D02*
X109220000Y-112776000D01*
X109220000Y-112776000D02*
X111760000Y-110236000D01*
X106680000Y-120396000D02*
X107696000Y-120396000D01*
D23*
X106680000Y-122936000D02*
X108966000Y-125222000D01*
X108966000Y-125222000D02*
X114808000Y-125222000D01*
X106680000Y-122936000D02*
X106934000Y-122682000D01*
X106934000Y-122682000D02*
X114808000Y-122682000D01*
D21*
X132588000Y-144272000D02*
X131826000Y-144272000D01*
X131826000Y-144272000D02*
X130302000Y-142748000D01*
X133604000Y-137414000D02*
X133604000Y-121412000D01*
X130302000Y-140716000D02*
X133604000Y-137414000D01*
X130302000Y-142748000D02*
X130302000Y-140716000D01*
D20*
X140462000Y-144272000D02*
X139954000Y-144272000D01*
X139446000Y-143256000D02*
X139954000Y-143256000D01*
X139954000Y-143256000D02*
X140462000Y-143764000D01*
X141732000Y-144272000D02*
X141224000Y-144272000D01*
X141224000Y-144272000D02*
X140716000Y-143764000D01*
X139954000Y-143002000D02*
X140716000Y-143764000D01*
X140462000Y-143764000D02*
X140462000Y-144018000D01*
X140716000Y-143764000D02*
X140462000Y-143764000D01*
X140462000Y-143002000D02*
X139954000Y-143002000D01*
X141732000Y-144272000D02*
X140462000Y-144272000D01*
X140462000Y-144272000D02*
X139446000Y-143256000D01*
X139446000Y-143256000D02*
X139192000Y-143002000D01*
X139954000Y-144272000D02*
X140208000Y-144272000D01*
X140208000Y-144272000D02*
X140462000Y-144018000D01*
X140462000Y-144018000D02*
X140970000Y-143510000D01*
X138684000Y-143002000D02*
X139192000Y-143002000D01*
X139192000Y-143002000D02*
X139954000Y-143002000D01*
X140462000Y-143002000D02*
X140970000Y-143510000D01*
X140970000Y-143510000D02*
X141732000Y-144272000D01*
X139954000Y-144272000D02*
X138684000Y-143002000D01*
X133858000Y-143002000D02*
X138684000Y-143002000D01*
X133858000Y-143002000D02*
X132588000Y-144272000D01*
D21*
X133604000Y-121412000D02*
X130810000Y-118618000D01*
X125476000Y-118872000D02*
X120904000Y-118872000D01*
X120904000Y-118872000D02*
X119888000Y-117856000D01*
X130556000Y-118872000D02*
X130810000Y-118618000D01*
X130810000Y-118618000D02*
X133350000Y-116078000D01*
X130556000Y-118872000D02*
X125476000Y-118872000D01*
X128778000Y-138938000D02*
X128778000Y-136906000D01*
X137668000Y-145288000D02*
X136144000Y-146812000D01*
X128016000Y-139700000D02*
X128778000Y-138938000D01*
X128016000Y-143764000D02*
X128016000Y-139700000D01*
X131064000Y-146812000D02*
X128016000Y-143764000D01*
X136144000Y-146812000D02*
X131064000Y-146812000D01*
D24*
X108712000Y-129540000D02*
X107188000Y-128016000D01*
D21*
X104140000Y-125476000D02*
X106680000Y-128016000D01*
X106680000Y-128016000D02*
X104140000Y-128016000D01*
X104140000Y-128016000D02*
X104140000Y-125476000D01*
X104140000Y-125476000D02*
X106680000Y-125476000D01*
X106680000Y-125476000D02*
X106680000Y-128016000D01*
D24*
X106680000Y-128016000D02*
X107188000Y-128016000D01*
D21*
X137668000Y-145288000D02*
X138684000Y-146304000D01*
D24*
X137668000Y-144272000D02*
X137668000Y-145288000D01*
D21*
X146812000Y-145288000D02*
X146812000Y-144272000D01*
X145796000Y-146304000D02*
X146812000Y-145288000D01*
X138684000Y-146304000D02*
X145796000Y-146304000D01*
D24*
X123698000Y-135890000D02*
X122174000Y-135890000D01*
X127508000Y-135636000D02*
X125476000Y-135636000D01*
D21*
X128778000Y-136906000D02*
X127508000Y-135636000D01*
D24*
X124206000Y-135382000D02*
X123698000Y-135890000D01*
X125222000Y-135382000D02*
X124206000Y-135382000D01*
X125476000Y-135636000D02*
X125222000Y-135382000D01*
X122174000Y-135890000D02*
X120650000Y-134366000D01*
X120650000Y-134366000D02*
X119380000Y-134366000D01*
X108712000Y-129540000D02*
X108712000Y-132334000D01*
X119380000Y-134366000D02*
X118364000Y-135382000D01*
X118364000Y-135382000D02*
X111760000Y-135382000D01*
X111760000Y-135382000D02*
X108712000Y-132334000D01*
D20*
X126746000Y-137414000D02*
X124714000Y-139446000D01*
X124714000Y-139446000D02*
X113030000Y-139446000D01*
X113030000Y-139446000D02*
X106680000Y-145796000D01*
D21*
X106680000Y-145796000D02*
X104140000Y-145796000D01*
D20*
X111760000Y-121412000D02*
X114256434Y-121412000D01*
X116586000Y-119082434D02*
X116586000Y-113030000D01*
X114256434Y-121412000D02*
X116586000Y-119082434D01*
X114554000Y-112268000D02*
X115062000Y-112776000D01*
X115062000Y-112776000D02*
X116332000Y-112776000D01*
X116332000Y-112776000D02*
X116586000Y-113030000D01*
X114554000Y-112456000D02*
X114554000Y-112268000D01*
X114554000Y-112268000D02*
X114554000Y-112456000D01*
X115570000Y-113792000D02*
X115570000Y-115214400D01*
X115570000Y-115214400D02*
X111912400Y-118872000D01*
X111912400Y-118872000D02*
X111760000Y-118872000D01*
X111760000Y-118872000D02*
X111826000Y-118806000D01*
D24*
X144272000Y-141732000D02*
X146812000Y-141732000D01*
X143256000Y-141732000D02*
X144272000Y-141732000D01*
X141732000Y-141732000D02*
X143256000Y-141732000D01*
X141732000Y-141732000D02*
X141732000Y-140208000D01*
D21*
X141732000Y-130556000D02*
X146796000Y-125492000D01*
X146796000Y-125492000D02*
X146796000Y-113300000D01*
X141732000Y-130556000D02*
X141732000Y-140208000D01*
D24*
X143256000Y-141732000D02*
X141732000Y-140208000D01*
X132588000Y-141732000D02*
X135128000Y-141732000D01*
X137668000Y-141732000D02*
X135128000Y-141732000D01*
D21*
X134620000Y-110744000D02*
X134032000Y-109276000D01*
X136144000Y-140208000D02*
X136144000Y-112268000D01*
X136144000Y-112268000D02*
X134620000Y-110744000D01*
D24*
X137668000Y-141732000D02*
X136144000Y-140208000D01*
D21*
X136144000Y-140716000D02*
X136144000Y-140208000D01*
D24*
X135128000Y-141732000D02*
X136144000Y-140716000D01*
D20*
X111760000Y-126492000D02*
X130048000Y-126492000D01*
X139700000Y-128966000D02*
X139700000Y-125476000D01*
D23*
G36*
X149175000Y-149175000D02*
X108061097Y-149175000D01*
X108284709Y-148710791D01*
X108287358Y-148695026D01*
X108166217Y-148463000D01*
X106807000Y-148463000D01*
X106807000Y-148483000D01*
X106553000Y-148483000D01*
X106553000Y-148463000D01*
X104267000Y-148463000D01*
X104267000Y-148483000D01*
X104013000Y-148483000D01*
X104013000Y-148463000D01*
X102653783Y-148463000D01*
X102532642Y-148695026D01*
X102535291Y-148710791D01*
X102758903Y-149175000D01*
X100761000Y-149175000D01*
X100761000Y-141075026D01*
X102532642Y-141075026D01*
X102535291Y-141090791D01*
X102789268Y-141618036D01*
X103201108Y-141986000D01*
X102789268Y-142353964D01*
X102535291Y-142881209D01*
X102532642Y-142896974D01*
X102653783Y-143129000D01*
X104013000Y-143129000D01*
X104013000Y-140843000D01*
X104267000Y-140843000D01*
X104267000Y-143129000D01*
X106553000Y-143129000D01*
X106553000Y-140843000D01*
X104267000Y-140843000D01*
X104013000Y-140843000D01*
X102653783Y-140843000D01*
X102532642Y-141075026D01*
X100761000Y-141075026D01*
X100761000Y-136093240D01*
X101459880Y-136792120D01*
X101990312Y-137146543D01*
X102505000Y-137248922D01*
X102505000Y-137932953D01*
X102456655Y-138176000D01*
X102570729Y-138749489D01*
X102895585Y-139235670D01*
X102938670Y-139264459D01*
X102983880Y-139332120D01*
X103181086Y-139463889D01*
X102789268Y-139813964D01*
X102535291Y-140341209D01*
X102532642Y-140356974D01*
X102653783Y-140589000D01*
X104013000Y-140589000D01*
X104013000Y-140569000D01*
X104267000Y-140569000D01*
X104267000Y-140589000D01*
X106553000Y-140589000D01*
X106553000Y-140569000D01*
X106807000Y-140569000D01*
X106807000Y-140589000D01*
X108166217Y-140589000D01*
X108287358Y-140356974D01*
X108284709Y-140341209D01*
X108030732Y-139813964D01*
X107638914Y-139463889D01*
X107836120Y-139332120D01*
X107881330Y-139264459D01*
X107924415Y-139235670D01*
X108249271Y-138749489D01*
X108363345Y-138176000D01*
X108315000Y-137932953D01*
X108315000Y-135879047D01*
X108363345Y-135636000D01*
X108296649Y-135300695D01*
X108331000Y-135128000D01*
X108243994Y-134690593D01*
X107996223Y-134319777D01*
X107809939Y-134195306D01*
X108030732Y-133998036D01*
X108156422Y-133737108D01*
X110780657Y-136361343D01*
X111229983Y-136661573D01*
X111760000Y-136767000D01*
X118364000Y-136767000D01*
X118894017Y-136661573D01*
X119343343Y-136361343D01*
X119953686Y-135751000D01*
X120076314Y-135751000D01*
X121194657Y-136869343D01*
X121643983Y-137169573D01*
X122174000Y-137275000D01*
X123698000Y-137275000D01*
X124228017Y-137169573D01*
X124677343Y-136869343D01*
X124757232Y-136789454D01*
X124945983Y-136915573D01*
X125476000Y-137021000D01*
X125881764Y-137021000D01*
X124345764Y-138557000D01*
X113030000Y-138557000D01*
X112689794Y-138624671D01*
X112502991Y-138749489D01*
X112401382Y-138817382D01*
X108249741Y-142969023D01*
X108287358Y-142896974D01*
X108284709Y-142881209D01*
X108030732Y-142353964D01*
X107618892Y-141986000D01*
X108030732Y-141618036D01*
X108284709Y-141090791D01*
X108287358Y-141075026D01*
X108166217Y-140843000D01*
X106807000Y-140843000D01*
X106807000Y-143129000D01*
X106827000Y-143129000D01*
X106827000Y-143383000D01*
X106807000Y-143383000D01*
X106807000Y-143403000D01*
X106553000Y-143403000D01*
X106553000Y-143383000D01*
X104267000Y-143383000D01*
X104267000Y-143403000D01*
X104013000Y-143403000D01*
X104013000Y-143383000D01*
X102653783Y-143383000D01*
X102532642Y-143615026D01*
X102535291Y-143630791D01*
X102789268Y-144158036D01*
X103181086Y-144508111D01*
X102983880Y-144639880D01*
X102938670Y-144707541D01*
X102895585Y-144736330D01*
X102570729Y-145222511D01*
X102456655Y-145796000D01*
X102570729Y-146369489D01*
X102895585Y-146855670D01*
X102938670Y-146884459D01*
X102983880Y-146952120D01*
X103181086Y-147083889D01*
X102789268Y-147433964D01*
X102535291Y-147961209D01*
X102532642Y-147976974D01*
X102653783Y-148209000D01*
X104013000Y-148209000D01*
X104013000Y-148189000D01*
X104267000Y-148189000D01*
X104267000Y-148209000D01*
X106553000Y-148209000D01*
X106553000Y-148189000D01*
X106807000Y-148189000D01*
X106807000Y-148209000D01*
X108166217Y-148209000D01*
X108287358Y-147976974D01*
X108284709Y-147961209D01*
X108030732Y-147433964D01*
X107638914Y-147083889D01*
X107836120Y-146952120D01*
X107881330Y-146884459D01*
X107924415Y-146855670D01*
X108249271Y-146369489D01*
X108363345Y-145796000D01*
X108292649Y-145440587D01*
X113398236Y-140335000D01*
X124714000Y-140335000D01*
X125054206Y-140267329D01*
X125342618Y-140074618D01*
X126832744Y-138584492D01*
X126505457Y-139074312D01*
X126380999Y-139700000D01*
X126381000Y-139700005D01*
X126381000Y-143763995D01*
X126380999Y-143764000D01*
X126505457Y-144389688D01*
X126859880Y-144920120D01*
X129907880Y-147968120D01*
X130438312Y-148322543D01*
X131064000Y-148447001D01*
X131064005Y-148447000D01*
X136143995Y-148447000D01*
X136144000Y-148447001D01*
X136769688Y-148322543D01*
X137300120Y-147968120D01*
X137695872Y-147572368D01*
X138058312Y-147814543D01*
X138684000Y-147939001D01*
X138684005Y-147939000D01*
X145795995Y-147939000D01*
X145796000Y-147939001D01*
X146421688Y-147814543D01*
X146952120Y-147460120D01*
X147968120Y-146444120D01*
X148322543Y-145913688D01*
X148447001Y-145288000D01*
X148447000Y-145287995D01*
X148447000Y-144272000D01*
X148322543Y-143646313D01*
X147989648Y-143148100D01*
X148127041Y-143059690D01*
X148272031Y-142847490D01*
X148323040Y-142595600D01*
X148323040Y-140868400D01*
X148278762Y-140633083D01*
X148139690Y-140416959D01*
X147976212Y-140305260D01*
X148056415Y-140251670D01*
X148381271Y-139765489D01*
X148495345Y-139192000D01*
X148381271Y-138618511D01*
X148056415Y-138132330D01*
X147741634Y-137922000D01*
X148056415Y-137711670D01*
X148381271Y-137225489D01*
X148495345Y-136652000D01*
X148381271Y-136078511D01*
X148056415Y-135592330D01*
X147741634Y-135382000D01*
X148056415Y-135171670D01*
X148381271Y-134685489D01*
X148495345Y-134112000D01*
X148381271Y-133538511D01*
X148056415Y-133052330D01*
X148042087Y-133042757D01*
X148063317Y-133038762D01*
X148279441Y-132899690D01*
X148424431Y-132687490D01*
X148475440Y-132435600D01*
X148475440Y-130708400D01*
X148431162Y-130473083D01*
X148292090Y-130256959D01*
X148079890Y-130111969D01*
X147828000Y-130060960D01*
X145796000Y-130060960D01*
X145560683Y-130105238D01*
X145544901Y-130115393D01*
X145539890Y-130111969D01*
X145288000Y-130060960D01*
X144539280Y-130060960D01*
X147952117Y-126648122D01*
X147952120Y-126648120D01*
X148306543Y-126117687D01*
X148431000Y-125492000D01*
X148431000Y-113300000D01*
X148306543Y-112674313D01*
X147952120Y-112143880D01*
X147652385Y-111943604D01*
X147748000Y-111962623D01*
X148565029Y-111800106D01*
X149175000Y-111392536D01*
X149175000Y-149175000D01*
X149175000Y-149175000D01*
G37*
X149175000Y-149175000D02*
X108061097Y-149175000D01*
X108284709Y-148710791D01*
X108287358Y-148695026D01*
X108166217Y-148463000D01*
X106807000Y-148463000D01*
X106807000Y-148483000D01*
X106553000Y-148483000D01*
X106553000Y-148463000D01*
X104267000Y-148463000D01*
X104267000Y-148483000D01*
X104013000Y-148483000D01*
X104013000Y-148463000D01*
X102653783Y-148463000D01*
X102532642Y-148695026D01*
X102535291Y-148710791D01*
X102758903Y-149175000D01*
X100761000Y-149175000D01*
X100761000Y-141075026D01*
X102532642Y-141075026D01*
X102535291Y-141090791D01*
X102789268Y-141618036D01*
X103201108Y-141986000D01*
X102789268Y-142353964D01*
X102535291Y-142881209D01*
X102532642Y-142896974D01*
X102653783Y-143129000D01*
X104013000Y-143129000D01*
X104013000Y-140843000D01*
X104267000Y-140843000D01*
X104267000Y-143129000D01*
X106553000Y-143129000D01*
X106553000Y-140843000D01*
X104267000Y-140843000D01*
X104013000Y-140843000D01*
X102653783Y-140843000D01*
X102532642Y-141075026D01*
X100761000Y-141075026D01*
X100761000Y-136093240D01*
X101459880Y-136792120D01*
X101990312Y-137146543D01*
X102505000Y-137248922D01*
X102505000Y-137932953D01*
X102456655Y-138176000D01*
X102570729Y-138749489D01*
X102895585Y-139235670D01*
X102938670Y-139264459D01*
X102983880Y-139332120D01*
X103181086Y-139463889D01*
X102789268Y-139813964D01*
X102535291Y-140341209D01*
X102532642Y-140356974D01*
X102653783Y-140589000D01*
X104013000Y-140589000D01*
X104013000Y-140569000D01*
X104267000Y-140569000D01*
X104267000Y-140589000D01*
X106553000Y-140589000D01*
X106553000Y-140569000D01*
X106807000Y-140569000D01*
X106807000Y-140589000D01*
X108166217Y-140589000D01*
X108287358Y-140356974D01*
X108284709Y-140341209D01*
X108030732Y-139813964D01*
X107638914Y-139463889D01*
X107836120Y-139332120D01*
X107881330Y-139264459D01*
X107924415Y-139235670D01*
X108249271Y-138749489D01*
X108363345Y-138176000D01*
X108315000Y-137932953D01*
X108315000Y-135879047D01*
X108363345Y-135636000D01*
X108296649Y-135300695D01*
X108331000Y-135128000D01*
X108243994Y-134690593D01*
X107996223Y-134319777D01*
X107809939Y-134195306D01*
X108030732Y-133998036D01*
X108156422Y-133737108D01*
X110780657Y-136361343D01*
X111229983Y-136661573D01*
X111760000Y-136767000D01*
X118364000Y-136767000D01*
X118894017Y-136661573D01*
X119343343Y-136361343D01*
X119953686Y-135751000D01*
X120076314Y-135751000D01*
X121194657Y-136869343D01*
X121643983Y-137169573D01*
X122174000Y-137275000D01*
X123698000Y-137275000D01*
X124228017Y-137169573D01*
X124677343Y-136869343D01*
X124757232Y-136789454D01*
X124945983Y-136915573D01*
X125476000Y-137021000D01*
X125881764Y-137021000D01*
X124345764Y-138557000D01*
X113030000Y-138557000D01*
X112689794Y-138624671D01*
X112502991Y-138749489D01*
X112401382Y-138817382D01*
X108249741Y-142969023D01*
X108287358Y-142896974D01*
X108284709Y-142881209D01*
X108030732Y-142353964D01*
X107618892Y-141986000D01*
X108030732Y-141618036D01*
X108284709Y-141090791D01*
X108287358Y-141075026D01*
X108166217Y-140843000D01*
X106807000Y-140843000D01*
X106807000Y-143129000D01*
X106827000Y-143129000D01*
X106827000Y-143383000D01*
X106807000Y-143383000D01*
X106807000Y-143403000D01*
X106553000Y-143403000D01*
X106553000Y-143383000D01*
X104267000Y-143383000D01*
X104267000Y-143403000D01*
X104013000Y-143403000D01*
X104013000Y-143383000D01*
X102653783Y-143383000D01*
X102532642Y-143615026D01*
X102535291Y-143630791D01*
X102789268Y-144158036D01*
X103181086Y-144508111D01*
X102983880Y-144639880D01*
X102938670Y-144707541D01*
X102895585Y-144736330D01*
X102570729Y-145222511D01*
X102456655Y-145796000D01*
X102570729Y-146369489D01*
X102895585Y-146855670D01*
X102938670Y-146884459D01*
X102983880Y-146952120D01*
X103181086Y-147083889D01*
X102789268Y-147433964D01*
X102535291Y-147961209D01*
X102532642Y-147976974D01*
X102653783Y-148209000D01*
X104013000Y-148209000D01*
X104013000Y-148189000D01*
X104267000Y-148189000D01*
X104267000Y-148209000D01*
X106553000Y-148209000D01*
X106553000Y-148189000D01*
X106807000Y-148189000D01*
X106807000Y-148209000D01*
X108166217Y-148209000D01*
X108287358Y-147976974D01*
X108284709Y-147961209D01*
X108030732Y-147433964D01*
X107638914Y-147083889D01*
X107836120Y-146952120D01*
X107881330Y-146884459D01*
X107924415Y-146855670D01*
X108249271Y-146369489D01*
X108363345Y-145796000D01*
X108292649Y-145440587D01*
X113398236Y-140335000D01*
X124714000Y-140335000D01*
X125054206Y-140267329D01*
X125342618Y-140074618D01*
X126832744Y-138584492D01*
X126505457Y-139074312D01*
X126380999Y-139700000D01*
X126381000Y-139700005D01*
X126381000Y-143763995D01*
X126380999Y-143764000D01*
X126505457Y-144389688D01*
X126859880Y-144920120D01*
X129907880Y-147968120D01*
X130438312Y-148322543D01*
X131064000Y-148447001D01*
X131064005Y-148447000D01*
X136143995Y-148447000D01*
X136144000Y-148447001D01*
X136769688Y-148322543D01*
X137300120Y-147968120D01*
X137695872Y-147572368D01*
X138058312Y-147814543D01*
X138684000Y-147939001D01*
X138684005Y-147939000D01*
X145795995Y-147939000D01*
X145796000Y-147939001D01*
X146421688Y-147814543D01*
X146952120Y-147460120D01*
X147968120Y-146444120D01*
X148322543Y-145913688D01*
X148447001Y-145288000D01*
X148447000Y-145287995D01*
X148447000Y-144272000D01*
X148322543Y-143646313D01*
X147989648Y-143148100D01*
X148127041Y-143059690D01*
X148272031Y-142847490D01*
X148323040Y-142595600D01*
X148323040Y-140868400D01*
X148278762Y-140633083D01*
X148139690Y-140416959D01*
X147976212Y-140305260D01*
X148056415Y-140251670D01*
X148381271Y-139765489D01*
X148495345Y-139192000D01*
X148381271Y-138618511D01*
X148056415Y-138132330D01*
X147741634Y-137922000D01*
X148056415Y-137711670D01*
X148381271Y-137225489D01*
X148495345Y-136652000D01*
X148381271Y-136078511D01*
X148056415Y-135592330D01*
X147741634Y-135382000D01*
X148056415Y-135171670D01*
X148381271Y-134685489D01*
X148495345Y-134112000D01*
X148381271Y-133538511D01*
X148056415Y-133052330D01*
X148042087Y-133042757D01*
X148063317Y-133038762D01*
X148279441Y-132899690D01*
X148424431Y-132687490D01*
X148475440Y-132435600D01*
X148475440Y-130708400D01*
X148431162Y-130473083D01*
X148292090Y-130256959D01*
X148079890Y-130111969D01*
X147828000Y-130060960D01*
X145796000Y-130060960D01*
X145560683Y-130105238D01*
X145544901Y-130115393D01*
X145539890Y-130111969D01*
X145288000Y-130060960D01*
X144539280Y-130060960D01*
X147952117Y-126648122D01*
X147952120Y-126648120D01*
X148306543Y-126117687D01*
X148431000Y-125492000D01*
X148431000Y-113300000D01*
X148306543Y-112674313D01*
X147952120Y-112143880D01*
X147652385Y-111943604D01*
X147748000Y-111962623D01*
X148565029Y-111800106D01*
X149175000Y-111392536D01*
X149175000Y-149175000D01*
G36*
X124397241Y-100899298D02*
X124396760Y-101450285D01*
X124607169Y-101959515D01*
X124996436Y-102349461D01*
X125505298Y-102560759D01*
X126056285Y-102561240D01*
X126565515Y-102350831D01*
X126955461Y-101961564D01*
X127166759Y-101452702D01*
X127167240Y-100901715D01*
X127109098Y-100761000D01*
X130954667Y-100761000D01*
X130897241Y-100899298D01*
X130896760Y-101450285D01*
X131107169Y-101959515D01*
X131496436Y-102349461D01*
X132005298Y-102560759D01*
X132556285Y-102561240D01*
X133065515Y-102350831D01*
X133455461Y-101961564D01*
X133666759Y-101452702D01*
X133667240Y-100901715D01*
X133609098Y-100761000D01*
X138170667Y-100761000D01*
X138113241Y-100899298D01*
X138112760Y-101450285D01*
X138323169Y-101959515D01*
X138712436Y-102349461D01*
X139221298Y-102560759D01*
X139772285Y-102561240D01*
X140281515Y-102350831D01*
X140671461Y-101961564D01*
X140882759Y-101452702D01*
X140883240Y-100901715D01*
X140825098Y-100761000D01*
X144670667Y-100761000D01*
X144613241Y-100899298D01*
X144612760Y-101450285D01*
X144823169Y-101959515D01*
X145212436Y-102349461D01*
X145721298Y-102560759D01*
X146272285Y-102561240D01*
X146781515Y-102350831D01*
X147171461Y-101961564D01*
X147382759Y-101452702D01*
X147383240Y-100901715D01*
X147325098Y-100761000D01*
X149175000Y-100761000D01*
X149175000Y-107159464D01*
X148565029Y-106751894D01*
X147748000Y-106589377D01*
X146930971Y-106751894D01*
X146238327Y-107214704D01*
X145775517Y-107907348D01*
X145613000Y-108724377D01*
X145613000Y-109827623D01*
X145614633Y-109835832D01*
X145214485Y-110001169D01*
X144824539Y-110390436D01*
X144613241Y-110899298D01*
X144612760Y-111450285D01*
X144823169Y-111959515D01*
X145212436Y-112349461D01*
X145439513Y-112443752D01*
X145285457Y-112674313D01*
X145161000Y-113300000D01*
X145161000Y-124814761D01*
X140575880Y-129399880D01*
X140221457Y-129930312D01*
X140096999Y-130556000D01*
X140097000Y-130556005D01*
X140097000Y-138331764D01*
X138804618Y-137039382D01*
X138516205Y-136846671D01*
X138176000Y-136779000D01*
X137835795Y-136846671D01*
X137779000Y-136884620D01*
X137779000Y-125700775D01*
X138564803Y-125700775D01*
X138737233Y-126118086D01*
X138811000Y-126191982D01*
X138811000Y-128966000D01*
X138878671Y-129306206D01*
X139071382Y-129594618D01*
X139359794Y-129787329D01*
X139700000Y-129855000D01*
X140040206Y-129787329D01*
X140328618Y-129594618D01*
X140521329Y-129306206D01*
X140589000Y-128966000D01*
X140589000Y-126192283D01*
X140661645Y-126119765D01*
X140834803Y-125702756D01*
X140835197Y-125251225D01*
X140662767Y-124833914D01*
X140343765Y-124514355D01*
X139926756Y-124341197D01*
X139475225Y-124340803D01*
X139057914Y-124513233D01*
X138738355Y-124832235D01*
X138565197Y-125249244D01*
X138564803Y-125700775D01*
X137779000Y-125700775D01*
X137779000Y-112268000D01*
X137717031Y-111956463D01*
X137748000Y-111962623D01*
X138280673Y-111856668D01*
X138323169Y-111959515D01*
X138712436Y-112349461D01*
X139221298Y-112560759D01*
X139772285Y-112561240D01*
X140281515Y-112350831D01*
X140671461Y-111961564D01*
X140882759Y-111452702D01*
X140883240Y-110901715D01*
X140672831Y-110392485D01*
X140283564Y-110002539D01*
X139881422Y-109835555D01*
X139883000Y-109827623D01*
X139883000Y-108724377D01*
X139720483Y-107907348D01*
X139257673Y-107214704D01*
X138565029Y-106751894D01*
X137748000Y-106589377D01*
X136930971Y-106751894D01*
X136238327Y-107214704D01*
X135890000Y-107736012D01*
X135541673Y-107214704D01*
X134849029Y-106751894D01*
X134032000Y-106589377D01*
X133214971Y-106751894D01*
X132522327Y-107214704D01*
X132059517Y-107907348D01*
X131897000Y-108724377D01*
X131897000Y-109827623D01*
X131898633Y-109835832D01*
X131498485Y-110001169D01*
X131108539Y-110390436D01*
X130897241Y-110899298D01*
X130896760Y-111450285D01*
X131107169Y-111959515D01*
X131496436Y-112349461D01*
X132005298Y-112560759D01*
X132556285Y-112561240D01*
X133065515Y-112350831D01*
X133455461Y-111961564D01*
X133475959Y-111912199D01*
X134509000Y-112945239D01*
X134509000Y-114924764D01*
X134277363Y-114692722D01*
X133676648Y-114443284D01*
X133026205Y-114442716D01*
X132425057Y-114691106D01*
X131964722Y-115150637D01*
X131964437Y-115151324D01*
X129878760Y-117237000D01*
X125477426Y-117237000D01*
X125152205Y-117236716D01*
X125151518Y-117237000D01*
X121581240Y-117237000D01*
X121044557Y-116700317D01*
X120815363Y-116470722D01*
X120214648Y-116221284D01*
X119564205Y-116220716D01*
X118963057Y-116469106D01*
X118502722Y-116928637D01*
X118253284Y-117529352D01*
X118252716Y-118179795D01*
X118501106Y-118780943D01*
X118960637Y-119241278D01*
X118961323Y-119241563D01*
X119747880Y-120028120D01*
X120278312Y-120382543D01*
X120904000Y-120507001D01*
X120904005Y-120507000D01*
X125474573Y-120507000D01*
X125799795Y-120507284D01*
X125800482Y-120507000D01*
X130386760Y-120507000D01*
X131969000Y-122089239D01*
X131969000Y-136736761D01*
X130413000Y-138292760D01*
X130413000Y-136906000D01*
X130288543Y-136280313D01*
X130288543Y-136280312D01*
X130042456Y-135912017D01*
X129934120Y-135749880D01*
X129934117Y-135749878D01*
X128664120Y-134479880D01*
X128133688Y-134125457D01*
X127508000Y-134000999D01*
X126882312Y-134125457D01*
X126694423Y-134251000D01*
X125974372Y-134251000D01*
X125752017Y-134102427D01*
X125222000Y-133997000D01*
X124206000Y-133997000D01*
X123675983Y-134102427D01*
X123350696Y-134319777D01*
X123226657Y-134402657D01*
X123124314Y-134505000D01*
X122747686Y-134505000D01*
X121629343Y-133386657D01*
X121519621Y-133313343D01*
X121180017Y-133086427D01*
X120650000Y-132981000D01*
X119380000Y-132981000D01*
X118849983Y-133086427D01*
X118510379Y-133313343D01*
X118400657Y-133386657D01*
X117790314Y-133997000D01*
X112333686Y-133997000D01*
X111419726Y-133083040D01*
X112776000Y-133083040D01*
X113011317Y-133038762D01*
X113227441Y-132899690D01*
X113372431Y-132687490D01*
X113423440Y-132435600D01*
X113423440Y-130708400D01*
X113379162Y-130473083D01*
X113240090Y-130256959D01*
X113027890Y-130111969D01*
X112986561Y-130103600D01*
X113004415Y-130091670D01*
X113329271Y-129605489D01*
X113443345Y-129032000D01*
X113329271Y-128458511D01*
X113004415Y-127972330D01*
X112689634Y-127762000D01*
X113004415Y-127551670D01*
X113118453Y-127381000D01*
X129331717Y-127381000D01*
X129404235Y-127453645D01*
X129821244Y-127626803D01*
X130272775Y-127627197D01*
X130690086Y-127454767D01*
X131009645Y-127135765D01*
X131182803Y-126718756D01*
X131183197Y-126267225D01*
X131010767Y-125849914D01*
X130691765Y-125530355D01*
X130274756Y-125357197D01*
X129823225Y-125356803D01*
X129405914Y-125529233D01*
X129332018Y-125603000D01*
X113118453Y-125603000D01*
X113004415Y-125432330D01*
X112689634Y-125222000D01*
X113004415Y-125011670D01*
X113329271Y-124525489D01*
X113443345Y-123952000D01*
X113329271Y-123378511D01*
X113004415Y-122892330D01*
X112689634Y-122682000D01*
X113004415Y-122471670D01*
X113118453Y-122301000D01*
X114256434Y-122301000D01*
X114596640Y-122233329D01*
X114885052Y-122040618D01*
X117214618Y-119711052D01*
X117226460Y-119693329D01*
X117407329Y-119422640D01*
X117475000Y-119082434D01*
X117475000Y-113030000D01*
X117407329Y-112689794D01*
X117214618Y-112401382D01*
X116960618Y-112147382D01*
X116801771Y-112041244D01*
X116672206Y-111954671D01*
X116332000Y-111887000D01*
X115624646Y-111887000D01*
X115516767Y-111625914D01*
X115197765Y-111306355D01*
X114780756Y-111133197D01*
X114329225Y-111132803D01*
X113911914Y-111305233D01*
X113592355Y-111624235D01*
X113419197Y-112041244D01*
X113418803Y-112492775D01*
X113591233Y-112910086D01*
X113910235Y-113229645D01*
X114327244Y-113402803D01*
X114431658Y-113402894D01*
X114433382Y-113404618D01*
X114487014Y-113440454D01*
X114435197Y-113565244D01*
X114434803Y-114016775D01*
X114607233Y-114434086D01*
X114681000Y-114507982D01*
X114681000Y-114846164D01*
X112119086Y-117408078D01*
X111944745Y-117373400D01*
X111575255Y-117373400D01*
X111001766Y-117487474D01*
X110515585Y-117812330D01*
X110190729Y-118298511D01*
X110076655Y-118872000D01*
X110190729Y-119445489D01*
X110515585Y-119931670D01*
X110830366Y-120142000D01*
X110515585Y-120352330D01*
X110190729Y-120838511D01*
X110076655Y-121412000D01*
X110190729Y-121985489D01*
X110515585Y-122471670D01*
X110830366Y-122682000D01*
X110515585Y-122892330D01*
X110190729Y-123378511D01*
X110076655Y-123952000D01*
X110190729Y-124525489D01*
X110515585Y-125011670D01*
X110830366Y-125222000D01*
X110515585Y-125432330D01*
X110190729Y-125918511D01*
X110076655Y-126492000D01*
X110190729Y-127065489D01*
X110515585Y-127551670D01*
X110830366Y-127762000D01*
X110515585Y-127972330D01*
X110190729Y-128458511D01*
X110076655Y-129032000D01*
X110190729Y-129605489D01*
X110515585Y-130091670D01*
X110529913Y-130101243D01*
X110508683Y-130105238D01*
X110292559Y-130244310D01*
X110147569Y-130456510D01*
X110097000Y-130706227D01*
X110097000Y-129540000D01*
X109991573Y-129009983D01*
X109691343Y-128560657D01*
X108315000Y-127184314D01*
X108315000Y-125719047D01*
X108363345Y-125476000D01*
X108249271Y-124902511D01*
X107924415Y-124416330D01*
X107881330Y-124387541D01*
X107836120Y-124319880D01*
X107638914Y-124188111D01*
X108030732Y-123838036D01*
X108284709Y-123310791D01*
X108287358Y-123295026D01*
X108166217Y-123063000D01*
X106807000Y-123063000D01*
X106807000Y-123083000D01*
X106553000Y-123083000D01*
X106553000Y-123063000D01*
X104267000Y-123063000D01*
X104267000Y-123083000D01*
X104013000Y-123083000D01*
X104013000Y-123063000D01*
X103993000Y-123063000D01*
X103993000Y-122809000D01*
X104013000Y-122809000D01*
X104013000Y-120523000D01*
X104267000Y-120523000D01*
X104267000Y-122809000D01*
X106553000Y-122809000D01*
X106553000Y-120523000D01*
X106807000Y-120523000D01*
X106807000Y-122809000D01*
X108166217Y-122809000D01*
X108287358Y-122576974D01*
X108284709Y-122561209D01*
X108030732Y-122033964D01*
X107618892Y-121666000D01*
X108030732Y-121298036D01*
X108284709Y-120770791D01*
X108287358Y-120755026D01*
X108166217Y-120523000D01*
X106807000Y-120523000D01*
X106553000Y-120523000D01*
X104267000Y-120523000D01*
X104013000Y-120523000D01*
X103993000Y-120523000D01*
X103993000Y-120269000D01*
X104013000Y-120269000D01*
X104013000Y-120249000D01*
X104267000Y-120249000D01*
X104267000Y-120269000D01*
X106553000Y-120269000D01*
X106553000Y-120249000D01*
X106807000Y-120249000D01*
X106807000Y-120269000D01*
X108166217Y-120269000D01*
X108287358Y-120036974D01*
X108284709Y-120021209D01*
X108030732Y-119493964D01*
X107614931Y-119122461D01*
X107924415Y-118915670D01*
X108249271Y-118429489D01*
X108363345Y-117856000D01*
X108249271Y-117282511D01*
X107924415Y-116796330D01*
X107910087Y-116786757D01*
X107931317Y-116782762D01*
X108147441Y-116643690D01*
X108292431Y-116431490D01*
X108343440Y-116179600D01*
X108343440Y-114452400D01*
X108299162Y-114217083D01*
X108160090Y-114000959D01*
X107947890Y-113855969D01*
X107696000Y-113804960D01*
X105664000Y-113804960D01*
X105428683Y-113849238D01*
X105412901Y-113859393D01*
X105407890Y-113855969D01*
X105156000Y-113804960D01*
X103235000Y-113804960D01*
X103235000Y-108881240D01*
X104309240Y-107807000D01*
X104412541Y-107807000D01*
X104405812Y-107813717D01*
X104179258Y-108359319D01*
X104178743Y-108950089D01*
X104404344Y-109496086D01*
X104821717Y-109914188D01*
X105367319Y-110140742D01*
X105958089Y-110141257D01*
X106504086Y-109915656D01*
X106922188Y-109498283D01*
X107148742Y-108952681D01*
X107148744Y-108950089D01*
X115354743Y-108950089D01*
X115580344Y-109496086D01*
X115997717Y-109914188D01*
X116543319Y-110140742D01*
X117134089Y-110141257D01*
X117680086Y-109915656D01*
X118098188Y-109498283D01*
X118324742Y-108952681D01*
X118324941Y-108724377D01*
X121897000Y-108724377D01*
X121897000Y-109827623D01*
X122059517Y-110644652D01*
X122522327Y-111337296D01*
X123214971Y-111800106D01*
X124032000Y-111962623D01*
X124564673Y-111856668D01*
X124607169Y-111959515D01*
X124996436Y-112349461D01*
X125505298Y-112560759D01*
X126056285Y-112561240D01*
X126565515Y-112350831D01*
X126955461Y-111961564D01*
X127166759Y-111452702D01*
X127167240Y-110901715D01*
X126956831Y-110392485D01*
X126567564Y-110002539D01*
X126165422Y-109835555D01*
X126167000Y-109827623D01*
X126167000Y-108724377D01*
X126004483Y-107907348D01*
X125541673Y-107214704D01*
X124849029Y-106751894D01*
X124032000Y-106589377D01*
X123214971Y-106751894D01*
X122522327Y-107214704D01*
X122059517Y-107907348D01*
X121897000Y-108724377D01*
X118324941Y-108724377D01*
X118325257Y-108361911D01*
X118099656Y-107815914D01*
X117682283Y-107397812D01*
X117136681Y-107171258D01*
X116545911Y-107170743D01*
X115999914Y-107396344D01*
X115581812Y-107813717D01*
X115355258Y-108359319D01*
X115354743Y-108950089D01*
X107148744Y-108950089D01*
X107149257Y-108361911D01*
X106923656Y-107815914D01*
X106628082Y-107519824D01*
X107049278Y-107099363D01*
X107298716Y-106498648D01*
X107299284Y-105848205D01*
X107176186Y-105550285D01*
X124396760Y-105550285D01*
X124607169Y-106059515D01*
X124996436Y-106449461D01*
X125505298Y-106660759D01*
X126056285Y-106661240D01*
X126220668Y-106593318D01*
X126534132Y-107062450D01*
X127307882Y-107579453D01*
X128220582Y-107761000D01*
X129843418Y-107761000D01*
X130756118Y-107579453D01*
X131529868Y-107062450D01*
X131895540Y-106515183D01*
X132005298Y-106560759D01*
X132556285Y-106561240D01*
X133065515Y-106350831D01*
X133455461Y-105961564D01*
X133626238Y-105550285D01*
X138112760Y-105550285D01*
X138323169Y-106059515D01*
X138712436Y-106449461D01*
X139221298Y-106660759D01*
X139772285Y-106661240D01*
X139936668Y-106593318D01*
X140250132Y-107062450D01*
X141023882Y-107579453D01*
X141936582Y-107761000D01*
X143559418Y-107761000D01*
X144472118Y-107579453D01*
X145245868Y-107062450D01*
X145611540Y-106515183D01*
X145721298Y-106560759D01*
X146272285Y-106561240D01*
X146781515Y-106350831D01*
X147171461Y-105961564D01*
X147382759Y-105452702D01*
X147383240Y-104901715D01*
X147172831Y-104392485D01*
X146783564Y-104002539D01*
X146274702Y-103791241D01*
X145723715Y-103790760D01*
X145402247Y-103923588D01*
X145245868Y-103689550D01*
X144472118Y-103172547D01*
X143559418Y-102991000D01*
X141936582Y-102991000D01*
X141023882Y-103172547D01*
X140250132Y-103689550D01*
X140041377Y-104001974D01*
X139774702Y-103891241D01*
X139223715Y-103890760D01*
X138714485Y-104101169D01*
X138324539Y-104490436D01*
X138113241Y-104999298D01*
X138112760Y-105550285D01*
X133626238Y-105550285D01*
X133666759Y-105452702D01*
X133667240Y-104901715D01*
X133456831Y-104392485D01*
X133067564Y-104002539D01*
X132558702Y-103791241D01*
X132007715Y-103790760D01*
X131686247Y-103923588D01*
X131529868Y-103689550D01*
X130756118Y-103172547D01*
X129843418Y-102991000D01*
X128220582Y-102991000D01*
X127307882Y-103172547D01*
X126534132Y-103689550D01*
X126325377Y-104001974D01*
X126058702Y-103891241D01*
X125507715Y-103890760D01*
X124998485Y-104101169D01*
X124608539Y-104490436D01*
X124397241Y-104999298D01*
X124396760Y-105550285D01*
X107176186Y-105550285D01*
X107050894Y-105247057D01*
X106591363Y-104786722D01*
X105990648Y-104537284D01*
X105340205Y-104536716D01*
X105339518Y-104537000D01*
X103852307Y-104537000D01*
X103725894Y-104231057D01*
X103266363Y-103770722D01*
X102665648Y-103521284D01*
X102015205Y-103520716D01*
X101414057Y-103769106D01*
X100953722Y-104228637D01*
X100953437Y-104229324D01*
X100761000Y-104421760D01*
X100761000Y-102950089D01*
X104178743Y-102950089D01*
X104404344Y-103496086D01*
X104821717Y-103914188D01*
X105367319Y-104140742D01*
X105958089Y-104141257D01*
X106504086Y-103915656D01*
X106922188Y-103498283D01*
X107148742Y-102952681D01*
X107148744Y-102950089D01*
X115354743Y-102950089D01*
X115580344Y-103496086D01*
X115997717Y-103914188D01*
X116543319Y-104140742D01*
X117134089Y-104141257D01*
X117680086Y-103915656D01*
X118098188Y-103498283D01*
X118324742Y-102952681D01*
X118325257Y-102361911D01*
X118099656Y-101815914D01*
X117682283Y-101397812D01*
X117136681Y-101171258D01*
X116545911Y-101170743D01*
X115999914Y-101396344D01*
X115581812Y-101813717D01*
X115355258Y-102359319D01*
X115354743Y-102950089D01*
X107148744Y-102950089D01*
X107149257Y-102361911D01*
X106923656Y-101815914D01*
X106506283Y-101397812D01*
X105960681Y-101171258D01*
X105369911Y-101170743D01*
X104823914Y-101396344D01*
X104405812Y-101813717D01*
X104179258Y-102359319D01*
X104178743Y-102950089D01*
X100761000Y-102950089D01*
X100761000Y-100761000D01*
X124454667Y-100761000D01*
X124397241Y-100899298D01*
X124397241Y-100899298D01*
G37*
X124397241Y-100899298D02*
X124396760Y-101450285D01*
X124607169Y-101959515D01*
X124996436Y-102349461D01*
X125505298Y-102560759D01*
X126056285Y-102561240D01*
X126565515Y-102350831D01*
X126955461Y-101961564D01*
X127166759Y-101452702D01*
X127167240Y-100901715D01*
X127109098Y-100761000D01*
X130954667Y-100761000D01*
X130897241Y-100899298D01*
X130896760Y-101450285D01*
X131107169Y-101959515D01*
X131496436Y-102349461D01*
X132005298Y-102560759D01*
X132556285Y-102561240D01*
X133065515Y-102350831D01*
X133455461Y-101961564D01*
X133666759Y-101452702D01*
X133667240Y-100901715D01*
X133609098Y-100761000D01*
X138170667Y-100761000D01*
X138113241Y-100899298D01*
X138112760Y-101450285D01*
X138323169Y-101959515D01*
X138712436Y-102349461D01*
X139221298Y-102560759D01*
X139772285Y-102561240D01*
X140281515Y-102350831D01*
X140671461Y-101961564D01*
X140882759Y-101452702D01*
X140883240Y-100901715D01*
X140825098Y-100761000D01*
X144670667Y-100761000D01*
X144613241Y-100899298D01*
X144612760Y-101450285D01*
X144823169Y-101959515D01*
X145212436Y-102349461D01*
X145721298Y-102560759D01*
X146272285Y-102561240D01*
X146781515Y-102350831D01*
X147171461Y-101961564D01*
X147382759Y-101452702D01*
X147383240Y-100901715D01*
X147325098Y-100761000D01*
X149175000Y-100761000D01*
X149175000Y-107159464D01*
X148565029Y-106751894D01*
X147748000Y-106589377D01*
X146930971Y-106751894D01*
X146238327Y-107214704D01*
X145775517Y-107907348D01*
X145613000Y-108724377D01*
X145613000Y-109827623D01*
X145614633Y-109835832D01*
X145214485Y-110001169D01*
X144824539Y-110390436D01*
X144613241Y-110899298D01*
X144612760Y-111450285D01*
X144823169Y-111959515D01*
X145212436Y-112349461D01*
X145439513Y-112443752D01*
X145285457Y-112674313D01*
X145161000Y-113300000D01*
X145161000Y-124814761D01*
X140575880Y-129399880D01*
X140221457Y-129930312D01*
X140096999Y-130556000D01*
X140097000Y-130556005D01*
X140097000Y-138331764D01*
X138804618Y-137039382D01*
X138516205Y-136846671D01*
X138176000Y-136779000D01*
X137835795Y-136846671D01*
X137779000Y-136884620D01*
X137779000Y-125700775D01*
X138564803Y-125700775D01*
X138737233Y-126118086D01*
X138811000Y-126191982D01*
X138811000Y-128966000D01*
X138878671Y-129306206D01*
X139071382Y-129594618D01*
X139359794Y-129787329D01*
X139700000Y-129855000D01*
X140040206Y-129787329D01*
X140328618Y-129594618D01*
X140521329Y-129306206D01*
X140589000Y-128966000D01*
X140589000Y-126192283D01*
X140661645Y-126119765D01*
X140834803Y-125702756D01*
X140835197Y-125251225D01*
X140662767Y-124833914D01*
X140343765Y-124514355D01*
X139926756Y-124341197D01*
X139475225Y-124340803D01*
X139057914Y-124513233D01*
X138738355Y-124832235D01*
X138565197Y-125249244D01*
X138564803Y-125700775D01*
X137779000Y-125700775D01*
X137779000Y-112268000D01*
X137717031Y-111956463D01*
X137748000Y-111962623D01*
X138280673Y-111856668D01*
X138323169Y-111959515D01*
X138712436Y-112349461D01*
X139221298Y-112560759D01*
X139772285Y-112561240D01*
X140281515Y-112350831D01*
X140671461Y-111961564D01*
X140882759Y-111452702D01*
X140883240Y-110901715D01*
X140672831Y-110392485D01*
X140283564Y-110002539D01*
X139881422Y-109835555D01*
X139883000Y-109827623D01*
X139883000Y-108724377D01*
X139720483Y-107907348D01*
X139257673Y-107214704D01*
X138565029Y-106751894D01*
X137748000Y-106589377D01*
X136930971Y-106751894D01*
X136238327Y-107214704D01*
X135890000Y-107736012D01*
X135541673Y-107214704D01*
X134849029Y-106751894D01*
X134032000Y-106589377D01*
X133214971Y-106751894D01*
X132522327Y-107214704D01*
X132059517Y-107907348D01*
X131897000Y-108724377D01*
X131897000Y-109827623D01*
X131898633Y-109835832D01*
X131498485Y-110001169D01*
X131108539Y-110390436D01*
X130897241Y-110899298D01*
X130896760Y-111450285D01*
X131107169Y-111959515D01*
X131496436Y-112349461D01*
X132005298Y-112560759D01*
X132556285Y-112561240D01*
X133065515Y-112350831D01*
X133455461Y-111961564D01*
X133475959Y-111912199D01*
X134509000Y-112945239D01*
X134509000Y-114924764D01*
X134277363Y-114692722D01*
X133676648Y-114443284D01*
X133026205Y-114442716D01*
X132425057Y-114691106D01*
X131964722Y-115150637D01*
X131964437Y-115151324D01*
X129878760Y-117237000D01*
X125477426Y-117237000D01*
X125152205Y-117236716D01*
X125151518Y-117237000D01*
X121581240Y-117237000D01*
X121044557Y-116700317D01*
X120815363Y-116470722D01*
X120214648Y-116221284D01*
X119564205Y-116220716D01*
X118963057Y-116469106D01*
X118502722Y-116928637D01*
X118253284Y-117529352D01*
X118252716Y-118179795D01*
X118501106Y-118780943D01*
X118960637Y-119241278D01*
X118961323Y-119241563D01*
X119747880Y-120028120D01*
X120278312Y-120382543D01*
X120904000Y-120507001D01*
X120904005Y-120507000D01*
X125474573Y-120507000D01*
X125799795Y-120507284D01*
X125800482Y-120507000D01*
X130386760Y-120507000D01*
X131969000Y-122089239D01*
X131969000Y-136736761D01*
X130413000Y-138292760D01*
X130413000Y-136906000D01*
X130288543Y-136280313D01*
X130288543Y-136280312D01*
X130042456Y-135912017D01*
X129934120Y-135749880D01*
X129934117Y-135749878D01*
X128664120Y-134479880D01*
X128133688Y-134125457D01*
X127508000Y-134000999D01*
X126882312Y-134125457D01*
X126694423Y-134251000D01*
X125974372Y-134251000D01*
X125752017Y-134102427D01*
X125222000Y-133997000D01*
X124206000Y-133997000D01*
X123675983Y-134102427D01*
X123350696Y-134319777D01*
X123226657Y-134402657D01*
X123124314Y-134505000D01*
X122747686Y-134505000D01*
X121629343Y-133386657D01*
X121519621Y-133313343D01*
X121180017Y-133086427D01*
X120650000Y-132981000D01*
X119380000Y-132981000D01*
X118849983Y-133086427D01*
X118510379Y-133313343D01*
X118400657Y-133386657D01*
X117790314Y-133997000D01*
X112333686Y-133997000D01*
X111419726Y-133083040D01*
X112776000Y-133083040D01*
X113011317Y-133038762D01*
X113227441Y-132899690D01*
X113372431Y-132687490D01*
X113423440Y-132435600D01*
X113423440Y-130708400D01*
X113379162Y-130473083D01*
X113240090Y-130256959D01*
X113027890Y-130111969D01*
X112986561Y-130103600D01*
X113004415Y-130091670D01*
X113329271Y-129605489D01*
X113443345Y-129032000D01*
X113329271Y-128458511D01*
X113004415Y-127972330D01*
X112689634Y-127762000D01*
X113004415Y-127551670D01*
X113118453Y-127381000D01*
X129331717Y-127381000D01*
X129404235Y-127453645D01*
X129821244Y-127626803D01*
X130272775Y-127627197D01*
X130690086Y-127454767D01*
X131009645Y-127135765D01*
X131182803Y-126718756D01*
X131183197Y-126267225D01*
X131010767Y-125849914D01*
X130691765Y-125530355D01*
X130274756Y-125357197D01*
X129823225Y-125356803D01*
X129405914Y-125529233D01*
X129332018Y-125603000D01*
X113118453Y-125603000D01*
X113004415Y-125432330D01*
X112689634Y-125222000D01*
X113004415Y-125011670D01*
X113329271Y-124525489D01*
X113443345Y-123952000D01*
X113329271Y-123378511D01*
X113004415Y-122892330D01*
X112689634Y-122682000D01*
X113004415Y-122471670D01*
X113118453Y-122301000D01*
X114256434Y-122301000D01*
X114596640Y-122233329D01*
X114885052Y-122040618D01*
X117214618Y-119711052D01*
X117226460Y-119693329D01*
X117407329Y-119422640D01*
X117475000Y-119082434D01*
X117475000Y-113030000D01*
X117407329Y-112689794D01*
X117214618Y-112401382D01*
X116960618Y-112147382D01*
X116801771Y-112041244D01*
X116672206Y-111954671D01*
X116332000Y-111887000D01*
X115624646Y-111887000D01*
X115516767Y-111625914D01*
X115197765Y-111306355D01*
X114780756Y-111133197D01*
X114329225Y-111132803D01*
X113911914Y-111305233D01*
X113592355Y-111624235D01*
X113419197Y-112041244D01*
X113418803Y-112492775D01*
X113591233Y-112910086D01*
X113910235Y-113229645D01*
X114327244Y-113402803D01*
X114431658Y-113402894D01*
X114433382Y-113404618D01*
X114487014Y-113440454D01*
X114435197Y-113565244D01*
X114434803Y-114016775D01*
X114607233Y-114434086D01*
X114681000Y-114507982D01*
X114681000Y-114846164D01*
X112119086Y-117408078D01*
X111944745Y-117373400D01*
X111575255Y-117373400D01*
X111001766Y-117487474D01*
X110515585Y-117812330D01*
X110190729Y-118298511D01*
X110076655Y-118872000D01*
X110190729Y-119445489D01*
X110515585Y-119931670D01*
X110830366Y-120142000D01*
X110515585Y-120352330D01*
X110190729Y-120838511D01*
X110076655Y-121412000D01*
X110190729Y-121985489D01*
X110515585Y-122471670D01*
X110830366Y-122682000D01*
X110515585Y-122892330D01*
X110190729Y-123378511D01*
X110076655Y-123952000D01*
X110190729Y-124525489D01*
X110515585Y-125011670D01*
X110830366Y-125222000D01*
X110515585Y-125432330D01*
X110190729Y-125918511D01*
X110076655Y-126492000D01*
X110190729Y-127065489D01*
X110515585Y-127551670D01*
X110830366Y-127762000D01*
X110515585Y-127972330D01*
X110190729Y-128458511D01*
X110076655Y-129032000D01*
X110190729Y-129605489D01*
X110515585Y-130091670D01*
X110529913Y-130101243D01*
X110508683Y-130105238D01*
X110292559Y-130244310D01*
X110147569Y-130456510D01*
X110097000Y-130706227D01*
X110097000Y-129540000D01*
X109991573Y-129009983D01*
X109691343Y-128560657D01*
X108315000Y-127184314D01*
X108315000Y-125719047D01*
X108363345Y-125476000D01*
X108249271Y-124902511D01*
X107924415Y-124416330D01*
X107881330Y-124387541D01*
X107836120Y-124319880D01*
X107638914Y-124188111D01*
X108030732Y-123838036D01*
X108284709Y-123310791D01*
X108287358Y-123295026D01*
X108166217Y-123063000D01*
X106807000Y-123063000D01*
X106807000Y-123083000D01*
X106553000Y-123083000D01*
X106553000Y-123063000D01*
X104267000Y-123063000D01*
X104267000Y-123083000D01*
X104013000Y-123083000D01*
X104013000Y-123063000D01*
X103993000Y-123063000D01*
X103993000Y-122809000D01*
X104013000Y-122809000D01*
X104013000Y-120523000D01*
X104267000Y-120523000D01*
X104267000Y-122809000D01*
X106553000Y-122809000D01*
X106553000Y-120523000D01*
X106807000Y-120523000D01*
X106807000Y-122809000D01*
X108166217Y-122809000D01*
X108287358Y-122576974D01*
X108284709Y-122561209D01*
X108030732Y-122033964D01*
X107618892Y-121666000D01*
X108030732Y-121298036D01*
X108284709Y-120770791D01*
X108287358Y-120755026D01*
X108166217Y-120523000D01*
X106807000Y-120523000D01*
X106553000Y-120523000D01*
X104267000Y-120523000D01*
X104013000Y-120523000D01*
X103993000Y-120523000D01*
X103993000Y-120269000D01*
X104013000Y-120269000D01*
X104013000Y-120249000D01*
X104267000Y-120249000D01*
X104267000Y-120269000D01*
X106553000Y-120269000D01*
X106553000Y-120249000D01*
X106807000Y-120249000D01*
X106807000Y-120269000D01*
X108166217Y-120269000D01*
X108287358Y-120036974D01*
X108284709Y-120021209D01*
X108030732Y-119493964D01*
X107614931Y-119122461D01*
X107924415Y-118915670D01*
X108249271Y-118429489D01*
X108363345Y-117856000D01*
X108249271Y-117282511D01*
X107924415Y-116796330D01*
X107910087Y-116786757D01*
X107931317Y-116782762D01*
X108147441Y-116643690D01*
X108292431Y-116431490D01*
X108343440Y-116179600D01*
X108343440Y-114452400D01*
X108299162Y-114217083D01*
X108160090Y-114000959D01*
X107947890Y-113855969D01*
X107696000Y-113804960D01*
X105664000Y-113804960D01*
X105428683Y-113849238D01*
X105412901Y-113859393D01*
X105407890Y-113855969D01*
X105156000Y-113804960D01*
X103235000Y-113804960D01*
X103235000Y-108881240D01*
X104309240Y-107807000D01*
X104412541Y-107807000D01*
X104405812Y-107813717D01*
X104179258Y-108359319D01*
X104178743Y-108950089D01*
X104404344Y-109496086D01*
X104821717Y-109914188D01*
X105367319Y-110140742D01*
X105958089Y-110141257D01*
X106504086Y-109915656D01*
X106922188Y-109498283D01*
X107148742Y-108952681D01*
X107148744Y-108950089D01*
X115354743Y-108950089D01*
X115580344Y-109496086D01*
X115997717Y-109914188D01*
X116543319Y-110140742D01*
X117134089Y-110141257D01*
X117680086Y-109915656D01*
X118098188Y-109498283D01*
X118324742Y-108952681D01*
X118324941Y-108724377D01*
X121897000Y-108724377D01*
X121897000Y-109827623D01*
X122059517Y-110644652D01*
X122522327Y-111337296D01*
X123214971Y-111800106D01*
X124032000Y-111962623D01*
X124564673Y-111856668D01*
X124607169Y-111959515D01*
X124996436Y-112349461D01*
X125505298Y-112560759D01*
X126056285Y-112561240D01*
X126565515Y-112350831D01*
X126955461Y-111961564D01*
X127166759Y-111452702D01*
X127167240Y-110901715D01*
X126956831Y-110392485D01*
X126567564Y-110002539D01*
X126165422Y-109835555D01*
X126167000Y-109827623D01*
X126167000Y-108724377D01*
X126004483Y-107907348D01*
X125541673Y-107214704D01*
X124849029Y-106751894D01*
X124032000Y-106589377D01*
X123214971Y-106751894D01*
X122522327Y-107214704D01*
X122059517Y-107907348D01*
X121897000Y-108724377D01*
X118324941Y-108724377D01*
X118325257Y-108361911D01*
X118099656Y-107815914D01*
X117682283Y-107397812D01*
X117136681Y-107171258D01*
X116545911Y-107170743D01*
X115999914Y-107396344D01*
X115581812Y-107813717D01*
X115355258Y-108359319D01*
X115354743Y-108950089D01*
X107148744Y-108950089D01*
X107149257Y-108361911D01*
X106923656Y-107815914D01*
X106628082Y-107519824D01*
X107049278Y-107099363D01*
X107298716Y-106498648D01*
X107299284Y-105848205D01*
X107176186Y-105550285D01*
X124396760Y-105550285D01*
X124607169Y-106059515D01*
X124996436Y-106449461D01*
X125505298Y-106660759D01*
X126056285Y-106661240D01*
X126220668Y-106593318D01*
X126534132Y-107062450D01*
X127307882Y-107579453D01*
X128220582Y-107761000D01*
X129843418Y-107761000D01*
X130756118Y-107579453D01*
X131529868Y-107062450D01*
X131895540Y-106515183D01*
X132005298Y-106560759D01*
X132556285Y-106561240D01*
X133065515Y-106350831D01*
X133455461Y-105961564D01*
X133626238Y-105550285D01*
X138112760Y-105550285D01*
X138323169Y-106059515D01*
X138712436Y-106449461D01*
X139221298Y-106660759D01*
X139772285Y-106661240D01*
X139936668Y-106593318D01*
X140250132Y-107062450D01*
X141023882Y-107579453D01*
X141936582Y-107761000D01*
X143559418Y-107761000D01*
X144472118Y-107579453D01*
X145245868Y-107062450D01*
X145611540Y-106515183D01*
X145721298Y-106560759D01*
X146272285Y-106561240D01*
X146781515Y-106350831D01*
X147171461Y-105961564D01*
X147382759Y-105452702D01*
X147383240Y-104901715D01*
X147172831Y-104392485D01*
X146783564Y-104002539D01*
X146274702Y-103791241D01*
X145723715Y-103790760D01*
X145402247Y-103923588D01*
X145245868Y-103689550D01*
X144472118Y-103172547D01*
X143559418Y-102991000D01*
X141936582Y-102991000D01*
X141023882Y-103172547D01*
X140250132Y-103689550D01*
X140041377Y-104001974D01*
X139774702Y-103891241D01*
X139223715Y-103890760D01*
X138714485Y-104101169D01*
X138324539Y-104490436D01*
X138113241Y-104999298D01*
X138112760Y-105550285D01*
X133626238Y-105550285D01*
X133666759Y-105452702D01*
X133667240Y-104901715D01*
X133456831Y-104392485D01*
X133067564Y-104002539D01*
X132558702Y-103791241D01*
X132007715Y-103790760D01*
X131686247Y-103923588D01*
X131529868Y-103689550D01*
X130756118Y-103172547D01*
X129843418Y-102991000D01*
X128220582Y-102991000D01*
X127307882Y-103172547D01*
X126534132Y-103689550D01*
X126325377Y-104001974D01*
X126058702Y-103891241D01*
X125507715Y-103890760D01*
X124998485Y-104101169D01*
X124608539Y-104490436D01*
X124397241Y-104999298D01*
X124396760Y-105550285D01*
X107176186Y-105550285D01*
X107050894Y-105247057D01*
X106591363Y-104786722D01*
X105990648Y-104537284D01*
X105340205Y-104536716D01*
X105339518Y-104537000D01*
X103852307Y-104537000D01*
X103725894Y-104231057D01*
X103266363Y-103770722D01*
X102665648Y-103521284D01*
X102015205Y-103520716D01*
X101414057Y-103769106D01*
X100953722Y-104228637D01*
X100953437Y-104229324D01*
X100761000Y-104421760D01*
X100761000Y-102950089D01*
X104178743Y-102950089D01*
X104404344Y-103496086D01*
X104821717Y-103914188D01*
X105367319Y-104140742D01*
X105958089Y-104141257D01*
X106504086Y-103915656D01*
X106922188Y-103498283D01*
X107148742Y-102952681D01*
X107148744Y-102950089D01*
X115354743Y-102950089D01*
X115580344Y-103496086D01*
X115997717Y-103914188D01*
X116543319Y-104140742D01*
X117134089Y-104141257D01*
X117680086Y-103915656D01*
X118098188Y-103498283D01*
X118324742Y-102952681D01*
X118325257Y-102361911D01*
X118099656Y-101815914D01*
X117682283Y-101397812D01*
X117136681Y-101171258D01*
X116545911Y-101170743D01*
X115999914Y-101396344D01*
X115581812Y-101813717D01*
X115355258Y-102359319D01*
X115354743Y-102950089D01*
X107148744Y-102950089D01*
X107149257Y-102361911D01*
X106923656Y-101815914D01*
X106506283Y-101397812D01*
X105960681Y-101171258D01*
X105369911Y-101170743D01*
X104823914Y-101396344D01*
X104405812Y-101813717D01*
X104179258Y-102359319D01*
X104178743Y-102950089D01*
X100761000Y-102950089D01*
X100761000Y-100761000D01*
X124454667Y-100761000D01*
X124397241Y-100899298D01*
G36*
X104267000Y-130429000D02*
X106553000Y-130429000D01*
X106553000Y-130409000D01*
X106807000Y-130409000D01*
X106807000Y-130429000D01*
X106827000Y-130429000D01*
X106827000Y-130683000D01*
X106807000Y-130683000D01*
X106807000Y-132969000D01*
X106827000Y-132969000D01*
X106827000Y-133223000D01*
X106807000Y-133223000D01*
X106807000Y-133243000D01*
X106553000Y-133243000D01*
X106553000Y-133223000D01*
X104267000Y-133223000D01*
X104267000Y-133243000D01*
X104013000Y-133243000D01*
X104013000Y-133223000D01*
X103993000Y-133223000D01*
X103993000Y-132969000D01*
X104013000Y-132969000D01*
X104013000Y-130683000D01*
X104267000Y-130683000D01*
X104267000Y-132969000D01*
X106553000Y-132969000D01*
X106553000Y-130683000D01*
X104267000Y-130683000D01*
X104013000Y-130683000D01*
X103993000Y-130683000D01*
X103993000Y-130429000D01*
X104013000Y-130429000D01*
X104013000Y-130409000D01*
X104267000Y-130409000D01*
X104267000Y-130429000D01*
X104267000Y-130429000D01*
G37*
X104267000Y-130429000D02*
X106553000Y-130429000D01*
X106553000Y-130409000D01*
X106807000Y-130409000D01*
X106807000Y-130429000D01*
X106827000Y-130429000D01*
X106827000Y-130683000D01*
X106807000Y-130683000D01*
X106807000Y-132969000D01*
X106827000Y-132969000D01*
X106827000Y-133223000D01*
X106807000Y-133223000D01*
X106807000Y-133243000D01*
X106553000Y-133243000D01*
X106553000Y-133223000D01*
X104267000Y-133223000D01*
X104267000Y-133243000D01*
X104013000Y-133243000D01*
X104013000Y-133223000D01*
X103993000Y-133223000D01*
X103993000Y-132969000D01*
X104013000Y-132969000D01*
X104013000Y-130683000D01*
X104267000Y-130683000D01*
X104267000Y-132969000D01*
X106553000Y-132969000D01*
X106553000Y-130683000D01*
X104267000Y-130683000D01*
X104013000Y-130683000D01*
X103993000Y-130683000D01*
X103993000Y-130429000D01*
X104013000Y-130429000D01*
X104013000Y-130409000D01*
X104267000Y-130409000D01*
X104267000Y-130429000D01*
M02*
