G04 #@! TF.FileFunction,Legend,Top*
%FSLAX46Y46*%
G04 Gerber Fmt 4.6, Leading zero omitted, Abs format (unit mm)*
G04 Created by KiCad (PCBNEW 4.0.0-2.201512091501+6195~38~ubuntu14.04.1-stable) date Wed 16 Dec 2015 16:04:53 GMT*
%MOMM*%
G01*
G04 APERTURE LIST*
%ADD10C,0.100000*%
%ADD11C,0.150000*%
%ADD12C,0.120000*%
%ADD13C,0.110000*%
%ADD14C,0.200000*%
%ADD15C,0.300000*%
G04 APERTURE END LIST*
D10*
D11*
X116276762Y-148502667D02*
X116752953Y-148502667D01*
X116181524Y-148788381D02*
X116514857Y-147788381D01*
X116848191Y-148788381D01*
X117181524Y-148788381D02*
X117181524Y-148121714D01*
X117181524Y-148312190D02*
X117229143Y-148216952D01*
X117276762Y-148169333D01*
X117372000Y-148121714D01*
X117467239Y-148121714D01*
X118229144Y-148788381D02*
X118229144Y-147788381D01*
X118229144Y-148740762D02*
X118133906Y-148788381D01*
X117943429Y-148788381D01*
X117848191Y-148740762D01*
X117800572Y-148693143D01*
X117752953Y-148597905D01*
X117752953Y-148312190D01*
X117800572Y-148216952D01*
X117848191Y-148169333D01*
X117943429Y-148121714D01*
X118133906Y-148121714D01*
X118229144Y-148169333D01*
X119133906Y-148121714D02*
X119133906Y-148788381D01*
X118705334Y-148121714D02*
X118705334Y-148645524D01*
X118752953Y-148740762D01*
X118848191Y-148788381D01*
X118991049Y-148788381D01*
X119086287Y-148740762D01*
X119133906Y-148693143D01*
X119610096Y-148788381D02*
X119610096Y-148121714D01*
X119610096Y-147788381D02*
X119562477Y-147836000D01*
X119610096Y-147883619D01*
X119657715Y-147836000D01*
X119610096Y-147788381D01*
X119610096Y-147883619D01*
X120086286Y-148121714D02*
X120086286Y-148788381D01*
X120086286Y-148216952D02*
X120133905Y-148169333D01*
X120229143Y-148121714D01*
X120372001Y-148121714D01*
X120467239Y-148169333D01*
X120514858Y-148264571D01*
X120514858Y-148788381D01*
X121133905Y-148788381D02*
X121038667Y-148740762D01*
X120991048Y-148693143D01*
X120943429Y-148597905D01*
X120943429Y-148312190D01*
X120991048Y-148216952D01*
X121038667Y-148169333D01*
X121133905Y-148121714D01*
X121276763Y-148121714D01*
X121372001Y-148169333D01*
X121419620Y-148216952D01*
X121467239Y-148312190D01*
X121467239Y-148597905D01*
X121419620Y-148693143D01*
X121372001Y-148740762D01*
X121276763Y-148788381D01*
X121133905Y-148788381D01*
D12*
X109073905Y-148907524D02*
X108273905Y-148907524D01*
X108578667Y-148907524D02*
X108540571Y-148831333D01*
X108540571Y-148678952D01*
X108578667Y-148602762D01*
X108616762Y-148564667D01*
X108692952Y-148526571D01*
X108921524Y-148526571D01*
X108997714Y-148564667D01*
X109035810Y-148602762D01*
X109073905Y-148678952D01*
X109073905Y-148831333D01*
X109035810Y-148907524D01*
X109073905Y-148069428D02*
X109035810Y-148145619D01*
X108997714Y-148183714D01*
X108921524Y-148221809D01*
X108692952Y-148221809D01*
X108616762Y-148183714D01*
X108578667Y-148145619D01*
X108540571Y-148069428D01*
X108540571Y-147955142D01*
X108578667Y-147878952D01*
X108616762Y-147840857D01*
X108692952Y-147802761D01*
X108921524Y-147802761D01*
X108997714Y-147840857D01*
X109035810Y-147878952D01*
X109073905Y-147955142D01*
X109073905Y-148069428D01*
X108540571Y-147574190D02*
X108540571Y-147269428D01*
X108273905Y-147459904D02*
X108959619Y-147459904D01*
X109035810Y-147421809D01*
X109073905Y-147345618D01*
X109073905Y-147269428D01*
X108540571Y-147117047D02*
X108540571Y-146812285D01*
X108273905Y-147002761D02*
X108959619Y-147002761D01*
X109035810Y-146964666D01*
X109073905Y-146888475D01*
X109073905Y-146812285D01*
X109073905Y-146431332D02*
X109035810Y-146507523D01*
X108997714Y-146545618D01*
X108921524Y-146583713D01*
X108692952Y-146583713D01*
X108616762Y-146545618D01*
X108578667Y-146507523D01*
X108540571Y-146431332D01*
X108540571Y-146317046D01*
X108578667Y-146240856D01*
X108616762Y-146202761D01*
X108692952Y-146164665D01*
X108921524Y-146164665D01*
X108997714Y-146202761D01*
X109035810Y-146240856D01*
X109073905Y-146317046D01*
X109073905Y-146431332D01*
X109073905Y-145821808D02*
X108540571Y-145821808D01*
X108616762Y-145821808D02*
X108578667Y-145783713D01*
X108540571Y-145707522D01*
X108540571Y-145593236D01*
X108578667Y-145517046D01*
X108654857Y-145478951D01*
X109073905Y-145478951D01*
X108654857Y-145478951D02*
X108578667Y-145440855D01*
X108540571Y-145364665D01*
X108540571Y-145250379D01*
X108578667Y-145174189D01*
X108654857Y-145136094D01*
X109073905Y-145136094D01*
X109073905Y-144145617D02*
X108273905Y-144145617D01*
X108273905Y-143840855D01*
X108312000Y-143764664D01*
X108350095Y-143726569D01*
X108426286Y-143688474D01*
X108540571Y-143688474D01*
X108616762Y-143726569D01*
X108654857Y-143764664D01*
X108692952Y-143840855D01*
X108692952Y-144145617D01*
X108997714Y-142888474D02*
X109035810Y-142926569D01*
X109073905Y-143040855D01*
X109073905Y-143117045D01*
X109035810Y-143231331D01*
X108959619Y-143307522D01*
X108883429Y-143345617D01*
X108731048Y-143383712D01*
X108616762Y-143383712D01*
X108464381Y-143345617D01*
X108388190Y-143307522D01*
X108312000Y-143231331D01*
X108273905Y-143117045D01*
X108273905Y-143040855D01*
X108312000Y-142926569D01*
X108350095Y-142888474D01*
X108654857Y-142278950D02*
X108692952Y-142164664D01*
X108731048Y-142126569D01*
X108807238Y-142088474D01*
X108921524Y-142088474D01*
X108997714Y-142126569D01*
X109035810Y-142164664D01*
X109073905Y-142240855D01*
X109073905Y-142545617D01*
X108273905Y-142545617D01*
X108273905Y-142278950D01*
X108312000Y-142202760D01*
X108350095Y-142164664D01*
X108426286Y-142126569D01*
X108502476Y-142126569D01*
X108578667Y-142164664D01*
X108616762Y-142202760D01*
X108654857Y-142278950D01*
X108654857Y-142545617D01*
X108997714Y-141745617D02*
X109035810Y-141707522D01*
X109073905Y-141745617D01*
X109035810Y-141783712D01*
X108997714Y-141745617D01*
X109073905Y-141745617D01*
X108578667Y-141745617D02*
X108616762Y-141707522D01*
X108654857Y-141745617D01*
X108616762Y-141783712D01*
X108578667Y-141745617D01*
X108654857Y-141745617D01*
X109035810Y-140793236D02*
X109073905Y-140717046D01*
X109073905Y-140564665D01*
X109035810Y-140488474D01*
X108959619Y-140450379D01*
X108921524Y-140450379D01*
X108845333Y-140488474D01*
X108807238Y-140564665D01*
X108807238Y-140678950D01*
X108769143Y-140755141D01*
X108692952Y-140793236D01*
X108654857Y-140793236D01*
X108578667Y-140755141D01*
X108540571Y-140678950D01*
X108540571Y-140564665D01*
X108578667Y-140488474D01*
X109073905Y-139993236D02*
X109035810Y-140069427D01*
X108997714Y-140107522D01*
X108921524Y-140145617D01*
X108692952Y-140145617D01*
X108616762Y-140107522D01*
X108578667Y-140069427D01*
X108540571Y-139993236D01*
X108540571Y-139878950D01*
X108578667Y-139802760D01*
X108616762Y-139764665D01*
X108692952Y-139726569D01*
X108921524Y-139726569D01*
X108997714Y-139764665D01*
X109035810Y-139802760D01*
X109073905Y-139878950D01*
X109073905Y-139993236D01*
X109035810Y-139040855D02*
X109073905Y-139117045D01*
X109073905Y-139269426D01*
X109035810Y-139345617D01*
X108997714Y-139383712D01*
X108921524Y-139421807D01*
X108692952Y-139421807D01*
X108616762Y-139383712D01*
X108578667Y-139345617D01*
X108540571Y-139269426D01*
X108540571Y-139117045D01*
X108578667Y-139040855D01*
X109073905Y-138697998D02*
X108273905Y-138697998D01*
X108769143Y-138621807D02*
X109073905Y-138393236D01*
X108540571Y-138393236D02*
X108845333Y-138697998D01*
X109035810Y-137745617D02*
X109073905Y-137821807D01*
X109073905Y-137974188D01*
X109035810Y-138050379D01*
X108959619Y-138088474D01*
X108654857Y-138088474D01*
X108578667Y-138050379D01*
X108540571Y-137974188D01*
X108540571Y-137821807D01*
X108578667Y-137745617D01*
X108654857Y-137707522D01*
X108731048Y-137707522D01*
X108807238Y-138088474D01*
X108540571Y-137478951D02*
X108540571Y-137174189D01*
X108273905Y-137364665D02*
X108959619Y-137364665D01*
X109035810Y-137326570D01*
X109073905Y-137250379D01*
X109073905Y-137174189D01*
D13*
X148694000Y-139581999D02*
X148694000Y-139315333D01*
X148460667Y-139481999D02*
X149060667Y-139481999D01*
X149127333Y-139448666D01*
X149160667Y-139381999D01*
X149160667Y-139315333D01*
X149160667Y-138981999D02*
X149127333Y-139048666D01*
X149094000Y-139081999D01*
X149027333Y-139115333D01*
X148827333Y-139115333D01*
X148760667Y-139081999D01*
X148727333Y-139048666D01*
X148694000Y-138981999D01*
X148694000Y-138881999D01*
X148727333Y-138815333D01*
X148760667Y-138781999D01*
X148827333Y-138748666D01*
X149027333Y-138748666D01*
X149094000Y-138781999D01*
X149127333Y-138815333D01*
X149160667Y-138881999D01*
X149160667Y-138981999D01*
X148694000Y-138448666D02*
X149394000Y-138448666D01*
X148727333Y-138448666D02*
X148694000Y-138382000D01*
X148694000Y-138248666D01*
X148727333Y-138182000D01*
X148760667Y-138148666D01*
X148827333Y-138115333D01*
X149027333Y-138115333D01*
X149094000Y-138148666D01*
X149127333Y-138182000D01*
X149160667Y-138248666D01*
X149160667Y-138382000D01*
X149127333Y-138448666D01*
X149160667Y-137282000D02*
X148460667Y-137282000D01*
X148460667Y-137015334D01*
X148494000Y-136948667D01*
X148527333Y-136915334D01*
X148594000Y-136882000D01*
X148694000Y-136882000D01*
X148760667Y-136915334D01*
X148794000Y-136948667D01*
X148827333Y-137015334D01*
X148827333Y-137282000D01*
X149094000Y-136182000D02*
X149127333Y-136215334D01*
X149160667Y-136315334D01*
X149160667Y-136382000D01*
X149127333Y-136482000D01*
X149060667Y-136548667D01*
X148994000Y-136582000D01*
X148860667Y-136615334D01*
X148760667Y-136615334D01*
X148627333Y-136582000D01*
X148560667Y-136548667D01*
X148494000Y-136482000D01*
X148460667Y-136382000D01*
X148460667Y-136315334D01*
X148494000Y-136215334D01*
X148527333Y-136182000D01*
X148794000Y-135648667D02*
X148827333Y-135548667D01*
X148860667Y-135515334D01*
X148927333Y-135482000D01*
X149027333Y-135482000D01*
X149094000Y-135515334D01*
X149127333Y-135548667D01*
X149160667Y-135615334D01*
X149160667Y-135882000D01*
X148460667Y-135882000D01*
X148460667Y-135648667D01*
X148494000Y-135582000D01*
X148527333Y-135548667D01*
X148594000Y-135515334D01*
X148660667Y-135515334D01*
X148727333Y-135548667D01*
X148760667Y-135582000D01*
X148794000Y-135648667D01*
X148794000Y-135882000D01*
X149094000Y-135182000D02*
X149127333Y-135148667D01*
X149160667Y-135182000D01*
X149127333Y-135215334D01*
X149094000Y-135182000D01*
X149160667Y-135182000D01*
X148727333Y-135182000D02*
X148760667Y-135148667D01*
X148794000Y-135182000D01*
X148760667Y-135215334D01*
X148727333Y-135182000D01*
X148794000Y-135182000D01*
X149127333Y-134348668D02*
X149160667Y-134282001D01*
X149160667Y-134148668D01*
X149127333Y-134082001D01*
X149060667Y-134048668D01*
X149027333Y-134048668D01*
X148960667Y-134082001D01*
X148927333Y-134148668D01*
X148927333Y-134248668D01*
X148894000Y-134315334D01*
X148827333Y-134348668D01*
X148794000Y-134348668D01*
X148727333Y-134315334D01*
X148694000Y-134248668D01*
X148694000Y-134148668D01*
X148727333Y-134082001D01*
X149160667Y-133648667D02*
X149127333Y-133715334D01*
X149094000Y-133748667D01*
X149027333Y-133782001D01*
X148827333Y-133782001D01*
X148760667Y-133748667D01*
X148727333Y-133715334D01*
X148694000Y-133648667D01*
X148694000Y-133548667D01*
X148727333Y-133482001D01*
X148760667Y-133448667D01*
X148827333Y-133415334D01*
X149027333Y-133415334D01*
X149094000Y-133448667D01*
X149127333Y-133482001D01*
X149160667Y-133548667D01*
X149160667Y-133648667D01*
X149127333Y-132815334D02*
X149160667Y-132882001D01*
X149160667Y-133015334D01*
X149127333Y-133082001D01*
X149094000Y-133115334D01*
X149027333Y-133148668D01*
X148827333Y-133148668D01*
X148760667Y-133115334D01*
X148727333Y-133082001D01*
X148694000Y-133015334D01*
X148694000Y-132882001D01*
X148727333Y-132815334D01*
X149160667Y-132515334D02*
X148460667Y-132515334D01*
X148894000Y-132448668D02*
X149160667Y-132248668D01*
X148694000Y-132248668D02*
X148960667Y-132515334D01*
X149127333Y-131682001D02*
X149160667Y-131748667D01*
X149160667Y-131882001D01*
X149127333Y-131948667D01*
X149060667Y-131982001D01*
X148794000Y-131982001D01*
X148727333Y-131948667D01*
X148694000Y-131882001D01*
X148694000Y-131748667D01*
X148727333Y-131682001D01*
X148794000Y-131648667D01*
X148860667Y-131648667D01*
X148927333Y-131982001D01*
X148694000Y-131448667D02*
X148694000Y-131182001D01*
X148460667Y-131348667D02*
X149060667Y-131348667D01*
X149127333Y-131315334D01*
X149160667Y-131248667D01*
X149160667Y-131182001D01*
X142556667Y-140041333D02*
X141856667Y-140041333D01*
X142123333Y-140041333D02*
X142090000Y-139974667D01*
X142090000Y-139841333D01*
X142123333Y-139774667D01*
X142156667Y-139741333D01*
X142223333Y-139708000D01*
X142423333Y-139708000D01*
X142490000Y-139741333D01*
X142523333Y-139774667D01*
X142556667Y-139841333D01*
X142556667Y-139974667D01*
X142523333Y-140041333D01*
X142556667Y-139308000D02*
X142523333Y-139374667D01*
X142490000Y-139408000D01*
X142423333Y-139441334D01*
X142223333Y-139441334D01*
X142156667Y-139408000D01*
X142123333Y-139374667D01*
X142090000Y-139308000D01*
X142090000Y-139208000D01*
X142123333Y-139141334D01*
X142156667Y-139108000D01*
X142223333Y-139074667D01*
X142423333Y-139074667D01*
X142490000Y-139108000D01*
X142523333Y-139141334D01*
X142556667Y-139208000D01*
X142556667Y-139308000D01*
X142090000Y-138874667D02*
X142090000Y-138608001D01*
X141856667Y-138774667D02*
X142456667Y-138774667D01*
X142523333Y-138741334D01*
X142556667Y-138674667D01*
X142556667Y-138608001D01*
X142090000Y-138474667D02*
X142090000Y-138208001D01*
X141856667Y-138374667D02*
X142456667Y-138374667D01*
X142523333Y-138341334D01*
X142556667Y-138274667D01*
X142556667Y-138208001D01*
X142556667Y-137874667D02*
X142523333Y-137941334D01*
X142490000Y-137974667D01*
X142423333Y-138008001D01*
X142223333Y-138008001D01*
X142156667Y-137974667D01*
X142123333Y-137941334D01*
X142090000Y-137874667D01*
X142090000Y-137774667D01*
X142123333Y-137708001D01*
X142156667Y-137674667D01*
X142223333Y-137641334D01*
X142423333Y-137641334D01*
X142490000Y-137674667D01*
X142523333Y-137708001D01*
X142556667Y-137774667D01*
X142556667Y-137874667D01*
X142556667Y-137341334D02*
X142090000Y-137341334D01*
X142156667Y-137341334D02*
X142123333Y-137308001D01*
X142090000Y-137241334D01*
X142090000Y-137141334D01*
X142123333Y-137074668D01*
X142190000Y-137041334D01*
X142556667Y-137041334D01*
X142190000Y-137041334D02*
X142123333Y-137008001D01*
X142090000Y-136941334D01*
X142090000Y-136841334D01*
X142123333Y-136774668D01*
X142190000Y-136741334D01*
X142556667Y-136741334D01*
X142490000Y-136408001D02*
X142523333Y-136374668D01*
X142556667Y-136408001D01*
X142523333Y-136441335D01*
X142490000Y-136408001D01*
X142556667Y-136408001D01*
X142123333Y-136408001D02*
X142156667Y-136374668D01*
X142190000Y-136408001D01*
X142156667Y-136441335D01*
X142123333Y-136408001D01*
X142190000Y-136408001D01*
X142523333Y-135574669D02*
X142556667Y-135508002D01*
X142556667Y-135374669D01*
X142523333Y-135308002D01*
X142456667Y-135274669D01*
X142423333Y-135274669D01*
X142356667Y-135308002D01*
X142323333Y-135374669D01*
X142323333Y-135474669D01*
X142290000Y-135541335D01*
X142223333Y-135574669D01*
X142190000Y-135574669D01*
X142123333Y-135541335D01*
X142090000Y-135474669D01*
X142090000Y-135374669D01*
X142123333Y-135308002D01*
X142556667Y-134874668D02*
X142523333Y-134941335D01*
X142490000Y-134974668D01*
X142423333Y-135008002D01*
X142223333Y-135008002D01*
X142156667Y-134974668D01*
X142123333Y-134941335D01*
X142090000Y-134874668D01*
X142090000Y-134774668D01*
X142123333Y-134708002D01*
X142156667Y-134674668D01*
X142223333Y-134641335D01*
X142423333Y-134641335D01*
X142490000Y-134674668D01*
X142523333Y-134708002D01*
X142556667Y-134774668D01*
X142556667Y-134874668D01*
X142523333Y-134041335D02*
X142556667Y-134108002D01*
X142556667Y-134241335D01*
X142523333Y-134308002D01*
X142490000Y-134341335D01*
X142423333Y-134374669D01*
X142223333Y-134374669D01*
X142156667Y-134341335D01*
X142123333Y-134308002D01*
X142090000Y-134241335D01*
X142090000Y-134108002D01*
X142123333Y-134041335D01*
X142556667Y-133741335D02*
X141856667Y-133741335D01*
X142290000Y-133674669D02*
X142556667Y-133474669D01*
X142090000Y-133474669D02*
X142356667Y-133741335D01*
X142523333Y-132908002D02*
X142556667Y-132974668D01*
X142556667Y-133108002D01*
X142523333Y-133174668D01*
X142456667Y-133208002D01*
X142190000Y-133208002D01*
X142123333Y-133174668D01*
X142090000Y-133108002D01*
X142090000Y-132974668D01*
X142123333Y-132908002D01*
X142190000Y-132874668D01*
X142256667Y-132874668D01*
X142323333Y-133208002D01*
X142090000Y-132674668D02*
X142090000Y-132408002D01*
X141856667Y-132574668D02*
X142456667Y-132574668D01*
X142523333Y-132541335D01*
X142556667Y-132474668D01*
X142556667Y-132408002D01*
D12*
X101682571Y-149021810D02*
X101682571Y-148717048D01*
X101415905Y-148907524D02*
X102101619Y-148907524D01*
X102177810Y-148869429D01*
X102215905Y-148793238D01*
X102215905Y-148717048D01*
X102215905Y-148336095D02*
X102177810Y-148412286D01*
X102139714Y-148450381D01*
X102063524Y-148488476D01*
X101834952Y-148488476D01*
X101758762Y-148450381D01*
X101720667Y-148412286D01*
X101682571Y-148336095D01*
X101682571Y-148221809D01*
X101720667Y-148145619D01*
X101758762Y-148107524D01*
X101834952Y-148069428D01*
X102063524Y-148069428D01*
X102139714Y-148107524D01*
X102177810Y-148145619D01*
X102215905Y-148221809D01*
X102215905Y-148336095D01*
X101682571Y-147726571D02*
X102482571Y-147726571D01*
X101720667Y-147726571D02*
X101682571Y-147650380D01*
X101682571Y-147497999D01*
X101720667Y-147421809D01*
X101758762Y-147383714D01*
X101834952Y-147345618D01*
X102063524Y-147345618D01*
X102139714Y-147383714D01*
X102177810Y-147421809D01*
X102215905Y-147497999D01*
X102215905Y-147650380D01*
X102177810Y-147726571D01*
X102215905Y-146393237D02*
X101415905Y-146393237D01*
X101415905Y-146088475D01*
X101454000Y-146012284D01*
X101492095Y-145974189D01*
X101568286Y-145936094D01*
X101682571Y-145936094D01*
X101758762Y-145974189D01*
X101796857Y-146012284D01*
X101834952Y-146088475D01*
X101834952Y-146393237D01*
X102139714Y-145136094D02*
X102177810Y-145174189D01*
X102215905Y-145288475D01*
X102215905Y-145364665D01*
X102177810Y-145478951D01*
X102101619Y-145555142D01*
X102025429Y-145593237D01*
X101873048Y-145631332D01*
X101758762Y-145631332D01*
X101606381Y-145593237D01*
X101530190Y-145555142D01*
X101454000Y-145478951D01*
X101415905Y-145364665D01*
X101415905Y-145288475D01*
X101454000Y-145174189D01*
X101492095Y-145136094D01*
X101796857Y-144526570D02*
X101834952Y-144412284D01*
X101873048Y-144374189D01*
X101949238Y-144336094D01*
X102063524Y-144336094D01*
X102139714Y-144374189D01*
X102177810Y-144412284D01*
X102215905Y-144488475D01*
X102215905Y-144793237D01*
X101415905Y-144793237D01*
X101415905Y-144526570D01*
X101454000Y-144450380D01*
X101492095Y-144412284D01*
X101568286Y-144374189D01*
X101644476Y-144374189D01*
X101720667Y-144412284D01*
X101758762Y-144450380D01*
X101796857Y-144526570D01*
X101796857Y-144793237D01*
X102139714Y-143993237D02*
X102177810Y-143955142D01*
X102215905Y-143993237D01*
X102177810Y-144031332D01*
X102139714Y-143993237D01*
X102215905Y-143993237D01*
X101720667Y-143993237D02*
X101758762Y-143955142D01*
X101796857Y-143993237D01*
X101758762Y-144031332D01*
X101720667Y-143993237D01*
X101796857Y-143993237D01*
X102177810Y-143040856D02*
X102215905Y-142964666D01*
X102215905Y-142812285D01*
X102177810Y-142736094D01*
X102101619Y-142697999D01*
X102063524Y-142697999D01*
X101987333Y-142736094D01*
X101949238Y-142812285D01*
X101949238Y-142926570D01*
X101911143Y-143002761D01*
X101834952Y-143040856D01*
X101796857Y-143040856D01*
X101720667Y-143002761D01*
X101682571Y-142926570D01*
X101682571Y-142812285D01*
X101720667Y-142736094D01*
X102215905Y-142240856D02*
X102177810Y-142317047D01*
X102139714Y-142355142D01*
X102063524Y-142393237D01*
X101834952Y-142393237D01*
X101758762Y-142355142D01*
X101720667Y-142317047D01*
X101682571Y-142240856D01*
X101682571Y-142126570D01*
X101720667Y-142050380D01*
X101758762Y-142012285D01*
X101834952Y-141974189D01*
X102063524Y-141974189D01*
X102139714Y-142012285D01*
X102177810Y-142050380D01*
X102215905Y-142126570D01*
X102215905Y-142240856D01*
X102177810Y-141288475D02*
X102215905Y-141364665D01*
X102215905Y-141517046D01*
X102177810Y-141593237D01*
X102139714Y-141631332D01*
X102063524Y-141669427D01*
X101834952Y-141669427D01*
X101758762Y-141631332D01*
X101720667Y-141593237D01*
X101682571Y-141517046D01*
X101682571Y-141364665D01*
X101720667Y-141288475D01*
X102215905Y-140945618D02*
X101415905Y-140945618D01*
X101911143Y-140869427D02*
X102215905Y-140640856D01*
X101682571Y-140640856D02*
X101987333Y-140945618D01*
X102177810Y-139993237D02*
X102215905Y-140069427D01*
X102215905Y-140221808D01*
X102177810Y-140297999D01*
X102101619Y-140336094D01*
X101796857Y-140336094D01*
X101720667Y-140297999D01*
X101682571Y-140221808D01*
X101682571Y-140069427D01*
X101720667Y-139993237D01*
X101796857Y-139955142D01*
X101873048Y-139955142D01*
X101949238Y-140336094D01*
X101682571Y-139726571D02*
X101682571Y-139421809D01*
X101415905Y-139612285D02*
X102101619Y-139612285D01*
X102177810Y-139574190D01*
X102215905Y-139497999D01*
X102215905Y-139421809D01*
X114407905Y-132651524D02*
X113607905Y-132651524D01*
X113912667Y-132651524D02*
X113874571Y-132575333D01*
X113874571Y-132422952D01*
X113912667Y-132346762D01*
X113950762Y-132308667D01*
X114026952Y-132270571D01*
X114255524Y-132270571D01*
X114331714Y-132308667D01*
X114369810Y-132346762D01*
X114407905Y-132422952D01*
X114407905Y-132575333D01*
X114369810Y-132651524D01*
X114407905Y-131813428D02*
X114369810Y-131889619D01*
X114331714Y-131927714D01*
X114255524Y-131965809D01*
X114026952Y-131965809D01*
X113950762Y-131927714D01*
X113912667Y-131889619D01*
X113874571Y-131813428D01*
X113874571Y-131699142D01*
X113912667Y-131622952D01*
X113950762Y-131584857D01*
X114026952Y-131546761D01*
X114255524Y-131546761D01*
X114331714Y-131584857D01*
X114369810Y-131622952D01*
X114407905Y-131699142D01*
X114407905Y-131813428D01*
X113874571Y-131318190D02*
X113874571Y-131013428D01*
X113607905Y-131203904D02*
X114293619Y-131203904D01*
X114369810Y-131165809D01*
X114407905Y-131089618D01*
X114407905Y-131013428D01*
X113874571Y-130861047D02*
X113874571Y-130556285D01*
X113607905Y-130746761D02*
X114293619Y-130746761D01*
X114369810Y-130708666D01*
X114407905Y-130632475D01*
X114407905Y-130556285D01*
X114407905Y-130175332D02*
X114369810Y-130251523D01*
X114331714Y-130289618D01*
X114255524Y-130327713D01*
X114026952Y-130327713D01*
X113950762Y-130289618D01*
X113912667Y-130251523D01*
X113874571Y-130175332D01*
X113874571Y-130061046D01*
X113912667Y-129984856D01*
X113950762Y-129946761D01*
X114026952Y-129908665D01*
X114255524Y-129908665D01*
X114331714Y-129946761D01*
X114369810Y-129984856D01*
X114407905Y-130061046D01*
X114407905Y-130175332D01*
X114407905Y-129565808D02*
X113874571Y-129565808D01*
X113950762Y-129565808D02*
X113912667Y-129527713D01*
X113874571Y-129451522D01*
X113874571Y-129337236D01*
X113912667Y-129261046D01*
X113988857Y-129222951D01*
X114407905Y-129222951D01*
X113988857Y-129222951D02*
X113912667Y-129184855D01*
X113874571Y-129108665D01*
X113874571Y-128994379D01*
X113912667Y-128918189D01*
X113988857Y-128880094D01*
X114407905Y-128880094D01*
X114407905Y-127889617D02*
X113607905Y-127889617D01*
X113607905Y-127584855D01*
X113646000Y-127508664D01*
X113684095Y-127470569D01*
X113760286Y-127432474D01*
X113874571Y-127432474D01*
X113950762Y-127470569D01*
X113988857Y-127508664D01*
X114026952Y-127584855D01*
X114026952Y-127889617D01*
X114331714Y-126632474D02*
X114369810Y-126670569D01*
X114407905Y-126784855D01*
X114407905Y-126861045D01*
X114369810Y-126975331D01*
X114293619Y-127051522D01*
X114217429Y-127089617D01*
X114065048Y-127127712D01*
X113950762Y-127127712D01*
X113798381Y-127089617D01*
X113722190Y-127051522D01*
X113646000Y-126975331D01*
X113607905Y-126861045D01*
X113607905Y-126784855D01*
X113646000Y-126670569D01*
X113684095Y-126632474D01*
X113988857Y-126022950D02*
X114026952Y-125908664D01*
X114065048Y-125870569D01*
X114141238Y-125832474D01*
X114255524Y-125832474D01*
X114331714Y-125870569D01*
X114369810Y-125908664D01*
X114407905Y-125984855D01*
X114407905Y-126289617D01*
X113607905Y-126289617D01*
X113607905Y-126022950D01*
X113646000Y-125946760D01*
X113684095Y-125908664D01*
X113760286Y-125870569D01*
X113836476Y-125870569D01*
X113912667Y-125908664D01*
X113950762Y-125946760D01*
X113988857Y-126022950D01*
X113988857Y-126289617D01*
X114331714Y-125489617D02*
X114369810Y-125451522D01*
X114407905Y-125489617D01*
X114369810Y-125527712D01*
X114331714Y-125489617D01*
X114407905Y-125489617D01*
X113912667Y-125489617D02*
X113950762Y-125451522D01*
X113988857Y-125489617D01*
X113950762Y-125527712D01*
X113912667Y-125489617D01*
X113988857Y-125489617D01*
X114369810Y-124537236D02*
X114407905Y-124461046D01*
X114407905Y-124308665D01*
X114369810Y-124232474D01*
X114293619Y-124194379D01*
X114255524Y-124194379D01*
X114179333Y-124232474D01*
X114141238Y-124308665D01*
X114141238Y-124422950D01*
X114103143Y-124499141D01*
X114026952Y-124537236D01*
X113988857Y-124537236D01*
X113912667Y-124499141D01*
X113874571Y-124422950D01*
X113874571Y-124308665D01*
X113912667Y-124232474D01*
X114407905Y-123737236D02*
X114369810Y-123813427D01*
X114331714Y-123851522D01*
X114255524Y-123889617D01*
X114026952Y-123889617D01*
X113950762Y-123851522D01*
X113912667Y-123813427D01*
X113874571Y-123737236D01*
X113874571Y-123622950D01*
X113912667Y-123546760D01*
X113950762Y-123508665D01*
X114026952Y-123470569D01*
X114255524Y-123470569D01*
X114331714Y-123508665D01*
X114369810Y-123546760D01*
X114407905Y-123622950D01*
X114407905Y-123737236D01*
X114369810Y-122784855D02*
X114407905Y-122861045D01*
X114407905Y-123013426D01*
X114369810Y-123089617D01*
X114331714Y-123127712D01*
X114255524Y-123165807D01*
X114026952Y-123165807D01*
X113950762Y-123127712D01*
X113912667Y-123089617D01*
X113874571Y-123013426D01*
X113874571Y-122861045D01*
X113912667Y-122784855D01*
X114407905Y-122441998D02*
X113607905Y-122441998D01*
X114103143Y-122365807D02*
X114407905Y-122137236D01*
X113874571Y-122137236D02*
X114179333Y-122441998D01*
X114369810Y-121489617D02*
X114407905Y-121565807D01*
X114407905Y-121718188D01*
X114369810Y-121794379D01*
X114293619Y-121832474D01*
X113988857Y-121832474D01*
X113912667Y-121794379D01*
X113874571Y-121718188D01*
X113874571Y-121565807D01*
X113912667Y-121489617D01*
X113988857Y-121451522D01*
X114065048Y-121451522D01*
X114141238Y-121832474D01*
X113874571Y-121222951D02*
X113874571Y-120918189D01*
X113607905Y-121108665D02*
X114293619Y-121108665D01*
X114369810Y-121070570D01*
X114407905Y-120994379D01*
X114407905Y-120918189D01*
D11*
X123317618Y-135313381D02*
X123317618Y-134313381D01*
X123317618Y-134694333D02*
X123412856Y-134646714D01*
X123603333Y-134646714D01*
X123698571Y-134694333D01*
X123746190Y-134741952D01*
X123793809Y-134837190D01*
X123793809Y-135122905D01*
X123746190Y-135218143D01*
X123698571Y-135265762D01*
X123603333Y-135313381D01*
X123412856Y-135313381D01*
X123317618Y-135265762D01*
X124365237Y-135313381D02*
X124269999Y-135265762D01*
X124222380Y-135218143D01*
X124174761Y-135122905D01*
X124174761Y-134837190D01*
X124222380Y-134741952D01*
X124269999Y-134694333D01*
X124365237Y-134646714D01*
X124508095Y-134646714D01*
X124603333Y-134694333D01*
X124650952Y-134741952D01*
X124698571Y-134837190D01*
X124698571Y-135122905D01*
X124650952Y-135218143D01*
X124603333Y-135265762D01*
X124508095Y-135313381D01*
X124365237Y-135313381D01*
X124984285Y-134646714D02*
X125365237Y-134646714D01*
X125127142Y-134313381D02*
X125127142Y-135170524D01*
X125174761Y-135265762D01*
X125269999Y-135313381D01*
X125365237Y-135313381D01*
X125555714Y-134646714D02*
X125936666Y-134646714D01*
X125698571Y-134313381D02*
X125698571Y-135170524D01*
X125746190Y-135265762D01*
X125841428Y-135313381D01*
X125936666Y-135313381D01*
X126412857Y-135313381D02*
X126317619Y-135265762D01*
X126270000Y-135218143D01*
X126222381Y-135122905D01*
X126222381Y-134837190D01*
X126270000Y-134741952D01*
X126317619Y-134694333D01*
X126412857Y-134646714D01*
X126555715Y-134646714D01*
X126650953Y-134694333D01*
X126698572Y-134741952D01*
X126746191Y-134837190D01*
X126746191Y-135122905D01*
X126698572Y-135218143D01*
X126650953Y-135265762D01*
X126555715Y-135313381D01*
X126412857Y-135313381D01*
X127174762Y-135313381D02*
X127174762Y-134646714D01*
X127174762Y-134741952D02*
X127222381Y-134694333D01*
X127317619Y-134646714D01*
X127460477Y-134646714D01*
X127555715Y-134694333D01*
X127603334Y-134789571D01*
X127603334Y-135313381D01*
X127603334Y-134789571D02*
X127650953Y-134694333D01*
X127746191Y-134646714D01*
X127889048Y-134646714D01*
X127984286Y-134694333D01*
X128031905Y-134789571D01*
X128031905Y-135313381D01*
X125555713Y-136863381D02*
X125460475Y-136815762D01*
X125412856Y-136768143D01*
X125365237Y-136672905D01*
X125365237Y-136387190D01*
X125412856Y-136291952D01*
X125460475Y-136244333D01*
X125555713Y-136196714D01*
X125698571Y-136196714D01*
X125793809Y-136244333D01*
X125841428Y-136291952D01*
X125889047Y-136387190D01*
X125889047Y-136672905D01*
X125841428Y-136768143D01*
X125793809Y-136815762D01*
X125698571Y-136863381D01*
X125555713Y-136863381D01*
X126317618Y-136196714D02*
X126317618Y-136863381D01*
X126317618Y-136291952D02*
X126365237Y-136244333D01*
X126460475Y-136196714D01*
X126603333Y-136196714D01*
X126698571Y-136244333D01*
X126746190Y-136339571D01*
X126746190Y-136863381D01*
X127365237Y-136863381D02*
X127269999Y-136815762D01*
X127222380Y-136720524D01*
X127222380Y-135863381D01*
X127650952Y-136196714D02*
X127889047Y-136863381D01*
X128127143Y-136196714D02*
X127889047Y-136863381D01*
X127793809Y-137101476D01*
X127746190Y-137149095D01*
X127650952Y-137196714D01*
X130992857Y-133281381D02*
X130992857Y-132281381D01*
X130992857Y-132662333D02*
X131088095Y-132614714D01*
X131278572Y-132614714D01*
X131373810Y-132662333D01*
X131421429Y-132709952D01*
X131469048Y-132805190D01*
X131469048Y-133090905D01*
X131421429Y-133186143D01*
X131373810Y-133233762D01*
X131278572Y-133281381D01*
X131088095Y-133281381D01*
X130992857Y-133233762D01*
X132040476Y-133281381D02*
X131945238Y-133233762D01*
X131897619Y-133186143D01*
X131850000Y-133090905D01*
X131850000Y-132805190D01*
X131897619Y-132709952D01*
X131945238Y-132662333D01*
X132040476Y-132614714D01*
X132183334Y-132614714D01*
X132278572Y-132662333D01*
X132326191Y-132709952D01*
X132373810Y-132805190D01*
X132373810Y-133090905D01*
X132326191Y-133186143D01*
X132278572Y-133233762D01*
X132183334Y-133281381D01*
X132040476Y-133281381D01*
X132659524Y-132614714D02*
X133040476Y-132614714D01*
X132802381Y-132281381D02*
X132802381Y-133138524D01*
X132850000Y-133233762D01*
X132945238Y-133281381D01*
X133040476Y-133281381D01*
X133230953Y-132614714D02*
X133611905Y-132614714D01*
X133373810Y-132281381D02*
X133373810Y-133138524D01*
X133421429Y-133233762D01*
X133516667Y-133281381D01*
X133611905Y-133281381D01*
X134088096Y-133281381D02*
X133992858Y-133233762D01*
X133945239Y-133186143D01*
X133897620Y-133090905D01*
X133897620Y-132805190D01*
X133945239Y-132709952D01*
X133992858Y-132662333D01*
X134088096Y-132614714D01*
X134230954Y-132614714D01*
X134326192Y-132662333D01*
X134373811Y-132709952D01*
X134421430Y-132805190D01*
X134421430Y-133090905D01*
X134373811Y-133186143D01*
X134326192Y-133233762D01*
X134230954Y-133281381D01*
X134088096Y-133281381D01*
X134850001Y-133281381D02*
X134850001Y-132614714D01*
X134850001Y-132709952D02*
X134897620Y-132662333D01*
X134992858Y-132614714D01*
X135135716Y-132614714D01*
X135230954Y-132662333D01*
X135278573Y-132757571D01*
X135278573Y-133281381D01*
X135278573Y-132757571D02*
X135326192Y-132662333D01*
X135421430Y-132614714D01*
X135564287Y-132614714D01*
X135659525Y-132662333D01*
X135707144Y-132757571D01*
X135707144Y-133281381D01*
X132183333Y-134831381D02*
X132088095Y-134783762D01*
X132040476Y-134736143D01*
X131992857Y-134640905D01*
X131992857Y-134355190D01*
X132040476Y-134259952D01*
X132088095Y-134212333D01*
X132183333Y-134164714D01*
X132326191Y-134164714D01*
X132421429Y-134212333D01*
X132469048Y-134259952D01*
X132516667Y-134355190D01*
X132516667Y-134640905D01*
X132469048Y-134736143D01*
X132421429Y-134783762D01*
X132326191Y-134831381D01*
X132183333Y-134831381D01*
X132945238Y-134164714D02*
X132945238Y-134831381D01*
X132945238Y-134259952D02*
X132992857Y-134212333D01*
X133088095Y-134164714D01*
X133230953Y-134164714D01*
X133326191Y-134212333D01*
X133373810Y-134307571D01*
X133373810Y-134831381D01*
X133992857Y-134831381D02*
X133897619Y-134783762D01*
X133850000Y-134688524D01*
X133850000Y-133831381D01*
X134278572Y-134164714D02*
X134516667Y-134831381D01*
X134754763Y-134164714D02*
X134516667Y-134831381D01*
X134421429Y-135069476D01*
X134373810Y-135117095D01*
X134278572Y-135164714D01*
D12*
X141236762Y-149459905D02*
X140779619Y-149459905D01*
X141008190Y-149459905D02*
X141008190Y-148659905D01*
X140932000Y-148774190D01*
X140855809Y-148850381D01*
X140779619Y-148888476D01*
X141541524Y-148736095D02*
X141579619Y-148698000D01*
X141655810Y-148659905D01*
X141846286Y-148659905D01*
X141922476Y-148698000D01*
X141960572Y-148736095D01*
X141998667Y-148812286D01*
X141998667Y-148888476D01*
X141960572Y-149002762D01*
X141503429Y-149459905D01*
X141998667Y-149459905D01*
X142227238Y-148659905D02*
X142493905Y-149459905D01*
X142760572Y-148659905D01*
X144119620Y-148659905D02*
X143738667Y-148659905D01*
X143700572Y-149040857D01*
X143738667Y-149002762D01*
X143814858Y-148964667D01*
X144005334Y-148964667D01*
X144081524Y-149002762D01*
X144119620Y-149040857D01*
X144157715Y-149117048D01*
X144157715Y-149307524D01*
X144119620Y-149383714D01*
X144081524Y-149421810D01*
X144005334Y-149459905D01*
X143814858Y-149459905D01*
X143738667Y-149421810D01*
X143700572Y-149383714D01*
X144386286Y-148659905D02*
X144652953Y-149459905D01*
X144919620Y-148659905D01*
X145669143Y-148736095D02*
X145707238Y-148698000D01*
X145783429Y-148659905D01*
X145973905Y-148659905D01*
X146050095Y-148698000D01*
X146088191Y-148736095D01*
X146126286Y-148812286D01*
X146126286Y-148888476D01*
X146088191Y-149002762D01*
X145631048Y-149459905D01*
X146126286Y-149459905D01*
X146469143Y-149383714D02*
X146507238Y-149421810D01*
X146469143Y-149459905D01*
X146431048Y-149421810D01*
X146469143Y-149383714D01*
X146469143Y-149459905D01*
X146964381Y-149002762D02*
X146888190Y-148964667D01*
X146850095Y-148926571D01*
X146812000Y-148850381D01*
X146812000Y-148812286D01*
X146850095Y-148736095D01*
X146888190Y-148698000D01*
X146964381Y-148659905D01*
X147116762Y-148659905D01*
X147192952Y-148698000D01*
X147231048Y-148736095D01*
X147269143Y-148812286D01*
X147269143Y-148850381D01*
X147231048Y-148926571D01*
X147192952Y-148964667D01*
X147116762Y-149002762D01*
X146964381Y-149002762D01*
X146888190Y-149040857D01*
X146850095Y-149078952D01*
X146812000Y-149155143D01*
X146812000Y-149307524D01*
X146850095Y-149383714D01*
X146888190Y-149421810D01*
X146964381Y-149459905D01*
X147116762Y-149459905D01*
X147192952Y-149421810D01*
X147231048Y-149383714D01*
X147269143Y-149307524D01*
X147269143Y-149155143D01*
X147231048Y-149078952D01*
X147192952Y-149040857D01*
X147116762Y-149002762D01*
X147497714Y-148659905D02*
X147764381Y-149459905D01*
X148031048Y-148659905D01*
X136525143Y-148736095D02*
X136563238Y-148698000D01*
X136639429Y-148659905D01*
X136829905Y-148659905D01*
X136906095Y-148698000D01*
X136944191Y-148736095D01*
X136982286Y-148812286D01*
X136982286Y-148888476D01*
X136944191Y-149002762D01*
X136487048Y-149459905D01*
X136982286Y-149459905D01*
X137325143Y-149383714D02*
X137363238Y-149421810D01*
X137325143Y-149459905D01*
X137287048Y-149421810D01*
X137325143Y-149383714D01*
X137325143Y-149459905D01*
X137820381Y-149002762D02*
X137744190Y-148964667D01*
X137706095Y-148926571D01*
X137668000Y-148850381D01*
X137668000Y-148812286D01*
X137706095Y-148736095D01*
X137744190Y-148698000D01*
X137820381Y-148659905D01*
X137972762Y-148659905D01*
X138048952Y-148698000D01*
X138087048Y-148736095D01*
X138125143Y-148812286D01*
X138125143Y-148850381D01*
X138087048Y-148926571D01*
X138048952Y-148964667D01*
X137972762Y-149002762D01*
X137820381Y-149002762D01*
X137744190Y-149040857D01*
X137706095Y-149078952D01*
X137668000Y-149155143D01*
X137668000Y-149307524D01*
X137706095Y-149383714D01*
X137744190Y-149421810D01*
X137820381Y-149459905D01*
X137972762Y-149459905D01*
X138048952Y-149421810D01*
X138087048Y-149383714D01*
X138125143Y-149307524D01*
X138125143Y-149155143D01*
X138087048Y-149078952D01*
X138048952Y-149040857D01*
X137972762Y-149002762D01*
X138353714Y-148659905D02*
X138620381Y-149459905D01*
X138887048Y-148659905D01*
X134975620Y-148659905D02*
X134594667Y-148659905D01*
X134556572Y-149040857D01*
X134594667Y-149002762D01*
X134670858Y-148964667D01*
X134861334Y-148964667D01*
X134937524Y-149002762D01*
X134975620Y-149040857D01*
X135013715Y-149117048D01*
X135013715Y-149307524D01*
X134975620Y-149383714D01*
X134937524Y-149421810D01*
X134861334Y-149459905D01*
X134670858Y-149459905D01*
X134594667Y-149421810D01*
X134556572Y-149383714D01*
X135242286Y-148659905D02*
X135508953Y-149459905D01*
X135775620Y-148659905D01*
X132092762Y-149459905D02*
X131635619Y-149459905D01*
X131864190Y-149459905D02*
X131864190Y-148659905D01*
X131788000Y-148774190D01*
X131711809Y-148850381D01*
X131635619Y-148888476D01*
X132397524Y-148736095D02*
X132435619Y-148698000D01*
X132511810Y-148659905D01*
X132702286Y-148659905D01*
X132778476Y-148698000D01*
X132816572Y-148736095D01*
X132854667Y-148812286D01*
X132854667Y-148888476D01*
X132816572Y-149002762D01*
X132359429Y-149459905D01*
X132854667Y-149459905D01*
X133083238Y-148659905D02*
X133349905Y-149459905D01*
X133616572Y-148659905D01*
D14*
X141478000Y-128016000D02*
X144018000Y-128016000D01*
X141478000Y-124714000D02*
X144018000Y-124714000D01*
X124714000Y-128016000D02*
X127254000Y-128016000D01*
X127254000Y-124714000D02*
X124714000Y-124714000D01*
X138430000Y-123698000D02*
X132334000Y-123698000D01*
X138430000Y-114046000D02*
X140970000Y-114046000D01*
X120142000Y-114046000D02*
X122682000Y-114046000D01*
X115316000Y-123698000D02*
X121412000Y-123698000D01*
D11*
X138771429Y-113212571D02*
X138438095Y-113212571D01*
X138438095Y-113736381D02*
X138438095Y-112736381D01*
X138914286Y-112736381D01*
X139247619Y-113450667D02*
X139723810Y-113450667D01*
X139152381Y-113736381D02*
X139485714Y-112736381D01*
X139819048Y-113736381D01*
X140152381Y-113736381D02*
X140152381Y-112736381D01*
X141104762Y-113736381D02*
X140628571Y-113736381D01*
X140628571Y-112736381D01*
X132262952Y-122864571D02*
X132596286Y-122864571D01*
X132739143Y-123388381D02*
X132262952Y-123388381D01*
X132262952Y-122388381D01*
X132739143Y-122388381D01*
X133167714Y-123388381D02*
X133167714Y-122388381D01*
X133739143Y-123388381D01*
X133739143Y-122388381D01*
X134739143Y-122436000D02*
X134643905Y-122388381D01*
X134501048Y-122388381D01*
X134358190Y-122436000D01*
X134262952Y-122531238D01*
X134215333Y-122626476D01*
X134167714Y-122816952D01*
X134167714Y-122959810D01*
X134215333Y-123150286D01*
X134262952Y-123245524D01*
X134358190Y-123340762D01*
X134501048Y-123388381D01*
X134596286Y-123388381D01*
X134739143Y-123340762D01*
X134786762Y-123293143D01*
X134786762Y-122959810D01*
X134596286Y-122959810D01*
X135167714Y-123102667D02*
X135643905Y-123102667D01*
X135072476Y-123388381D02*
X135405809Y-122388381D01*
X135739143Y-123388381D01*
X136596286Y-122436000D02*
X136501048Y-122388381D01*
X136358191Y-122388381D01*
X136215333Y-122436000D01*
X136120095Y-122531238D01*
X136072476Y-122626476D01*
X136024857Y-122816952D01*
X136024857Y-122959810D01*
X136072476Y-123150286D01*
X136120095Y-123245524D01*
X136215333Y-123340762D01*
X136358191Y-123388381D01*
X136453429Y-123388381D01*
X136596286Y-123340762D01*
X136643905Y-123293143D01*
X136643905Y-122959810D01*
X136453429Y-122959810D01*
X137072476Y-122864571D02*
X137405810Y-122864571D01*
X137548667Y-123388381D02*
X137072476Y-123388381D01*
X137072476Y-122388381D01*
X137548667Y-122388381D01*
X137977238Y-123388381D02*
X137977238Y-122388381D01*
X138215333Y-122388381D01*
X138358191Y-122436000D01*
X138453429Y-122531238D01*
X138501048Y-122626476D01*
X138548667Y-122816952D01*
X138548667Y-122959810D01*
X138501048Y-123150286D01*
X138453429Y-123245524D01*
X138358191Y-123340762D01*
X138215333Y-123388381D01*
X137977238Y-123388381D01*
X141462286Y-127645762D02*
X141605143Y-127693381D01*
X141843239Y-127693381D01*
X141938477Y-127645762D01*
X141986096Y-127598143D01*
X142033715Y-127502905D01*
X142033715Y-127407667D01*
X141986096Y-127312429D01*
X141938477Y-127264810D01*
X141843239Y-127217190D01*
X141652762Y-127169571D01*
X141557524Y-127121952D01*
X141509905Y-127074333D01*
X141462286Y-126979095D01*
X141462286Y-126883857D01*
X141509905Y-126788619D01*
X141557524Y-126741000D01*
X141652762Y-126693381D01*
X141890858Y-126693381D01*
X142033715Y-126741000D01*
X142462286Y-127693381D02*
X142462286Y-126693381D01*
X142462286Y-127169571D02*
X143033715Y-127169571D01*
X143033715Y-127693381D02*
X143033715Y-126693381D01*
X144033715Y-127693381D02*
X143462286Y-127693381D01*
X143748000Y-127693381D02*
X143748000Y-126693381D01*
X143652762Y-126836238D01*
X143557524Y-126931476D01*
X143462286Y-126979095D01*
X141557524Y-129243381D02*
X141557524Y-128243381D01*
X141557524Y-128624333D02*
X141652762Y-128576714D01*
X141843239Y-128576714D01*
X141938477Y-128624333D01*
X141986096Y-128671952D01*
X142033715Y-128767190D01*
X142033715Y-129052905D01*
X141986096Y-129148143D01*
X141938477Y-129195762D01*
X141843239Y-129243381D01*
X141652762Y-129243381D01*
X141557524Y-129195762D01*
X142605143Y-129243381D02*
X142509905Y-129195762D01*
X142462286Y-129148143D01*
X142414667Y-129052905D01*
X142414667Y-128767190D01*
X142462286Y-128671952D01*
X142509905Y-128624333D01*
X142605143Y-128576714D01*
X142748001Y-128576714D01*
X142843239Y-128624333D01*
X142890858Y-128671952D01*
X142938477Y-128767190D01*
X142938477Y-129052905D01*
X142890858Y-129148143D01*
X142843239Y-129195762D01*
X142748001Y-129243381D01*
X142605143Y-129243381D01*
X143224191Y-128576714D02*
X143605143Y-128576714D01*
X143367048Y-128243381D02*
X143367048Y-129100524D01*
X143414667Y-129195762D01*
X143509905Y-129243381D01*
X143605143Y-129243381D01*
X143938477Y-129148143D02*
X143986096Y-129195762D01*
X143938477Y-129243381D01*
X143890858Y-129195762D01*
X143938477Y-129148143D01*
X143938477Y-129243381D01*
X141462286Y-124343762D02*
X141605143Y-124391381D01*
X141843239Y-124391381D01*
X141938477Y-124343762D01*
X141986096Y-124296143D01*
X142033715Y-124200905D01*
X142033715Y-124105667D01*
X141986096Y-124010429D01*
X141938477Y-123962810D01*
X141843239Y-123915190D01*
X141652762Y-123867571D01*
X141557524Y-123819952D01*
X141509905Y-123772333D01*
X141462286Y-123677095D01*
X141462286Y-123581857D01*
X141509905Y-123486619D01*
X141557524Y-123439000D01*
X141652762Y-123391381D01*
X141890858Y-123391381D01*
X142033715Y-123439000D01*
X142462286Y-124391381D02*
X142462286Y-123391381D01*
X142462286Y-123867571D02*
X143033715Y-123867571D01*
X143033715Y-124391381D02*
X143033715Y-123391381D01*
X143414667Y-123391381D02*
X144033715Y-123391381D01*
X143700381Y-123772333D01*
X143843239Y-123772333D01*
X143938477Y-123819952D01*
X143986096Y-123867571D01*
X144033715Y-123962810D01*
X144033715Y-124200905D01*
X143986096Y-124296143D01*
X143938477Y-124343762D01*
X143843239Y-124391381D01*
X143557524Y-124391381D01*
X143462286Y-124343762D01*
X143414667Y-124296143D01*
X141652762Y-125274714D02*
X142033714Y-125274714D01*
X141795619Y-124941381D02*
X141795619Y-125798524D01*
X141843238Y-125893762D01*
X141938476Y-125941381D01*
X142033714Y-125941381D01*
X142509905Y-125941381D02*
X142414667Y-125893762D01*
X142367048Y-125846143D01*
X142319429Y-125750905D01*
X142319429Y-125465190D01*
X142367048Y-125369952D01*
X142414667Y-125322333D01*
X142509905Y-125274714D01*
X142652763Y-125274714D01*
X142748001Y-125322333D01*
X142795620Y-125369952D01*
X142843239Y-125465190D01*
X142843239Y-125750905D01*
X142795620Y-125846143D01*
X142748001Y-125893762D01*
X142652763Y-125941381D01*
X142509905Y-125941381D01*
X143271810Y-125274714D02*
X143271810Y-126274714D01*
X143271810Y-125322333D02*
X143367048Y-125274714D01*
X143557525Y-125274714D01*
X143652763Y-125322333D01*
X143700382Y-125369952D01*
X143748001Y-125465190D01*
X143748001Y-125750905D01*
X143700382Y-125846143D01*
X143652763Y-125893762D01*
X143557525Y-125941381D01*
X143367048Y-125941381D01*
X143271810Y-125893762D01*
X124698286Y-127645762D02*
X124841143Y-127693381D01*
X125079239Y-127693381D01*
X125174477Y-127645762D01*
X125222096Y-127598143D01*
X125269715Y-127502905D01*
X125269715Y-127407667D01*
X125222096Y-127312429D01*
X125174477Y-127264810D01*
X125079239Y-127217190D01*
X124888762Y-127169571D01*
X124793524Y-127121952D01*
X124745905Y-127074333D01*
X124698286Y-126979095D01*
X124698286Y-126883857D01*
X124745905Y-126788619D01*
X124793524Y-126741000D01*
X124888762Y-126693381D01*
X125126858Y-126693381D01*
X125269715Y-126741000D01*
X125698286Y-127693381D02*
X125698286Y-126693381D01*
X125698286Y-127169571D02*
X126269715Y-127169571D01*
X126269715Y-127693381D02*
X126269715Y-126693381D01*
X126698286Y-126788619D02*
X126745905Y-126741000D01*
X126841143Y-126693381D01*
X127079239Y-126693381D01*
X127174477Y-126741000D01*
X127222096Y-126788619D01*
X127269715Y-126883857D01*
X127269715Y-126979095D01*
X127222096Y-127121952D01*
X126650667Y-127693381D01*
X127269715Y-127693381D01*
X125555429Y-129243381D02*
X125555429Y-128243381D01*
X125555429Y-128624333D02*
X125650667Y-128576714D01*
X125841144Y-128576714D01*
X125936382Y-128624333D01*
X125984001Y-128671952D01*
X126031620Y-128767190D01*
X126031620Y-129052905D01*
X125984001Y-129148143D01*
X125936382Y-129195762D01*
X125841144Y-129243381D01*
X125650667Y-129243381D01*
X125555429Y-129195762D01*
X126603048Y-129243381D02*
X126507810Y-129195762D01*
X126460191Y-129148143D01*
X126412572Y-129052905D01*
X126412572Y-128767190D01*
X126460191Y-128671952D01*
X126507810Y-128624333D01*
X126603048Y-128576714D01*
X126745906Y-128576714D01*
X126841144Y-128624333D01*
X126888763Y-128671952D01*
X126936382Y-128767190D01*
X126936382Y-129052905D01*
X126888763Y-129148143D01*
X126841144Y-129195762D01*
X126745906Y-129243381D01*
X126603048Y-129243381D01*
X127222096Y-128576714D02*
X127603048Y-128576714D01*
X127364953Y-128243381D02*
X127364953Y-129100524D01*
X127412572Y-129195762D01*
X127507810Y-129243381D01*
X127603048Y-129243381D01*
X127936382Y-129148143D02*
X127984001Y-129195762D01*
X127936382Y-129243381D01*
X127888763Y-129195762D01*
X127936382Y-129148143D01*
X127936382Y-129243381D01*
X124698286Y-124343762D02*
X124841143Y-124391381D01*
X125079239Y-124391381D01*
X125174477Y-124343762D01*
X125222096Y-124296143D01*
X125269715Y-124200905D01*
X125269715Y-124105667D01*
X125222096Y-124010429D01*
X125174477Y-123962810D01*
X125079239Y-123915190D01*
X124888762Y-123867571D01*
X124793524Y-123819952D01*
X124745905Y-123772333D01*
X124698286Y-123677095D01*
X124698286Y-123581857D01*
X124745905Y-123486619D01*
X124793524Y-123439000D01*
X124888762Y-123391381D01*
X125126858Y-123391381D01*
X125269715Y-123439000D01*
X125698286Y-124391381D02*
X125698286Y-123391381D01*
X125698286Y-123867571D02*
X126269715Y-123867571D01*
X126269715Y-124391381D02*
X126269715Y-123391381D01*
X127174477Y-123724714D02*
X127174477Y-124391381D01*
X126936381Y-123343762D02*
X126698286Y-124058048D01*
X127317334Y-124058048D01*
X124888762Y-125274714D02*
X125269714Y-125274714D01*
X125031619Y-124941381D02*
X125031619Y-125798524D01*
X125079238Y-125893762D01*
X125174476Y-125941381D01*
X125269714Y-125941381D01*
X125745905Y-125941381D02*
X125650667Y-125893762D01*
X125603048Y-125846143D01*
X125555429Y-125750905D01*
X125555429Y-125465190D01*
X125603048Y-125369952D01*
X125650667Y-125322333D01*
X125745905Y-125274714D01*
X125888763Y-125274714D01*
X125984001Y-125322333D01*
X126031620Y-125369952D01*
X126079239Y-125465190D01*
X126079239Y-125750905D01*
X126031620Y-125846143D01*
X125984001Y-125893762D01*
X125888763Y-125941381D01*
X125745905Y-125941381D01*
X126507810Y-125274714D02*
X126507810Y-126274714D01*
X126507810Y-125322333D02*
X126603048Y-125274714D01*
X126793525Y-125274714D01*
X126888763Y-125322333D01*
X126936382Y-125369952D01*
X126984001Y-125465190D01*
X126984001Y-125750905D01*
X126936382Y-125846143D01*
X126888763Y-125893762D01*
X126793525Y-125941381D01*
X126603048Y-125941381D01*
X126507810Y-125893762D01*
X115244952Y-122864571D02*
X115578286Y-122864571D01*
X115721143Y-123388381D02*
X115244952Y-123388381D01*
X115244952Y-122388381D01*
X115721143Y-122388381D01*
X116149714Y-123388381D02*
X116149714Y-122388381D01*
X116721143Y-123388381D01*
X116721143Y-122388381D01*
X117721143Y-122436000D02*
X117625905Y-122388381D01*
X117483048Y-122388381D01*
X117340190Y-122436000D01*
X117244952Y-122531238D01*
X117197333Y-122626476D01*
X117149714Y-122816952D01*
X117149714Y-122959810D01*
X117197333Y-123150286D01*
X117244952Y-123245524D01*
X117340190Y-123340762D01*
X117483048Y-123388381D01*
X117578286Y-123388381D01*
X117721143Y-123340762D01*
X117768762Y-123293143D01*
X117768762Y-122959810D01*
X117578286Y-122959810D01*
X118149714Y-123102667D02*
X118625905Y-123102667D01*
X118054476Y-123388381D02*
X118387809Y-122388381D01*
X118721143Y-123388381D01*
X119578286Y-122436000D02*
X119483048Y-122388381D01*
X119340191Y-122388381D01*
X119197333Y-122436000D01*
X119102095Y-122531238D01*
X119054476Y-122626476D01*
X119006857Y-122816952D01*
X119006857Y-122959810D01*
X119054476Y-123150286D01*
X119102095Y-123245524D01*
X119197333Y-123340762D01*
X119340191Y-123388381D01*
X119435429Y-123388381D01*
X119578286Y-123340762D01*
X119625905Y-123293143D01*
X119625905Y-122959810D01*
X119435429Y-122959810D01*
X120054476Y-122864571D02*
X120387810Y-122864571D01*
X120530667Y-123388381D02*
X120054476Y-123388381D01*
X120054476Y-122388381D01*
X120530667Y-122388381D01*
X120959238Y-123388381D02*
X120959238Y-122388381D01*
X121197333Y-122388381D01*
X121340191Y-122436000D01*
X121435429Y-122531238D01*
X121483048Y-122626476D01*
X121530667Y-122816952D01*
X121530667Y-122959810D01*
X121483048Y-123150286D01*
X121435429Y-123245524D01*
X121340191Y-123340762D01*
X121197333Y-123388381D01*
X120959238Y-123388381D01*
X120483429Y-113212571D02*
X120150095Y-113212571D01*
X120150095Y-113736381D02*
X120150095Y-112736381D01*
X120626286Y-112736381D01*
X120959619Y-113450667D02*
X121435810Y-113450667D01*
X120864381Y-113736381D02*
X121197714Y-112736381D01*
X121531048Y-113736381D01*
X121864381Y-113736381D02*
X121864381Y-112736381D01*
X122816762Y-113736381D02*
X122340571Y-113736381D01*
X122340571Y-112736381D01*
X132838000Y-113284000D02*
X133088000Y-113284000D01*
X132338000Y-113284000D02*
X132088000Y-113284000D01*
X132338000Y-113284000D02*
X132838000Y-112934000D01*
X132838000Y-112934000D02*
X132838000Y-113634000D01*
X132838000Y-113634000D02*
X132338000Y-113284000D01*
X132338000Y-112934000D02*
X132338000Y-113634000D01*
X131288000Y-114084000D02*
X133688000Y-114084000D01*
X131288000Y-112484000D02*
X133688000Y-112484000D01*
X145030000Y-113284000D02*
X145280000Y-113284000D01*
X144530000Y-113284000D02*
X144280000Y-113284000D01*
X144530000Y-113284000D02*
X145030000Y-112934000D01*
X145030000Y-112934000D02*
X145030000Y-113634000D01*
X145030000Y-113634000D02*
X144530000Y-113284000D01*
X144530000Y-112934000D02*
X144530000Y-113634000D01*
X143480000Y-114084000D02*
X145880000Y-114084000D01*
X143480000Y-112484000D02*
X145880000Y-112484000D01*
X138076940Y-115216940D02*
X138275060Y-115216940D01*
X138275060Y-115216940D02*
X138275060Y-115415060D01*
X138076940Y-115415060D02*
X138275060Y-115415060D01*
X138076940Y-115216940D02*
X138076940Y-115415060D01*
X138625580Y-114617500D02*
X138973560Y-114617500D01*
X138973560Y-114617500D02*
X138973560Y-114866420D01*
X138625580Y-114866420D02*
X138973560Y-114866420D01*
X138625580Y-114617500D02*
X138625580Y-114866420D01*
X138973560Y-114617500D02*
X139075160Y-114617500D01*
X139075160Y-114617500D02*
X139075160Y-115813840D01*
X138973560Y-115813840D02*
X139075160Y-115813840D01*
X138973560Y-114617500D02*
X138973560Y-115813840D01*
X138973560Y-115864640D02*
X139075160Y-115864640D01*
X139075160Y-115864640D02*
X139075160Y-116014500D01*
X138973560Y-116014500D02*
X139075160Y-116014500D01*
X138973560Y-115864640D02*
X138973560Y-116014500D01*
X137276840Y-114617500D02*
X137378440Y-114617500D01*
X137378440Y-114617500D02*
X137378440Y-115813840D01*
X137276840Y-115813840D02*
X137378440Y-115813840D01*
X137276840Y-114617500D02*
X137276840Y-115813840D01*
X137276840Y-115864640D02*
X137378440Y-115864640D01*
X137378440Y-115864640D02*
X137378440Y-116014500D01*
X137276840Y-116014500D02*
X137378440Y-116014500D01*
X137276840Y-115864640D02*
X137276840Y-116014500D01*
X138625580Y-114617500D02*
X138775440Y-114617500D01*
X138775440Y-114617500D02*
X138775440Y-114866420D01*
X138625580Y-114866420D02*
X138775440Y-114866420D01*
X138625580Y-114617500D02*
X138625580Y-114866420D01*
X139725400Y-114566700D02*
X136626600Y-114566700D01*
X136626600Y-114566700D02*
X136626600Y-116065300D01*
X136626600Y-116065300D02*
X139725400Y-116065300D01*
X139725400Y-116065300D02*
X139725400Y-114566700D01*
X137628738Y-114816646D02*
G75*
G02X138724640Y-114818160I547262J-499354D01*
G01*
X137627867Y-115814398D02*
G75*
G02X137627360Y-114818160I548133J498398D01*
G01*
X138723262Y-115815354D02*
G75*
G02X137627360Y-115813840I-547262J499354D01*
G01*
X138724133Y-114817602D02*
G75*
G02X138724640Y-115813840I-548133J-498398D01*
G01*
X121312940Y-115216940D02*
X121511060Y-115216940D01*
X121511060Y-115216940D02*
X121511060Y-115415060D01*
X121312940Y-115415060D02*
X121511060Y-115415060D01*
X121312940Y-115216940D02*
X121312940Y-115415060D01*
X121861580Y-114617500D02*
X122209560Y-114617500D01*
X122209560Y-114617500D02*
X122209560Y-114866420D01*
X121861580Y-114866420D02*
X122209560Y-114866420D01*
X121861580Y-114617500D02*
X121861580Y-114866420D01*
X122209560Y-114617500D02*
X122311160Y-114617500D01*
X122311160Y-114617500D02*
X122311160Y-115813840D01*
X122209560Y-115813840D02*
X122311160Y-115813840D01*
X122209560Y-114617500D02*
X122209560Y-115813840D01*
X122209560Y-115864640D02*
X122311160Y-115864640D01*
X122311160Y-115864640D02*
X122311160Y-116014500D01*
X122209560Y-116014500D02*
X122311160Y-116014500D01*
X122209560Y-115864640D02*
X122209560Y-116014500D01*
X120512840Y-114617500D02*
X120614440Y-114617500D01*
X120614440Y-114617500D02*
X120614440Y-115813840D01*
X120512840Y-115813840D02*
X120614440Y-115813840D01*
X120512840Y-114617500D02*
X120512840Y-115813840D01*
X120512840Y-115864640D02*
X120614440Y-115864640D01*
X120614440Y-115864640D02*
X120614440Y-116014500D01*
X120512840Y-116014500D02*
X120614440Y-116014500D01*
X120512840Y-115864640D02*
X120512840Y-116014500D01*
X121861580Y-114617500D02*
X122011440Y-114617500D01*
X122011440Y-114617500D02*
X122011440Y-114866420D01*
X121861580Y-114866420D02*
X122011440Y-114866420D01*
X121861580Y-114617500D02*
X121861580Y-114866420D01*
X122961400Y-114566700D02*
X119862600Y-114566700D01*
X119862600Y-114566700D02*
X119862600Y-116065300D01*
X119862600Y-116065300D02*
X122961400Y-116065300D01*
X122961400Y-116065300D02*
X122961400Y-114566700D01*
X120864738Y-114816646D02*
G75*
G02X121960640Y-114818160I547262J-499354D01*
G01*
X120863867Y-115814398D02*
G75*
G02X120863360Y-114818160I548133J498398D01*
G01*
X121959262Y-115815354D02*
G75*
G02X120863360Y-115813840I-547262J499354D01*
G01*
X121960133Y-114817602D02*
G75*
G02X121960640Y-115813840I-548133J-498398D01*
G01*
X119280940Y-120804940D02*
X119479060Y-120804940D01*
X119479060Y-120804940D02*
X119479060Y-121003060D01*
X119280940Y-121003060D02*
X119479060Y-121003060D01*
X119280940Y-120804940D02*
X119280940Y-121003060D01*
X119829580Y-120205500D02*
X120177560Y-120205500D01*
X120177560Y-120205500D02*
X120177560Y-120454420D01*
X119829580Y-120454420D02*
X120177560Y-120454420D01*
X119829580Y-120205500D02*
X119829580Y-120454420D01*
X120177560Y-120205500D02*
X120279160Y-120205500D01*
X120279160Y-120205500D02*
X120279160Y-121401840D01*
X120177560Y-121401840D02*
X120279160Y-121401840D01*
X120177560Y-120205500D02*
X120177560Y-121401840D01*
X120177560Y-121452640D02*
X120279160Y-121452640D01*
X120279160Y-121452640D02*
X120279160Y-121602500D01*
X120177560Y-121602500D02*
X120279160Y-121602500D01*
X120177560Y-121452640D02*
X120177560Y-121602500D01*
X118480840Y-120205500D02*
X118582440Y-120205500D01*
X118582440Y-120205500D02*
X118582440Y-121401840D01*
X118480840Y-121401840D02*
X118582440Y-121401840D01*
X118480840Y-120205500D02*
X118480840Y-121401840D01*
X118480840Y-121452640D02*
X118582440Y-121452640D01*
X118582440Y-121452640D02*
X118582440Y-121602500D01*
X118480840Y-121602500D02*
X118582440Y-121602500D01*
X118480840Y-121452640D02*
X118480840Y-121602500D01*
X119829580Y-120205500D02*
X119979440Y-120205500D01*
X119979440Y-120205500D02*
X119979440Y-120454420D01*
X119829580Y-120454420D02*
X119979440Y-120454420D01*
X119829580Y-120205500D02*
X119829580Y-120454420D01*
X120929400Y-120154700D02*
X117830600Y-120154700D01*
X117830600Y-120154700D02*
X117830600Y-121653300D01*
X117830600Y-121653300D02*
X120929400Y-121653300D01*
X120929400Y-121653300D02*
X120929400Y-120154700D01*
X118832738Y-120404646D02*
G75*
G02X119928640Y-120406160I547262J-499354D01*
G01*
X118831867Y-121402398D02*
G75*
G02X118831360Y-120406160I548133J498398D01*
G01*
X119927262Y-121403354D02*
G75*
G02X118831360Y-121401840I-547262J499354D01*
G01*
X119928133Y-120405602D02*
G75*
G02X119928640Y-121401840I-548133J-498398D01*
G01*
X136044940Y-120804940D02*
X136243060Y-120804940D01*
X136243060Y-120804940D02*
X136243060Y-121003060D01*
X136044940Y-121003060D02*
X136243060Y-121003060D01*
X136044940Y-120804940D02*
X136044940Y-121003060D01*
X136593580Y-120205500D02*
X136941560Y-120205500D01*
X136941560Y-120205500D02*
X136941560Y-120454420D01*
X136593580Y-120454420D02*
X136941560Y-120454420D01*
X136593580Y-120205500D02*
X136593580Y-120454420D01*
X136941560Y-120205500D02*
X137043160Y-120205500D01*
X137043160Y-120205500D02*
X137043160Y-121401840D01*
X136941560Y-121401840D02*
X137043160Y-121401840D01*
X136941560Y-120205500D02*
X136941560Y-121401840D01*
X136941560Y-121452640D02*
X137043160Y-121452640D01*
X137043160Y-121452640D02*
X137043160Y-121602500D01*
X136941560Y-121602500D02*
X137043160Y-121602500D01*
X136941560Y-121452640D02*
X136941560Y-121602500D01*
X135244840Y-120205500D02*
X135346440Y-120205500D01*
X135346440Y-120205500D02*
X135346440Y-121401840D01*
X135244840Y-121401840D02*
X135346440Y-121401840D01*
X135244840Y-120205500D02*
X135244840Y-121401840D01*
X135244840Y-121452640D02*
X135346440Y-121452640D01*
X135346440Y-121452640D02*
X135346440Y-121602500D01*
X135244840Y-121602500D02*
X135346440Y-121602500D01*
X135244840Y-121452640D02*
X135244840Y-121602500D01*
X136593580Y-120205500D02*
X136743440Y-120205500D01*
X136743440Y-120205500D02*
X136743440Y-120454420D01*
X136593580Y-120454420D02*
X136743440Y-120454420D01*
X136593580Y-120205500D02*
X136593580Y-120454420D01*
X137693400Y-120154700D02*
X134594600Y-120154700D01*
X134594600Y-120154700D02*
X134594600Y-121653300D01*
X134594600Y-121653300D02*
X137693400Y-121653300D01*
X137693400Y-121653300D02*
X137693400Y-120154700D01*
X135596738Y-120404646D02*
G75*
G02X136692640Y-120406160I547262J-499354D01*
G01*
X135595867Y-121402398D02*
G75*
G02X135595360Y-120406160I548133J498398D01*
G01*
X136691262Y-121403354D02*
G75*
G02X135595360Y-121401840I-547262J499354D01*
G01*
X136692133Y-120405602D02*
G75*
G02X136692640Y-121401840I-548133J-498398D01*
G01*
X132334000Y-143256000D02*
X132334000Y-142748000D01*
X132842000Y-143256000D02*
X132842000Y-142748000D01*
X134874000Y-143256000D02*
X134874000Y-142748000D01*
X135382000Y-143256000D02*
X135382000Y-142748000D01*
X137414000Y-143256000D02*
X137414000Y-142748000D01*
X137922000Y-143256000D02*
X137922000Y-142748000D01*
X135382000Y-145796000D02*
X135382000Y-145288000D01*
X134874000Y-145796000D02*
X134874000Y-145288000D01*
X132842000Y-145796000D02*
X132842000Y-145288000D01*
X132334000Y-145796000D02*
X132334000Y-145288000D01*
X137922000Y-145796000D02*
X137922000Y-145288000D01*
X137414000Y-145796000D02*
X137414000Y-145288000D01*
X139218000Y-141732000D02*
X139218000Y-140582000D01*
X139218000Y-140582000D02*
X137668000Y-140582000D01*
X136398000Y-145796000D02*
X133858000Y-145796000D01*
X133858000Y-145796000D02*
X133858000Y-148336000D01*
X133858000Y-148336000D02*
X136398000Y-148336000D01*
X131318000Y-145796000D02*
X131318000Y-148336000D01*
X131318000Y-148336000D02*
X133858000Y-148336000D01*
X131318000Y-145796000D02*
X131318000Y-148336000D01*
X133858000Y-145796000D02*
X131318000Y-145796000D01*
X133858000Y-145796000D02*
X133858000Y-148336000D01*
X136398000Y-145796000D02*
X136398000Y-148336000D01*
X136398000Y-148336000D02*
X138938000Y-148336000D01*
X136398000Y-145796000D02*
X136398000Y-148336000D01*
X138938000Y-145796000D02*
X136398000Y-145796000D01*
X138938000Y-145796000D02*
X138938000Y-148336000D01*
X141478000Y-143256000D02*
X141478000Y-142748000D01*
X141986000Y-143256000D02*
X141986000Y-142748000D01*
X144018000Y-143256000D02*
X144018000Y-142748000D01*
X144526000Y-143256000D02*
X144526000Y-142748000D01*
X146558000Y-143256000D02*
X146558000Y-142748000D01*
X147066000Y-143256000D02*
X147066000Y-142748000D01*
X144526000Y-145796000D02*
X144526000Y-145288000D01*
X144018000Y-145796000D02*
X144018000Y-145288000D01*
X141986000Y-145796000D02*
X141986000Y-145288000D01*
X141478000Y-145796000D02*
X141478000Y-145288000D01*
X147066000Y-145796000D02*
X147066000Y-145288000D01*
X146558000Y-145796000D02*
X146558000Y-145288000D01*
X148362000Y-141732000D02*
X148362000Y-140582000D01*
X148362000Y-140582000D02*
X146812000Y-140582000D01*
X145542000Y-145796000D02*
X143002000Y-145796000D01*
X143002000Y-145796000D02*
X143002000Y-148336000D01*
X143002000Y-148336000D02*
X145542000Y-148336000D01*
X140462000Y-145796000D02*
X140462000Y-148336000D01*
X140462000Y-148336000D02*
X143002000Y-148336000D01*
X140462000Y-145796000D02*
X140462000Y-148336000D01*
X143002000Y-145796000D02*
X140462000Y-145796000D01*
X143002000Y-145796000D02*
X143002000Y-148336000D01*
X145542000Y-145796000D02*
X145542000Y-148336000D01*
X145542000Y-148336000D02*
X148082000Y-148336000D01*
X145542000Y-145796000D02*
X145542000Y-148336000D01*
X148082000Y-145796000D02*
X145542000Y-145796000D01*
X148082000Y-145796000D02*
X148082000Y-148336000D01*
X147548000Y-112076000D02*
X137948000Y-112076000D01*
X137948000Y-100076000D02*
X137948000Y-112076000D01*
X147548000Y-100076000D02*
X147548000Y-112076000D01*
X138598000Y-100076000D02*
X137948000Y-100076000D01*
X146898000Y-100076000D02*
X147548000Y-100076000D01*
X146898000Y-91076000D02*
X138598000Y-91076000D01*
X138598000Y-100076000D02*
X138598000Y-91076000D01*
X146898000Y-100076000D02*
X146898000Y-91076000D01*
X133832000Y-112076000D02*
X124232000Y-112076000D01*
X124232000Y-100076000D02*
X124232000Y-112076000D01*
X133832000Y-100076000D02*
X133832000Y-112076000D01*
X124882000Y-100076000D02*
X124232000Y-100076000D01*
X133182000Y-100076000D02*
X133832000Y-100076000D01*
X133182000Y-91076000D02*
X124882000Y-91076000D01*
X124882000Y-100076000D02*
X124882000Y-91076000D01*
X133182000Y-100076000D02*
X133182000Y-91076000D01*
X136551000Y-134519000D02*
X136551000Y-134744000D01*
X139801000Y-134519000D02*
X139801000Y-134744000D01*
X139801000Y-137769000D02*
X139801000Y-137544000D01*
X136551000Y-137769000D02*
X136551000Y-137544000D01*
X136551000Y-134519000D02*
X139801000Y-134519000D01*
X136551000Y-137769000D02*
X139801000Y-137769000D01*
X136551000Y-134744000D02*
X135476000Y-134744000D01*
X120547000Y-134771000D02*
X120547000Y-134471000D01*
X117197000Y-134771000D02*
X117197000Y-134471000D01*
X117197000Y-131421000D02*
X117197000Y-131721000D01*
X120547000Y-131421000D02*
X120547000Y-131721000D01*
X120547000Y-134771000D02*
X117197000Y-134771000D01*
X120547000Y-131421000D02*
X117197000Y-131421000D01*
X120547000Y-134471000D02*
X121772000Y-134471000D01*
X113740000Y-100156000D02*
X114340000Y-100156000D01*
X114340000Y-97656000D02*
X114340000Y-100156000D01*
X119340000Y-100156000D02*
X119340000Y-97656000D01*
X119340000Y-97656000D02*
X114340000Y-97656000D01*
X119940000Y-111656000D02*
X113740000Y-111656000D01*
X119940000Y-100156000D02*
X119940000Y-111656000D01*
X113740000Y-100156000D02*
X113740000Y-111656000D01*
X119940000Y-100156000D02*
X119340000Y-100156000D01*
X102564000Y-100156000D02*
X103164000Y-100156000D01*
X103164000Y-97656000D02*
X103164000Y-100156000D01*
X108164000Y-100156000D02*
X108164000Y-97656000D01*
X108164000Y-97656000D02*
X103164000Y-97656000D01*
X108764000Y-111656000D02*
X102564000Y-111656000D01*
X108764000Y-100156000D02*
X108764000Y-111656000D01*
X102564000Y-100156000D02*
X102564000Y-111656000D01*
X108764000Y-100156000D02*
X108164000Y-100156000D01*
X144823000Y-121955000D02*
X144823000Y-121810000D01*
X140673000Y-121955000D02*
X140673000Y-121810000D01*
X140673000Y-116805000D02*
X140673000Y-116950000D01*
X144823000Y-116805000D02*
X144823000Y-116950000D01*
X144823000Y-121955000D02*
X140673000Y-121955000D01*
X144823000Y-116805000D02*
X140673000Y-116805000D01*
X144823000Y-121810000D02*
X146223000Y-121810000D01*
X128059000Y-121955000D02*
X128059000Y-121810000D01*
X123909000Y-121955000D02*
X123909000Y-121810000D01*
X123909000Y-116805000D02*
X123909000Y-116950000D01*
X128059000Y-116805000D02*
X128059000Y-116950000D01*
X128059000Y-121955000D02*
X123909000Y-121955000D01*
X128059000Y-116805000D02*
X123909000Y-116805000D01*
X128059000Y-121810000D02*
X129459000Y-121810000D01*
X137676000Y-133946000D02*
X138676000Y-133946000D01*
X138676000Y-132246000D02*
X137676000Y-132246000D01*
X146978000Y-120912000D02*
X146978000Y-121912000D01*
X148678000Y-121912000D02*
X148678000Y-120912000D01*
X130214000Y-120912000D02*
X130214000Y-121912000D01*
X131914000Y-121912000D02*
X131914000Y-120912000D01*
X142248000Y-116166000D02*
X143248000Y-116166000D01*
X143248000Y-114466000D02*
X142248000Y-114466000D01*
X125484000Y-116166000D02*
X126484000Y-116166000D01*
X126484000Y-114466000D02*
X125484000Y-114466000D01*
X146978000Y-113800000D02*
X146978000Y-114800000D01*
X148678000Y-114800000D02*
X148678000Y-113800000D01*
X136486000Y-104640000D02*
X136486000Y-103640000D01*
X134786000Y-103640000D02*
X134786000Y-104640000D01*
X119372000Y-134786000D02*
X118372000Y-134786000D01*
X118372000Y-136486000D02*
X119372000Y-136486000D01*
X140575000Y-123860000D02*
X140575000Y-125060000D01*
X138825000Y-125060000D02*
X138825000Y-123860000D01*
X146671000Y-127416000D02*
X146671000Y-128616000D01*
X144921000Y-128616000D02*
X144921000Y-127416000D01*
X123811000Y-123860000D02*
X123811000Y-125060000D01*
X122061000Y-125060000D02*
X122061000Y-123860000D01*
X129907000Y-127416000D02*
X129907000Y-128616000D01*
X128157000Y-128616000D02*
X128157000Y-127416000D01*
X140575000Y-127416000D02*
X140575000Y-128616000D01*
X138825000Y-128616000D02*
X138825000Y-127416000D01*
X144921000Y-125060000D02*
X144921000Y-123860000D01*
X146671000Y-123860000D02*
X146671000Y-125060000D01*
X123811000Y-127416000D02*
X123811000Y-128616000D01*
X122061000Y-128616000D02*
X122061000Y-127416000D01*
X128157000Y-125060000D02*
X128157000Y-123860000D01*
X129907000Y-123860000D02*
X129907000Y-125060000D01*
X146953000Y-118456000D02*
X146953000Y-117256000D01*
X148703000Y-117256000D02*
X148703000Y-118456000D01*
X130189000Y-118456000D02*
X130189000Y-117256000D01*
X131939000Y-117256000D02*
X131939000Y-118456000D01*
X136236000Y-119239000D02*
X135036000Y-119239000D01*
X135036000Y-117489000D02*
X136236000Y-117489000D01*
X119472000Y-119239000D02*
X118272000Y-119239000D01*
X118272000Y-117489000D02*
X119472000Y-117489000D01*
X133512000Y-114441000D02*
X134712000Y-114441000D01*
X134712000Y-116191000D02*
X133512000Y-116191000D01*
X116748000Y-114441000D02*
X117948000Y-114441000D01*
X117948000Y-116191000D02*
X116748000Y-116191000D01*
X123049000Y-136814000D02*
X123049000Y-138014000D01*
X121299000Y-138014000D02*
X121299000Y-136814000D01*
D15*
X110252000Y-143764000D02*
X110252000Y-145248000D01*
X110252000Y-141732000D02*
X110752000Y-141732000D01*
X110752000Y-141732000D02*
X110752000Y-143764000D01*
X110752000Y-143764000D02*
X110252000Y-143764000D01*
X127492000Y-140248000D02*
X127492000Y-145248000D01*
X127492000Y-145248000D02*
X110252000Y-145248000D01*
X110252000Y-141732000D02*
X110252000Y-140248000D01*
X110252000Y-140248000D02*
X127492000Y-140248000D01*
D11*
X105410000Y-116586000D02*
X105410000Y-149606000D01*
X105410000Y-149606000D02*
X107950000Y-149606000D01*
X107950000Y-149606000D02*
X107950000Y-116586000D01*
X108230000Y-113766000D02*
X108230000Y-115316000D01*
X107950000Y-116586000D02*
X105410000Y-116586000D01*
X105130000Y-115316000D02*
X105130000Y-113766000D01*
X105130000Y-113766000D02*
X108230000Y-113766000D01*
X113030000Y-130302000D02*
X113030000Y-117602000D01*
X113030000Y-117602000D02*
X110490000Y-117602000D01*
X110490000Y-117602000D02*
X110490000Y-130302000D01*
X113310000Y-133122000D02*
X113310000Y-131572000D01*
X113030000Y-130302000D02*
X110490000Y-130302000D01*
X110210000Y-131572000D02*
X110210000Y-133122000D01*
X110210000Y-133122000D02*
X113310000Y-133122000D01*
X145542000Y-132842000D02*
X145542000Y-140462000D01*
X143002000Y-132842000D02*
X143002000Y-140462000D01*
X142722000Y-130022000D02*
X142722000Y-131572000D01*
X145542000Y-140462000D02*
X143002000Y-140462000D01*
X143002000Y-132842000D02*
X145542000Y-132842000D01*
X145822000Y-131572000D02*
X145822000Y-130022000D01*
X145822000Y-130022000D02*
X142722000Y-130022000D01*
D12*
X135045524Y-113645905D02*
X135045524Y-112845905D01*
X135236000Y-112845905D01*
X135350286Y-112884000D01*
X135426477Y-112960190D01*
X135464572Y-113036381D01*
X135502667Y-113188762D01*
X135502667Y-113303048D01*
X135464572Y-113455429D01*
X135426477Y-113531619D01*
X135350286Y-113607810D01*
X135236000Y-113645905D01*
X135045524Y-113645905D01*
X136188381Y-112845905D02*
X136036000Y-112845905D01*
X135959810Y-112884000D01*
X135921715Y-112922095D01*
X135845524Y-113036381D01*
X135807429Y-113188762D01*
X135807429Y-113493524D01*
X135845524Y-113569714D01*
X135883619Y-113607810D01*
X135959810Y-113645905D01*
X136112191Y-113645905D01*
X136188381Y-113607810D01*
X136226477Y-113569714D01*
X136264572Y-113493524D01*
X136264572Y-113303048D01*
X136226477Y-113226857D01*
X136188381Y-113188762D01*
X136112191Y-113150667D01*
X135959810Y-113150667D01*
X135883619Y-113188762D01*
X135845524Y-113226857D01*
X135807429Y-113303048D01*
X145205524Y-115169905D02*
X145205524Y-114369905D01*
X145396000Y-114369905D01*
X145510286Y-114408000D01*
X145586477Y-114484190D01*
X145624572Y-114560381D01*
X145662667Y-114712762D01*
X145662667Y-114827048D01*
X145624572Y-114979429D01*
X145586477Y-115055619D01*
X145510286Y-115131810D01*
X145396000Y-115169905D01*
X145205524Y-115169905D01*
X146386477Y-114369905D02*
X146005524Y-114369905D01*
X145967429Y-114750857D01*
X146005524Y-114712762D01*
X146081715Y-114674667D01*
X146272191Y-114674667D01*
X146348381Y-114712762D01*
X146386477Y-114750857D01*
X146424572Y-114827048D01*
X146424572Y-115017524D01*
X146386477Y-115093714D01*
X146348381Y-115131810D01*
X146272191Y-115169905D01*
X146081715Y-115169905D01*
X146005524Y-115131810D01*
X145967429Y-115093714D01*
X137585524Y-117455905D02*
X137585524Y-116655905D01*
X137776000Y-116655905D01*
X137890286Y-116694000D01*
X137966477Y-116770190D01*
X138004572Y-116846381D01*
X138042667Y-116998762D01*
X138042667Y-117113048D01*
X138004572Y-117265429D01*
X137966477Y-117341619D01*
X137890286Y-117417810D01*
X137776000Y-117455905D01*
X137585524Y-117455905D01*
X138309334Y-116655905D02*
X138804572Y-116655905D01*
X138537905Y-116960667D01*
X138652191Y-116960667D01*
X138728381Y-116998762D01*
X138766477Y-117036857D01*
X138804572Y-117113048D01*
X138804572Y-117303524D01*
X138766477Y-117379714D01*
X138728381Y-117417810D01*
X138652191Y-117455905D01*
X138423619Y-117455905D01*
X138347429Y-117417810D01*
X138309334Y-117379714D01*
X120821524Y-117201905D02*
X120821524Y-116401905D01*
X121012000Y-116401905D01*
X121126286Y-116440000D01*
X121202477Y-116516190D01*
X121240572Y-116592381D01*
X121278667Y-116744762D01*
X121278667Y-116859048D01*
X121240572Y-117011429D01*
X121202477Y-117087619D01*
X121126286Y-117163810D01*
X121012000Y-117201905D01*
X120821524Y-117201905D01*
X121964381Y-116668571D02*
X121964381Y-117201905D01*
X121773905Y-116363810D02*
X121583429Y-116935238D01*
X122078667Y-116935238D01*
X115487524Y-121265905D02*
X115487524Y-120465905D01*
X115678000Y-120465905D01*
X115792286Y-120504000D01*
X115868477Y-120580190D01*
X115906572Y-120656381D01*
X115944667Y-120808762D01*
X115944667Y-120923048D01*
X115906572Y-121075429D01*
X115868477Y-121151619D01*
X115792286Y-121227810D01*
X115678000Y-121265905D01*
X115487524Y-121265905D01*
X116249429Y-120542095D02*
X116287524Y-120504000D01*
X116363715Y-120465905D01*
X116554191Y-120465905D01*
X116630381Y-120504000D01*
X116668477Y-120542095D01*
X116706572Y-120618286D01*
X116706572Y-120694476D01*
X116668477Y-120808762D01*
X116211334Y-121265905D01*
X116706572Y-121265905D01*
X132251524Y-120503905D02*
X132251524Y-119703905D01*
X132442000Y-119703905D01*
X132556286Y-119742000D01*
X132632477Y-119818190D01*
X132670572Y-119894381D01*
X132708667Y-120046762D01*
X132708667Y-120161048D01*
X132670572Y-120313429D01*
X132632477Y-120389619D01*
X132556286Y-120465810D01*
X132442000Y-120503905D01*
X132251524Y-120503905D01*
X133470572Y-120503905D02*
X133013429Y-120503905D01*
X133242000Y-120503905D02*
X133242000Y-119703905D01*
X133165810Y-119818190D01*
X133089619Y-119894381D01*
X133013429Y-119932476D01*
X134156571Y-147173905D02*
X134156571Y-146373905D01*
X134461333Y-146373905D01*
X134537524Y-146412000D01*
X134575619Y-146450095D01*
X134613714Y-146526286D01*
X134613714Y-146640571D01*
X134575619Y-146716762D01*
X134537524Y-146754857D01*
X134461333Y-146792952D01*
X134156571Y-146792952D01*
X135375619Y-147173905D02*
X134918476Y-147173905D01*
X135147047Y-147173905D02*
X135147047Y-146373905D01*
X135070857Y-146488190D01*
X134994666Y-146564381D01*
X134918476Y-146602476D01*
X135680381Y-146450095D02*
X135718476Y-146412000D01*
X135794667Y-146373905D01*
X135985143Y-146373905D01*
X136061333Y-146412000D01*
X136099429Y-146450095D01*
X136137524Y-146526286D01*
X136137524Y-146602476D01*
X136099429Y-146716762D01*
X135642286Y-147173905D01*
X136137524Y-147173905D01*
X143300571Y-147173905D02*
X143300571Y-146373905D01*
X143605333Y-146373905D01*
X143681524Y-146412000D01*
X143719619Y-146450095D01*
X143757714Y-146526286D01*
X143757714Y-146640571D01*
X143719619Y-146716762D01*
X143681524Y-146754857D01*
X143605333Y-146792952D01*
X143300571Y-146792952D01*
X144519619Y-147173905D02*
X144062476Y-147173905D01*
X144291047Y-147173905D02*
X144291047Y-146373905D01*
X144214857Y-146488190D01*
X144138666Y-146564381D01*
X144062476Y-146602476D01*
X145281524Y-147173905D02*
X144824381Y-147173905D01*
X145052952Y-147173905D02*
X145052952Y-146373905D01*
X144976762Y-146488190D01*
X144900571Y-146564381D01*
X144824381Y-146602476D01*
X137521905Y-106762476D02*
X136721905Y-106762476D01*
X136721905Y-106457714D01*
X136760000Y-106381523D01*
X136798095Y-106343428D01*
X136874286Y-106305333D01*
X136988571Y-106305333D01*
X137064762Y-106343428D01*
X137102857Y-106381523D01*
X137140952Y-106457714D01*
X137140952Y-106762476D01*
X136721905Y-105619619D02*
X136721905Y-105772000D01*
X136760000Y-105848190D01*
X136798095Y-105886285D01*
X136912381Y-105962476D01*
X137064762Y-106000571D01*
X137369524Y-106000571D01*
X137445714Y-105962476D01*
X137483810Y-105924381D01*
X137521905Y-105848190D01*
X137521905Y-105695809D01*
X137483810Y-105619619D01*
X137445714Y-105581523D01*
X137369524Y-105543428D01*
X137179048Y-105543428D01*
X137102857Y-105581523D01*
X137064762Y-105619619D01*
X137026667Y-105695809D01*
X137026667Y-105848190D01*
X137064762Y-105924381D01*
X137102857Y-105962476D01*
X137179048Y-106000571D01*
X123805905Y-106762476D02*
X123005905Y-106762476D01*
X123005905Y-106457714D01*
X123044000Y-106381523D01*
X123082095Y-106343428D01*
X123158286Y-106305333D01*
X123272571Y-106305333D01*
X123348762Y-106343428D01*
X123386857Y-106381523D01*
X123424952Y-106457714D01*
X123424952Y-106762476D01*
X123005905Y-106038666D02*
X123005905Y-105505333D01*
X123805905Y-105848190D01*
X137566476Y-138753905D02*
X137566476Y-139401524D01*
X137604571Y-139477714D01*
X137642667Y-139515810D01*
X137718857Y-139553905D01*
X137871238Y-139553905D01*
X137947429Y-139515810D01*
X137985524Y-139477714D01*
X138023619Y-139401524D01*
X138023619Y-138753905D01*
X138823619Y-139553905D02*
X138366476Y-139553905D01*
X138595047Y-139553905D02*
X138595047Y-138753905D01*
X138518857Y-138868190D01*
X138442666Y-138944381D01*
X138366476Y-138982476D01*
X118262476Y-130371905D02*
X118262476Y-131019524D01*
X118300571Y-131095714D01*
X118338667Y-131133810D01*
X118414857Y-131171905D01*
X118567238Y-131171905D01*
X118643429Y-131133810D01*
X118681524Y-131095714D01*
X118719619Y-131019524D01*
X118719619Y-130371905D01*
X119443428Y-130638571D02*
X119443428Y-131171905D01*
X119252952Y-130333810D02*
X119062476Y-130905238D01*
X119557714Y-130905238D01*
X116249524Y-112629905D02*
X116249524Y-111829905D01*
X116554286Y-111829905D01*
X116630477Y-111868000D01*
X116668572Y-111906095D01*
X116706667Y-111982286D01*
X116706667Y-112096571D01*
X116668572Y-112172762D01*
X116630477Y-112210857D01*
X116554286Y-112248952D01*
X116249524Y-112248952D01*
X117430477Y-111829905D02*
X117049524Y-111829905D01*
X117011429Y-112210857D01*
X117049524Y-112172762D01*
X117125715Y-112134667D01*
X117316191Y-112134667D01*
X117392381Y-112172762D01*
X117430477Y-112210857D01*
X117468572Y-112287048D01*
X117468572Y-112477524D01*
X117430477Y-112553714D01*
X117392381Y-112591810D01*
X117316191Y-112629905D01*
X117125715Y-112629905D01*
X117049524Y-112591810D01*
X117011429Y-112553714D01*
D11*
X115768572Y-110768381D02*
X115768572Y-109768381D01*
X116101906Y-110482667D01*
X116435239Y-109768381D01*
X116435239Y-110768381D01*
X116911429Y-110768381D02*
X116911429Y-109768381D01*
X117387619Y-110768381D02*
X117387619Y-109768381D01*
X117625714Y-109768381D01*
X117768572Y-109816000D01*
X117863810Y-109911238D01*
X117911429Y-110006476D01*
X117959048Y-110196952D01*
X117959048Y-110339810D01*
X117911429Y-110530286D01*
X117863810Y-110625524D01*
X117768572Y-110720762D01*
X117625714Y-110768381D01*
X117387619Y-110768381D01*
X115816191Y-104608381D02*
X116387620Y-104608381D01*
X116101905Y-105608381D02*
X116101905Y-104608381D01*
X116720953Y-105608381D02*
X116720953Y-104608381D01*
X117197143Y-105608381D02*
X117197143Y-104608381D01*
X117578096Y-104608381D01*
X117673334Y-104656000D01*
X117720953Y-104703619D01*
X117768572Y-104798857D01*
X117768572Y-104941714D01*
X117720953Y-105036952D01*
X117673334Y-105084571D01*
X117578096Y-105132190D01*
X117197143Y-105132190D01*
X115840000Y-100508381D02*
X116030477Y-100508381D01*
X116125715Y-100556000D01*
X116220953Y-100651238D01*
X116268572Y-100841714D01*
X116268572Y-101175048D01*
X116220953Y-101365524D01*
X116125715Y-101460762D01*
X116030477Y-101508381D01*
X115840000Y-101508381D01*
X115744762Y-101460762D01*
X115649524Y-101365524D01*
X115601905Y-101175048D01*
X115601905Y-100841714D01*
X115649524Y-100651238D01*
X115744762Y-100556000D01*
X115840000Y-100508381D01*
X116697143Y-100508381D02*
X116697143Y-101317905D01*
X116744762Y-101413143D01*
X116792381Y-101460762D01*
X116887619Y-101508381D01*
X117078096Y-101508381D01*
X117173334Y-101460762D01*
X117220953Y-101413143D01*
X117268572Y-101317905D01*
X117268572Y-100508381D01*
X117601905Y-100508381D02*
X118173334Y-100508381D01*
X117887619Y-101508381D02*
X117887619Y-100508381D01*
D12*
X105073524Y-112629905D02*
X105073524Y-111829905D01*
X105378286Y-111829905D01*
X105454477Y-111868000D01*
X105492572Y-111906095D01*
X105530667Y-111982286D01*
X105530667Y-112096571D01*
X105492572Y-112172762D01*
X105454477Y-112210857D01*
X105378286Y-112248952D01*
X105073524Y-112248952D01*
X106216381Y-112096571D02*
X106216381Y-112629905D01*
X106025905Y-111791810D02*
X105835429Y-112363238D01*
X106330667Y-112363238D01*
D11*
X104592572Y-110768381D02*
X104592572Y-109768381D01*
X104925906Y-110482667D01*
X105259239Y-109768381D01*
X105259239Y-110768381D01*
X105735429Y-110768381D02*
X105735429Y-109768381D01*
X106211619Y-110768381D02*
X106211619Y-109768381D01*
X106449714Y-109768381D01*
X106592572Y-109816000D01*
X106687810Y-109911238D01*
X106735429Y-110006476D01*
X106783048Y-110196952D01*
X106783048Y-110339810D01*
X106735429Y-110530286D01*
X106687810Y-110625524D01*
X106592572Y-110720762D01*
X106449714Y-110768381D01*
X106211619Y-110768381D01*
X104640191Y-104608381D02*
X105211620Y-104608381D01*
X104925905Y-105608381D02*
X104925905Y-104608381D01*
X105544953Y-105608381D02*
X105544953Y-104608381D01*
X106021143Y-105608381D02*
X106021143Y-104608381D01*
X106402096Y-104608381D01*
X106497334Y-104656000D01*
X106544953Y-104703619D01*
X106592572Y-104798857D01*
X106592572Y-104941714D01*
X106544953Y-105036952D01*
X106497334Y-105084571D01*
X106402096Y-105132190D01*
X106021143Y-105132190D01*
X104664000Y-100508381D02*
X104854477Y-100508381D01*
X104949715Y-100556000D01*
X105044953Y-100651238D01*
X105092572Y-100841714D01*
X105092572Y-101175048D01*
X105044953Y-101365524D01*
X104949715Y-101460762D01*
X104854477Y-101508381D01*
X104664000Y-101508381D01*
X104568762Y-101460762D01*
X104473524Y-101365524D01*
X104425905Y-101175048D01*
X104425905Y-100841714D01*
X104473524Y-100651238D01*
X104568762Y-100556000D01*
X104664000Y-100508381D01*
X105521143Y-100508381D02*
X105521143Y-101317905D01*
X105568762Y-101413143D01*
X105616381Y-101460762D01*
X105711619Y-101508381D01*
X105902096Y-101508381D01*
X105997334Y-101460762D01*
X106044953Y-101413143D01*
X106092572Y-101317905D01*
X106092572Y-100508381D01*
X106425905Y-100508381D02*
X106997334Y-100508381D01*
X106711619Y-101508381D02*
X106711619Y-100508381D01*
D12*
X143154476Y-122243905D02*
X143154476Y-122891524D01*
X143192571Y-122967714D01*
X143230667Y-123005810D01*
X143306857Y-123043905D01*
X143459238Y-123043905D01*
X143535429Y-123005810D01*
X143573524Y-122967714D01*
X143611619Y-122891524D01*
X143611619Y-122243905D01*
X143954476Y-122320095D02*
X143992571Y-122282000D01*
X144068762Y-122243905D01*
X144259238Y-122243905D01*
X144335428Y-122282000D01*
X144373524Y-122320095D01*
X144411619Y-122396286D01*
X144411619Y-122472476D01*
X144373524Y-122586762D01*
X143916381Y-123043905D01*
X144411619Y-123043905D01*
X126390476Y-122243905D02*
X126390476Y-122891524D01*
X126428571Y-122967714D01*
X126466667Y-123005810D01*
X126542857Y-123043905D01*
X126695238Y-123043905D01*
X126771429Y-123005810D01*
X126809524Y-122967714D01*
X126847619Y-122891524D01*
X126847619Y-122243905D01*
X127152381Y-122243905D02*
X127647619Y-122243905D01*
X127380952Y-122548667D01*
X127495238Y-122548667D01*
X127571428Y-122586762D01*
X127609524Y-122624857D01*
X127647619Y-122701048D01*
X127647619Y-122891524D01*
X127609524Y-122967714D01*
X127571428Y-123005810D01*
X127495238Y-123043905D01*
X127266666Y-123043905D01*
X127190476Y-123005810D01*
X127152381Y-122967714D01*
X140582667Y-133381714D02*
X140544572Y-133419810D01*
X140430286Y-133457905D01*
X140354096Y-133457905D01*
X140239810Y-133419810D01*
X140163619Y-133343619D01*
X140125524Y-133267429D01*
X140087429Y-133115048D01*
X140087429Y-133000762D01*
X140125524Y-132848381D01*
X140163619Y-132772190D01*
X140239810Y-132696000D01*
X140354096Y-132657905D01*
X140430286Y-132657905D01*
X140544572Y-132696000D01*
X140582667Y-132734095D01*
X141344572Y-133457905D02*
X140887429Y-133457905D01*
X141116000Y-133457905D02*
X141116000Y-132657905D01*
X141039810Y-132772190D01*
X140963619Y-132848381D01*
X140887429Y-132886476D01*
X149637714Y-121545333D02*
X149675810Y-121583428D01*
X149713905Y-121697714D01*
X149713905Y-121773904D01*
X149675810Y-121888190D01*
X149599619Y-121964381D01*
X149523429Y-122002476D01*
X149371048Y-122040571D01*
X149256762Y-122040571D01*
X149104381Y-122002476D01*
X149028190Y-121964381D01*
X148952000Y-121888190D01*
X148913905Y-121773904D01*
X148913905Y-121697714D01*
X148952000Y-121583428D01*
X148990095Y-121545333D01*
X148990095Y-121240571D02*
X148952000Y-121202476D01*
X148913905Y-121126285D01*
X148913905Y-120935809D01*
X148952000Y-120859619D01*
X148990095Y-120821523D01*
X149066286Y-120783428D01*
X149142476Y-120783428D01*
X149256762Y-120821523D01*
X149713905Y-121278666D01*
X149713905Y-120783428D01*
X132708667Y-121697714D02*
X132670572Y-121735810D01*
X132556286Y-121773905D01*
X132480096Y-121773905D01*
X132365810Y-121735810D01*
X132289619Y-121659619D01*
X132251524Y-121583429D01*
X132213429Y-121431048D01*
X132213429Y-121316762D01*
X132251524Y-121164381D01*
X132289619Y-121088190D01*
X132365810Y-121012000D01*
X132480096Y-120973905D01*
X132556286Y-120973905D01*
X132670572Y-121012000D01*
X132708667Y-121050095D01*
X132975334Y-120973905D02*
X133470572Y-120973905D01*
X133203905Y-121278667D01*
X133318191Y-121278667D01*
X133394381Y-121316762D01*
X133432477Y-121354857D01*
X133470572Y-121431048D01*
X133470572Y-121621524D01*
X133432477Y-121697714D01*
X133394381Y-121735810D01*
X133318191Y-121773905D01*
X133089619Y-121773905D01*
X133013429Y-121735810D01*
X132975334Y-121697714D01*
X145154667Y-116363714D02*
X145116572Y-116401810D01*
X145002286Y-116439905D01*
X144926096Y-116439905D01*
X144811810Y-116401810D01*
X144735619Y-116325619D01*
X144697524Y-116249429D01*
X144659429Y-116097048D01*
X144659429Y-115982762D01*
X144697524Y-115830381D01*
X144735619Y-115754190D01*
X144811810Y-115678000D01*
X144926096Y-115639905D01*
X145002286Y-115639905D01*
X145116572Y-115678000D01*
X145154667Y-115716095D01*
X145840381Y-115906571D02*
X145840381Y-116439905D01*
X145649905Y-115601810D02*
X145459429Y-116173238D01*
X145954667Y-116173238D01*
X128390667Y-115601714D02*
X128352572Y-115639810D01*
X128238286Y-115677905D01*
X128162096Y-115677905D01*
X128047810Y-115639810D01*
X127971619Y-115563619D01*
X127933524Y-115487429D01*
X127895429Y-115335048D01*
X127895429Y-115220762D01*
X127933524Y-115068381D01*
X127971619Y-114992190D01*
X128047810Y-114916000D01*
X128162096Y-114877905D01*
X128238286Y-114877905D01*
X128352572Y-114916000D01*
X128390667Y-114954095D01*
X129114477Y-114877905D02*
X128733524Y-114877905D01*
X128695429Y-115258857D01*
X128733524Y-115220762D01*
X128809715Y-115182667D01*
X129000191Y-115182667D01*
X129076381Y-115220762D01*
X129114477Y-115258857D01*
X129152572Y-115335048D01*
X129152572Y-115525524D01*
X129114477Y-115601714D01*
X129076381Y-115639810D01*
X129000191Y-115677905D01*
X128809715Y-115677905D01*
X128733524Y-115639810D01*
X128695429Y-115601714D01*
X149637714Y-114433333D02*
X149675810Y-114471428D01*
X149713905Y-114585714D01*
X149713905Y-114661904D01*
X149675810Y-114776190D01*
X149599619Y-114852381D01*
X149523429Y-114890476D01*
X149371048Y-114928571D01*
X149256762Y-114928571D01*
X149104381Y-114890476D01*
X149028190Y-114852381D01*
X148952000Y-114776190D01*
X148913905Y-114661904D01*
X148913905Y-114585714D01*
X148952000Y-114471428D01*
X148990095Y-114433333D01*
X148913905Y-113747619D02*
X148913905Y-113900000D01*
X148952000Y-113976190D01*
X148990095Y-114014285D01*
X149104381Y-114090476D01*
X149256762Y-114128571D01*
X149561524Y-114128571D01*
X149637714Y-114090476D01*
X149675810Y-114052381D01*
X149713905Y-113976190D01*
X149713905Y-113823809D01*
X149675810Y-113747619D01*
X149637714Y-113709523D01*
X149561524Y-113671428D01*
X149371048Y-113671428D01*
X149294857Y-113709523D01*
X149256762Y-113747619D01*
X149218667Y-113823809D01*
X149218667Y-113976190D01*
X149256762Y-114052381D01*
X149294857Y-114090476D01*
X149371048Y-114128571D01*
X135502667Y-101377714D02*
X135464572Y-101415810D01*
X135350286Y-101453905D01*
X135274096Y-101453905D01*
X135159810Y-101415810D01*
X135083619Y-101339619D01*
X135045524Y-101263429D01*
X135007429Y-101111048D01*
X135007429Y-100996762D01*
X135045524Y-100844381D01*
X135083619Y-100768190D01*
X135159810Y-100692000D01*
X135274096Y-100653905D01*
X135350286Y-100653905D01*
X135464572Y-100692000D01*
X135502667Y-100730095D01*
X135769334Y-100653905D02*
X136302667Y-100653905D01*
X135959810Y-101453905D01*
X118738667Y-137445714D02*
X118700572Y-137483810D01*
X118586286Y-137521905D01*
X118510096Y-137521905D01*
X118395810Y-137483810D01*
X118319619Y-137407619D01*
X118281524Y-137331429D01*
X118243429Y-137179048D01*
X118243429Y-137064762D01*
X118281524Y-136912381D01*
X118319619Y-136836190D01*
X118395810Y-136760000D01*
X118510096Y-136721905D01*
X118586286Y-136721905D01*
X118700572Y-136760000D01*
X118738667Y-136798095D01*
X119195810Y-137064762D02*
X119119619Y-137026667D01*
X119081524Y-136988571D01*
X119043429Y-136912381D01*
X119043429Y-136874286D01*
X119081524Y-136798095D01*
X119119619Y-136760000D01*
X119195810Y-136721905D01*
X119348191Y-136721905D01*
X119424381Y-136760000D01*
X119462477Y-136798095D01*
X119500572Y-136874286D01*
X119500572Y-136912381D01*
X119462477Y-136988571D01*
X119424381Y-137026667D01*
X119348191Y-137064762D01*
X119195810Y-137064762D01*
X119119619Y-137102857D01*
X119081524Y-137140952D01*
X119043429Y-137217143D01*
X119043429Y-137369524D01*
X119081524Y-137445714D01*
X119119619Y-137483810D01*
X119195810Y-137521905D01*
X119348191Y-137521905D01*
X119424381Y-137483810D01*
X119462477Y-137445714D01*
X119500572Y-137369524D01*
X119500572Y-137217143D01*
X119462477Y-137140952D01*
X119424381Y-137102857D01*
X119348191Y-137064762D01*
X138537905Y-124847333D02*
X138156952Y-125114000D01*
X138537905Y-125304476D02*
X137737905Y-125304476D01*
X137737905Y-124999714D01*
X137776000Y-124923523D01*
X137814095Y-124885428D01*
X137890286Y-124847333D01*
X138004571Y-124847333D01*
X138080762Y-124885428D01*
X138118857Y-124923523D01*
X138156952Y-124999714D01*
X138156952Y-125304476D01*
X138537905Y-124466381D02*
X138537905Y-124314000D01*
X138499810Y-124237809D01*
X138461714Y-124199714D01*
X138347429Y-124123523D01*
X138195048Y-124085428D01*
X137890286Y-124085428D01*
X137814095Y-124123523D01*
X137776000Y-124161619D01*
X137737905Y-124237809D01*
X137737905Y-124390190D01*
X137776000Y-124466381D01*
X137814095Y-124504476D01*
X137890286Y-124542571D01*
X138080762Y-124542571D01*
X138156952Y-124504476D01*
X138195048Y-124466381D01*
X138233143Y-124390190D01*
X138233143Y-124237809D01*
X138195048Y-124161619D01*
X138156952Y-124123523D01*
X138080762Y-124085428D01*
X147681905Y-128149333D02*
X147300952Y-128416000D01*
X147681905Y-128606476D02*
X146881905Y-128606476D01*
X146881905Y-128301714D01*
X146920000Y-128225523D01*
X146958095Y-128187428D01*
X147034286Y-128149333D01*
X147148571Y-128149333D01*
X147224762Y-128187428D01*
X147262857Y-128225523D01*
X147300952Y-128301714D01*
X147300952Y-128606476D01*
X146881905Y-127463619D02*
X146881905Y-127616000D01*
X146920000Y-127692190D01*
X146958095Y-127730285D01*
X147072381Y-127806476D01*
X147224762Y-127844571D01*
X147529524Y-127844571D01*
X147605714Y-127806476D01*
X147643810Y-127768381D01*
X147681905Y-127692190D01*
X147681905Y-127539809D01*
X147643810Y-127463619D01*
X147605714Y-127425523D01*
X147529524Y-127387428D01*
X147339048Y-127387428D01*
X147262857Y-127425523D01*
X147224762Y-127463619D01*
X147186667Y-127539809D01*
X147186667Y-127692190D01*
X147224762Y-127768381D01*
X147262857Y-127806476D01*
X147339048Y-127844571D01*
X121773905Y-125482286D02*
X121392952Y-125748953D01*
X121773905Y-125939429D02*
X120973905Y-125939429D01*
X120973905Y-125634667D01*
X121012000Y-125558476D01*
X121050095Y-125520381D01*
X121126286Y-125482286D01*
X121240571Y-125482286D01*
X121316762Y-125520381D01*
X121354857Y-125558476D01*
X121392952Y-125634667D01*
X121392952Y-125939429D01*
X121773905Y-124720381D02*
X121773905Y-125177524D01*
X121773905Y-124948953D02*
X120973905Y-124948953D01*
X121088190Y-125025143D01*
X121164381Y-125101334D01*
X121202476Y-125177524D01*
X121773905Y-123958476D02*
X121773905Y-124415619D01*
X121773905Y-124187048D02*
X120973905Y-124187048D01*
X121088190Y-124263238D01*
X121164381Y-124339429D01*
X121202476Y-124415619D01*
X130917905Y-128149333D02*
X130536952Y-128416000D01*
X130917905Y-128606476D02*
X130117905Y-128606476D01*
X130117905Y-128301714D01*
X130156000Y-128225523D01*
X130194095Y-128187428D01*
X130270286Y-128149333D01*
X130384571Y-128149333D01*
X130460762Y-128187428D01*
X130498857Y-128225523D01*
X130536952Y-128301714D01*
X130536952Y-128606476D01*
X130460762Y-127692190D02*
X130422667Y-127768381D01*
X130384571Y-127806476D01*
X130308381Y-127844571D01*
X130270286Y-127844571D01*
X130194095Y-127806476D01*
X130156000Y-127768381D01*
X130117905Y-127692190D01*
X130117905Y-127539809D01*
X130156000Y-127463619D01*
X130194095Y-127425523D01*
X130270286Y-127387428D01*
X130308381Y-127387428D01*
X130384571Y-127425523D01*
X130422667Y-127463619D01*
X130460762Y-127539809D01*
X130460762Y-127692190D01*
X130498857Y-127768381D01*
X130536952Y-127806476D01*
X130613143Y-127844571D01*
X130765524Y-127844571D01*
X130841714Y-127806476D01*
X130879810Y-127768381D01*
X130917905Y-127692190D01*
X130917905Y-127539809D01*
X130879810Y-127463619D01*
X130841714Y-127425523D01*
X130765524Y-127387428D01*
X130613143Y-127387428D01*
X130536952Y-127425523D01*
X130498857Y-127463619D01*
X130460762Y-127539809D01*
X138537905Y-128149333D02*
X138156952Y-128416000D01*
X138537905Y-128606476D02*
X137737905Y-128606476D01*
X137737905Y-128301714D01*
X137776000Y-128225523D01*
X137814095Y-128187428D01*
X137890286Y-128149333D01*
X138004571Y-128149333D01*
X138080762Y-128187428D01*
X138118857Y-128225523D01*
X138156952Y-128301714D01*
X138156952Y-128606476D01*
X137737905Y-127425523D02*
X137737905Y-127806476D01*
X138118857Y-127844571D01*
X138080762Y-127806476D01*
X138042667Y-127730285D01*
X138042667Y-127539809D01*
X138080762Y-127463619D01*
X138118857Y-127425523D01*
X138195048Y-127387428D01*
X138385524Y-127387428D01*
X138461714Y-127425523D01*
X138499810Y-127463619D01*
X138537905Y-127539809D01*
X138537905Y-127730285D01*
X138499810Y-127806476D01*
X138461714Y-127844571D01*
X147681905Y-124974286D02*
X147300952Y-125240953D01*
X147681905Y-125431429D02*
X146881905Y-125431429D01*
X146881905Y-125126667D01*
X146920000Y-125050476D01*
X146958095Y-125012381D01*
X147034286Y-124974286D01*
X147148571Y-124974286D01*
X147224762Y-125012381D01*
X147262857Y-125050476D01*
X147300952Y-125126667D01*
X147300952Y-125431429D01*
X147681905Y-124212381D02*
X147681905Y-124669524D01*
X147681905Y-124440953D02*
X146881905Y-124440953D01*
X146996190Y-124517143D01*
X147072381Y-124593334D01*
X147110476Y-124669524D01*
X146881905Y-123717143D02*
X146881905Y-123640952D01*
X146920000Y-123564762D01*
X146958095Y-123526667D01*
X147034286Y-123488571D01*
X147186667Y-123450476D01*
X147377143Y-123450476D01*
X147529524Y-123488571D01*
X147605714Y-123526667D01*
X147643810Y-123564762D01*
X147681905Y-123640952D01*
X147681905Y-123717143D01*
X147643810Y-123793333D01*
X147605714Y-123831429D01*
X147529524Y-123869524D01*
X147377143Y-123907619D01*
X147186667Y-123907619D01*
X147034286Y-123869524D01*
X146958095Y-123831429D01*
X146920000Y-123793333D01*
X146881905Y-123717143D01*
X121773905Y-128149333D02*
X121392952Y-128416000D01*
X121773905Y-128606476D02*
X120973905Y-128606476D01*
X120973905Y-128301714D01*
X121012000Y-128225523D01*
X121050095Y-128187428D01*
X121126286Y-128149333D01*
X121240571Y-128149333D01*
X121316762Y-128187428D01*
X121354857Y-128225523D01*
X121392952Y-128301714D01*
X121392952Y-128606476D01*
X120973905Y-127882666D02*
X120973905Y-127349333D01*
X121773905Y-127692190D01*
X130917905Y-124974286D02*
X130536952Y-125240953D01*
X130917905Y-125431429D02*
X130117905Y-125431429D01*
X130117905Y-125126667D01*
X130156000Y-125050476D01*
X130194095Y-125012381D01*
X130270286Y-124974286D01*
X130384571Y-124974286D01*
X130460762Y-125012381D01*
X130498857Y-125050476D01*
X130536952Y-125126667D01*
X130536952Y-125431429D01*
X130917905Y-124212381D02*
X130917905Y-124669524D01*
X130917905Y-124440953D02*
X130117905Y-124440953D01*
X130232190Y-124517143D01*
X130308381Y-124593334D01*
X130346476Y-124669524D01*
X130194095Y-123907619D02*
X130156000Y-123869524D01*
X130117905Y-123793333D01*
X130117905Y-123602857D01*
X130156000Y-123526667D01*
X130194095Y-123488571D01*
X130270286Y-123450476D01*
X130346476Y-123450476D01*
X130460762Y-123488571D01*
X130917905Y-123945714D01*
X130917905Y-123450476D01*
X149713905Y-118370286D02*
X149332952Y-118636953D01*
X149713905Y-118827429D02*
X148913905Y-118827429D01*
X148913905Y-118522667D01*
X148952000Y-118446476D01*
X148990095Y-118408381D01*
X149066286Y-118370286D01*
X149180571Y-118370286D01*
X149256762Y-118408381D01*
X149294857Y-118446476D01*
X149332952Y-118522667D01*
X149332952Y-118827429D01*
X149713905Y-117608381D02*
X149713905Y-118065524D01*
X149713905Y-117836953D02*
X148913905Y-117836953D01*
X149028190Y-117913143D01*
X149104381Y-117989334D01*
X149142476Y-118065524D01*
X148913905Y-117341714D02*
X148913905Y-116846476D01*
X149218667Y-117113143D01*
X149218667Y-116998857D01*
X149256762Y-116922667D01*
X149294857Y-116884571D01*
X149371048Y-116846476D01*
X149561524Y-116846476D01*
X149637714Y-116884571D01*
X149675810Y-116922667D01*
X149713905Y-116998857D01*
X149713905Y-117227429D01*
X149675810Y-117303619D01*
X149637714Y-117341714D01*
X132949905Y-118370286D02*
X132568952Y-118636953D01*
X132949905Y-118827429D02*
X132149905Y-118827429D01*
X132149905Y-118522667D01*
X132188000Y-118446476D01*
X132226095Y-118408381D01*
X132302286Y-118370286D01*
X132416571Y-118370286D01*
X132492762Y-118408381D01*
X132530857Y-118446476D01*
X132568952Y-118522667D01*
X132568952Y-118827429D01*
X132949905Y-117608381D02*
X132949905Y-118065524D01*
X132949905Y-117836953D02*
X132149905Y-117836953D01*
X132264190Y-117913143D01*
X132340381Y-117989334D01*
X132378476Y-118065524D01*
X132416571Y-116922667D02*
X132949905Y-116922667D01*
X132111810Y-117113143D02*
X132683238Y-117303619D01*
X132683238Y-116808381D01*
X133965905Y-118878286D02*
X133584952Y-119144953D01*
X133965905Y-119335429D02*
X133165905Y-119335429D01*
X133165905Y-119030667D01*
X133204000Y-118954476D01*
X133242095Y-118916381D01*
X133318286Y-118878286D01*
X133432571Y-118878286D01*
X133508762Y-118916381D01*
X133546857Y-118954476D01*
X133584952Y-119030667D01*
X133584952Y-119335429D01*
X133965905Y-118116381D02*
X133965905Y-118573524D01*
X133965905Y-118344953D02*
X133165905Y-118344953D01*
X133280190Y-118421143D01*
X133356381Y-118497334D01*
X133394476Y-118573524D01*
X133165905Y-117392571D02*
X133165905Y-117773524D01*
X133546857Y-117811619D01*
X133508762Y-117773524D01*
X133470667Y-117697333D01*
X133470667Y-117506857D01*
X133508762Y-117430667D01*
X133546857Y-117392571D01*
X133623048Y-117354476D01*
X133813524Y-117354476D01*
X133889714Y-117392571D01*
X133927810Y-117430667D01*
X133965905Y-117506857D01*
X133965905Y-117697333D01*
X133927810Y-117773524D01*
X133889714Y-117811619D01*
X115563714Y-118725905D02*
X115297047Y-118344952D01*
X115106571Y-118725905D02*
X115106571Y-117925905D01*
X115411333Y-117925905D01*
X115487524Y-117964000D01*
X115525619Y-118002095D01*
X115563714Y-118078286D01*
X115563714Y-118192571D01*
X115525619Y-118268762D01*
X115487524Y-118306857D01*
X115411333Y-118344952D01*
X115106571Y-118344952D01*
X116325619Y-118725905D02*
X115868476Y-118725905D01*
X116097047Y-118725905D02*
X116097047Y-117925905D01*
X116020857Y-118040190D01*
X115944666Y-118116381D01*
X115868476Y-118154476D01*
X117011333Y-117925905D02*
X116858952Y-117925905D01*
X116782762Y-117964000D01*
X116744667Y-118002095D01*
X116668476Y-118116381D01*
X116630381Y-118268762D01*
X116630381Y-118573524D01*
X116668476Y-118649714D01*
X116706571Y-118687810D01*
X116782762Y-118725905D01*
X116935143Y-118725905D01*
X117011333Y-118687810D01*
X117049429Y-118649714D01*
X117087524Y-118573524D01*
X117087524Y-118383048D01*
X117049429Y-118306857D01*
X117011333Y-118268762D01*
X116935143Y-118230667D01*
X116782762Y-118230667D01*
X116706571Y-118268762D01*
X116668476Y-118306857D01*
X116630381Y-118383048D01*
X130549714Y-115677905D02*
X130283047Y-115296952D01*
X130092571Y-115677905D02*
X130092571Y-114877905D01*
X130397333Y-114877905D01*
X130473524Y-114916000D01*
X130511619Y-114954095D01*
X130549714Y-115030286D01*
X130549714Y-115144571D01*
X130511619Y-115220762D01*
X130473524Y-115258857D01*
X130397333Y-115296952D01*
X130092571Y-115296952D01*
X131311619Y-115677905D02*
X130854476Y-115677905D01*
X131083047Y-115677905D02*
X131083047Y-114877905D01*
X131006857Y-114992190D01*
X130930666Y-115068381D01*
X130854476Y-115106476D01*
X131578286Y-114877905D02*
X132111619Y-114877905D01*
X131768762Y-115677905D01*
X116833714Y-114153905D02*
X116567047Y-113772952D01*
X116376571Y-114153905D02*
X116376571Y-113353905D01*
X116681333Y-113353905D01*
X116757524Y-113392000D01*
X116795619Y-113430095D01*
X116833714Y-113506286D01*
X116833714Y-113620571D01*
X116795619Y-113696762D01*
X116757524Y-113734857D01*
X116681333Y-113772952D01*
X116376571Y-113772952D01*
X117595619Y-114153905D02*
X117138476Y-114153905D01*
X117367047Y-114153905D02*
X117367047Y-113353905D01*
X117290857Y-113468190D01*
X117214666Y-113544381D01*
X117138476Y-113582476D01*
X118052762Y-113696762D02*
X117976571Y-113658667D01*
X117938476Y-113620571D01*
X117900381Y-113544381D01*
X117900381Y-113506286D01*
X117938476Y-113430095D01*
X117976571Y-113392000D01*
X118052762Y-113353905D01*
X118205143Y-113353905D01*
X118281333Y-113392000D01*
X118319429Y-113430095D01*
X118357524Y-113506286D01*
X118357524Y-113544381D01*
X118319429Y-113620571D01*
X118281333Y-113658667D01*
X118205143Y-113696762D01*
X118052762Y-113696762D01*
X117976571Y-113734857D01*
X117938476Y-113772952D01*
X117900381Y-113849143D01*
X117900381Y-114001524D01*
X117938476Y-114077714D01*
X117976571Y-114115810D01*
X118052762Y-114153905D01*
X118205143Y-114153905D01*
X118281333Y-114115810D01*
X118319429Y-114077714D01*
X118357524Y-114001524D01*
X118357524Y-113849143D01*
X118319429Y-113772952D01*
X118281333Y-113734857D01*
X118205143Y-113696762D01*
X124059905Y-137674286D02*
X123678952Y-137940953D01*
X124059905Y-138131429D02*
X123259905Y-138131429D01*
X123259905Y-137826667D01*
X123298000Y-137750476D01*
X123336095Y-137712381D01*
X123412286Y-137674286D01*
X123526571Y-137674286D01*
X123602762Y-137712381D01*
X123640857Y-137750476D01*
X123678952Y-137826667D01*
X123678952Y-138131429D01*
X124059905Y-136912381D02*
X124059905Y-137369524D01*
X124059905Y-137140953D02*
X123259905Y-137140953D01*
X123374190Y-137217143D01*
X123450381Y-137293334D01*
X123488476Y-137369524D01*
X124059905Y-136531429D02*
X124059905Y-136379048D01*
X124021810Y-136302857D01*
X123983714Y-136264762D01*
X123869429Y-136188571D01*
X123717048Y-136150476D01*
X123412286Y-136150476D01*
X123336095Y-136188571D01*
X123298000Y-136226667D01*
X123259905Y-136302857D01*
X123259905Y-136455238D01*
X123298000Y-136531429D01*
X123336095Y-136569524D01*
X123412286Y-136607619D01*
X123602762Y-136607619D01*
X123678952Y-136569524D01*
X123717048Y-136531429D01*
X123755143Y-136455238D01*
X123755143Y-136302857D01*
X123717048Y-136226667D01*
X123678952Y-136188571D01*
X123602762Y-136150476D01*
D11*
X128849381Y-143486095D02*
X127849381Y-143486095D01*
X127849381Y-143105142D01*
X127897000Y-143009904D01*
X127944619Y-142962285D01*
X128039857Y-142914666D01*
X128182714Y-142914666D01*
X128277952Y-142962285D01*
X128325571Y-143009904D01*
X128373190Y-143105142D01*
X128373190Y-143486095D01*
X127849381Y-142581333D02*
X127849381Y-141962285D01*
X128230333Y-142295619D01*
X128230333Y-142152761D01*
X128277952Y-142057523D01*
X128325571Y-142009904D01*
X128420810Y-141962285D01*
X128658905Y-141962285D01*
X128754143Y-142009904D01*
X128801762Y-142057523D01*
X128849381Y-142152761D01*
X128849381Y-142438476D01*
X128801762Y-142533714D01*
X128754143Y-142581333D01*
D12*
X109327905Y-115906476D02*
X108527905Y-115906476D01*
X108527905Y-115601714D01*
X108566000Y-115525523D01*
X108604095Y-115487428D01*
X108680286Y-115449333D01*
X108794571Y-115449333D01*
X108870762Y-115487428D01*
X108908857Y-115525523D01*
X108946952Y-115601714D01*
X108946952Y-115906476D01*
X108604095Y-115144571D02*
X108566000Y-115106476D01*
X108527905Y-115030285D01*
X108527905Y-114839809D01*
X108566000Y-114763619D01*
X108604095Y-114725523D01*
X108680286Y-114687428D01*
X108756476Y-114687428D01*
X108870762Y-114725523D01*
X109327905Y-115182666D01*
X109327905Y-114687428D01*
X109835905Y-132162476D02*
X109035905Y-132162476D01*
X109035905Y-131857714D01*
X109074000Y-131781523D01*
X109112095Y-131743428D01*
X109188286Y-131705333D01*
X109302571Y-131705333D01*
X109378762Y-131743428D01*
X109416857Y-131781523D01*
X109454952Y-131857714D01*
X109454952Y-132162476D01*
X109378762Y-131248190D02*
X109340667Y-131324381D01*
X109302571Y-131362476D01*
X109226381Y-131400571D01*
X109188286Y-131400571D01*
X109112095Y-131362476D01*
X109074000Y-131324381D01*
X109035905Y-131248190D01*
X109035905Y-131095809D01*
X109074000Y-131019619D01*
X109112095Y-130981523D01*
X109188286Y-130943428D01*
X109226381Y-130943428D01*
X109302571Y-130981523D01*
X109340667Y-131019619D01*
X109378762Y-131095809D01*
X109378762Y-131248190D01*
X109416857Y-131324381D01*
X109454952Y-131362476D01*
X109531143Y-131400571D01*
X109683524Y-131400571D01*
X109759714Y-131362476D01*
X109797810Y-131324381D01*
X109835905Y-131248190D01*
X109835905Y-131095809D01*
X109797810Y-131019619D01*
X109759714Y-130981523D01*
X109683524Y-130943428D01*
X109531143Y-130943428D01*
X109454952Y-130981523D01*
X109416857Y-131019619D01*
X109378762Y-131095809D01*
X140252571Y-131171905D02*
X140252571Y-130371905D01*
X140557333Y-130371905D01*
X140633524Y-130410000D01*
X140671619Y-130448095D01*
X140709714Y-130524286D01*
X140709714Y-130638571D01*
X140671619Y-130714762D01*
X140633524Y-130752857D01*
X140557333Y-130790952D01*
X140252571Y-130790952D01*
X141471619Y-131171905D02*
X141014476Y-131171905D01*
X141243047Y-131171905D02*
X141243047Y-130371905D01*
X141166857Y-130486190D01*
X141090666Y-130562381D01*
X141014476Y-130600476D01*
X141966857Y-130371905D02*
X142043048Y-130371905D01*
X142119238Y-130410000D01*
X142157333Y-130448095D01*
X142195429Y-130524286D01*
X142233524Y-130676667D01*
X142233524Y-130867143D01*
X142195429Y-131019524D01*
X142157333Y-131095714D01*
X142119238Y-131133810D01*
X142043048Y-131171905D01*
X141966857Y-131171905D01*
X141890667Y-131133810D01*
X141852571Y-131095714D01*
X141814476Y-131019524D01*
X141776381Y-130867143D01*
X141776381Y-130676667D01*
X141814476Y-130524286D01*
X141852571Y-130448095D01*
X141890667Y-130410000D01*
X141966857Y-130371905D01*
M02*
