G04 #@! TF.FileFunction,Soldermask,Bot*
%FSLAX46Y46*%
G04 Gerber Fmt 4.6, Leading zero omitted, Abs format (unit mm)*
G04 Created by KiCad (PCBNEW 4.0.2-4+6225~38~ubuntu14.04.1-stable) date Fri 18 Mar 2016 19:53:20 GMT*
%MOMM*%
G01*
G04 APERTURE LIST*
%ADD10C,0.100000*%
%ADD11R,1.300000X0.700000*%
%ADD12R,1.727200X1.727200*%
%ADD13O,1.727200X1.727200*%
%ADD14C,1.500000*%
%ADD15O,3.000000X4.000000*%
%ADD16O,5.000000X3.500000*%
%ADD17C,1.700000*%
%ADD18R,2.032000X1.727200*%
%ADD19O,2.032000X1.727200*%
G04 APERTURE END LIST*
D10*
D11*
X120142000Y-108646000D03*
X120142000Y-106746000D03*
D12*
X137668000Y-141732000D03*
D13*
X137668000Y-144272000D03*
X135128000Y-141732000D03*
X135128000Y-144272000D03*
X132588000Y-141732000D03*
X132588000Y-144272000D03*
D12*
X146812000Y-141732000D03*
D13*
X146812000Y-144272000D03*
X144272000Y-141732000D03*
X144272000Y-144272000D03*
X141732000Y-141732000D03*
X141732000Y-144272000D03*
D14*
X145998000Y-111176000D03*
X139498000Y-111176000D03*
X145998000Y-105176000D03*
X139498000Y-105276000D03*
X145998000Y-101176000D03*
X139498000Y-101176000D03*
D15*
X147748000Y-109276000D03*
X137748000Y-109276000D03*
D16*
X142748000Y-105376000D03*
D14*
X132282000Y-111176000D03*
X125782000Y-111176000D03*
X132282000Y-105176000D03*
X125782000Y-105276000D03*
X132282000Y-101176000D03*
X125782000Y-101176000D03*
D15*
X134032000Y-109276000D03*
X124032000Y-109276000D03*
D16*
X129032000Y-105376000D03*
D17*
X116840000Y-108656000D03*
X116840000Y-102656000D03*
X105664000Y-108656000D03*
X105664000Y-102656000D03*
D11*
X134874000Y-127320000D03*
X134874000Y-129220000D03*
D18*
X104140000Y-115316000D03*
D19*
X104140000Y-117856000D03*
X104140000Y-120396000D03*
X104140000Y-122936000D03*
X104140000Y-125476000D03*
X104140000Y-128016000D03*
X104140000Y-130556000D03*
X104140000Y-133096000D03*
X104140000Y-135636000D03*
X104140000Y-138176000D03*
X104140000Y-140716000D03*
X104140000Y-143256000D03*
X104140000Y-145796000D03*
X104140000Y-148336000D03*
D18*
X106680000Y-115316000D03*
D19*
X106680000Y-117856000D03*
X106680000Y-120396000D03*
X106680000Y-122936000D03*
X106680000Y-125476000D03*
X106680000Y-128016000D03*
X106680000Y-130556000D03*
X106680000Y-133096000D03*
X106680000Y-135636000D03*
X106680000Y-138176000D03*
X106680000Y-140716000D03*
X106680000Y-143256000D03*
X106680000Y-145796000D03*
X106680000Y-148336000D03*
D18*
X111760000Y-131572000D03*
D19*
X111760000Y-129032000D03*
X111760000Y-126492000D03*
X111760000Y-123952000D03*
X111760000Y-121412000D03*
X111760000Y-118872000D03*
D18*
X144272000Y-131572000D03*
D19*
X144272000Y-134112000D03*
X144272000Y-136652000D03*
X144272000Y-139192000D03*
D18*
X146812000Y-131572000D03*
D19*
X146812000Y-134112000D03*
X146812000Y-136652000D03*
X146812000Y-139192000D03*
M02*
