G04 #@! TF.FileFunction,Legend,Top*
%FSLAX46Y46*%
G04 Gerber Fmt 4.6, Leading zero omitted, Abs format (unit mm)*
G04 Created by KiCad (PCBNEW 4.0.2-4+6225~38~ubuntu14.04.1-stable) date Mon 29 Feb 2016 18:52:31 GMT*
%MOMM*%
G01*
G04 APERTURE LIST*
%ADD10C,0.100000*%
%ADD11C,0.120000*%
%ADD12C,0.200000*%
%ADD13C,0.150000*%
G04 APERTURE END LIST*
D10*
D11*
X112491522Y-137155905D02*
X112491522Y-136355905D01*
X112758189Y-136927333D01*
X113024856Y-136355905D01*
X113024856Y-137155905D01*
X113405808Y-137155905D02*
X113405808Y-136622571D01*
X113405808Y-136355905D02*
X113367713Y-136394000D01*
X113405808Y-136432095D01*
X113443903Y-136394000D01*
X113405808Y-136355905D01*
X113405808Y-136432095D01*
X114129617Y-137117810D02*
X114053427Y-137155905D01*
X113901046Y-137155905D01*
X113824855Y-137117810D01*
X113786760Y-137079714D01*
X113748665Y-137003524D01*
X113748665Y-136774952D01*
X113786760Y-136698762D01*
X113824855Y-136660667D01*
X113901046Y-136622571D01*
X114053427Y-136622571D01*
X114129617Y-136660667D01*
X114472474Y-137155905D02*
X114472474Y-136622571D01*
X114472474Y-136774952D02*
X114510569Y-136698762D01*
X114548665Y-136660667D01*
X114624855Y-136622571D01*
X114701046Y-136622571D01*
X115081998Y-137155905D02*
X115005807Y-137117810D01*
X114967712Y-137079714D01*
X114929617Y-137003524D01*
X114929617Y-136774952D01*
X114967712Y-136698762D01*
X115005807Y-136660667D01*
X115081998Y-136622571D01*
X115196284Y-136622571D01*
X115272474Y-136660667D01*
X115310569Y-136698762D01*
X115348665Y-136774952D01*
X115348665Y-137003524D01*
X115310569Y-137079714D01*
X115272474Y-137117810D01*
X115196284Y-137155905D01*
X115081998Y-137155905D01*
X115958189Y-136736857D02*
X115691522Y-136736857D01*
X115691522Y-137155905D02*
X115691522Y-136355905D01*
X116072475Y-136355905D01*
X116758189Y-137155905D02*
X116377236Y-137155905D01*
X116377236Y-136355905D01*
X117024855Y-137155905D02*
X117024855Y-136622571D01*
X117024855Y-136355905D02*
X116986760Y-136394000D01*
X117024855Y-136432095D01*
X117062950Y-136394000D01*
X117024855Y-136355905D01*
X117024855Y-136432095D01*
X117862950Y-137079714D02*
X117824855Y-137117810D01*
X117710569Y-137155905D01*
X117634379Y-137155905D01*
X117520093Y-137117810D01*
X117443902Y-137041619D01*
X117405807Y-136965429D01*
X117367712Y-136813048D01*
X117367712Y-136698762D01*
X117405807Y-136546381D01*
X117443902Y-136470190D01*
X117520093Y-136394000D01*
X117634379Y-136355905D01*
X117710569Y-136355905D01*
X117824855Y-136394000D01*
X117862950Y-136432095D01*
X118777236Y-137117810D02*
X118853426Y-137155905D01*
X119005807Y-137155905D01*
X119081998Y-137117810D01*
X119120093Y-137041619D01*
X119120093Y-137003524D01*
X119081998Y-136927333D01*
X119005807Y-136889238D01*
X118891522Y-136889238D01*
X118815331Y-136851143D01*
X118777236Y-136774952D01*
X118777236Y-136736857D01*
X118815331Y-136660667D01*
X118891522Y-136622571D01*
X119005807Y-136622571D01*
X119081998Y-136660667D01*
X119767712Y-137117810D02*
X119691522Y-137155905D01*
X119539141Y-137155905D01*
X119462950Y-137117810D01*
X119424855Y-137041619D01*
X119424855Y-136736857D01*
X119462950Y-136660667D01*
X119539141Y-136622571D01*
X119691522Y-136622571D01*
X119767712Y-136660667D01*
X119805807Y-136736857D01*
X119805807Y-136813048D01*
X119424855Y-136889238D01*
X120148664Y-137155905D02*
X120148664Y-136622571D01*
X120148664Y-136774952D02*
X120186759Y-136698762D01*
X120224855Y-136660667D01*
X120301045Y-136622571D01*
X120377236Y-136622571D01*
X120567712Y-136622571D02*
X120758188Y-137155905D01*
X120948664Y-136622571D01*
X121367712Y-137155905D02*
X121291521Y-137117810D01*
X121253426Y-137079714D01*
X121215331Y-137003524D01*
X121215331Y-136774952D01*
X121253426Y-136698762D01*
X121291521Y-136660667D01*
X121367712Y-136622571D01*
X121481998Y-136622571D01*
X121558188Y-136660667D01*
X121596283Y-136698762D01*
X121634379Y-136774952D01*
X121634379Y-137003524D01*
X121596283Y-137079714D01*
X121558188Y-137117810D01*
X121481998Y-137155905D01*
X121367712Y-137155905D01*
X122548665Y-137117810D02*
X122624855Y-137155905D01*
X122777236Y-137155905D01*
X122853427Y-137117810D01*
X122891522Y-137041619D01*
X122891522Y-137003524D01*
X122853427Y-136927333D01*
X122777236Y-136889238D01*
X122662951Y-136889238D01*
X122586760Y-136851143D01*
X122548665Y-136774952D01*
X122548665Y-136736857D01*
X122586760Y-136660667D01*
X122662951Y-136622571D01*
X122777236Y-136622571D01*
X122853427Y-136660667D01*
X123348665Y-137155905D02*
X123272474Y-137117810D01*
X123234379Y-137079714D01*
X123196284Y-137003524D01*
X123196284Y-136774952D01*
X123234379Y-136698762D01*
X123272474Y-136660667D01*
X123348665Y-136622571D01*
X123462951Y-136622571D01*
X123539141Y-136660667D01*
X123577236Y-136698762D01*
X123615332Y-136774952D01*
X123615332Y-137003524D01*
X123577236Y-137079714D01*
X123539141Y-137117810D01*
X123462951Y-137155905D01*
X123348665Y-137155905D01*
X124072475Y-137155905D02*
X123996284Y-137117810D01*
X123958189Y-137041619D01*
X123958189Y-136355905D01*
X124681999Y-137117810D02*
X124605809Y-137155905D01*
X124453428Y-137155905D01*
X124377237Y-137117810D01*
X124339142Y-137041619D01*
X124339142Y-136736857D01*
X124377237Y-136660667D01*
X124453428Y-136622571D01*
X124605809Y-136622571D01*
X124681999Y-136660667D01*
X124720094Y-136736857D01*
X124720094Y-136813048D01*
X124339142Y-136889238D01*
X125062951Y-136622571D02*
X125062951Y-137155905D01*
X125062951Y-136698762D02*
X125101046Y-136660667D01*
X125177237Y-136622571D01*
X125291523Y-136622571D01*
X125367713Y-136660667D01*
X125405808Y-136736857D01*
X125405808Y-137155905D01*
X125901047Y-137155905D02*
X125824856Y-137117810D01*
X125786761Y-137079714D01*
X125748666Y-137003524D01*
X125748666Y-136774952D01*
X125786761Y-136698762D01*
X125824856Y-136660667D01*
X125901047Y-136622571D01*
X126015333Y-136622571D01*
X126091523Y-136660667D01*
X126129618Y-136698762D01*
X126167714Y-136774952D01*
X126167714Y-137003524D01*
X126129618Y-137079714D01*
X126091523Y-137117810D01*
X126015333Y-137155905D01*
X125901047Y-137155905D01*
X126510571Y-137155905D02*
X126510571Y-136622571D01*
X126510571Y-136355905D02*
X126472476Y-136394000D01*
X126510571Y-136432095D01*
X126548666Y-136394000D01*
X126510571Y-136355905D01*
X126510571Y-136432095D01*
X127234380Y-137155905D02*
X127234380Y-136355905D01*
X127234380Y-137117810D02*
X127158190Y-137155905D01*
X127005809Y-137155905D01*
X126929618Y-137117810D01*
X126891523Y-137079714D01*
X126853428Y-137003524D01*
X126853428Y-136774952D01*
X126891523Y-136698762D01*
X126929618Y-136660667D01*
X127005809Y-136622571D01*
X127158190Y-136622571D01*
X127234380Y-136660667D01*
X128110571Y-136622571D02*
X128415333Y-136622571D01*
X128224857Y-136355905D02*
X128224857Y-137041619D01*
X128262952Y-137117810D01*
X128339143Y-137155905D01*
X128415333Y-137155905D01*
X128796286Y-137155905D02*
X128720095Y-137117810D01*
X128682000Y-137079714D01*
X128643905Y-137003524D01*
X128643905Y-136774952D01*
X128682000Y-136698762D01*
X128720095Y-136660667D01*
X128796286Y-136622571D01*
X128910572Y-136622571D01*
X128986762Y-136660667D01*
X129024857Y-136698762D01*
X129062953Y-136774952D01*
X129062953Y-137003524D01*
X129024857Y-137079714D01*
X128986762Y-137117810D01*
X128910572Y-137155905D01*
X128796286Y-137155905D01*
X129405810Y-136622571D02*
X129405810Y-137422571D01*
X129405810Y-136660667D02*
X129482001Y-136622571D01*
X129634382Y-136622571D01*
X129710572Y-136660667D01*
X129748667Y-136698762D01*
X129786763Y-136774952D01*
X129786763Y-137003524D01*
X129748667Y-137079714D01*
X129710572Y-137117810D01*
X129634382Y-137155905D01*
X129482001Y-137155905D01*
X129405810Y-137117810D01*
X130662954Y-136622571D02*
X130853430Y-137155905D01*
X131043906Y-136622571D01*
X131767716Y-137155905D02*
X131310573Y-137155905D01*
X131539144Y-137155905D02*
X131539144Y-136355905D01*
X131462954Y-136470190D01*
X131386763Y-136546381D01*
X131310573Y-136584476D01*
X132110573Y-137079714D02*
X132148668Y-137117810D01*
X132110573Y-137155905D01*
X132072478Y-137117810D01*
X132110573Y-137079714D01*
X132110573Y-137155905D01*
X132910573Y-137155905D02*
X132453430Y-137155905D01*
X132682001Y-137155905D02*
X132682001Y-136355905D01*
X132605811Y-136470190D01*
X132529620Y-136546381D01*
X132453430Y-136584476D01*
X117196284Y-137595905D02*
X117196284Y-138167333D01*
X117158188Y-138281619D01*
X117081998Y-138357810D01*
X116967712Y-138395905D01*
X116891522Y-138395905D01*
X117920093Y-138395905D02*
X117920093Y-137976857D01*
X117881998Y-137900667D01*
X117805808Y-137862571D01*
X117653427Y-137862571D01*
X117577236Y-137900667D01*
X117920093Y-138357810D02*
X117843903Y-138395905D01*
X117653427Y-138395905D01*
X117577236Y-138357810D01*
X117539141Y-138281619D01*
X117539141Y-138205429D01*
X117577236Y-138129238D01*
X117653427Y-138091143D01*
X117843903Y-138091143D01*
X117920093Y-138053048D01*
X118301046Y-138395905D02*
X118301046Y-137595905D01*
X118377237Y-138091143D02*
X118605808Y-138395905D01*
X118605808Y-137862571D02*
X118301046Y-138167333D01*
X119291522Y-137862571D02*
X119291522Y-138395905D01*
X118948665Y-137862571D02*
X118948665Y-138281619D01*
X118986760Y-138357810D01*
X119062951Y-138395905D01*
X119177237Y-138395905D01*
X119253427Y-138357810D01*
X119291522Y-138319714D01*
X119672475Y-138395905D02*
X119672475Y-137595905D01*
X119672475Y-137900667D02*
X119748666Y-137862571D01*
X119901047Y-137862571D01*
X119977237Y-137900667D01*
X120015332Y-137938762D01*
X120053428Y-138014952D01*
X120053428Y-138243524D01*
X120015332Y-138319714D01*
X119977237Y-138357810D01*
X119901047Y-138395905D01*
X119748666Y-138395905D01*
X119672475Y-138357810D01*
X121005809Y-138395905D02*
X121005809Y-137595905D01*
X121462952Y-138395905D01*
X121462952Y-137595905D01*
X122148666Y-138357810D02*
X122072476Y-138395905D01*
X121920095Y-138395905D01*
X121843904Y-138357810D01*
X121805809Y-138281619D01*
X121805809Y-137976857D01*
X121843904Y-137900667D01*
X121920095Y-137862571D01*
X122072476Y-137862571D01*
X122148666Y-137900667D01*
X122186761Y-137976857D01*
X122186761Y-138053048D01*
X121805809Y-138129238D01*
X122872475Y-138395905D02*
X122872475Y-137595905D01*
X122872475Y-138357810D02*
X122796285Y-138395905D01*
X122643904Y-138395905D01*
X122567713Y-138357810D01*
X122529618Y-138319714D01*
X122491523Y-138243524D01*
X122491523Y-138014952D01*
X122529618Y-137938762D01*
X122567713Y-137900667D01*
X122643904Y-137862571D01*
X122796285Y-137862571D01*
X122872475Y-137900667D01*
X123253428Y-138395905D02*
X123253428Y-137595905D01*
X123253428Y-137900667D02*
X123329619Y-137862571D01*
X123482000Y-137862571D01*
X123558190Y-137900667D01*
X123596285Y-137938762D01*
X123634381Y-138014952D01*
X123634381Y-138243524D01*
X123596285Y-138319714D01*
X123558190Y-138357810D01*
X123482000Y-138395905D01*
X123329619Y-138395905D01*
X123253428Y-138357810D01*
X124320095Y-138395905D02*
X124320095Y-137976857D01*
X124282000Y-137900667D01*
X124205810Y-137862571D01*
X124053429Y-137862571D01*
X123977238Y-137900667D01*
X124320095Y-138357810D02*
X124243905Y-138395905D01*
X124053429Y-138395905D01*
X123977238Y-138357810D01*
X123939143Y-138281619D01*
X123939143Y-138205429D01*
X123977238Y-138129238D01*
X124053429Y-138091143D01*
X124243905Y-138091143D01*
X124320095Y-138053048D01*
X124815334Y-138395905D02*
X124739143Y-138357810D01*
X124701048Y-138281619D01*
X124701048Y-137595905D01*
X125691525Y-137672095D02*
X125729620Y-137634000D01*
X125805811Y-137595905D01*
X125996287Y-137595905D01*
X126072477Y-137634000D01*
X126110573Y-137672095D01*
X126148668Y-137748286D01*
X126148668Y-137824476D01*
X126110573Y-137938762D01*
X125653430Y-138395905D01*
X126148668Y-138395905D01*
X126643906Y-137595905D02*
X126720097Y-137595905D01*
X126796287Y-137634000D01*
X126834382Y-137672095D01*
X126872478Y-137748286D01*
X126910573Y-137900667D01*
X126910573Y-138091143D01*
X126872478Y-138243524D01*
X126834382Y-138319714D01*
X126796287Y-138357810D01*
X126720097Y-138395905D01*
X126643906Y-138395905D01*
X126567716Y-138357810D01*
X126529620Y-138319714D01*
X126491525Y-138243524D01*
X126453430Y-138091143D01*
X126453430Y-137900667D01*
X126491525Y-137748286D01*
X126529620Y-137672095D01*
X126567716Y-137634000D01*
X126643906Y-137595905D01*
X127672478Y-138395905D02*
X127215335Y-138395905D01*
X127443906Y-138395905D02*
X127443906Y-137595905D01*
X127367716Y-137710190D01*
X127291525Y-137786381D01*
X127215335Y-137824476D01*
X128358192Y-137595905D02*
X128205811Y-137595905D01*
X128129621Y-137634000D01*
X128091526Y-137672095D01*
X128015335Y-137786381D01*
X127977240Y-137938762D01*
X127977240Y-138243524D01*
X128015335Y-138319714D01*
X128053430Y-138357810D01*
X128129621Y-138395905D01*
X128282002Y-138395905D01*
X128358192Y-138357810D01*
X128396288Y-138319714D01*
X128434383Y-138243524D01*
X128434383Y-138053048D01*
X128396288Y-137976857D01*
X128358192Y-137938762D01*
X128282002Y-137900667D01*
X128129621Y-137900667D01*
X128053430Y-137938762D01*
X128015335Y-137976857D01*
X127977240Y-138053048D01*
X149167810Y-139547619D02*
X149205905Y-139471429D01*
X149205905Y-139319048D01*
X149167810Y-139242857D01*
X149091619Y-139204762D01*
X149053524Y-139204762D01*
X148977333Y-139242857D01*
X148939238Y-139319048D01*
X148939238Y-139433333D01*
X148901143Y-139509524D01*
X148824952Y-139547619D01*
X148786857Y-139547619D01*
X148710667Y-139509524D01*
X148672571Y-139433333D01*
X148672571Y-139319048D01*
X148710667Y-139242857D01*
X149205905Y-138747619D02*
X149167810Y-138823810D01*
X149129714Y-138861905D01*
X149053524Y-138900000D01*
X148824952Y-138900000D01*
X148748762Y-138861905D01*
X148710667Y-138823810D01*
X148672571Y-138747619D01*
X148672571Y-138633333D01*
X148710667Y-138557143D01*
X148748762Y-138519048D01*
X148824952Y-138480952D01*
X149053524Y-138480952D01*
X149129714Y-138519048D01*
X149167810Y-138557143D01*
X149205905Y-138633333D01*
X149205905Y-138747619D01*
X149167810Y-137795238D02*
X149205905Y-137871428D01*
X149205905Y-138023809D01*
X149167810Y-138100000D01*
X149129714Y-138138095D01*
X149053524Y-138176190D01*
X148824952Y-138176190D01*
X148748762Y-138138095D01*
X148710667Y-138100000D01*
X148672571Y-138023809D01*
X148672571Y-137871428D01*
X148710667Y-137795238D01*
X149205905Y-137452381D02*
X148405905Y-137452381D01*
X148901143Y-137376190D02*
X149205905Y-137147619D01*
X148672571Y-137147619D02*
X148977333Y-137452381D01*
X149167810Y-136500000D02*
X149205905Y-136576190D01*
X149205905Y-136728571D01*
X149167810Y-136804762D01*
X149091619Y-136842857D01*
X148786857Y-136842857D01*
X148710667Y-136804762D01*
X148672571Y-136728571D01*
X148672571Y-136576190D01*
X148710667Y-136500000D01*
X148786857Y-136461905D01*
X148863048Y-136461905D01*
X148939238Y-136842857D01*
X148672571Y-136233334D02*
X148672571Y-135928572D01*
X148405905Y-136119048D02*
X149091619Y-136119048D01*
X149167810Y-136080953D01*
X149205905Y-136004762D01*
X149205905Y-135928572D01*
X149167810Y-135090476D02*
X149205905Y-135014286D01*
X149205905Y-134861905D01*
X149167810Y-134785714D01*
X149091619Y-134747619D01*
X149053524Y-134747619D01*
X148977333Y-134785714D01*
X148939238Y-134861905D01*
X148939238Y-134976190D01*
X148901143Y-135052381D01*
X148824952Y-135090476D01*
X148786857Y-135090476D01*
X148710667Y-135052381D01*
X148672571Y-134976190D01*
X148672571Y-134861905D01*
X148710667Y-134785714D01*
X148672571Y-134519048D02*
X148672571Y-134214286D01*
X148405905Y-134404762D02*
X149091619Y-134404762D01*
X149167810Y-134366667D01*
X149205905Y-134290476D01*
X149205905Y-134214286D01*
X149205905Y-133947619D02*
X148672571Y-133947619D01*
X148824952Y-133947619D02*
X148748762Y-133909524D01*
X148710667Y-133871428D01*
X148672571Y-133795238D01*
X148672571Y-133719047D01*
X149205905Y-133452381D02*
X148672571Y-133452381D01*
X148405905Y-133452381D02*
X148444000Y-133490476D01*
X148482095Y-133452381D01*
X148444000Y-133414286D01*
X148405905Y-133452381D01*
X148482095Y-133452381D01*
X148672571Y-133071429D02*
X149472571Y-133071429D01*
X148710667Y-133071429D02*
X148672571Y-132995238D01*
X148672571Y-132842857D01*
X148710667Y-132766667D01*
X148748762Y-132728572D01*
X148824952Y-132690476D01*
X149053524Y-132690476D01*
X149129714Y-132728572D01*
X149167810Y-132766667D01*
X149205905Y-132842857D01*
X149205905Y-132995238D01*
X149167810Y-133071429D01*
X102177810Y-148945619D02*
X102215905Y-148869429D01*
X102215905Y-148717048D01*
X102177810Y-148640857D01*
X102101619Y-148602762D01*
X102063524Y-148602762D01*
X101987333Y-148640857D01*
X101949238Y-148717048D01*
X101949238Y-148831333D01*
X101911143Y-148907524D01*
X101834952Y-148945619D01*
X101796857Y-148945619D01*
X101720667Y-148907524D01*
X101682571Y-148831333D01*
X101682571Y-148717048D01*
X101720667Y-148640857D01*
X102215905Y-148145619D02*
X102177810Y-148221810D01*
X102139714Y-148259905D01*
X102063524Y-148298000D01*
X101834952Y-148298000D01*
X101758762Y-148259905D01*
X101720667Y-148221810D01*
X101682571Y-148145619D01*
X101682571Y-148031333D01*
X101720667Y-147955143D01*
X101758762Y-147917048D01*
X101834952Y-147878952D01*
X102063524Y-147878952D01*
X102139714Y-147917048D01*
X102177810Y-147955143D01*
X102215905Y-148031333D01*
X102215905Y-148145619D01*
X102177810Y-147193238D02*
X102215905Y-147269428D01*
X102215905Y-147421809D01*
X102177810Y-147498000D01*
X102139714Y-147536095D01*
X102063524Y-147574190D01*
X101834952Y-147574190D01*
X101758762Y-147536095D01*
X101720667Y-147498000D01*
X101682571Y-147421809D01*
X101682571Y-147269428D01*
X101720667Y-147193238D01*
X102215905Y-146850381D02*
X101415905Y-146850381D01*
X101911143Y-146774190D02*
X102215905Y-146545619D01*
X101682571Y-146545619D02*
X101987333Y-146850381D01*
X102177810Y-145898000D02*
X102215905Y-145974190D01*
X102215905Y-146126571D01*
X102177810Y-146202762D01*
X102101619Y-146240857D01*
X101796857Y-146240857D01*
X101720667Y-146202762D01*
X101682571Y-146126571D01*
X101682571Y-145974190D01*
X101720667Y-145898000D01*
X101796857Y-145859905D01*
X101873048Y-145859905D01*
X101949238Y-146240857D01*
X101682571Y-145631334D02*
X101682571Y-145326572D01*
X101415905Y-145517048D02*
X102101619Y-145517048D01*
X102177810Y-145478953D01*
X102215905Y-145402762D01*
X102215905Y-145326572D01*
X102177810Y-144488476D02*
X102215905Y-144412286D01*
X102215905Y-144259905D01*
X102177810Y-144183714D01*
X102101619Y-144145619D01*
X102063524Y-144145619D01*
X101987333Y-144183714D01*
X101949238Y-144259905D01*
X101949238Y-144374190D01*
X101911143Y-144450381D01*
X101834952Y-144488476D01*
X101796857Y-144488476D01*
X101720667Y-144450381D01*
X101682571Y-144374190D01*
X101682571Y-144259905D01*
X101720667Y-144183714D01*
X101682571Y-143917048D02*
X101682571Y-143612286D01*
X101415905Y-143802762D02*
X102101619Y-143802762D01*
X102177810Y-143764667D01*
X102215905Y-143688476D01*
X102215905Y-143612286D01*
X102215905Y-143345619D02*
X101682571Y-143345619D01*
X101834952Y-143345619D02*
X101758762Y-143307524D01*
X101720667Y-143269428D01*
X101682571Y-143193238D01*
X101682571Y-143117047D01*
X102215905Y-142850381D02*
X101682571Y-142850381D01*
X101415905Y-142850381D02*
X101454000Y-142888476D01*
X101492095Y-142850381D01*
X101454000Y-142812286D01*
X101415905Y-142850381D01*
X101492095Y-142850381D01*
X101682571Y-142469429D02*
X102482571Y-142469429D01*
X101720667Y-142469429D02*
X101682571Y-142393238D01*
X101682571Y-142240857D01*
X101720667Y-142164667D01*
X101758762Y-142126572D01*
X101834952Y-142088476D01*
X102063524Y-142088476D01*
X102139714Y-142126572D01*
X102177810Y-142164667D01*
X102215905Y-142240857D01*
X102215905Y-142393238D01*
X102177810Y-142469429D01*
X141236762Y-149459905D02*
X140779619Y-149459905D01*
X141008190Y-149459905D02*
X141008190Y-148659905D01*
X140932000Y-148774190D01*
X140855809Y-148850381D01*
X140779619Y-148888476D01*
X141541524Y-148736095D02*
X141579619Y-148698000D01*
X141655810Y-148659905D01*
X141846286Y-148659905D01*
X141922476Y-148698000D01*
X141960572Y-148736095D01*
X141998667Y-148812286D01*
X141998667Y-148888476D01*
X141960572Y-149002762D01*
X141503429Y-149459905D01*
X141998667Y-149459905D01*
X142227238Y-148659905D02*
X142493905Y-149459905D01*
X142760572Y-148659905D01*
X144119620Y-148659905D02*
X143738667Y-148659905D01*
X143700572Y-149040857D01*
X143738667Y-149002762D01*
X143814858Y-148964667D01*
X144005334Y-148964667D01*
X144081524Y-149002762D01*
X144119620Y-149040857D01*
X144157715Y-149117048D01*
X144157715Y-149307524D01*
X144119620Y-149383714D01*
X144081524Y-149421810D01*
X144005334Y-149459905D01*
X143814858Y-149459905D01*
X143738667Y-149421810D01*
X143700572Y-149383714D01*
X144386286Y-148659905D02*
X144652953Y-149459905D01*
X144919620Y-148659905D01*
X145669143Y-148736095D02*
X145707238Y-148698000D01*
X145783429Y-148659905D01*
X145973905Y-148659905D01*
X146050095Y-148698000D01*
X146088191Y-148736095D01*
X146126286Y-148812286D01*
X146126286Y-148888476D01*
X146088191Y-149002762D01*
X145631048Y-149459905D01*
X146126286Y-149459905D01*
X146469143Y-149383714D02*
X146507238Y-149421810D01*
X146469143Y-149459905D01*
X146431048Y-149421810D01*
X146469143Y-149383714D01*
X146469143Y-149459905D01*
X146964381Y-149002762D02*
X146888190Y-148964667D01*
X146850095Y-148926571D01*
X146812000Y-148850381D01*
X146812000Y-148812286D01*
X146850095Y-148736095D01*
X146888190Y-148698000D01*
X146964381Y-148659905D01*
X147116762Y-148659905D01*
X147192952Y-148698000D01*
X147231048Y-148736095D01*
X147269143Y-148812286D01*
X147269143Y-148850381D01*
X147231048Y-148926571D01*
X147192952Y-148964667D01*
X147116762Y-149002762D01*
X146964381Y-149002762D01*
X146888190Y-149040857D01*
X146850095Y-149078952D01*
X146812000Y-149155143D01*
X146812000Y-149307524D01*
X146850095Y-149383714D01*
X146888190Y-149421810D01*
X146964381Y-149459905D01*
X147116762Y-149459905D01*
X147192952Y-149421810D01*
X147231048Y-149383714D01*
X147269143Y-149307524D01*
X147269143Y-149155143D01*
X147231048Y-149078952D01*
X147192952Y-149040857D01*
X147116762Y-149002762D01*
X147497714Y-148659905D02*
X147764381Y-149459905D01*
X148031048Y-148659905D01*
X136525143Y-148736095D02*
X136563238Y-148698000D01*
X136639429Y-148659905D01*
X136829905Y-148659905D01*
X136906095Y-148698000D01*
X136944191Y-148736095D01*
X136982286Y-148812286D01*
X136982286Y-148888476D01*
X136944191Y-149002762D01*
X136487048Y-149459905D01*
X136982286Y-149459905D01*
X137325143Y-149383714D02*
X137363238Y-149421810D01*
X137325143Y-149459905D01*
X137287048Y-149421810D01*
X137325143Y-149383714D01*
X137325143Y-149459905D01*
X137820381Y-149002762D02*
X137744190Y-148964667D01*
X137706095Y-148926571D01*
X137668000Y-148850381D01*
X137668000Y-148812286D01*
X137706095Y-148736095D01*
X137744190Y-148698000D01*
X137820381Y-148659905D01*
X137972762Y-148659905D01*
X138048952Y-148698000D01*
X138087048Y-148736095D01*
X138125143Y-148812286D01*
X138125143Y-148850381D01*
X138087048Y-148926571D01*
X138048952Y-148964667D01*
X137972762Y-149002762D01*
X137820381Y-149002762D01*
X137744190Y-149040857D01*
X137706095Y-149078952D01*
X137668000Y-149155143D01*
X137668000Y-149307524D01*
X137706095Y-149383714D01*
X137744190Y-149421810D01*
X137820381Y-149459905D01*
X137972762Y-149459905D01*
X138048952Y-149421810D01*
X138087048Y-149383714D01*
X138125143Y-149307524D01*
X138125143Y-149155143D01*
X138087048Y-149078952D01*
X138048952Y-149040857D01*
X137972762Y-149002762D01*
X138353714Y-148659905D02*
X138620381Y-149459905D01*
X138887048Y-148659905D01*
X134975620Y-148659905D02*
X134594667Y-148659905D01*
X134556572Y-149040857D01*
X134594667Y-149002762D01*
X134670858Y-148964667D01*
X134861334Y-148964667D01*
X134937524Y-149002762D01*
X134975620Y-149040857D01*
X135013715Y-149117048D01*
X135013715Y-149307524D01*
X134975620Y-149383714D01*
X134937524Y-149421810D01*
X134861334Y-149459905D01*
X134670858Y-149459905D01*
X134594667Y-149421810D01*
X134556572Y-149383714D01*
X135242286Y-148659905D02*
X135508953Y-149459905D01*
X135775620Y-148659905D01*
X132092762Y-149459905D02*
X131635619Y-149459905D01*
X131864190Y-149459905D02*
X131864190Y-148659905D01*
X131788000Y-148774190D01*
X131711809Y-148850381D01*
X131635619Y-148888476D01*
X132397524Y-148736095D02*
X132435619Y-148698000D01*
X132511810Y-148659905D01*
X132702286Y-148659905D01*
X132778476Y-148698000D01*
X132816572Y-148736095D01*
X132854667Y-148812286D01*
X132854667Y-148888476D01*
X132816572Y-149002762D01*
X132359429Y-149459905D01*
X132854667Y-149459905D01*
X133083238Y-148659905D02*
X133349905Y-149459905D01*
X133616572Y-148659905D01*
D12*
X138430000Y-123698000D02*
X132334000Y-123698000D01*
X138430000Y-114046000D02*
X140970000Y-114046000D01*
X120142000Y-114046000D02*
X122682000Y-114046000D01*
X115316000Y-123698000D02*
X121412000Y-123698000D01*
D13*
X138771429Y-113212571D02*
X138438095Y-113212571D01*
X138438095Y-113736381D02*
X138438095Y-112736381D01*
X138914286Y-112736381D01*
X139247619Y-113450667D02*
X139723810Y-113450667D01*
X139152381Y-113736381D02*
X139485714Y-112736381D01*
X139819048Y-113736381D01*
X140152381Y-113736381D02*
X140152381Y-112736381D01*
X141104762Y-113736381D02*
X140628571Y-113736381D01*
X140628571Y-112736381D01*
X132262952Y-122864571D02*
X132596286Y-122864571D01*
X132739143Y-123388381D02*
X132262952Y-123388381D01*
X132262952Y-122388381D01*
X132739143Y-122388381D01*
X133167714Y-123388381D02*
X133167714Y-122388381D01*
X133739143Y-123388381D01*
X133739143Y-122388381D01*
X134739143Y-122436000D02*
X134643905Y-122388381D01*
X134501048Y-122388381D01*
X134358190Y-122436000D01*
X134262952Y-122531238D01*
X134215333Y-122626476D01*
X134167714Y-122816952D01*
X134167714Y-122959810D01*
X134215333Y-123150286D01*
X134262952Y-123245524D01*
X134358190Y-123340762D01*
X134501048Y-123388381D01*
X134596286Y-123388381D01*
X134739143Y-123340762D01*
X134786762Y-123293143D01*
X134786762Y-122959810D01*
X134596286Y-122959810D01*
X135167714Y-123102667D02*
X135643905Y-123102667D01*
X135072476Y-123388381D02*
X135405809Y-122388381D01*
X135739143Y-123388381D01*
X136596286Y-122436000D02*
X136501048Y-122388381D01*
X136358191Y-122388381D01*
X136215333Y-122436000D01*
X136120095Y-122531238D01*
X136072476Y-122626476D01*
X136024857Y-122816952D01*
X136024857Y-122959810D01*
X136072476Y-123150286D01*
X136120095Y-123245524D01*
X136215333Y-123340762D01*
X136358191Y-123388381D01*
X136453429Y-123388381D01*
X136596286Y-123340762D01*
X136643905Y-123293143D01*
X136643905Y-122959810D01*
X136453429Y-122959810D01*
X137072476Y-122864571D02*
X137405810Y-122864571D01*
X137548667Y-123388381D02*
X137072476Y-123388381D01*
X137072476Y-122388381D01*
X137548667Y-122388381D01*
X137977238Y-123388381D02*
X137977238Y-122388381D01*
X138215333Y-122388381D01*
X138358191Y-122436000D01*
X138453429Y-122531238D01*
X138501048Y-122626476D01*
X138548667Y-122816952D01*
X138548667Y-122959810D01*
X138501048Y-123150286D01*
X138453429Y-123245524D01*
X138358191Y-123340762D01*
X138215333Y-123388381D01*
X137977238Y-123388381D01*
X115244952Y-122864571D02*
X115578286Y-122864571D01*
X115721143Y-123388381D02*
X115244952Y-123388381D01*
X115244952Y-122388381D01*
X115721143Y-122388381D01*
X116149714Y-123388381D02*
X116149714Y-122388381D01*
X116721143Y-123388381D01*
X116721143Y-122388381D01*
X117721143Y-122436000D02*
X117625905Y-122388381D01*
X117483048Y-122388381D01*
X117340190Y-122436000D01*
X117244952Y-122531238D01*
X117197333Y-122626476D01*
X117149714Y-122816952D01*
X117149714Y-122959810D01*
X117197333Y-123150286D01*
X117244952Y-123245524D01*
X117340190Y-123340762D01*
X117483048Y-123388381D01*
X117578286Y-123388381D01*
X117721143Y-123340762D01*
X117768762Y-123293143D01*
X117768762Y-122959810D01*
X117578286Y-122959810D01*
X118149714Y-123102667D02*
X118625905Y-123102667D01*
X118054476Y-123388381D02*
X118387809Y-122388381D01*
X118721143Y-123388381D01*
X119578286Y-122436000D02*
X119483048Y-122388381D01*
X119340191Y-122388381D01*
X119197333Y-122436000D01*
X119102095Y-122531238D01*
X119054476Y-122626476D01*
X119006857Y-122816952D01*
X119006857Y-122959810D01*
X119054476Y-123150286D01*
X119102095Y-123245524D01*
X119197333Y-123340762D01*
X119340191Y-123388381D01*
X119435429Y-123388381D01*
X119578286Y-123340762D01*
X119625905Y-123293143D01*
X119625905Y-122959810D01*
X119435429Y-122959810D01*
X120054476Y-122864571D02*
X120387810Y-122864571D01*
X120530667Y-123388381D02*
X120054476Y-123388381D01*
X120054476Y-122388381D01*
X120530667Y-122388381D01*
X120959238Y-123388381D02*
X120959238Y-122388381D01*
X121197333Y-122388381D01*
X121340191Y-122436000D01*
X121435429Y-122531238D01*
X121483048Y-122626476D01*
X121530667Y-122816952D01*
X121530667Y-122959810D01*
X121483048Y-123150286D01*
X121435429Y-123245524D01*
X121340191Y-123340762D01*
X121197333Y-123388381D01*
X120959238Y-123388381D01*
X120483429Y-113212571D02*
X120150095Y-113212571D01*
X120150095Y-113736381D02*
X120150095Y-112736381D01*
X120626286Y-112736381D01*
X120959619Y-113450667D02*
X121435810Y-113450667D01*
X120864381Y-113736381D02*
X121197714Y-112736381D01*
X121531048Y-113736381D01*
X121864381Y-113736381D02*
X121864381Y-112736381D01*
X122816762Y-113736381D02*
X122340571Y-113736381D01*
X122340571Y-112736381D01*
X116748000Y-114441000D02*
X117948000Y-114441000D01*
X117948000Y-116191000D02*
X116748000Y-116191000D01*
X132338000Y-113284000D02*
X132088000Y-113284000D01*
X132838000Y-113284000D02*
X133088000Y-113284000D01*
X132838000Y-113284000D02*
X132338000Y-113634000D01*
X132338000Y-113634000D02*
X132338000Y-112934000D01*
X132338000Y-112934000D02*
X132838000Y-113284000D01*
X132838000Y-113634000D02*
X132838000Y-112934000D01*
X133888000Y-112484000D02*
X131488000Y-112484000D01*
X133888000Y-114084000D02*
X131488000Y-114084000D01*
X144530000Y-113284000D02*
X144280000Y-113284000D01*
X145030000Y-113284000D02*
X145280000Y-113284000D01*
X145030000Y-113284000D02*
X144530000Y-113634000D01*
X144530000Y-113634000D02*
X144530000Y-112934000D01*
X144530000Y-112934000D02*
X145030000Y-113284000D01*
X145030000Y-113634000D02*
X145030000Y-112934000D01*
X146080000Y-112484000D02*
X143680000Y-112484000D01*
X146080000Y-114084000D02*
X143680000Y-114084000D01*
X138076940Y-115216940D02*
X138275060Y-115216940D01*
X138275060Y-115216940D02*
X138275060Y-115415060D01*
X138076940Y-115415060D02*
X138275060Y-115415060D01*
X138076940Y-115216940D02*
X138076940Y-115415060D01*
X138625580Y-114617500D02*
X138973560Y-114617500D01*
X138973560Y-114617500D02*
X138973560Y-114866420D01*
X138625580Y-114866420D02*
X138973560Y-114866420D01*
X138625580Y-114617500D02*
X138625580Y-114866420D01*
X138973560Y-114617500D02*
X139075160Y-114617500D01*
X139075160Y-114617500D02*
X139075160Y-115813840D01*
X138973560Y-115813840D02*
X139075160Y-115813840D01*
X138973560Y-114617500D02*
X138973560Y-115813840D01*
X138973560Y-115864640D02*
X139075160Y-115864640D01*
X139075160Y-115864640D02*
X139075160Y-116014500D01*
X138973560Y-116014500D02*
X139075160Y-116014500D01*
X138973560Y-115864640D02*
X138973560Y-116014500D01*
X137276840Y-114617500D02*
X137378440Y-114617500D01*
X137378440Y-114617500D02*
X137378440Y-115813840D01*
X137276840Y-115813840D02*
X137378440Y-115813840D01*
X137276840Y-114617500D02*
X137276840Y-115813840D01*
X137276840Y-115864640D02*
X137378440Y-115864640D01*
X137378440Y-115864640D02*
X137378440Y-116014500D01*
X137276840Y-116014500D02*
X137378440Y-116014500D01*
X137276840Y-115864640D02*
X137276840Y-116014500D01*
X138625580Y-114617500D02*
X138775440Y-114617500D01*
X138775440Y-114617500D02*
X138775440Y-114866420D01*
X138625580Y-114866420D02*
X138775440Y-114866420D01*
X138625580Y-114617500D02*
X138625580Y-114866420D01*
X139725400Y-114566700D02*
X136626600Y-114566700D01*
X136626600Y-114566700D02*
X136626600Y-116065300D01*
X136626600Y-116065300D02*
X139725400Y-116065300D01*
X139725400Y-116065300D02*
X139725400Y-114566700D01*
X137628738Y-114816646D02*
G75*
G02X138724640Y-114818160I547262J-499354D01*
G01*
X137627867Y-115814398D02*
G75*
G02X137627360Y-114818160I548133J498398D01*
G01*
X138723262Y-115815354D02*
G75*
G02X137627360Y-115813840I-547262J499354D01*
G01*
X138724133Y-114817602D02*
G75*
G02X138724640Y-115813840I-548133J-498398D01*
G01*
X121312940Y-115216940D02*
X121511060Y-115216940D01*
X121511060Y-115216940D02*
X121511060Y-115415060D01*
X121312940Y-115415060D02*
X121511060Y-115415060D01*
X121312940Y-115216940D02*
X121312940Y-115415060D01*
X121861580Y-114617500D02*
X122209560Y-114617500D01*
X122209560Y-114617500D02*
X122209560Y-114866420D01*
X121861580Y-114866420D02*
X122209560Y-114866420D01*
X121861580Y-114617500D02*
X121861580Y-114866420D01*
X122209560Y-114617500D02*
X122311160Y-114617500D01*
X122311160Y-114617500D02*
X122311160Y-115813840D01*
X122209560Y-115813840D02*
X122311160Y-115813840D01*
X122209560Y-114617500D02*
X122209560Y-115813840D01*
X122209560Y-115864640D02*
X122311160Y-115864640D01*
X122311160Y-115864640D02*
X122311160Y-116014500D01*
X122209560Y-116014500D02*
X122311160Y-116014500D01*
X122209560Y-115864640D02*
X122209560Y-116014500D01*
X120512840Y-114617500D02*
X120614440Y-114617500D01*
X120614440Y-114617500D02*
X120614440Y-115813840D01*
X120512840Y-115813840D02*
X120614440Y-115813840D01*
X120512840Y-114617500D02*
X120512840Y-115813840D01*
X120512840Y-115864640D02*
X120614440Y-115864640D01*
X120614440Y-115864640D02*
X120614440Y-116014500D01*
X120512840Y-116014500D02*
X120614440Y-116014500D01*
X120512840Y-115864640D02*
X120512840Y-116014500D01*
X121861580Y-114617500D02*
X122011440Y-114617500D01*
X122011440Y-114617500D02*
X122011440Y-114866420D01*
X121861580Y-114866420D02*
X122011440Y-114866420D01*
X121861580Y-114617500D02*
X121861580Y-114866420D01*
X122961400Y-114566700D02*
X119862600Y-114566700D01*
X119862600Y-114566700D02*
X119862600Y-116065300D01*
X119862600Y-116065300D02*
X122961400Y-116065300D01*
X122961400Y-116065300D02*
X122961400Y-114566700D01*
X120864738Y-114816646D02*
G75*
G02X121960640Y-114818160I547262J-499354D01*
G01*
X120863867Y-115814398D02*
G75*
G02X120863360Y-114818160I548133J498398D01*
G01*
X121959262Y-115815354D02*
G75*
G02X120863360Y-115813840I-547262J499354D01*
G01*
X121960133Y-114817602D02*
G75*
G02X121960640Y-115813840I-548133J-498398D01*
G01*
X119280940Y-120804940D02*
X119479060Y-120804940D01*
X119479060Y-120804940D02*
X119479060Y-121003060D01*
X119280940Y-121003060D02*
X119479060Y-121003060D01*
X119280940Y-120804940D02*
X119280940Y-121003060D01*
X119829580Y-120205500D02*
X120177560Y-120205500D01*
X120177560Y-120205500D02*
X120177560Y-120454420D01*
X119829580Y-120454420D02*
X120177560Y-120454420D01*
X119829580Y-120205500D02*
X119829580Y-120454420D01*
X120177560Y-120205500D02*
X120279160Y-120205500D01*
X120279160Y-120205500D02*
X120279160Y-121401840D01*
X120177560Y-121401840D02*
X120279160Y-121401840D01*
X120177560Y-120205500D02*
X120177560Y-121401840D01*
X120177560Y-121452640D02*
X120279160Y-121452640D01*
X120279160Y-121452640D02*
X120279160Y-121602500D01*
X120177560Y-121602500D02*
X120279160Y-121602500D01*
X120177560Y-121452640D02*
X120177560Y-121602500D01*
X118480840Y-120205500D02*
X118582440Y-120205500D01*
X118582440Y-120205500D02*
X118582440Y-121401840D01*
X118480840Y-121401840D02*
X118582440Y-121401840D01*
X118480840Y-120205500D02*
X118480840Y-121401840D01*
X118480840Y-121452640D02*
X118582440Y-121452640D01*
X118582440Y-121452640D02*
X118582440Y-121602500D01*
X118480840Y-121602500D02*
X118582440Y-121602500D01*
X118480840Y-121452640D02*
X118480840Y-121602500D01*
X119829580Y-120205500D02*
X119979440Y-120205500D01*
X119979440Y-120205500D02*
X119979440Y-120454420D01*
X119829580Y-120454420D02*
X119979440Y-120454420D01*
X119829580Y-120205500D02*
X119829580Y-120454420D01*
X120929400Y-120154700D02*
X117830600Y-120154700D01*
X117830600Y-120154700D02*
X117830600Y-121653300D01*
X117830600Y-121653300D02*
X120929400Y-121653300D01*
X120929400Y-121653300D02*
X120929400Y-120154700D01*
X118832738Y-120404646D02*
G75*
G02X119928640Y-120406160I547262J-499354D01*
G01*
X118831867Y-121402398D02*
G75*
G02X118831360Y-120406160I548133J498398D01*
G01*
X119927262Y-121403354D02*
G75*
G02X118831360Y-121401840I-547262J499354D01*
G01*
X119928133Y-120405602D02*
G75*
G02X119928640Y-121401840I-548133J-498398D01*
G01*
X136044940Y-120804940D02*
X136243060Y-120804940D01*
X136243060Y-120804940D02*
X136243060Y-121003060D01*
X136044940Y-121003060D02*
X136243060Y-121003060D01*
X136044940Y-120804940D02*
X136044940Y-121003060D01*
X136593580Y-120205500D02*
X136941560Y-120205500D01*
X136941560Y-120205500D02*
X136941560Y-120454420D01*
X136593580Y-120454420D02*
X136941560Y-120454420D01*
X136593580Y-120205500D02*
X136593580Y-120454420D01*
X136941560Y-120205500D02*
X137043160Y-120205500D01*
X137043160Y-120205500D02*
X137043160Y-121401840D01*
X136941560Y-121401840D02*
X137043160Y-121401840D01*
X136941560Y-120205500D02*
X136941560Y-121401840D01*
X136941560Y-121452640D02*
X137043160Y-121452640D01*
X137043160Y-121452640D02*
X137043160Y-121602500D01*
X136941560Y-121602500D02*
X137043160Y-121602500D01*
X136941560Y-121452640D02*
X136941560Y-121602500D01*
X135244840Y-120205500D02*
X135346440Y-120205500D01*
X135346440Y-120205500D02*
X135346440Y-121401840D01*
X135244840Y-121401840D02*
X135346440Y-121401840D01*
X135244840Y-120205500D02*
X135244840Y-121401840D01*
X135244840Y-121452640D02*
X135346440Y-121452640D01*
X135346440Y-121452640D02*
X135346440Y-121602500D01*
X135244840Y-121602500D02*
X135346440Y-121602500D01*
X135244840Y-121452640D02*
X135244840Y-121602500D01*
X136593580Y-120205500D02*
X136743440Y-120205500D01*
X136743440Y-120205500D02*
X136743440Y-120454420D01*
X136593580Y-120454420D02*
X136743440Y-120454420D01*
X136593580Y-120205500D02*
X136593580Y-120454420D01*
X137693400Y-120154700D02*
X134594600Y-120154700D01*
X134594600Y-120154700D02*
X134594600Y-121653300D01*
X134594600Y-121653300D02*
X137693400Y-121653300D01*
X137693400Y-121653300D02*
X137693400Y-120154700D01*
X135596738Y-120404646D02*
G75*
G02X136692640Y-120406160I547262J-499354D01*
G01*
X135595867Y-121402398D02*
G75*
G02X135595360Y-120406160I548133J498398D01*
G01*
X136691262Y-121403354D02*
G75*
G02X135595360Y-121401840I-547262J499354D01*
G01*
X136692133Y-120405602D02*
G75*
G02X136692640Y-121401840I-548133J-498398D01*
G01*
X132334000Y-143256000D02*
X132334000Y-142748000D01*
X132842000Y-143256000D02*
X132842000Y-142748000D01*
X134874000Y-143256000D02*
X134874000Y-142748000D01*
X135382000Y-143256000D02*
X135382000Y-142748000D01*
X137414000Y-143256000D02*
X137414000Y-142748000D01*
X137922000Y-143256000D02*
X137922000Y-142748000D01*
X135382000Y-145796000D02*
X135382000Y-145288000D01*
X134874000Y-145796000D02*
X134874000Y-145288000D01*
X132842000Y-145796000D02*
X132842000Y-145288000D01*
X132334000Y-145796000D02*
X132334000Y-145288000D01*
X137922000Y-145796000D02*
X137922000Y-145288000D01*
X137414000Y-145796000D02*
X137414000Y-145288000D01*
X139218000Y-141732000D02*
X139218000Y-140582000D01*
X139218000Y-140582000D02*
X137668000Y-140582000D01*
X136398000Y-145796000D02*
X133858000Y-145796000D01*
X133858000Y-145796000D02*
X133858000Y-148336000D01*
X133858000Y-148336000D02*
X136398000Y-148336000D01*
X131318000Y-145796000D02*
X131318000Y-148336000D01*
X131318000Y-148336000D02*
X133858000Y-148336000D01*
X131318000Y-145796000D02*
X131318000Y-148336000D01*
X133858000Y-145796000D02*
X131318000Y-145796000D01*
X133858000Y-145796000D02*
X133858000Y-148336000D01*
X136398000Y-145796000D02*
X136398000Y-148336000D01*
X136398000Y-148336000D02*
X138938000Y-148336000D01*
X136398000Y-145796000D02*
X136398000Y-148336000D01*
X138938000Y-145796000D02*
X136398000Y-145796000D01*
X138938000Y-145796000D02*
X138938000Y-148336000D01*
X141478000Y-143256000D02*
X141478000Y-142748000D01*
X141986000Y-143256000D02*
X141986000Y-142748000D01*
X144018000Y-143256000D02*
X144018000Y-142748000D01*
X144526000Y-143256000D02*
X144526000Y-142748000D01*
X146558000Y-143256000D02*
X146558000Y-142748000D01*
X147066000Y-143256000D02*
X147066000Y-142748000D01*
X144526000Y-145796000D02*
X144526000Y-145288000D01*
X144018000Y-145796000D02*
X144018000Y-145288000D01*
X141986000Y-145796000D02*
X141986000Y-145288000D01*
X141478000Y-145796000D02*
X141478000Y-145288000D01*
X147066000Y-145796000D02*
X147066000Y-145288000D01*
X146558000Y-145796000D02*
X146558000Y-145288000D01*
X148362000Y-141732000D02*
X148362000Y-140582000D01*
X148362000Y-140582000D02*
X146812000Y-140582000D01*
X145542000Y-145796000D02*
X143002000Y-145796000D01*
X143002000Y-145796000D02*
X143002000Y-148336000D01*
X143002000Y-148336000D02*
X145542000Y-148336000D01*
X140462000Y-145796000D02*
X140462000Y-148336000D01*
X140462000Y-148336000D02*
X143002000Y-148336000D01*
X140462000Y-145796000D02*
X140462000Y-148336000D01*
X143002000Y-145796000D02*
X140462000Y-145796000D01*
X143002000Y-145796000D02*
X143002000Y-148336000D01*
X145542000Y-145796000D02*
X145542000Y-148336000D01*
X145542000Y-148336000D02*
X148082000Y-148336000D01*
X145542000Y-145796000D02*
X145542000Y-148336000D01*
X148082000Y-145796000D02*
X145542000Y-145796000D01*
X148082000Y-145796000D02*
X148082000Y-148336000D01*
X147548000Y-112076000D02*
X137948000Y-112076000D01*
X137948000Y-100076000D02*
X137948000Y-112076000D01*
X147548000Y-100076000D02*
X147548000Y-112076000D01*
X138598000Y-100076000D02*
X137948000Y-100076000D01*
X146898000Y-100076000D02*
X147548000Y-100076000D01*
X146898000Y-91076000D02*
X138598000Y-91076000D01*
X138598000Y-100076000D02*
X138598000Y-91076000D01*
X146898000Y-100076000D02*
X146898000Y-91076000D01*
X133832000Y-112076000D02*
X124232000Y-112076000D01*
X124232000Y-100076000D02*
X124232000Y-112076000D01*
X133832000Y-100076000D02*
X133832000Y-112076000D01*
X124882000Y-100076000D02*
X124232000Y-100076000D01*
X133182000Y-100076000D02*
X133832000Y-100076000D01*
X133182000Y-91076000D02*
X124882000Y-91076000D01*
X124882000Y-100076000D02*
X124882000Y-91076000D01*
X133182000Y-100076000D02*
X133182000Y-91076000D01*
X113740000Y-100156000D02*
X114340000Y-100156000D01*
X114340000Y-97656000D02*
X114340000Y-100156000D01*
X119340000Y-100156000D02*
X119340000Y-97656000D01*
X119340000Y-97656000D02*
X114340000Y-97656000D01*
X119940000Y-111656000D02*
X113740000Y-111656000D01*
X119940000Y-100156000D02*
X119940000Y-111656000D01*
X113740000Y-100156000D02*
X113740000Y-111656000D01*
X119940000Y-100156000D02*
X119340000Y-100156000D01*
X102564000Y-100156000D02*
X103164000Y-100156000D01*
X103164000Y-97656000D02*
X103164000Y-100156000D01*
X108164000Y-100156000D02*
X108164000Y-97656000D01*
X108164000Y-97656000D02*
X103164000Y-97656000D01*
X108764000Y-111656000D02*
X102564000Y-111656000D01*
X108764000Y-100156000D02*
X108764000Y-111656000D01*
X102564000Y-100156000D02*
X102564000Y-111656000D01*
X108764000Y-100156000D02*
X108164000Y-100156000D01*
X144823000Y-121955000D02*
X144823000Y-121810000D01*
X140673000Y-121955000D02*
X140673000Y-121810000D01*
X140673000Y-116805000D02*
X140673000Y-116950000D01*
X144823000Y-116805000D02*
X144823000Y-116950000D01*
X144823000Y-121955000D02*
X140673000Y-121955000D01*
X144823000Y-116805000D02*
X140673000Y-116805000D01*
X144823000Y-121810000D02*
X146223000Y-121810000D01*
X128059000Y-121955000D02*
X128059000Y-121810000D01*
X123909000Y-121955000D02*
X123909000Y-121810000D01*
X123909000Y-116805000D02*
X123909000Y-116950000D01*
X128059000Y-116805000D02*
X128059000Y-116950000D01*
X128059000Y-121955000D02*
X123909000Y-121955000D01*
X128059000Y-116805000D02*
X123909000Y-116805000D01*
X128059000Y-121810000D02*
X129459000Y-121810000D01*
X146978000Y-120912000D02*
X146978000Y-121912000D01*
X148678000Y-121912000D02*
X148678000Y-120912000D01*
X130214000Y-120912000D02*
X130214000Y-121912000D01*
X131914000Y-121912000D02*
X131914000Y-120912000D01*
X142248000Y-116166000D02*
X143248000Y-116166000D01*
X143248000Y-114466000D02*
X142248000Y-114466000D01*
X125484000Y-116166000D02*
X126484000Y-116166000D01*
X126484000Y-114466000D02*
X125484000Y-114466000D01*
X146978000Y-113800000D02*
X146978000Y-114800000D01*
X148678000Y-114800000D02*
X148678000Y-113800000D01*
X136486000Y-104640000D02*
X136486000Y-103640000D01*
X134786000Y-103640000D02*
X134786000Y-104640000D01*
X146953000Y-118456000D02*
X146953000Y-117256000D01*
X148703000Y-117256000D02*
X148703000Y-118456000D01*
X130189000Y-118456000D02*
X130189000Y-117256000D01*
X131939000Y-117256000D02*
X131939000Y-118456000D01*
X136236000Y-119239000D02*
X135036000Y-119239000D01*
X135036000Y-117489000D02*
X136236000Y-117489000D01*
X119472000Y-119239000D02*
X118272000Y-119239000D01*
X118272000Y-117489000D02*
X119472000Y-117489000D01*
X133512000Y-114441000D02*
X134712000Y-114441000D01*
X134712000Y-116191000D02*
X133512000Y-116191000D01*
X102870000Y-116586000D02*
X102870000Y-149606000D01*
X102870000Y-149606000D02*
X105410000Y-149606000D01*
X105410000Y-149606000D02*
X105410000Y-116586000D01*
X105690000Y-113766000D02*
X105690000Y-115316000D01*
X105410000Y-116586000D02*
X102870000Y-116586000D01*
X102590000Y-115316000D02*
X102590000Y-113766000D01*
X102590000Y-113766000D02*
X105690000Y-113766000D01*
X148082000Y-132842000D02*
X148082000Y-140462000D01*
X145542000Y-132842000D02*
X145542000Y-140462000D01*
X145262000Y-130022000D02*
X145262000Y-131572000D01*
X148082000Y-140462000D02*
X145542000Y-140462000D01*
X145542000Y-132842000D02*
X148082000Y-132842000D01*
X148362000Y-131572000D02*
X148362000Y-130022000D01*
X148362000Y-130022000D02*
X145262000Y-130022000D01*
D11*
X117214667Y-114153905D02*
X116948000Y-113772952D01*
X116757524Y-114153905D02*
X116757524Y-113353905D01*
X117062286Y-113353905D01*
X117138477Y-113392000D01*
X117176572Y-113430095D01*
X117214667Y-113506286D01*
X117214667Y-113620571D01*
X117176572Y-113696762D01*
X117138477Y-113734857D01*
X117062286Y-113772952D01*
X116757524Y-113772952D01*
X117900381Y-113353905D02*
X117748000Y-113353905D01*
X117671810Y-113392000D01*
X117633715Y-113430095D01*
X117557524Y-113544381D01*
X117519429Y-113696762D01*
X117519429Y-114001524D01*
X117557524Y-114077714D01*
X117595619Y-114115810D01*
X117671810Y-114153905D01*
X117824191Y-114153905D01*
X117900381Y-114115810D01*
X117938477Y-114077714D01*
X117976572Y-114001524D01*
X117976572Y-113811048D01*
X117938477Y-113734857D01*
X117900381Y-113696762D01*
X117824191Y-113658667D01*
X117671810Y-113658667D01*
X117595619Y-113696762D01*
X117557524Y-113734857D01*
X117519429Y-113811048D01*
X134537524Y-113645905D02*
X134537524Y-112845905D01*
X134728000Y-112845905D01*
X134842286Y-112884000D01*
X134918477Y-112960190D01*
X134956572Y-113036381D01*
X134994667Y-113188762D01*
X134994667Y-113303048D01*
X134956572Y-113455429D01*
X134918477Y-113531619D01*
X134842286Y-113607810D01*
X134728000Y-113645905D01*
X134537524Y-113645905D01*
X135680381Y-112845905D02*
X135528000Y-112845905D01*
X135451810Y-112884000D01*
X135413715Y-112922095D01*
X135337524Y-113036381D01*
X135299429Y-113188762D01*
X135299429Y-113493524D01*
X135337524Y-113569714D01*
X135375619Y-113607810D01*
X135451810Y-113645905D01*
X135604191Y-113645905D01*
X135680381Y-113607810D01*
X135718477Y-113569714D01*
X135756572Y-113493524D01*
X135756572Y-113303048D01*
X135718477Y-113226857D01*
X135680381Y-113188762D01*
X135604191Y-113150667D01*
X135451810Y-113150667D01*
X135375619Y-113188762D01*
X135337524Y-113226857D01*
X135299429Y-113303048D01*
X141649524Y-113645905D02*
X141649524Y-112845905D01*
X141840000Y-112845905D01*
X141954286Y-112884000D01*
X142030477Y-112960190D01*
X142068572Y-113036381D01*
X142106667Y-113188762D01*
X142106667Y-113303048D01*
X142068572Y-113455429D01*
X142030477Y-113531619D01*
X141954286Y-113607810D01*
X141840000Y-113645905D01*
X141649524Y-113645905D01*
X142830477Y-112845905D02*
X142449524Y-112845905D01*
X142411429Y-113226857D01*
X142449524Y-113188762D01*
X142525715Y-113150667D01*
X142716191Y-113150667D01*
X142792381Y-113188762D01*
X142830477Y-113226857D01*
X142868572Y-113303048D01*
X142868572Y-113493524D01*
X142830477Y-113569714D01*
X142792381Y-113607810D01*
X142716191Y-113645905D01*
X142525715Y-113645905D01*
X142449524Y-113607810D01*
X142411429Y-113569714D01*
X137585524Y-117455905D02*
X137585524Y-116655905D01*
X137776000Y-116655905D01*
X137890286Y-116694000D01*
X137966477Y-116770190D01*
X138004572Y-116846381D01*
X138042667Y-116998762D01*
X138042667Y-117113048D01*
X138004572Y-117265429D01*
X137966477Y-117341619D01*
X137890286Y-117417810D01*
X137776000Y-117455905D01*
X137585524Y-117455905D01*
X138309334Y-116655905D02*
X138804572Y-116655905D01*
X138537905Y-116960667D01*
X138652191Y-116960667D01*
X138728381Y-116998762D01*
X138766477Y-117036857D01*
X138804572Y-117113048D01*
X138804572Y-117303524D01*
X138766477Y-117379714D01*
X138728381Y-117417810D01*
X138652191Y-117455905D01*
X138423619Y-117455905D01*
X138347429Y-117417810D01*
X138309334Y-117379714D01*
X120821524Y-117201905D02*
X120821524Y-116401905D01*
X121012000Y-116401905D01*
X121126286Y-116440000D01*
X121202477Y-116516190D01*
X121240572Y-116592381D01*
X121278667Y-116744762D01*
X121278667Y-116859048D01*
X121240572Y-117011429D01*
X121202477Y-117087619D01*
X121126286Y-117163810D01*
X121012000Y-117201905D01*
X120821524Y-117201905D01*
X121964381Y-116668571D02*
X121964381Y-117201905D01*
X121773905Y-116363810D02*
X121583429Y-116935238D01*
X122078667Y-116935238D01*
X115487524Y-121265905D02*
X115487524Y-120465905D01*
X115678000Y-120465905D01*
X115792286Y-120504000D01*
X115868477Y-120580190D01*
X115906572Y-120656381D01*
X115944667Y-120808762D01*
X115944667Y-120923048D01*
X115906572Y-121075429D01*
X115868477Y-121151619D01*
X115792286Y-121227810D01*
X115678000Y-121265905D01*
X115487524Y-121265905D01*
X116249429Y-120542095D02*
X116287524Y-120504000D01*
X116363715Y-120465905D01*
X116554191Y-120465905D01*
X116630381Y-120504000D01*
X116668477Y-120542095D01*
X116706572Y-120618286D01*
X116706572Y-120694476D01*
X116668477Y-120808762D01*
X116211334Y-121265905D01*
X116706572Y-121265905D01*
X132505524Y-121265905D02*
X132505524Y-120465905D01*
X132696000Y-120465905D01*
X132810286Y-120504000D01*
X132886477Y-120580190D01*
X132924572Y-120656381D01*
X132962667Y-120808762D01*
X132962667Y-120923048D01*
X132924572Y-121075429D01*
X132886477Y-121151619D01*
X132810286Y-121227810D01*
X132696000Y-121265905D01*
X132505524Y-121265905D01*
X133724572Y-121265905D02*
X133267429Y-121265905D01*
X133496000Y-121265905D02*
X133496000Y-120465905D01*
X133419810Y-120580190D01*
X133343619Y-120656381D01*
X133267429Y-120694476D01*
X134156571Y-147173905D02*
X134156571Y-146373905D01*
X134461333Y-146373905D01*
X134537524Y-146412000D01*
X134575619Y-146450095D01*
X134613714Y-146526286D01*
X134613714Y-146640571D01*
X134575619Y-146716762D01*
X134537524Y-146754857D01*
X134461333Y-146792952D01*
X134156571Y-146792952D01*
X135375619Y-147173905D02*
X134918476Y-147173905D01*
X135147047Y-147173905D02*
X135147047Y-146373905D01*
X135070857Y-146488190D01*
X134994666Y-146564381D01*
X134918476Y-146602476D01*
X136137524Y-147173905D02*
X135680381Y-147173905D01*
X135908952Y-147173905D02*
X135908952Y-146373905D01*
X135832762Y-146488190D01*
X135756571Y-146564381D01*
X135680381Y-146602476D01*
X143300571Y-147173905D02*
X143300571Y-146373905D01*
X143605333Y-146373905D01*
X143681524Y-146412000D01*
X143719619Y-146450095D01*
X143757714Y-146526286D01*
X143757714Y-146640571D01*
X143719619Y-146716762D01*
X143681524Y-146754857D01*
X143605333Y-146792952D01*
X143300571Y-146792952D01*
X144519619Y-147173905D02*
X144062476Y-147173905D01*
X144291047Y-147173905D02*
X144291047Y-146373905D01*
X144214857Y-146488190D01*
X144138666Y-146564381D01*
X144062476Y-146602476D01*
X145014857Y-146373905D02*
X145091048Y-146373905D01*
X145167238Y-146412000D01*
X145205333Y-146450095D01*
X145243429Y-146526286D01*
X145281524Y-146678667D01*
X145281524Y-146869143D01*
X145243429Y-147021524D01*
X145205333Y-147097714D01*
X145167238Y-147135810D01*
X145091048Y-147173905D01*
X145014857Y-147173905D01*
X144938667Y-147135810D01*
X144900571Y-147097714D01*
X144862476Y-147021524D01*
X144824381Y-146869143D01*
X144824381Y-146678667D01*
X144862476Y-146526286D01*
X144900571Y-146450095D01*
X144938667Y-146412000D01*
X145014857Y-146373905D01*
X137521905Y-106762476D02*
X136721905Y-106762476D01*
X136721905Y-106457714D01*
X136760000Y-106381523D01*
X136798095Y-106343428D01*
X136874286Y-106305333D01*
X136988571Y-106305333D01*
X137064762Y-106343428D01*
X137102857Y-106381523D01*
X137140952Y-106457714D01*
X137140952Y-106762476D01*
X136721905Y-105581523D02*
X136721905Y-105962476D01*
X137102857Y-106000571D01*
X137064762Y-105962476D01*
X137026667Y-105886285D01*
X137026667Y-105695809D01*
X137064762Y-105619619D01*
X137102857Y-105581523D01*
X137179048Y-105543428D01*
X137369524Y-105543428D01*
X137445714Y-105581523D01*
X137483810Y-105619619D01*
X137521905Y-105695809D01*
X137521905Y-105886285D01*
X137483810Y-105962476D01*
X137445714Y-106000571D01*
X123805905Y-106762476D02*
X123005905Y-106762476D01*
X123005905Y-106457714D01*
X123044000Y-106381523D01*
X123082095Y-106343428D01*
X123158286Y-106305333D01*
X123272571Y-106305333D01*
X123348762Y-106343428D01*
X123386857Y-106381523D01*
X123424952Y-106457714D01*
X123424952Y-106762476D01*
X123005905Y-105619619D02*
X123005905Y-105772000D01*
X123044000Y-105848190D01*
X123082095Y-105886285D01*
X123196381Y-105962476D01*
X123348762Y-106000571D01*
X123653524Y-106000571D01*
X123729714Y-105962476D01*
X123767810Y-105924381D01*
X123805905Y-105848190D01*
X123805905Y-105695809D01*
X123767810Y-105619619D01*
X123729714Y-105581523D01*
X123653524Y-105543428D01*
X123463048Y-105543428D01*
X123386857Y-105581523D01*
X123348762Y-105619619D01*
X123310667Y-105695809D01*
X123310667Y-105848190D01*
X123348762Y-105924381D01*
X123386857Y-105962476D01*
X123463048Y-106000571D01*
X116249524Y-112629905D02*
X116249524Y-111829905D01*
X116554286Y-111829905D01*
X116630477Y-111868000D01*
X116668572Y-111906095D01*
X116706667Y-111982286D01*
X116706667Y-112096571D01*
X116668572Y-112172762D01*
X116630477Y-112210857D01*
X116554286Y-112248952D01*
X116249524Y-112248952D01*
X117392381Y-112096571D02*
X117392381Y-112629905D01*
X117201905Y-111791810D02*
X117011429Y-112363238D01*
X117506667Y-112363238D01*
D13*
X115768572Y-110768381D02*
X115768572Y-109768381D01*
X116101906Y-110482667D01*
X116435239Y-109768381D01*
X116435239Y-110768381D01*
X116911429Y-110768381D02*
X116911429Y-109768381D01*
X117387619Y-110768381D02*
X117387619Y-109768381D01*
X117625714Y-109768381D01*
X117768572Y-109816000D01*
X117863810Y-109911238D01*
X117911429Y-110006476D01*
X117959048Y-110196952D01*
X117959048Y-110339810D01*
X117911429Y-110530286D01*
X117863810Y-110625524D01*
X117768572Y-110720762D01*
X117625714Y-110768381D01*
X117387619Y-110768381D01*
X115816191Y-104608381D02*
X116387620Y-104608381D01*
X116101905Y-105608381D02*
X116101905Y-104608381D01*
X116720953Y-105608381D02*
X116720953Y-104608381D01*
X117197143Y-105608381D02*
X117197143Y-104608381D01*
X117578096Y-104608381D01*
X117673334Y-104656000D01*
X117720953Y-104703619D01*
X117768572Y-104798857D01*
X117768572Y-104941714D01*
X117720953Y-105036952D01*
X117673334Y-105084571D01*
X117578096Y-105132190D01*
X117197143Y-105132190D01*
X115840000Y-100508381D02*
X116030477Y-100508381D01*
X116125715Y-100556000D01*
X116220953Y-100651238D01*
X116268572Y-100841714D01*
X116268572Y-101175048D01*
X116220953Y-101365524D01*
X116125715Y-101460762D01*
X116030477Y-101508381D01*
X115840000Y-101508381D01*
X115744762Y-101460762D01*
X115649524Y-101365524D01*
X115601905Y-101175048D01*
X115601905Y-100841714D01*
X115649524Y-100651238D01*
X115744762Y-100556000D01*
X115840000Y-100508381D01*
X116697143Y-100508381D02*
X116697143Y-101317905D01*
X116744762Y-101413143D01*
X116792381Y-101460762D01*
X116887619Y-101508381D01*
X117078096Y-101508381D01*
X117173334Y-101460762D01*
X117220953Y-101413143D01*
X117268572Y-101317905D01*
X117268572Y-100508381D01*
X117601905Y-100508381D02*
X118173334Y-100508381D01*
X117887619Y-101508381D02*
X117887619Y-100508381D01*
D11*
X105073524Y-112629905D02*
X105073524Y-111829905D01*
X105378286Y-111829905D01*
X105454477Y-111868000D01*
X105492572Y-111906095D01*
X105530667Y-111982286D01*
X105530667Y-112096571D01*
X105492572Y-112172762D01*
X105454477Y-112210857D01*
X105378286Y-112248952D01*
X105073524Y-112248952D01*
X105797334Y-111829905D02*
X106292572Y-111829905D01*
X106025905Y-112134667D01*
X106140191Y-112134667D01*
X106216381Y-112172762D01*
X106254477Y-112210857D01*
X106292572Y-112287048D01*
X106292572Y-112477524D01*
X106254477Y-112553714D01*
X106216381Y-112591810D01*
X106140191Y-112629905D01*
X105911619Y-112629905D01*
X105835429Y-112591810D01*
X105797334Y-112553714D01*
D13*
X104592572Y-110768381D02*
X104592572Y-109768381D01*
X104925906Y-110482667D01*
X105259239Y-109768381D01*
X105259239Y-110768381D01*
X105735429Y-110768381D02*
X105735429Y-109768381D01*
X106211619Y-110768381D02*
X106211619Y-109768381D01*
X106449714Y-109768381D01*
X106592572Y-109816000D01*
X106687810Y-109911238D01*
X106735429Y-110006476D01*
X106783048Y-110196952D01*
X106783048Y-110339810D01*
X106735429Y-110530286D01*
X106687810Y-110625524D01*
X106592572Y-110720762D01*
X106449714Y-110768381D01*
X106211619Y-110768381D01*
X104640191Y-104608381D02*
X105211620Y-104608381D01*
X104925905Y-105608381D02*
X104925905Y-104608381D01*
X105544953Y-105608381D02*
X105544953Y-104608381D01*
X106021143Y-105608381D02*
X106021143Y-104608381D01*
X106402096Y-104608381D01*
X106497334Y-104656000D01*
X106544953Y-104703619D01*
X106592572Y-104798857D01*
X106592572Y-104941714D01*
X106544953Y-105036952D01*
X106497334Y-105084571D01*
X106402096Y-105132190D01*
X106021143Y-105132190D01*
X104664000Y-100508381D02*
X104854477Y-100508381D01*
X104949715Y-100556000D01*
X105044953Y-100651238D01*
X105092572Y-100841714D01*
X105092572Y-101175048D01*
X105044953Y-101365524D01*
X104949715Y-101460762D01*
X104854477Y-101508381D01*
X104664000Y-101508381D01*
X104568762Y-101460762D01*
X104473524Y-101365524D01*
X104425905Y-101175048D01*
X104425905Y-100841714D01*
X104473524Y-100651238D01*
X104568762Y-100556000D01*
X104664000Y-100508381D01*
X105521143Y-100508381D02*
X105521143Y-101317905D01*
X105568762Y-101413143D01*
X105616381Y-101460762D01*
X105711619Y-101508381D01*
X105902096Y-101508381D01*
X105997334Y-101460762D01*
X106044953Y-101413143D01*
X106092572Y-101317905D01*
X106092572Y-100508381D01*
X106425905Y-100508381D02*
X106997334Y-100508381D01*
X106711619Y-101508381D02*
X106711619Y-100508381D01*
D11*
X143154476Y-122243905D02*
X143154476Y-122891524D01*
X143192571Y-122967714D01*
X143230667Y-123005810D01*
X143306857Y-123043905D01*
X143459238Y-123043905D01*
X143535429Y-123005810D01*
X143573524Y-122967714D01*
X143611619Y-122891524D01*
X143611619Y-122243905D01*
X144411619Y-123043905D02*
X143954476Y-123043905D01*
X144183047Y-123043905D02*
X144183047Y-122243905D01*
X144106857Y-122358190D01*
X144030666Y-122434381D01*
X143954476Y-122472476D01*
X126390476Y-122243905D02*
X126390476Y-122891524D01*
X126428571Y-122967714D01*
X126466667Y-123005810D01*
X126542857Y-123043905D01*
X126695238Y-123043905D01*
X126771429Y-123005810D01*
X126809524Y-122967714D01*
X126847619Y-122891524D01*
X126847619Y-122243905D01*
X127190476Y-122320095D02*
X127228571Y-122282000D01*
X127304762Y-122243905D01*
X127495238Y-122243905D01*
X127571428Y-122282000D01*
X127609524Y-122320095D01*
X127647619Y-122396286D01*
X127647619Y-122472476D01*
X127609524Y-122586762D01*
X127152381Y-123043905D01*
X127647619Y-123043905D01*
X149637714Y-121545333D02*
X149675810Y-121583428D01*
X149713905Y-121697714D01*
X149713905Y-121773904D01*
X149675810Y-121888190D01*
X149599619Y-121964381D01*
X149523429Y-122002476D01*
X149371048Y-122040571D01*
X149256762Y-122040571D01*
X149104381Y-122002476D01*
X149028190Y-121964381D01*
X148952000Y-121888190D01*
X148913905Y-121773904D01*
X148913905Y-121697714D01*
X148952000Y-121583428D01*
X148990095Y-121545333D01*
X149713905Y-120783428D02*
X149713905Y-121240571D01*
X149713905Y-121012000D02*
X148913905Y-121012000D01*
X149028190Y-121088190D01*
X149104381Y-121164381D01*
X149142476Y-121240571D01*
X130930667Y-123983714D02*
X130892572Y-124021810D01*
X130778286Y-124059905D01*
X130702096Y-124059905D01*
X130587810Y-124021810D01*
X130511619Y-123945619D01*
X130473524Y-123869429D01*
X130435429Y-123717048D01*
X130435429Y-123602762D01*
X130473524Y-123450381D01*
X130511619Y-123374190D01*
X130587810Y-123298000D01*
X130702096Y-123259905D01*
X130778286Y-123259905D01*
X130892572Y-123298000D01*
X130930667Y-123336095D01*
X131235429Y-123336095D02*
X131273524Y-123298000D01*
X131349715Y-123259905D01*
X131540191Y-123259905D01*
X131616381Y-123298000D01*
X131654477Y-123336095D01*
X131692572Y-123412286D01*
X131692572Y-123488476D01*
X131654477Y-123602762D01*
X131197334Y-124059905D01*
X131692572Y-124059905D01*
X145154667Y-116363714D02*
X145116572Y-116401810D01*
X145002286Y-116439905D01*
X144926096Y-116439905D01*
X144811810Y-116401810D01*
X144735619Y-116325619D01*
X144697524Y-116249429D01*
X144659429Y-116097048D01*
X144659429Y-115982762D01*
X144697524Y-115830381D01*
X144735619Y-115754190D01*
X144811810Y-115678000D01*
X144926096Y-115639905D01*
X145002286Y-115639905D01*
X145116572Y-115678000D01*
X145154667Y-115716095D01*
X145421334Y-115639905D02*
X145916572Y-115639905D01*
X145649905Y-115944667D01*
X145764191Y-115944667D01*
X145840381Y-115982762D01*
X145878477Y-116020857D01*
X145916572Y-116097048D01*
X145916572Y-116287524D01*
X145878477Y-116363714D01*
X145840381Y-116401810D01*
X145764191Y-116439905D01*
X145535619Y-116439905D01*
X145459429Y-116401810D01*
X145421334Y-116363714D01*
X128390667Y-115601714D02*
X128352572Y-115639810D01*
X128238286Y-115677905D01*
X128162096Y-115677905D01*
X128047810Y-115639810D01*
X127971619Y-115563619D01*
X127933524Y-115487429D01*
X127895429Y-115335048D01*
X127895429Y-115220762D01*
X127933524Y-115068381D01*
X127971619Y-114992190D01*
X128047810Y-114916000D01*
X128162096Y-114877905D01*
X128238286Y-114877905D01*
X128352572Y-114916000D01*
X128390667Y-114954095D01*
X129076381Y-115144571D02*
X129076381Y-115677905D01*
X128885905Y-114839810D02*
X128695429Y-115411238D01*
X129190667Y-115411238D01*
X149637714Y-114433333D02*
X149675810Y-114471428D01*
X149713905Y-114585714D01*
X149713905Y-114661904D01*
X149675810Y-114776190D01*
X149599619Y-114852381D01*
X149523429Y-114890476D01*
X149371048Y-114928571D01*
X149256762Y-114928571D01*
X149104381Y-114890476D01*
X149028190Y-114852381D01*
X148952000Y-114776190D01*
X148913905Y-114661904D01*
X148913905Y-114585714D01*
X148952000Y-114471428D01*
X148990095Y-114433333D01*
X148913905Y-113709523D02*
X148913905Y-114090476D01*
X149294857Y-114128571D01*
X149256762Y-114090476D01*
X149218667Y-114014285D01*
X149218667Y-113823809D01*
X149256762Y-113747619D01*
X149294857Y-113709523D01*
X149371048Y-113671428D01*
X149561524Y-113671428D01*
X149637714Y-113709523D01*
X149675810Y-113747619D01*
X149713905Y-113823809D01*
X149713905Y-114014285D01*
X149675810Y-114090476D01*
X149637714Y-114128571D01*
X135502667Y-101377714D02*
X135464572Y-101415810D01*
X135350286Y-101453905D01*
X135274096Y-101453905D01*
X135159810Y-101415810D01*
X135083619Y-101339619D01*
X135045524Y-101263429D01*
X135007429Y-101111048D01*
X135007429Y-100996762D01*
X135045524Y-100844381D01*
X135083619Y-100768190D01*
X135159810Y-100692000D01*
X135274096Y-100653905D01*
X135350286Y-100653905D01*
X135464572Y-100692000D01*
X135502667Y-100730095D01*
X136188381Y-100653905D02*
X136036000Y-100653905D01*
X135959810Y-100692000D01*
X135921715Y-100730095D01*
X135845524Y-100844381D01*
X135807429Y-100996762D01*
X135807429Y-101301524D01*
X135845524Y-101377714D01*
X135883619Y-101415810D01*
X135959810Y-101453905D01*
X136112191Y-101453905D01*
X136188381Y-101415810D01*
X136226477Y-101377714D01*
X136264572Y-101301524D01*
X136264572Y-101111048D01*
X136226477Y-101034857D01*
X136188381Y-100996762D01*
X136112191Y-100958667D01*
X135959810Y-100958667D01*
X135883619Y-100996762D01*
X135845524Y-101034857D01*
X135807429Y-101111048D01*
X149713905Y-117989333D02*
X149332952Y-118256000D01*
X149713905Y-118446476D02*
X148913905Y-118446476D01*
X148913905Y-118141714D01*
X148952000Y-118065523D01*
X148990095Y-118027428D01*
X149066286Y-117989333D01*
X149180571Y-117989333D01*
X149256762Y-118027428D01*
X149294857Y-118065523D01*
X149332952Y-118141714D01*
X149332952Y-118446476D01*
X149713905Y-117227428D02*
X149713905Y-117684571D01*
X149713905Y-117456000D02*
X148913905Y-117456000D01*
X149028190Y-117532190D01*
X149104381Y-117608381D01*
X149142476Y-117684571D01*
X132949905Y-117989333D02*
X132568952Y-118256000D01*
X132949905Y-118446476D02*
X132149905Y-118446476D01*
X132149905Y-118141714D01*
X132188000Y-118065523D01*
X132226095Y-118027428D01*
X132302286Y-117989333D01*
X132416571Y-117989333D01*
X132492762Y-118027428D01*
X132530857Y-118065523D01*
X132568952Y-118141714D01*
X132568952Y-118446476D01*
X132226095Y-117684571D02*
X132188000Y-117646476D01*
X132149905Y-117570285D01*
X132149905Y-117379809D01*
X132188000Y-117303619D01*
X132226095Y-117265523D01*
X132302286Y-117227428D01*
X132378476Y-117227428D01*
X132492762Y-117265523D01*
X132949905Y-117722666D01*
X132949905Y-117227428D01*
X133965905Y-118497333D02*
X133584952Y-118764000D01*
X133965905Y-118954476D02*
X133165905Y-118954476D01*
X133165905Y-118649714D01*
X133204000Y-118573523D01*
X133242095Y-118535428D01*
X133318286Y-118497333D01*
X133432571Y-118497333D01*
X133508762Y-118535428D01*
X133546857Y-118573523D01*
X133584952Y-118649714D01*
X133584952Y-118954476D01*
X133165905Y-118230666D02*
X133165905Y-117735428D01*
X133470667Y-118002095D01*
X133470667Y-117887809D01*
X133508762Y-117811619D01*
X133546857Y-117773523D01*
X133623048Y-117735428D01*
X133813524Y-117735428D01*
X133889714Y-117773523D01*
X133927810Y-117811619D01*
X133965905Y-117887809D01*
X133965905Y-118116381D01*
X133927810Y-118192571D01*
X133889714Y-118230666D01*
X115944667Y-118725905D02*
X115678000Y-118344952D01*
X115487524Y-118725905D02*
X115487524Y-117925905D01*
X115792286Y-117925905D01*
X115868477Y-117964000D01*
X115906572Y-118002095D01*
X115944667Y-118078286D01*
X115944667Y-118192571D01*
X115906572Y-118268762D01*
X115868477Y-118306857D01*
X115792286Y-118344952D01*
X115487524Y-118344952D01*
X116630381Y-118192571D02*
X116630381Y-118725905D01*
X116439905Y-117887810D02*
X116249429Y-118459238D01*
X116744667Y-118459238D01*
X130930667Y-115677905D02*
X130664000Y-115296952D01*
X130473524Y-115677905D02*
X130473524Y-114877905D01*
X130778286Y-114877905D01*
X130854477Y-114916000D01*
X130892572Y-114954095D01*
X130930667Y-115030286D01*
X130930667Y-115144571D01*
X130892572Y-115220762D01*
X130854477Y-115258857D01*
X130778286Y-115296952D01*
X130473524Y-115296952D01*
X131654477Y-114877905D02*
X131273524Y-114877905D01*
X131235429Y-115258857D01*
X131273524Y-115220762D01*
X131349715Y-115182667D01*
X131540191Y-115182667D01*
X131616381Y-115220762D01*
X131654477Y-115258857D01*
X131692572Y-115335048D01*
X131692572Y-115525524D01*
X131654477Y-115601714D01*
X131616381Y-115639810D01*
X131540191Y-115677905D01*
X131349715Y-115677905D01*
X131273524Y-115639810D01*
X131235429Y-115601714D01*
X103041524Y-113391905D02*
X103041524Y-112591905D01*
X103346286Y-112591905D01*
X103422477Y-112630000D01*
X103460572Y-112668095D01*
X103498667Y-112744286D01*
X103498667Y-112858571D01*
X103460572Y-112934762D01*
X103422477Y-112972857D01*
X103346286Y-113010952D01*
X103041524Y-113010952D01*
X104260572Y-113391905D02*
X103803429Y-113391905D01*
X104032000Y-113391905D02*
X104032000Y-112591905D01*
X103955810Y-112706190D01*
X103879619Y-112782381D01*
X103803429Y-112820476D01*
X146221524Y-129393905D02*
X146221524Y-128593905D01*
X146526286Y-128593905D01*
X146602477Y-128632000D01*
X146640572Y-128670095D01*
X146678667Y-128746286D01*
X146678667Y-128860571D01*
X146640572Y-128936762D01*
X146602477Y-128974857D01*
X146526286Y-129012952D01*
X146221524Y-129012952D01*
X147059619Y-129393905D02*
X147212000Y-129393905D01*
X147288191Y-129355810D01*
X147326286Y-129317714D01*
X147402477Y-129203429D01*
X147440572Y-129051048D01*
X147440572Y-128746286D01*
X147402477Y-128670095D01*
X147364381Y-128632000D01*
X147288191Y-128593905D01*
X147135810Y-128593905D01*
X147059619Y-128632000D01*
X147021524Y-128670095D01*
X146983429Y-128746286D01*
X146983429Y-128936762D01*
X147021524Y-129012952D01*
X147059619Y-129051048D01*
X147135810Y-129089143D01*
X147288191Y-129089143D01*
X147364381Y-129051048D01*
X147402477Y-129012952D01*
X147440572Y-128936762D01*
M02*
