G04 #@! TF.FileFunction,Soldermask,Top*
%FSLAX46Y46*%
G04 Gerber Fmt 4.6, Leading zero omitted, Abs format (unit mm)*
G04 Created by KiCad (PCBNEW 4.0.2-4+6225~38~ubuntu14.04.1-stable) date Mon 29 Feb 2016 18:52:31 GMT*
%MOMM*%
G01*
G04 APERTURE LIST*
%ADD10C,0.100000*%
%ADD11R,0.700000X1.300000*%
%ADD12R,1.000000X1.000000*%
%ADD13R,1.597660X1.800860*%
%ADD14R,1.727200X1.727200*%
%ADD15O,1.727200X1.727200*%
%ADD16C,1.500000*%
%ADD17O,3.000000X4.000000*%
%ADD18O,5.000000X3.500000*%
%ADD19C,1.700000*%
%ADD20R,2.850000X2.000000*%
%ADD21R,1.550000X0.600000*%
%ADD22R,1.250000X1.000000*%
%ADD23R,1.000000X1.250000*%
%ADD24R,1.300000X0.700000*%
%ADD25R,2.032000X1.727200*%
%ADD26O,2.032000X1.727200*%
G04 APERTURE END LIST*
D10*
D11*
X118298000Y-115316000D03*
X116398000Y-115316000D03*
D12*
X133643000Y-113284000D03*
X131533000Y-113284000D03*
X145835000Y-113284000D03*
X143725000Y-113284000D03*
D13*
X136756140Y-115316000D03*
X139595860Y-115316000D03*
X119992140Y-115316000D03*
X122831860Y-115316000D03*
X117960140Y-120904000D03*
X120799860Y-120904000D03*
X134724140Y-120904000D03*
X137563860Y-120904000D03*
D14*
X137668000Y-141732000D03*
D15*
X137668000Y-144272000D03*
X135128000Y-141732000D03*
X135128000Y-144272000D03*
X132588000Y-141732000D03*
X132588000Y-144272000D03*
D14*
X146812000Y-141732000D03*
D15*
X146812000Y-144272000D03*
X144272000Y-141732000D03*
X144272000Y-144272000D03*
X141732000Y-141732000D03*
X141732000Y-144272000D03*
D16*
X145998000Y-111176000D03*
X139498000Y-111176000D03*
X145998000Y-105176000D03*
X139498000Y-105276000D03*
X145998000Y-101176000D03*
X139498000Y-101176000D03*
D17*
X147748000Y-109276000D03*
X137748000Y-109276000D03*
D18*
X142748000Y-105376000D03*
D16*
X132282000Y-111176000D03*
X125782000Y-111176000D03*
X132282000Y-105176000D03*
X125782000Y-105276000D03*
X132282000Y-101176000D03*
X125782000Y-101176000D03*
D17*
X134032000Y-109276000D03*
X124032000Y-109276000D03*
D18*
X129032000Y-105376000D03*
D19*
X116840000Y-108656000D03*
X116840000Y-102656000D03*
D20*
X120165000Y-101956000D03*
X120165000Y-105156000D03*
X120165000Y-108656000D03*
X113515000Y-101956000D03*
X113515000Y-105156000D03*
X113515000Y-108656000D03*
D19*
X105664000Y-108656000D03*
X105664000Y-102656000D03*
D20*
X108989000Y-101956000D03*
X108989000Y-105156000D03*
X108989000Y-108656000D03*
X102339000Y-101956000D03*
X102339000Y-105156000D03*
X102339000Y-108656000D03*
D21*
X145448000Y-121285000D03*
X145448000Y-120015000D03*
X145448000Y-118745000D03*
X145448000Y-117475000D03*
X140048000Y-117475000D03*
X140048000Y-118745000D03*
X140048000Y-120015000D03*
X140048000Y-121285000D03*
X128684000Y-121285000D03*
X128684000Y-120015000D03*
X128684000Y-118745000D03*
X128684000Y-117475000D03*
X123284000Y-117475000D03*
X123284000Y-118745000D03*
X123284000Y-120015000D03*
X123284000Y-121285000D03*
D22*
X147828000Y-122412000D03*
X147828000Y-120412000D03*
X131064000Y-122412000D03*
X131064000Y-120412000D03*
D23*
X143748000Y-115316000D03*
X141748000Y-115316000D03*
X126984000Y-115316000D03*
X124984000Y-115316000D03*
D22*
X147828000Y-115300000D03*
X147828000Y-113300000D03*
X135636000Y-103140000D03*
X135636000Y-105140000D03*
D24*
X147828000Y-116906000D03*
X147828000Y-118806000D03*
X131064000Y-116906000D03*
X131064000Y-118806000D03*
D11*
X134686000Y-118364000D03*
X136586000Y-118364000D03*
X117922000Y-118364000D03*
X119822000Y-118364000D03*
X135062000Y-115316000D03*
X133162000Y-115316000D03*
D25*
X104140000Y-115316000D03*
D26*
X104140000Y-117856000D03*
X104140000Y-120396000D03*
X104140000Y-122936000D03*
X104140000Y-125476000D03*
X104140000Y-128016000D03*
X104140000Y-130556000D03*
X104140000Y-133096000D03*
X104140000Y-135636000D03*
X104140000Y-138176000D03*
X104140000Y-140716000D03*
X104140000Y-143256000D03*
X104140000Y-145796000D03*
X104140000Y-148336000D03*
D25*
X106680000Y-115316000D03*
D26*
X106680000Y-117856000D03*
X106680000Y-120396000D03*
X106680000Y-122936000D03*
X106680000Y-125476000D03*
X106680000Y-128016000D03*
X106680000Y-130556000D03*
X106680000Y-133096000D03*
X106680000Y-135636000D03*
X106680000Y-138176000D03*
X106680000Y-140716000D03*
X106680000Y-143256000D03*
X106680000Y-145796000D03*
X106680000Y-148336000D03*
D25*
X111760000Y-131572000D03*
D26*
X111760000Y-129032000D03*
X111760000Y-126492000D03*
X111760000Y-123952000D03*
X111760000Y-121412000D03*
X111760000Y-118872000D03*
D25*
X144272000Y-131572000D03*
D26*
X144272000Y-134112000D03*
X144272000Y-136652000D03*
X144272000Y-139192000D03*
D25*
X146812000Y-131572000D03*
D26*
X146812000Y-134112000D03*
X146812000Y-136652000D03*
X146812000Y-139192000D03*
M02*
